<svg width="25" height="25" viewBox="0 0 25 25" fill="none" xmlns="http://www.w3.org/2000/svg">
<path fill-rule="evenodd" clip-rule="evenodd" d="M12.5503 23.9082H12.5453C10.5454 23.9075 8.58019 23.4057 6.83479 22.4537L0.500015 24.1154L2.19531 17.9232C1.14957 16.1109 0.599306 14.0552 0.600203 11.9491C0.602824 5.3604 5.96352 0 12.5501 0C15.7469 0.00137967 18.7472 1.24585 21.0033 3.50462C23.2595 5.76327 24.5013 8.76557 24.5 11.9585C24.4974 18.5457 19.1388 23.9055 12.5503 23.9082ZM7.12816 20.2905L7.49085 20.5058C9.0158 21.4107 10.7638 21.8895 12.5461 21.8902H12.5501C18.0245 21.8902 22.48 17.4346 22.4822 11.958C22.4832 9.30405 21.4511 6.80867 19.5759 4.93127C17.7007 3.05387 15.2069 2.01945 12.554 2.01853C7.07546 2.01853 2.61984 6.47375 2.61767 11.9499C2.6169 13.8267 3.142 15.6544 4.13624 17.2357L4.37239 17.6115L3.36902 21.2766L7.12816 20.2905ZM18.1611 14.5315C18.3693 14.6322 18.5099 14.7001 18.57 14.8004C18.6446 14.9249 18.6446 15.5227 18.3959 16.2203C18.147 16.9177 16.9542 17.5543 16.3804 17.64C15.866 17.7169 15.2151 17.749 14.4998 17.5217C14.0661 17.3841 13.51 17.2003 12.7976 16.8927C9.99845 15.684 8.10678 12.971 7.74926 12.4583C7.72422 12.4223 7.7067 12.3972 7.69693 12.3842L7.69452 12.3809C7.53651 12.1701 6.47773 10.7574 6.47773 9.2954C6.47773 7.92004 7.15333 7.19914 7.4643 6.86731C7.48561 6.84457 7.5052 6.82367 7.52275 6.8045C7.79644 6.50557 8.11994 6.43084 8.31898 6.43084C8.51801 6.43084 8.71728 6.43267 8.89125 6.44141C8.91271 6.44249 8.93504 6.44236 8.95812 6.44222C9.13212 6.4412 9.34905 6.43993 9.56305 6.95396C9.64538 7.15179 9.76584 7.44506 9.89289 7.75438C10.1498 8.37988 10.4337 9.07099 10.4836 9.171C10.5583 9.32046 10.6081 9.49476 10.5085 9.69412C10.4936 9.72401 10.4798 9.75222 10.4666 9.77917C10.3918 9.93179 10.3368 10.0441 10.21 10.1922C10.1601 10.2504 10.1085 10.3132 10.0569 10.376C9.95422 10.5011 9.85151 10.6262 9.76207 10.7153C9.61259 10.8642 9.45698 11.0257 9.63116 11.3247C9.80533 11.6236 10.4046 12.6013 11.2922 13.3931C12.2464 14.2442 13.0757 14.6039 13.496 14.7862C13.5781 14.8218 13.6446 14.8507 13.6934 14.8751C13.9919 15.0246 14.1661 14.9996 14.3402 14.8004C14.5144 14.6011 15.0866 13.9285 15.2857 13.6296C15.4847 13.3308 15.6838 13.3806 15.9575 13.4802C16.2312 13.5799 17.6992 14.3022 17.9978 14.4516C18.0561 14.4808 18.1106 14.5071 18.1611 14.5315Z" fill="#FDFDFD"/>
</svg>
