<svg width="50" height="50" viewBox="0 0 50 50" fill="none" xmlns="http://www.w3.org/2000/svg">
<g clip-path="url(#clip0)">
<path d="M0 20.0001H3.33333V38.3334H6.66667V16.6667H0V20.0001Z" fill="#C74343"/>
<path d="M3.33333 15.0001H8.33333V38.3334H11.6667V11.6667H3.33333V15.0001ZM18.3333 25.0001C18.3333 19.4851 22.8183 15.0001 28.3333 15.0001C33.8483 15.0001 38.3333 19.4851 38.3333 25.0001H41.6667C41.6667 17.6484 35.685 11.6667 28.3333 11.6667C20.9817 11.6667 15 17.6484 15 25.0001C15 32.3517 20.9817 38.3334 28.3333 38.3334H50V35.0001H28.3333C22.8183 35.0001 18.3333 30.5151 18.3333 25.0001Z" fill="#C74343"/>
<path d="M28.3333 28.3333C26.495 28.3333 25 26.8383 25 24.9999C25 23.1616 26.495 21.6666 28.3333 21.6666C30.1717 21.6666 31.6667 23.1616 31.6667 24.9999H35C35 21.3233 32.01 18.3333 28.3333 18.3333C24.6567 18.3333 21.6667 21.3233 21.6667 24.9999C21.6667 28.6766 24.6567 31.6666 28.3333 31.6666H50V28.3333H28.3333Z" fill="#C74343"/>
</g>
<defs>
<clipPath id="clip0">
<rect width="50" height="50" fill="white"/>
</clipPath>
</defs>
</svg>
