<svg width="50" height="50" viewBox="0 0 50 50" fill="none" xmlns="http://www.w3.org/2000/svg">
<g clip-path="url(#clip0)">
<path d="M29.2758 44.5826C29.2758 45.416 28.6002 46.0917 27.7667 46.0917H1.50908C0.675586 46.0917 0 45.4161 0 44.5826V9.16997L29.2758 7.66089V44.5826Z" fill="#EDEBED"/>
<path d="M31.992 9.17017V44.5828C31.992 45.4158 31.3159 46.0918 30.4829 46.0918H27.4647C28.2977 46.0918 28.9738 45.4158 28.9738 44.5828V42.5705L20.8752 29.3411L28.9738 9.17017H31.992Z" fill="#DBD9DC"/>
<path d="M29.2758 9.16992H28.9739L15.3924 11.4977L3.01816 9.16992H0V5.1458C0 4.3124 0.675586 3.63672 1.50908 3.63672H27.7667C28.6001 3.63672 29.2758 4.31231 29.2758 5.1458V9.16992Z" fill="#C3AFF0"/>
<path d="M31.9921 5.14604V9.17016H28.9739V5.14604C28.9739 4.31206 28.2979 3.63696 27.4648 3.63696H30.483C31.316 3.63696 31.9921 4.31196 31.9921 5.14604Z" fill="#A69DED"/>
<path d="M28.9741 42.5705C28.9741 42.8483 28.7489 43.0735 28.4711 43.0735H3.52126C3.24343 43.0735 3.01823 42.8483 3.01823 42.5705V9.16992H28.9741V42.5705Z" fill="white"/>
<path d="M20.7748 20.4377H6.53924C6.2614 20.4377 6.03621 20.2125 6.03621 19.9347V12.6913C6.03621 12.4134 6.2614 12.1882 6.53924 12.1882H25.4528C25.7306 12.1882 25.9558 12.4134 25.9558 12.6913V16.2125L20.7748 20.4377Z" fill="#BDE4FF"/>
<path d="M14.6379 30.2463H6.03626C5.61956 30.2463 5.28177 29.9085 5.28177 29.4918C5.28177 29.0751 5.61956 28.7373 6.03626 28.7373H14.6379C15.0546 28.7373 15.3924 29.0751 15.3924 29.4918C15.3924 29.9085 15.0546 30.2463 14.6379 30.2463Z" fill="#DBD9DC"/>
<path d="M14.6379 27.2285H6.03626C5.61956 27.2285 5.28177 26.8907 5.28177 26.474C5.28177 26.0572 5.61956 25.7195 6.03626 25.7195H14.6379C15.0546 25.7195 15.3924 26.0573 15.3924 26.474C15.3924 26.8907 15.0546 27.2285 14.6379 27.2285Z" fill="#DBD9DC"/>
<path d="M15.644 24.2102H6.03626C5.61956 24.2102 5.28177 23.8724 5.28177 23.4557C5.28177 23.039 5.61956 22.7012 6.03626 22.7012H15.644C16.0607 22.7012 16.3985 23.039 16.3985 23.4557C16.3985 23.8724 16.0607 24.2102 15.644 24.2102Z" fill="#DBD9DC"/>
<path d="M6.03626 40.8101C5.61956 40.8101 5.28177 40.4723 5.28177 40.0556V38.5465C5.28177 38.1297 5.61956 37.792 6.03626 37.792C6.45296 37.792 6.79075 38.1298 6.79075 38.5465V40.0556C6.79075 40.4723 6.45296 40.8101 6.03626 40.8101Z" fill="#BDE4FF"/>
<path d="M9.05424 40.8099C8.63754 40.8099 8.29974 40.4721 8.29974 40.0554V36.5343C8.29974 36.1175 8.63754 35.7798 9.05424 35.7798C9.47093 35.7798 9.80873 36.1176 9.80873 36.5343V40.0554C9.80873 40.4721 9.47093 40.8099 9.05424 40.8099Z" fill="#FC8D94"/>
<path d="M15.0908 40.8099C14.6741 40.8099 14.3363 40.4721 14.3363 40.0554V32.5101C14.3363 32.0933 14.6741 31.7556 15.0908 31.7556C15.5075 31.7556 15.8453 32.0934 15.8453 32.5101V40.0554C15.8453 40.4721 15.5075 40.8099 15.0908 40.8099Z" fill="#FC8D94"/>
<path d="M18.1087 40.8099C17.692 40.8099 17.3542 40.4721 17.3542 40.0554V36.5343C17.3542 36.1175 17.692 35.7798 18.1087 35.7798C18.5254 35.7798 18.8632 36.1176 18.8632 36.5343V40.0554C18.8633 40.4721 18.5254 40.8099 18.1087 40.8099Z" fill="#BDE4FF"/>
<path d="M12.0725 40.81C11.6558 40.81 11.318 40.4722 11.318 40.0555V34.5223C11.318 34.1055 11.6558 33.7678 12.0725 33.7678C12.4892 33.7678 12.827 34.1056 12.827 34.5223V40.0555C12.8271 40.4722 12.4892 40.81 12.0725 40.81Z" fill="#BDE4FF"/>
<path d="M39.1565 33.3899L44.3527 38.5861L42.2189 40.7199L37.0227 35.5237L39.1565 33.3899Z" fill="#EDEBED"/>
<path d="M21.9247 36.3912C16.9351 31.4016 16.9351 23.3118 21.9247 18.3223C24.035 16.212 26.6997 14.9942 29.4499 14.6689C32.973 14.7095 36.9766 16.6549 39.856 19.5343C39.856 19.5343 45.691 27.3568 38.9841 35.7147C38.9841 35.7147 34.8845 39.9149 29.4521 40.0447C26.7011 39.7197 24.0355 38.502 21.9247 36.3912Z" fill="#FFE07D"/>
<path d="M43.7356 27.3561C43.7356 30.6257 42.4891 33.8954 39.9941 36.3904C37.4991 38.8854 34.2295 40.1329 30.9598 40.1329C30.4558 40.1329 29.9518 40.1045 29.4507 40.0442C32.2003 39.7193 34.8653 38.501 36.9759 36.3904C39.471 33.8954 40.7174 30.6257 40.7174 27.3561C40.7174 24.0865 39.471 20.8168 36.9759 18.3218C34.8653 16.2112 32.2003 14.9938 29.4507 14.6689C29.9517 14.6085 30.4558 14.5793 30.9598 14.5793C34.2295 14.5793 37.4991 15.8268 39.9941 18.3218C42.4891 20.8168 43.7356 24.0865 43.7356 27.3561Z" fill="#FFD064"/>
<path d="M24.0587 34.2568C20.2478 30.4459 20.2478 24.267 24.0587 20.4561C27.8697 16.6452 34.0485 16.6452 37.8594 20.4561C41.6704 24.267 41.6704 30.4459 37.8594 34.2568C34.0485 38.0677 27.8697 38.0677 24.0587 34.2568Z" fill="white"/>
<path d="M34.9599 32.1077H32.9478C32.67 32.1077 32.4448 31.8825 32.4448 31.6047V23.0533C32.4448 22.7755 32.67 22.5503 32.9478 22.5503H34.9599C35.2378 22.5503 35.463 22.7755 35.463 23.0533V31.6047C35.463 31.8825 35.2378 32.1077 34.9599 32.1077Z" fill="#FC8D94"/>
<path d="M28.9236 32.1077H26.9115C26.6336 32.1077 26.4084 31.8825 26.4084 31.6046V27.0775C26.4084 26.7997 26.6336 26.5745 26.9115 26.5745H28.9236C29.2014 26.5745 29.4266 26.7997 29.4266 27.0775V31.6046C29.4266 31.8825 29.2014 32.1077 28.9236 32.1077Z" fill="#BDE4FF"/>
<path d="M44.8599 45.4818L40.3886 41.0105C40.1926 40.8145 40.1926 40.4967 40.3886 40.3007L41.9103 38.7791L42.74 38.2463L48.1768 41.7884C49.3527 42.9643 49.8432 43.9702 48.6672 45.146C48.6672 45.146 48.2984 45.7246 47.7643 46.2627C46.7609 46.529 45.6468 46.2687 44.8599 45.4818Z" fill="#D19A6E"/>
<path d="M49.1181 45.4814C48.7289 45.8706 48.2593 46.1317 47.7642 46.2626C48.031 45.2589 47.7707 44.144 46.9839 43.3572L44.2872 40.6605V38.9589L46.4214 38.5264L49.1181 41.223C50.294 42.399 50.294 44.3055 49.1181 45.4814Z" fill="#BC845E"/>
<path d="M44.2874 40.6606L42.1632 42.7849L40.3886 41.0103C40.1924 40.8141 40.1924 40.4962 40.3886 40.301L42.1627 38.5264L44.618 38.7995L44.2874 40.6606Z" fill="#FFE07D"/>
<path d="M46.4212 38.5266L44.2871 40.6607L42.5129 38.8865C42.3187 38.6923 42.0057 38.6894 41.8101 38.8794L43.9363 36.7516C44.1327 36.5553 44.4507 36.556 44.647 36.7523L46.4212 38.5266Z" fill="#FFD064"/>
</g>
<defs>
<clipPath id="clip0">
<rect width="50" height="50" fill="white"/>
</clipPath>
</defs>
</svg>
