<svg width="50" height="50" viewBox="0 0 50 50" fill="none" xmlns="http://www.w3.org/2000/svg">
<path d="M44.6753 35.6064H29.3724V13.745C29.3724 12.5426 30.3561 11.5588 31.5585 11.5588H40.3031C40.9589 11.5588 41.6147 11.8868 42.052 12.4333L48.6104 20.8499C48.9383 21.2872 49.0476 21.7244 49.0476 22.1616V31.2341C49.0476 33.6388 47.0801 35.6064 44.6753 35.6064Z" fill="#FFC107"/>
<path d="M5.32473 35.6059H29.3723V9.37228C29.3723 6.96752 27.4047 5 25 5H6.4178C3.35721 5 0.952454 7.40475 0.952454 10.4653V31.2337C0.952454 33.6384 2.91998 35.6059 5.32473 35.6059Z" fill="#9575CD"/>
<path d="M39.2102 41.0717C42.2287 41.0717 44.6756 38.6247 44.6756 35.6063C44.6756 32.5878 42.2287 30.1409 39.2102 30.1409C36.1918 30.1409 33.7448 32.5878 33.7448 35.6063C33.7448 38.6247 36.1918 41.0717 39.2102 41.0717Z" fill="#37474F"/>
<path d="M14.0693 41.0717C17.0877 41.0717 19.5347 38.6247 19.5347 35.6063C19.5347 32.5878 17.0877 30.1409 14.0693 30.1409C11.0508 30.1409 8.60388 32.5878 8.60388 35.6063C8.60388 38.6247 11.0508 41.0717 14.0693 41.0717Z" fill="#37474F"/>
<path d="M39.2104 38.3389C40.7196 38.3389 41.9431 37.1155 41.9431 35.6062C41.9431 34.097 40.7196 32.8735 39.2104 32.8735C37.7011 32.8735 36.4777 34.097 36.4777 35.6062C36.4777 37.1155 37.7011 38.3389 39.2104 38.3389Z" fill="#78909C"/>
<path d="M14.0694 38.3389C15.5787 38.3389 16.8021 37.1155 16.8021 35.6062C16.8021 34.097 15.5787 32.8735 14.0694 32.8735C12.5602 32.8735 11.3367 34.097 11.3367 35.6062C11.3367 37.1155 12.5602 38.3389 14.0694 38.3389Z" fill="#78909C"/>
<path d="M44.6752 24.6756H40.7401C40.4122 24.6756 40.1936 24.5663 39.975 24.3476L38.4447 22.8173C38.2261 22.5987 38.0075 22.4894 37.6795 22.4894H33.7445C33.0887 22.4894 32.6514 22.0522 32.6514 21.3964V14.8379C32.6514 14.1821 33.0887 13.7449 33.7445 13.7449H39.7564C40.0843 13.7449 40.4122 13.8542 40.6308 14.1821L45.5496 20.0847C45.659 20.3033 45.7683 20.5219 45.7683 20.7405V23.5825C45.7683 24.2383 45.331 24.6756 44.6752 24.6756Z" fill="#455A64"/>
<path d="M15.1625 8.2793C9.6971 8.2793 5.32483 12.6516 5.32483 18.1169C5.32483 23.5823 9.6971 27.9545 15.1625 27.9545C20.6278 27.9545 25.0001 23.5823 25.0001 18.1169C25.0001 12.6516 20.6278 8.2793 15.1625 8.2793ZM15.1625 19.21C14.5066 19.21 14.0694 18.7728 14.0694 18.1169C14.0694 17.4611 14.5066 17.0239 15.1625 17.0239C15.8183 17.0239 16.2555 17.4611 16.2555 18.1169C16.2555 18.7728 15.8183 19.21 15.1625 19.21Z" fill="white"/>
<path d="M17.2392 18.6631C17.2392 18.4445 17.3485 18.3352 17.3485 18.1166C17.3485 17.3514 16.9112 16.5863 16.2554 16.2584V10.4651H14.0693V16.2584C13.4134 16.5863 12.9762 17.3514 12.9762 18.1166C12.9762 19.3189 13.96 20.3027 15.1623 20.3027C15.3809 20.3027 15.4903 20.3027 15.7089 20.1934L18.2229 22.7075L19.7532 21.1772L17.2392 18.6631ZM15.1623 19.2096C14.5065 19.2096 14.0693 18.7724 14.0693 18.1166C14.0693 17.4607 14.5065 17.0235 15.1623 17.0235C15.8182 17.0235 16.2554 17.4607 16.2554 18.1166C16.2554 18.7724 15.8182 19.2096 15.1623 19.2096Z" fill="#37474F"/>
</svg>
