<svg width="50" height="50" viewBox="0 0 50 50" fill="none" xmlns="http://www.w3.org/2000/svg">
<path opacity="0.1" d="M34.2024 48.1837H15.7977C14.1797 48.1837 12.868 46.8721 12.868 45.2541V8.07837C12.868 6.4603 14.1797 5.14868 15.7977 5.14868H34.2024C35.8205 5.14868 37.1321 6.4603 37.1321 8.07837V45.254C37.1321 46.872 35.8205 48.1837 34.2024 48.1837Z" fill="#2626BC"/>
<path d="M34.2024 45.84H15.7977C14.1797 45.84 12.868 44.5284 12.868 42.9103V5.73462C12.868 4.11655 14.1797 2.80493 15.7977 2.80493H34.2024C35.8205 2.80493 37.1321 4.11655 37.1321 5.73462V42.9102C37.1321 44.5283 35.8205 45.84 34.2024 45.84Z" fill="#6583FE"/>
<path d="M12.8683 6.99512H37.1319V41.6494H12.8683V6.99512Z" fill="#2D58E0"/>
<path d="M23.3619 19.7181H18.387C17.8476 19.7181 17.4104 19.2809 17.4104 18.7416V14.1506C17.4104 13.6113 17.8476 13.1741 18.387 13.1741H23.3619C23.9012 13.1741 24.3384 13.6113 24.3384 14.1506V18.7416C24.3384 19.2809 23.9012 19.7181 23.3619 19.7181Z" fill="#1F50C9"/>
<path d="M31.6548 19.6905H26.6799C26.1405 19.6905 25.7033 19.2533 25.7033 18.714V14.123C25.7033 13.5837 26.1405 13.1465 26.6799 13.1465H31.6548C32.1941 13.1465 32.6313 13.5837 32.6313 14.123V18.714C32.6313 19.2533 32.1941 19.6905 31.6548 19.6905Z" fill="#1F50C9"/>
<path d="M37.1044 13.1465V19.6904H34.9999C34.4608 19.6904 34.0233 19.2529 34.0233 18.7139V14.123C34.0233 13.584 34.4608 13.1465 34.9999 13.1465H37.1044Z" fill="#1F50C9"/>
<path d="M30.2579 9.08789H19.7423C19.4727 9.08789 19.254 9.30654 19.254 9.57617C19.254 9.8458 19.4727 10.0645 19.7423 10.0645H30.2579C30.5276 10.0645 30.7462 9.8458 30.7462 9.57617C30.7462 9.30654 30.5277 9.08789 30.2579 9.08789Z" fill="white"/>
<path d="M23.3619 18.6915H18.387C17.8476 18.6915 17.4104 18.2543 17.4104 17.7149V13.124C17.4104 12.5847 17.8476 12.1475 18.387 12.1475H23.3619C23.9012 12.1475 24.3384 12.5847 24.3384 13.124V17.7149C24.3384 18.2543 23.9012 18.6915 23.3619 18.6915Z" fill="#FF7EB8"/>
<path d="M22.3237 16.6509H20.3041C20.0344 16.6509 19.8158 16.8695 19.8158 17.1392C19.8158 17.4088 20.0344 17.6274 20.3041 17.6274H22.3237C22.5933 17.6274 22.812 17.4088 22.812 17.1392C22.812 16.8695 22.5933 16.6509 22.3237 16.6509Z" fill="white"/>
<path d="M22.3237 15.0562H21.7689C21.4993 15.0562 21.2806 15.2748 21.2806 15.5444C21.2806 15.8141 21.4993 16.0327 21.7689 16.0327H22.3237C22.5933 16.0327 22.812 15.8141 22.812 15.5444C22.812 15.2748 22.5933 15.0562 22.3237 15.0562Z" fill="white"/>
<path d="M31.6548 18.664H26.6799C26.1405 18.664 25.7033 18.2268 25.7033 17.6875V13.0964C25.7033 12.5571 26.1405 12.1199 26.6799 12.1199H31.6548C32.1941 12.1199 32.6313 12.5571 32.6313 13.0964V17.6874C32.6313 18.2267 32.1941 18.664 31.6548 18.664Z" fill="#02FFB3"/>
<path d="M30.6166 16.6233H28.597C28.3274 16.6233 28.1087 16.8419 28.1087 17.1116C28.1087 17.3812 28.3274 17.5999 28.597 17.5999H30.6166C30.8862 17.5999 31.1049 17.3812 31.1049 17.1116C31.1049 16.8419 30.8862 16.6233 30.6166 16.6233Z" fill="white"/>
<path d="M30.6166 15.0286H30.0618C29.7922 15.0286 29.5735 15.2472 29.5735 15.5168C29.5735 15.7865 29.7922 16.0051 30.0618 16.0051H30.6166C30.8862 16.0051 31.1049 15.7865 31.1049 15.5168C31.1049 15.2472 30.8862 15.0286 30.6166 15.0286Z" fill="white"/>
<path d="M37.1044 12.1199V18.6638H34.9999C34.4608 18.6638 34.0233 18.2263 34.0233 17.6873V13.0964C34.0233 12.5574 34.4608 12.1199 34.9999 12.1199H37.1044Z" fill="#9FB0FE"/>
<path d="M12.8683 41.6494V23.6084C12.8683 22.2607 13.9611 21.167 15.3097 21.167H34.6905C36.0392 21.167 37.1319 22.2607 37.1319 23.6084V41.6494H12.8683Z" fill="white"/>
<path d="M34.2024 46.3281H15.7977C13.9131 46.3281 12.3798 44.7948 12.3798 42.9101V5.73462C12.3798 3.84995 13.9131 2.31665 15.7977 2.31665H34.2024C36.0871 2.31665 37.6204 3.84995 37.6204 5.73462V42.9102C37.6204 44.7948 36.0871 46.3281 34.2024 46.3281ZM15.7977 3.29321C14.4515 3.29321 13.3563 4.38843 13.3563 5.73462V42.9102C13.3563 44.2564 14.4515 45.3516 15.7977 45.3516H34.2024C35.5486 45.3516 36.6438 44.2564 36.6438 42.9102V5.73462C36.6438 4.38843 35.5486 3.29321 34.2024 3.29321H15.7977Z" fill="#2626BC"/>
<path d="M26.7074 5.47778H23.2927C23.0231 5.47778 22.8044 5.25913 22.8044 4.9895C22.8044 4.71987 23.0231 4.50122 23.2927 4.50122H26.7074C26.977 4.50122 27.1957 4.71987 27.1957 4.9895C27.1957 5.25913 26.977 5.47778 26.7074 5.47778Z" fill="#B7C5FF"/>
<path d="M28.9857 5.47793C29.2555 5.47793 29.4742 5.25923 29.4742 4.98945C29.4742 4.71967 29.2555 4.50098 28.9857 4.50098C28.7159 4.50098 28.4973 4.71967 28.4973 4.98945C28.4973 5.25923 28.7159 5.47793 28.9857 5.47793Z" fill="#B7C5FF"/>
<path d="M22.9096 24.3225H20.89C20.6204 24.3225 20.4017 24.5412 20.4017 24.8108C20.4017 25.0804 20.6204 25.2991 20.89 25.2991H22.9096C23.1793 25.2991 23.3979 25.0804 23.3979 24.8108C23.3979 24.5412 23.1793 24.3225 22.9096 24.3225Z" fill="#00D890"/>
<path d="M32.8706 26.3022H20.89C20.6204 26.3022 20.4017 26.5209 20.4017 26.7905C20.4017 27.0602 20.6204 27.2788 20.89 27.2788H32.8706C33.1402 27.2788 33.3589 27.0602 33.3589 26.7905C33.3589 26.5209 33.1402 26.3022 32.8706 26.3022Z" fill="#9FB0FE"/>
<path d="M18.0593 27.2797H16.0796C15.81 27.2797 15.5913 27.0611 15.5913 26.7915V24.8118C15.5913 24.5421 15.81 24.3235 16.0796 24.3235H18.0593C18.3289 24.3235 18.5476 24.5421 18.5476 24.8118V26.7915C18.5476 27.0611 18.3289 27.2797 18.0593 27.2797Z" fill="#02FFB3"/>
<path d="M22.9096 30.3716H20.89C20.6204 30.3716 20.4017 30.5902 20.4017 30.8599C20.4017 31.1295 20.6204 31.3481 20.89 31.3481H22.9096C23.1793 31.3481 23.3979 31.1295 23.3979 30.8599C23.3979 30.5902 23.1793 30.3716 22.9096 30.3716Z" fill="#FF5BA8"/>
<path d="M32.8706 32.3513H20.89C20.6204 32.3513 20.4017 32.57 20.4017 32.8396C20.4017 33.1092 20.6204 33.3279 20.89 33.3279H32.8706C33.1402 33.3279 33.3589 33.1092 33.3589 32.8396C33.3589 32.57 33.1402 32.3513 32.8706 32.3513Z" fill="#9FB0FE"/>
<path d="M18.0593 33.3278H16.0796C15.81 33.3278 15.5913 33.1092 15.5913 32.8396V30.8599C15.5913 30.5902 15.81 30.3716 16.0796 30.3716H18.0593C18.3289 30.3716 18.5476 30.5902 18.5476 30.8599V32.8396C18.5476 33.1092 18.3289 33.3278 18.0593 33.3278Z" fill="#FF7EB8"/>
<path d="M22.9096 36.4207H20.89C20.6204 36.4207 20.4017 36.6393 20.4017 36.9089C20.4017 37.1786 20.6204 37.3972 20.89 37.3972H22.9096C23.1793 37.3972 23.3979 37.1786 23.3979 36.9089C23.3979 36.6393 23.1793 36.4207 22.9096 36.4207Z" fill="#6583FE"/>
<path d="M32.8706 38.4004H20.89C20.6204 38.4004 20.4017 38.619 20.4017 38.8887C20.4017 39.1583 20.6204 39.377 20.89 39.377H32.8706C33.1402 39.377 33.3589 39.1583 33.3589 38.8887C33.3589 38.619 33.1402 38.4004 32.8706 38.4004Z" fill="#9FB0FE"/>
<path d="M18.0593 39.3769H16.0796C15.81 39.3769 15.5913 39.1583 15.5913 38.8886V36.9089C15.5913 36.6393 15.81 36.4207 16.0796 36.4207H18.0593C18.3289 36.4207 18.5476 36.6393 18.5476 36.9089V38.8886C18.5476 39.1583 18.3289 39.3769 18.0593 39.3769Z" fill="#9FB0FE"/>
</svg>
