<svg width="50" height="50" viewBox="0 0 50 50" fill="none" xmlns="http://www.w3.org/2000/svg">
<path d="M39.0375 31.1473C39.2282 28.8383 38.8765 26.5246 37.8541 24.4453C35.2132 19.073 35.819 18.6832 35.737 13.3513C35.737 12.2619 34.8539 11.3792 33.7648 11.3792C32.6753 11.3792 31.7926 12.2619 31.7926 13.3513C31.7926 14.0548 31.7926 33.2568 31.7926 33.1817C31.7926 33.4891 31.7598 33.7894 31.6991 34.0789V36.9178C31.6991 39.31 29.7529 41.2566 27.3607 41.2566C25.7719 41.2566 20.2928 41.2566 16.5647 41.2566C18.2229 43.563 20.4919 45.3692 23.1252 46.4629C23.1416 46.4694 23.158 46.4763 23.1744 46.4831C24.7587 47.1526 25.9683 48.4149 26.6054 49.9454C31.7357 49.6055 36.4244 47.6497 40.1651 44.5804L38.6953 39.1807C38.4855 38.409 38.4115 37.6067 38.4767 36.8098L39.0375 31.1473Z" fill="#F9CFA9"/>
<path d="M9.23938 11.4484L8.63857 10.8918C7.71274 10.0335 6.25286 10.0892 5.39493 11.0154C4.53701 11.9412 4.5927 13.4011 5.51853 14.259L9.23938 17.7068V11.4484Z" fill="#F9CFA9"/>
<path d="M28.9668 0H12.1002C10.4637 0 9.13232 1.33171 9.13232 2.96822V38.5132C9.13232 40.1497 10.4637 41.4814 12.1002 41.4814H28.9668C30.6033 41.4814 31.9351 40.1497 31.9351 38.5132V2.96822C31.9351 1.33171 30.6033 0 28.9668 0V0Z" fill="#3D4EC6"/>
<path d="M14.8471 2.20108C14.6865 1.96228 14.5926 1.67503 14.5926 1.36566C14.5926 0.758362 14.9543 0.236511 15.4731 0H12.1001C10.4609 0 9.1319 1.32904 9.1319 2.96822V38.5132C9.1319 40.1524 10.4609 41.481 12.1001 41.481H15.6859V4.80232C15.6859 3.86887 15.3682 2.97585 14.8471 2.20108Z" fill="#2B3894"/>
<path d="M10.8504 18.7478V38.5133C10.8504 39.2037 11.41 39.7633 12.1001 39.7633H28.9668C29.6569 39.7633 30.2165 39.2037 30.2165 38.5133C30.2165 37.835 30.2165 27.9336 30.2165 18.7478H10.8504Z" fill="#E6F7FE"/>
<path d="M10.8504 18.7478V38.5133C10.8504 39.2037 11.41 39.7633 12.1001 39.7633H15.0565V18.7478H10.8504Z" fill="#D5F1FE"/>
<path d="M17.6443 24.7099C17.6443 25.7914 16.7677 26.668 15.6862 26.668C14.6048 26.668 13.7281 25.7914 13.7281 24.7099C13.7281 23.6285 14.6048 22.7515 15.6862 22.7515C16.7677 22.7515 17.6443 23.6285 17.6443 24.7099Z" fill="#3D4EC6"/>
<path d="M17.6443 31.9708C17.6443 33.0522 16.7677 33.9292 15.6862 33.9292C14.6048 33.9292 13.7281 33.0522 13.7281 31.9708C13.7281 30.8893 14.6048 30.0127 15.6862 30.0127C16.7677 30.0127 17.6443 30.8893 17.6443 31.9708Z" fill="#3D4EC6"/>
<path d="M15.465 22.7649C14.4877 22.8751 13.7281 23.7033 13.7281 24.71C13.7281 25.7915 14.6048 26.6681 15.6862 26.6681C16.3607 26.6681 16.955 26.3271 17.3071 25.8083C15.6187 25.9986 14.5437 24.1218 15.465 22.7649Z" fill="#2B3894"/>
<path d="M15.465 30.0261C14.4877 30.136 13.7281 30.9645 13.7281 31.9709C13.7281 33.0527 14.6048 33.9293 15.6862 33.9293C16.3607 33.9293 16.955 33.5883 17.3071 33.0695C15.629 33.2583 14.5376 31.3918 15.465 30.0261Z" fill="#2B3894"/>
<path d="M23.6882 23.896H20.908C20.5037 23.896 20.1756 23.5679 20.1756 23.1636C20.1756 22.7588 20.5037 22.4312 20.908 22.4312H23.6882C24.0925 22.4312 24.4206 22.7588 24.4206 23.1636C24.4206 23.5679 24.0925 23.896 23.6882 23.896Z" fill="#11DFEF"/>
<path d="M26.4683 26.989H20.908C20.5033 26.989 20.1756 26.6609 20.1756 26.2566C20.1756 25.8519 20.5033 25.5242 20.908 25.5242H26.4683C26.8727 25.5242 27.2007 25.8519 27.2007 26.2566C27.2007 26.6609 26.8727 26.989 26.4683 26.989Z" fill="#11DFEF"/>
<path d="M23.6882 31.157H20.908C20.5037 31.157 20.1756 30.8293 20.1756 30.4246C20.1756 30.0198 20.5037 29.6921 20.908 29.6921H23.6882C24.0925 29.6921 24.4206 30.0198 24.4206 30.4246C24.4206 30.8293 24.0925 31.157 23.6882 31.157Z" fill="#11DFEF"/>
<path d="M26.4683 34.2498H20.908C20.5033 34.2498 20.1756 33.9221 20.1756 33.5173C20.1756 33.113 20.5033 32.7849 20.908 32.7849H26.4683C26.8727 32.7849 27.2007 33.113 27.2007 33.5173C27.2007 33.9221 26.8727 34.2498 26.4683 34.2498Z" fill="#11DFEF"/>
<path d="M28.9569 1.71851H26.4503C26.2137 1.71851 26.0222 1.91 26.0222 2.14613C26.0222 2.71338 25.5584 3.17725 24.9915 3.17725H16.0564C15.4891 3.17725 15.0252 2.71338 15.0252 2.14613C15.0252 1.91 14.8337 1.71851 14.5972 1.71851H12.0906C11.4001 1.71851 10.8405 2.27812 10.8405 2.9682V18.943H30.207V2.9682C30.207 2.27812 29.6474 1.71851 28.9569 1.71851Z" fill="#F948B4"/>
<path d="M15.0565 2.39333C15.0367 2.31398 15.0252 2.23158 15.0252 2.14651C15.0252 1.91 14.8337 1.71851 14.5972 1.71851H12.0906C11.4001 1.71851 10.8405 2.27812 10.8405 2.9682V18.943H15.0565V2.39333Z" fill="#E00E8B"/>
<path d="M28.9571 1.71851H26.4504C26.2139 1.71851 26.0224 1.91 26.0224 2.14613C26.0224 2.71338 25.5585 3.17725 24.9917 3.17725H20.0635L30.2071 15.8924V2.9682C30.2071 2.27812 29.6475 1.71851 28.9571 1.71851Z" fill="#FC7ACD"/>
<path d="M17.375 7.53955H13.9975C13.5931 7.53955 13.2651 7.21187 13.2651 6.80713C13.2651 6.40239 13.5931 6.07471 13.9975 6.07471H17.375C17.7794 6.07471 18.1075 6.40239 18.1075 6.80713C18.1075 7.21149 17.7794 7.53955 17.375 7.53955Z" fill="#FC7ACD"/>
<path d="M12.5798 23.5536C11.8248 24.368 10.5522 24.4168 9.73742 23.6619L6.36866 20.5403C5.55384 19.7854 5.50539 18.5128 6.26032 17.698C7.01525 16.8832 8.28783 16.8347 9.10265 17.5897L12.4714 20.7112C13.2859 21.4662 13.3347 22.7387 12.5798 23.5536Z" fill="#F9CFA9"/>
<path d="M12.4713 20.7115L10.8687 19.2268C11.0797 19.9909 10.9046 20.8423 10.3267 21.466C9.74837 22.0901 8.91257 22.3293 8.13513 22.1775L9.7373 23.6622C10.5521 24.4171 11.8243 24.3683 12.5796 23.5538C13.3346 22.739 13.2857 21.4664 12.4713 20.7115Z" fill="#FBBC8D"/>
<path d="M12.5798 29.0395C11.8248 29.8543 10.5522 29.9028 9.73742 29.1478L6.36866 26.0263C5.55384 25.2713 5.50539 23.9988 6.26032 23.1843C7.01525 22.3695 8.28783 22.3211 9.10265 23.076L12.4714 26.1976C13.2859 26.9525 13.3347 28.2247 12.5798 29.0395Z" fill="#F9CFA9"/>
<path d="M12.5798 34.5252C11.8248 35.3401 10.5522 35.3885 9.73742 34.6336L6.36866 31.512C5.55384 30.7571 5.50539 29.4845 6.26032 28.6697C7.01525 27.8549 8.28783 27.8064 9.10265 28.5613L12.4714 31.6829C13.2859 32.4378 13.3347 33.7104 12.5798 34.5252Z" fill="#F9CFA9"/>
<path d="M38.6952 39.1804C38.5911 38.7967 38.5205 38.4057 38.4835 38.0112C34.7565 44.13 27.5208 46.9716 20.7242 45.2046C21.4822 45.6917 22.2852 46.1136 23.1252 46.4627C23.1416 46.4696 23.158 46.4764 23.1744 46.4833C24.7586 47.1524 25.9682 48.4147 26.6053 49.9455C31.7357 49.6056 36.4243 47.6494 40.165 44.5801L38.6952 39.1804Z" fill="#FBBC8D"/>
<path d="M12.4713 26.1973L10.8687 24.7126C11.0797 25.4763 10.9046 26.3278 10.3267 26.9519C9.74837 27.576 8.91257 27.8151 8.13513 27.6633L9.7373 29.1476C10.5521 29.9025 11.8247 29.8541 12.5796 29.0393C13.3346 28.2245 13.2857 26.9523 12.4713 26.1973Z" fill="#FBBC8D"/>
<path d="M12.4713 31.6829L10.8687 30.1982C11.0797 30.9623 10.9046 31.8138 10.3267 32.4375C9.74837 33.0616 8.91257 33.3011 8.13513 33.1489L9.7373 34.6336C10.5521 35.3885 11.8247 35.3401 12.5796 34.5253C13.3346 33.7104 13.2857 32.4379 12.4713 31.6829Z" fill="#FBBC8D"/>
</svg>
