<svg width="50" height="50" viewBox="0 0 50 50" fill="none" xmlns="http://www.w3.org/2000/svg">
<path d="M27.6007 37.0928H17.0538V41.6016H27.6007V37.0928Z" fill="#445EA0"/>
<path d="M18.9915 37.0928H17.0538V41.6016H18.9915V37.0928Z" fill="#2E4C89"/>
<path d="M32.5325 43.9453C32.5325 44.2139 32.3128 44.4336 32.0443 44.4336H12.6104C12.3418 44.4336 12.1221 44.2139 12.1221 43.9453V41.9922C12.1221 41.7236 12.3418 41.5039 12.6104 41.5039H32.0443C32.3128 41.5039 32.5325 41.7236 32.5325 41.9922V43.9453Z" fill="#293D7C"/>
<path d="M14.0598 43.9453V41.9922C14.0598 41.7236 14.2795 41.5039 14.548 41.5039H12.6104C12.3418 41.5039 12.1221 41.7236 12.1221 41.9922V43.9453C12.1221 44.2139 12.3418 44.4336 12.6104 44.4336H14.548C14.2795 44.4336 14.0598 44.2139 14.0598 43.9453Z" fill="#1A2B63"/>
<path d="M0 36.2142C0 36.7513 0.439453 37.1908 0.976562 37.1908H30.2905V30.6526H0V36.2142Z" fill="#293D7C"/>
<path d="M1.9377 36.2142V30.6526H0V36.2142C0 36.7513 0.439453 37.1908 0.976562 37.1908H2.91426C2.37715 37.1908 1.9377 36.7513 1.9377 36.2142Z" fill="#1A2B63"/>
<path d="M30.2905 28.0263C30.2905 27.8108 30.4657 27.6356 30.6812 27.6356H44.6548V6.49092C44.6548 5.90049 44.1718 5.41748 43.5814 5.41748H1.07344C0.483008 5.41748 0 5.90049 0 6.49092V30.7505H30.2905V28.0263Z" fill="#445EA0"/>
<path d="M30.2906 28.0261C30.2906 27.8107 30.4658 27.6355 30.6812 27.6355H42.5081V8.05249C42.5081 7.78394 42.2884 7.56421 42.0198 7.56421H2.63525C2.3667 7.56421 2.14697 7.78394 2.14697 8.05249V28.1151C2.14697 28.3836 2.3667 28.6034 2.63525 28.6034H30.2905L30.2906 28.0261Z" fill="#EEF6FF"/>
<path d="M22.3271 35.3632C23.0774 35.3632 23.6856 34.755 23.6856 34.0047C23.6856 33.2545 23.0774 32.6462 22.3271 32.6462C21.5768 32.6462 20.9686 33.2545 20.9686 34.0047C20.9686 34.755 21.5768 35.3632 22.3271 35.3632Z" fill="#445EA0"/>
<path d="M40.6602 20.1539C40.6602 20.4224 40.4405 20.6421 40.172 20.6421H24.6976C24.4291 20.6421 24.2094 20.4224 24.2094 20.1539V13.0525C24.2094 12.7839 24.4291 12.5642 24.6976 12.5642H40.172C40.4405 12.5642 40.6602 12.7839 40.6602 13.0525V20.1539Z" fill="#FFAF10"/>
<path d="M26.1472 20.1539V13.0525C26.1472 12.7839 26.3669 12.5642 26.6354 12.5642H24.6978C24.4292 12.5642 24.2095 12.7839 24.2095 13.0525V20.1539C24.2095 20.4224 24.4292 20.6421 24.6978 20.6421H26.6354C26.3669 20.6421 26.1472 20.4224 26.1472 20.1539Z" fill="#FF9518"/>
<path d="M29.2252 23.4492H25.015C24.6105 23.4492 24.2826 23.1214 24.2826 22.7168C24.2826 22.3122 24.6105 21.9844 25.015 21.9844H29.2252C29.6296 21.9844 29.9576 22.3122 29.9576 22.7168C29.9576 23.1214 29.6296 23.4492 29.2252 23.4492Z" fill="#C3DDF4"/>
<path d="M29.2252 25.6753H25.015C24.6105 25.6753 24.2826 25.3475 24.2826 24.9429C24.2826 24.5383 24.6105 24.2104 25.015 24.2104H29.2252C29.6296 24.2104 29.9576 24.5383 29.9576 24.9429C29.9576 25.3475 29.6296 25.6753 29.2252 25.6753Z" fill="#C3DDF4"/>
<path d="M34.3047 23.4492H31.1739C30.7694 23.4492 30.4415 23.1214 30.4415 22.7168C30.4415 22.3122 30.7694 21.9844 31.1739 21.9844H34.3047C34.7092 21.9844 35.0372 22.3122 35.0372 22.7168C35.0372 23.1214 34.7092 23.4492 34.3047 23.4492Z" fill="#C3DDF4"/>
<path d="M34.3047 25.6753H31.1739C30.7694 25.6753 30.4415 25.3475 30.4415 24.9429C30.4415 24.5383 30.7694 24.2104 31.1739 24.2104H34.3047C34.7092 24.2104 35.0372 24.5383 35.0372 24.9429C35.0372 25.3475 34.7092 25.6753 34.3047 25.6753Z" fill="#C3DDF4"/>
<path d="M40.2121 23.4492H36.2242C35.8197 23.4492 35.4918 23.1214 35.4918 22.7168C35.4918 22.3122 35.8197 21.9844 36.2242 21.9844H40.2121C40.6166 21.9844 40.9445 22.3122 40.9445 22.7168C40.9445 23.1214 40.6166 23.4492 40.2121 23.4492Z" fill="#C3DDF4"/>
<path d="M40.2121 25.6753H36.2242C35.8197 25.6753 35.4918 25.3475 35.4918 24.9429C35.4918 24.5383 35.8197 24.2104 36.2242 24.2104H40.2121C40.6166 24.2104 40.9445 24.5383 40.9445 24.9429C40.9445 25.3475 40.6166 25.6753 40.2121 25.6753Z" fill="#C3DDF4"/>
<path d="M35.0943 10.848C35.0943 11.1166 34.8745 11.3363 34.606 11.3363H33.5319C33.2633 11.3363 33.0436 11.1166 33.0436 10.848V9.77393C33.0436 9.50537 33.2633 9.28564 33.5319 9.28564H34.606C34.8745 9.28564 35.0943 9.50537 35.0943 9.77393V10.848Z" fill="#EF8318"/>
<path d="M37.8284 10.848C37.8284 11.1166 37.6087 11.3363 37.3401 11.3363H36.266C35.9974 11.3363 35.7777 11.1166 35.7777 10.848V9.77393C35.7777 9.50537 35.9974 9.28564 36.266 9.28564H37.3401C37.6087 9.28564 37.8284 9.50537 37.8284 9.77393V10.848Z" fill="#EF8318"/>
<path d="M40.5625 10.848C40.5625 11.1166 40.3428 11.3363 40.0742 11.3363H39.0001C38.7316 11.3363 38.5118 11.1166 38.5118 10.848V9.77393C38.5118 9.50537 38.7316 9.28564 39.0001 9.28564H40.0742C40.3428 9.28564 40.5625 9.50537 40.5625 9.77393V10.848Z" fill="#EF8318"/>
<path d="M18.6425 25.0981H17.7635C17.3591 25.0981 17.0311 24.7703 17.0311 24.3657C17.0311 23.9611 17.3591 23.6333 17.7635 23.6333H18.6425C19.0469 23.6333 19.3749 23.9611 19.3749 24.3657C19.3749 24.7703 19.0469 25.0981 18.6425 25.0981Z" fill="#69CDFF"/>
<path d="M15.3221 25.0981H14.4432C14.0387 25.0981 13.7108 24.7703 13.7108 24.3657C13.7108 23.9611 14.0387 23.6333 14.4432 23.6333H15.3221C15.7266 23.6333 16.0546 23.9611 16.0546 24.3657C16.0546 24.7703 15.7266 25.0981 15.3221 25.0981Z" fill="#69CDFF"/>
<path d="M12.0017 25.0981H11.1228C10.7183 25.0981 10.3904 24.7703 10.3904 24.3657C10.3904 23.9611 10.7183 23.6333 11.1228 23.6333H12.0017C12.4062 23.6333 12.7341 23.9611 12.7341 24.3657C12.7342 24.7703 12.4063 25.0981 12.0017 25.0981Z" fill="#69CDFF"/>
<path d="M8.6814 25.0981H7.80249C7.398 25.0981 7.07007 24.7703 7.07007 24.3657C7.07007 23.9611 7.398 23.6333 7.80249 23.6333H8.6814C9.08589 23.6333 9.41382 23.9611 9.41382 24.3657C9.41382 24.7703 9.08599 25.0981 8.6814 25.0981Z" fill="#69CDFF"/>
<path d="M21.4989 22.0806C21.0944 22.0806 20.7665 21.7527 20.7665 21.3481V20.4692C20.7665 20.0647 21.0944 19.7368 21.4989 19.7368C21.9034 19.7368 22.2313 20.0647 22.2313 20.4692V21.3481C22.2313 21.7527 21.9034 22.0806 21.4989 22.0806Z" fill="#69CDFF"/>
<path d="M21.4989 18.7603C21.0944 18.7603 20.7665 18.4324 20.7665 18.0278V17.1489C20.7665 16.7444 21.0944 16.4165 21.4989 16.4165C21.9034 16.4165 22.2313 16.7444 22.2313 17.1489V18.0278C22.2313 18.4324 21.9034 18.7603 21.4989 18.7603Z" fill="#69CDFF"/>
<path d="M21.4989 15.4399C21.0944 15.4399 20.7665 15.1121 20.7665 14.7075V13.8286C20.7665 13.4241 21.0944 13.0962 21.4989 13.0962C21.9034 13.0962 22.2313 13.4241 22.2313 13.8286V14.7075C22.2313 15.1121 21.9034 15.4399 21.4989 15.4399Z" fill="#69CDFF"/>
<path d="M4.89722 22.0806C4.49272 22.0806 4.16479 21.7527 4.16479 21.3481V20.4692C4.16479 20.0647 4.49272 19.7368 4.89722 19.7368C5.30171 19.7368 5.62964 20.0647 5.62964 20.4692V21.3481C5.62964 21.7527 5.30181 22.0806 4.89722 22.0806Z" fill="#69CDFF"/>
<path d="M4.89722 18.7603C4.49272 18.7603 4.16479 18.4324 4.16479 18.0278V17.1489C4.16479 16.7444 4.49272 16.4165 4.89722 16.4165C5.30171 16.4165 5.62964 16.7444 5.62964 17.1489V18.0278C5.62964 18.4324 5.30181 18.7603 4.89722 18.7603Z" fill="#69CDFF"/>
<path d="M4.89722 15.4399C4.49272 15.4399 4.16479 15.1121 4.16479 14.7075V13.8286C4.16479 13.4241 4.49272 13.0962 4.89722 13.0962C5.30171 13.0962 5.62964 13.4241 5.62964 13.8286V14.7075C5.62964 15.1121 5.30181 15.4399 4.89722 15.4399Z" fill="#69CDFF"/>
<path d="M18.6425 11.8169H17.7635C17.3591 11.8169 17.0311 11.4891 17.0311 11.0845C17.0311 10.6799 17.3591 10.3521 17.7635 10.3521H18.6425C19.0469 10.3521 19.3749 10.6799 19.3749 11.0845C19.3749 11.4891 19.0469 11.8169 18.6425 11.8169Z" fill="#69CDFF"/>
<path d="M15.3221 11.8169H14.4432C14.0387 11.8169 13.7108 11.4891 13.7108 11.0845C13.7108 10.6799 14.0387 10.3521 14.4432 10.3521H15.3221C15.7266 10.3521 16.0546 10.6799 16.0546 11.0845C16.0546 11.4891 15.7266 11.8169 15.3221 11.8169Z" fill="#69CDFF"/>
<path d="M12.0017 11.8169H11.1228C10.7183 11.8169 10.3904 11.4891 10.3904 11.0845C10.3904 10.6799 10.7183 10.3521 11.1228 10.3521H12.0017C12.4062 10.3521 12.7341 10.6799 12.7341 11.0845C12.7341 11.4891 12.4063 11.8169 12.0017 11.8169Z" fill="#69CDFF"/>
<path d="M8.6814 11.8169H7.80249C7.398 11.8169 7.07007 11.4891 7.07007 11.0845C7.07007 10.6799 7.398 10.3521 7.80249 10.3521H8.6814C9.08589 10.3521 9.41382 10.6799 9.41382 11.0845C9.41382 11.4891 9.08599 11.8169 8.6814 11.8169Z" fill="#69CDFF"/>
<path d="M19.5458 21.9243C19.5458 22.1929 19.326 22.4126 19.0575 22.4126H7.33875C7.07019 22.4126 6.85046 22.1929 6.85046 21.9243V13.5259C6.85046 13.2573 7.07019 13.0376 7.33875 13.0376H19.0575C19.326 13.0376 19.5458 13.2573 19.5458 13.5259V21.9243Z" fill="#5DC1D8"/>
<path d="M8.78813 21.9243V13.5259C8.78813 13.2573 9.00786 13.0376 9.27642 13.0376H7.33862C7.07007 13.0376 6.85034 13.2573 6.85034 13.5259V21.9243C6.85034 22.1929 7.07007 22.4126 7.33862 22.4126H9.27642C9.00786 22.4126 8.78813 22.1929 8.78813 21.9243Z" fill="#28A5A5"/>
<path d="M22.8657 11.8171C22.8657 12.0857 22.646 12.3054 22.3774 12.3054H20.3267C20.0581 12.3054 19.8384 12.0857 19.8384 11.8171V9.76636C19.8384 9.4978 20.0581 9.27808 20.3267 9.27808H22.3774C22.646 9.27808 22.8657 9.4978 22.8657 9.76636V11.8171Z" fill="#52BBEF"/>
<path d="M6.65478 12.0125C6.65478 12.281 6.43506 12.5007 6.1665 12.5007H4.11572C3.84717 12.5007 3.62744 12.281 3.62744 12.0125V9.96167C3.62744 9.69312 3.84717 9.47339 4.11572 9.47339H6.1665C6.43506 9.47339 6.65478 9.69312 6.65478 9.96167V12.0125Z" fill="#52BBEF"/>
<path d="M22.8657 25.4766C22.8657 25.7451 22.646 25.9648 22.3774 25.9648H20.3267C20.0581 25.9648 19.8384 25.7451 19.8384 25.4766V23.4258C19.8384 23.1572 20.0581 22.9375 20.3267 22.9375H22.3774C22.646 22.9375 22.8657 23.1572 22.8657 23.4258V25.4766Z" fill="#52BBEF"/>
<path d="M6.65478 25.4766C6.65478 25.7451 6.43506 25.9648 6.1665 25.9648H4.11572C3.84717 25.9648 3.62744 25.7451 3.62744 25.4766V23.4258C3.62744 23.1572 3.84717 22.9375 4.11572 22.9375H6.1665C6.43506 22.9375 6.65478 23.1572 6.65478 23.4258V25.4766Z" fill="#52BBEF"/>
<path d="M20.9147 11.8171V9.76636C20.9147 9.4978 21.1345 9.27808 21.403 9.27808H20.3267C20.0581 9.27808 19.8384 9.4978 19.8384 9.76636V11.8171C19.8384 12.0857 20.0581 12.3054 20.3267 12.3054H21.403C21.1345 12.3054 20.9147 12.0857 20.9147 11.8171Z" fill="#1E99D6"/>
<path d="M4.70381 12.0125V9.96167C4.70381 9.69312 4.92353 9.47339 5.19209 9.47339H4.11572C3.84717 9.47339 3.62744 9.69312 3.62744 9.96167V12.0125C3.62744 12.281 3.84717 12.5007 4.11572 12.5007H5.19209C4.92353 12.5007 4.70381 12.281 4.70381 12.0125Z" fill="#1E99D6"/>
<path d="M20.9147 25.4766V23.4258C20.9147 23.1572 21.1345 22.9375 21.403 22.9375H20.3267C20.0581 22.9375 19.8384 23.1572 19.8384 23.4258V25.4766C19.8384 25.7451 20.0581 25.9648 20.3267 25.9648H21.403C21.1345 25.9648 20.9147 25.7451 20.9147 25.4766Z" fill="#1E99D6"/>
<path d="M4.70381 25.4766V23.4258C4.70381 23.1572 4.92353 22.9375 5.19209 22.9375H4.11572C3.84717 22.9375 3.62744 23.1572 3.62744 23.4258V25.4766C3.62744 25.7451 3.84717 25.9648 4.11572 25.9648H5.19209C4.92353 25.9648 4.70381 25.7451 4.70381 25.4766Z" fill="#1E99D6"/>
<path d="M42.5252 35.8176C42.51 35.7764 42.5112 35.753 42.5134 35.7454C42.5135 35.7454 42.5194 35.7448 42.525 35.7448C42.5361 35.7448 42.5555 35.747 42.5849 35.7579L46.6967 37.2681V28.0261C46.6967 27.7576 46.4769 27.5378 46.2084 27.5378H30.681C30.4125 27.5378 30.1927 27.7576 30.1927 28.0261V39.2371C30.1927 39.5056 30.4125 39.7253 30.681 39.7253H43.9603L42.5252 35.8176Z" fill="#5DC1D8"/>
<path d="M32.1305 39.2371V28.0261C32.1305 27.7576 32.3502 27.5378 32.6188 27.5378H30.6811C30.4125 27.5378 30.1928 27.7576 30.1928 28.0261V39.2371C30.1928 39.5056 30.4125 39.7253 30.6811 39.7253H32.6188C32.3502 39.7253 32.1305 39.5056 32.1305 39.2371Z" fill="#28A5A5"/>
<path d="M42.6186 35.6662C42.4578 35.6071 42.3744 35.6904 42.4335 35.8514L45.0082 42.8613C45.0673 43.0223 45.2148 43.0547 45.336 42.9335L46.7029 41.5666C46.8241 41.4454 47.0225 41.4454 47.1438 41.5666L48.7188 43.1418C48.84 43.263 49.0384 43.263 49.1597 43.1418L49.9091 42.3924C50.0303 42.2712 50.0303 42.0728 49.9091 41.9516L48.334 40.3765C48.2128 40.2553 48.2128 40.0569 48.334 39.9357L49.7008 38.5688C49.8221 38.4477 49.7895 38.3001 49.6286 38.241L42.6186 35.6662Z" fill="#293D7C"/>
</svg>
