<svg width="50" height="50" viewBox="0 0 50 50" fill="none" xmlns="http://www.w3.org/2000/svg">
<g clip-path="url(#clip0)">
<path d="M46.9808 14.2683L37.9567 5.22705V41.458H50.0335V21.6093C50.0335 18.8533 48.9345 16.2112 46.9808 14.2683Z" fill="#FFB782"/>
<path d="M7.05355 34.8564L0.231521 17.1464C-0.45319 15.3686 0.432577 13.3716 2.21137 12.6865L34.4113 0.283462C36.1891 -0.401249 38.1861 0.484518 38.8708 2.26332L45.6929 19.9734C46.3776 21.7512 45.4918 23.7482 43.713 24.4332L11.5141 36.8363C9.73528 37.521 7.73925 36.6343 7.05355 34.8564Z" fill="#FF7851"/>
<path d="M0.000366211 22.4798V3.50165C0.000366211 1.59608 1.54542 0.0510254 3.451 0.0510254H37.9566C39.8622 0.0510254 41.4073 1.59608 41.4073 3.50165V22.4798C41.4073 24.3854 39.8622 25.9304 37.9566 25.9304H3.451C1.54542 25.9304 0.000366211 24.3854 0.000366211 22.4798Z" fill="#2559DA"/>
<path d="M3.45099 13.853H6.90162V15.5783H3.45099V13.853Z" fill="#5EB3D1"/>
<path d="M3.45099 19.0293H6.90162V20.7546H3.45099V19.0293Z" fill="#5EB3D1"/>
<path d="M18.9786 19.0293H22.4293V20.7546H18.9786V19.0293Z" fill="#5EB3D1"/>
<path d="M8.62695 13.853H12.0773V15.5783H8.62695V13.853Z" fill="#5EB3D1"/>
<path d="M13.8026 13.853H17.2532V15.5783H13.8026V13.853Z" fill="#5EB3D1"/>
<path d="M18.9786 13.853H22.4293V15.5783H18.9786V13.853Z" fill="#5EB3D1"/>
<path d="M35.3688 3.50171H37.0941V6.08968H35.3688V3.50171Z" fill="#5EB3D1"/>
<path d="M31.9181 3.50171H33.6434V6.08968H31.9181V3.50171Z" fill="#5EB3D1"/>
<path d="M28.4674 3.50171H30.1927V6.08968H28.4674V3.50171Z" fill="#5EB3D1"/>
<path d="M25.0171 3.50171H26.7421V6.08968H25.0171V3.50171Z" fill="#5EB3D1"/>
<path d="M34.506 41.4583H50.0335V50.0845H34.506V41.4583Z" fill="#03AA82"/>
<path d="M31.9741 15.6348C30.511 14.1769 28.1432 14.1812 26.6853 15.6444C25.2756 17.059 25.2267 19.3321 26.574 20.8065L33.6433 28.5186C31.5186 32.2373 31.6093 36.8229 33.8787 40.4548L34.506 41.4581H45.7202V29.3812L31.9741 15.6348Z" fill="#FFB782"/>
<path d="M37.0941 44.0461H38.8194V45.7715H37.0941V44.0461Z" fill="#03AA82"/>
<path d="M3.45099 9.02265V4.88203C3.45099 4.1194 4.06868 3.50171 4.83131 3.50171H8.97192C9.73455 3.50171 10.3519 4.1194 10.3519 4.88203V9.02265C10.3519 9.78527 9.73455 10.403 8.97192 10.403H4.83131C4.06868 10.403 3.45099 9.78527 3.45099 9.02265Z" fill="#FACC56"/>
<path d="M3.45099 6.0896H6.03896V7.81491H3.45099V6.0896Z" fill="#FD7B2F"/>
<path d="M7.7644 6.0896H10.352V7.81491H7.7644V6.0896Z" fill="#FD7B2F"/>
</g>
<defs>
<clipPath id="clip0">
<rect width="50" height="50" fill="white"/>
</clipPath>
</defs>
</svg>
