<svg width="50" height="50" viewBox="0 0 50 50" fill="none" xmlns="http://www.w3.org/2000/svg">
<path d="M40.5276 9.5564C35.4854 9.5564 31.3978 13.6432 31.3978 18.6845C31.3978 21.3427 32.5345 23.7351 34.3482 25.4034V27.8101L36.5252 26.8904C37.7337 27.4808 39.0919 27.8126 40.5276 27.8126C45.5698 27.8126 49.6574 23.7257 49.6574 18.6844C49.6574 13.6432 45.5698 9.5564 40.5276 9.5564Z" fill="#A6F5CF"/>
<path d="M40.5276 9.5564C39.8348 9.5564 39.16 9.63354 38.5114 9.77974C42.5835 10.6974 45.6249 14.3358 45.6249 18.6845C45.6249 23.033 42.5837 26.6713 38.5118 27.5892C39.1603 27.7354 39.8349 27.8127 40.5276 27.8127C45.5698 27.8127 49.6574 23.7258 49.6574 18.6845C49.6574 13.6432 45.5698 9.5564 40.5276 9.5564Z" fill="#8AEDBD"/>
<path d="M40.5275 22.225C40.1099 22.225 39.7715 21.8865 39.7715 21.469V18.9883C39.7715 18.5707 40.1099 18.2323 40.5275 18.2323C40.9748 18.2323 41.391 18.0532 41.6995 17.7284C42.0078 17.4036 42.1647 16.9778 42.1414 16.5291C42.0977 15.6888 41.4036 15.0172 40.5612 15.0002C39.7402 14.9879 39.0397 15.581 38.9268 16.3898C38.9165 16.4639 38.9113 16.5401 38.9113 16.6161C38.9113 17.0337 38.5728 17.3722 38.1552 17.3722C37.7377 17.3722 37.3992 17.0337 37.3992 16.6161C37.3992 16.4705 37.4093 16.3241 37.4292 16.1809C37.6479 14.6138 39.0065 13.455 40.5917 13.4885C42.2229 13.5213 43.567 14.8225 43.6515 16.4507C43.6966 17.3176 43.3927 18.1411 42.7961 18.7696C42.3845 19.2031 41.8561 19.5072 41.2836 19.6506V21.4689C41.2836 21.8865 40.9451 22.225 40.5275 22.225Z" fill="white"/>
<path d="M40.5275 24.5436C41.5004 24.5436 41.5021 23.0315 40.5275 23.0315C39.5545 23.0315 39.5529 24.5436 40.5275 24.5436Z" fill="white"/>
<path d="M0.206857 13.7066C0.206857 6.13662 6.39611 0 14.0309 0C21.6656 0 27.8549 6.13662 27.8549 13.7066V27.7033H0.118088L0.206857 13.7066Z" fill="#FFD54D"/>
<path d="M14.0308 0C13.346 0 12.6728 0.0494141 12.0146 0.144727C18.6938 1.1124 23.8224 6.81563 23.8224 13.7066V27.7033H27.8548V13.7066C27.8549 6.13662 21.6657 0 14.0308 0V0Z" fill="#FFC919"/>
<path d="M0 42.3087V40.2031C0 32.5196 6.28203 26.291 14.0312 26.291C21.7805 26.291 28.0625 32.5196 28.0625 40.2031V42.3087H0Z" fill="#D4D9FF"/>
<path d="M14.0477 28.926C13.6301 28.926 13.2916 29.2645 13.2916 29.6821V42.3087C13.2916 42.7263 13.6301 43.0648 14.0477 43.0648C14.4653 43.0648 14.8038 42.7263 14.8038 42.3087V29.6821C14.8038 29.2645 14.4653 28.926 14.0477 28.926Z" fill="#BDC4FF"/>
<path d="M8.96226 26.291L4.46451 30.0273L10.2683 33.9977L14.0476 29.682L8.96226 26.291Z" fill="#F4F4F4"/>
<path d="M19.133 26.291L23.6307 30.0273L17.8269 33.9977L14.0476 29.682L19.133 26.291Z" fill="#F4F4F4"/>
<path d="M4.98336 17.0967C4.64869 18.0639 4.46451 19.1003 4.46451 20.1801C4.46451 25.4278 8.75504 29.6818 14.0476 29.6818C19.3402 29.6818 23.6307 25.4278 23.6307 20.1801C23.6307 19.1004 23.1119 17.0967 23.1119 17.0967C18.1803 15.9472 16.4031 10.8606 16.4031 10.8606C13.588 18.3063 4.98336 17.0967 4.98336 17.0967Z" fill="#FFDBD3"/>
<path d="M18.1865 26.1638H14.1816C13.764 26.1638 13.4256 25.8254 13.4256 25.4078C13.4256 24.9902 13.764 24.6517 14.1816 24.6517H18.1866C21.1875 24.6517 23.6289 22.2339 23.6289 19.2622C23.6289 18.8446 23.9673 18.5061 24.3849 18.5061C24.8025 18.5061 25.141 18.8446 25.141 19.2622C25.141 23.0678 22.0212 26.1638 18.1865 26.1638Z" fill="white"/>
<path d="M24.3526 17.7117C23.935 17.7117 23.5966 17.3732 23.5966 16.9556V13.9987C23.5966 8.74829 19.2855 4.47671 13.9866 4.47671C8.68768 4.47671 4.37664 8.74829 4.37664 13.9987V16.9556C4.37664 17.3732 4.03817 17.7117 3.62059 17.7117C3.20301 17.7117 2.86453 17.3732 2.86453 16.9556V13.9987C2.86453 7.9144 7.85389 2.9646 13.9866 2.9646C20.1193 2.9646 25.1087 7.9144 25.1087 13.9987V16.9556C25.1087 17.3733 24.7702 17.7117 24.3526 17.7117Z" fill="white"/>
<path d="M3.62886 22.3351H3.61206C2.52945 22.3351 1.65181 21.4575 1.65181 20.3749V17.9078C1.65181 16.8251 2.52945 15.9475 3.61206 15.9475H3.62886C4.71148 15.9475 5.58911 16.8251 5.58911 17.9078V20.3749C5.58911 21.4575 4.71148 22.3351 3.62886 22.3351Z" fill="#7776D0"/>
<path d="M24.361 22.3351H24.3442C23.2616 22.3351 22.3839 21.4575 22.3839 20.3749V17.9078C22.3839 16.8251 23.2616 15.9475 24.3442 15.9475H24.361C25.4436 15.9475 26.3212 16.8251 26.3212 17.9078V20.3749C26.3212 21.4575 25.4436 22.3351 24.361 22.3351Z" fill="#7776D0"/>
<path d="M14.2884 27.1062C15.285 27.1062 16.0928 26.3052 16.0928 25.3171C16.0928 24.3291 15.285 23.5281 14.2884 23.5281C13.2919 23.5281 12.484 24.3291 12.484 25.3171C12.484 26.3052 13.2919 27.1062 14.2884 27.1062Z" fill="#7776D0"/>
<path d="M4.16925 39.1016H9.95646V42.0005H4.16925V39.1016Z" fill="#FFD54D"/>
<path d="M42.6544 49.9998H13.5765C12.7043 49.9998 11.9972 49.2928 11.9972 48.4205V47.1177H44.2336V48.4205C44.2336 49.2928 43.5266 49.9998 42.6544 49.9998Z" fill="#6967BF"/>
<path d="M45.2856 50.0001H23.8319C22.8963 50.0001 22.1932 49.1463 22.3726 48.228L25.1507 34.0119C25.3291 33.099 26.1289 32.4404 27.059 32.4404H48.5127C49.4483 32.4404 50.1515 33.2942 49.972 34.2125L47.1939 48.4286C47.0156 49.3414 46.2158 50.0001 45.2856 50.0001Z" fill="#7776D0"/>
<path d="M48.5126 32.4402H44.4803C45.416 32.4402 46.1191 33.294 45.9396 34.2123L43.1616 48.4284C42.9832 49.3413 42.1833 50 41.2533 50H45.2856C46.2157 50 47.0156 49.3413 47.1939 48.4285L49.9718 34.2124C50.1514 33.294 49.4483 32.4402 48.5126 32.4402Z" fill="#6967BF"/>
<path d="M36.1723 43.583C37.4772 43.583 38.5352 42.5251 38.5352 41.2201C38.5352 39.9151 37.4772 38.8572 36.1723 38.8572C34.8673 38.8572 33.8094 39.9151 33.8094 41.2201C33.8094 42.5251 34.8673 43.583 36.1723 43.583Z" fill="white"/>
</svg>
