<svg width="30" height="30" viewBox="0 0 30 30" fill="none" xmlns="http://www.w3.org/2000/svg">
<path d="M22.9054 14.1893C22.7979 14.1893 22.6948 14.1466 22.6187 14.0705C22.5427 13.9945 22.5 13.8914 22.5 13.7839V12.6041C22.5 12.4966 22.5427 12.3935 22.6187 12.3175C22.6948 12.2414 22.7979 12.1987 22.9054 12.1987C23.0129 12.1987 23.116 12.2414 23.1921 12.3175C23.2681 12.3935 23.3108 12.4966 23.3108 12.6041V13.7839C23.3108 13.8914 23.2681 13.9945 23.1921 14.0705C23.116 14.1466 23.0129 14.1893 22.9054 14.1893Z" fill="#A52479"/>
<path d="M21.7581 29.1892H8.2419C7.83023 29.1887 7.43554 29.025 7.14444 28.7339C6.85335 28.4428 6.68962 28.0481 6.68919 27.6365V2.36349C6.68962 1.95182 6.85335 1.55714 7.14444 1.26604C7.43554 0.974946 7.83023 0.81122 8.2419 0.810791H21.7581C22.1698 0.81122 22.5645 0.974946 22.8556 1.26604C23.1467 1.55714 23.3104 1.95182 23.3108 2.36349V9.7662C23.3108 9.87372 23.2681 9.97683 23.1921 10.0529C23.1161 10.1289 23.0129 10.1716 22.9054 10.1716C22.7979 10.1716 22.6948 10.1289 22.6188 10.0529C22.5427 9.97683 22.5 9.87372 22.5 9.7662V2.36349C22.4998 2.1668 22.4216 1.97822 22.2825 1.83913C22.1434 1.70005 21.9548 1.62182 21.7581 1.6216H8.2419C8.0452 1.62182 7.85662 1.70005 7.71754 1.83913C7.57845 1.97822 7.50022 2.1668 7.50001 2.36349V27.6365C7.50022 27.8332 7.57845 28.0217 7.71754 28.1608C7.85662 28.2999 8.0452 28.3781 8.2419 28.3784H21.7581C21.9548 28.3781 22.1434 28.2999 22.2825 28.1608C22.4216 28.0217 22.4998 27.8332 22.5 27.6365V20.6635C22.5 20.556 22.5427 20.4529 22.6188 20.3768C22.6948 20.3008 22.7979 20.2581 22.9054 20.2581C23.0129 20.2581 23.1161 20.3008 23.1921 20.3768C23.2681 20.4529 23.3108 20.556 23.3108 20.6635V27.6365C23.3104 28.0481 23.1467 28.4428 22.8556 28.7339C22.5645 29.025 22.1698 29.1887 21.7581 29.1892Z" fill="#A52479"/>
<path d="M22.9054 18.2309C22.7979 18.2309 22.6948 18.1882 22.6187 18.1122C22.5427 18.0362 22.5 17.9331 22.5 17.8255V16.6215C22.5 16.514 22.5427 16.4108 22.6187 16.3348C22.6948 16.2588 22.7979 16.2161 22.9054 16.2161C23.0129 16.2161 23.116 16.2588 23.1921 16.3348C23.2681 16.4108 23.3108 16.514 23.3108 16.6215V17.8255C23.3108 17.9331 23.2681 18.0362 23.1921 18.1122C23.116 18.1882 23.0129 18.2309 22.9054 18.2309Z" fill="#A52479"/>
<path d="M22.9054 5.67238H7.0946C6.98708 5.67238 6.88396 5.62967 6.80793 5.55364C6.73191 5.47762 6.68919 5.3745 6.68919 5.26698C6.68919 5.15946 6.73191 5.05634 6.80793 4.98031C6.88396 4.90428 6.98708 4.86157 7.0946 4.86157H22.9054C23.0129 4.86157 23.1161 4.90428 23.1921 4.98031C23.2681 5.05634 23.3108 5.15946 23.3108 5.26698C23.3108 5.3745 23.2681 5.47762 23.1921 5.55364C23.1161 5.62967 23.0129 5.67238 22.9054 5.67238Z" fill="#A52479"/>
<path d="M22.9054 23.919H7.0946C6.98708 23.919 6.88396 23.8763 6.80793 23.8002C6.73191 23.7242 6.68919 23.6211 6.68919 23.5136C6.68919 23.406 6.73191 23.3029 6.80793 23.2269C6.88396 23.1509 6.98708 23.1082 7.0946 23.1082H22.9054C23.0129 23.1082 23.1161 23.1509 23.1921 23.2269C23.2681 23.3029 23.3108 23.406 23.3108 23.5136C23.3108 23.6211 23.2681 23.7242 23.1921 23.8002C23.1161 23.8763 23.0129 23.919 22.9054 23.919Z" fill="#A52479"/>
<path d="M16.9172 3.72976H13.0828C12.9753 3.72976 12.8722 3.68704 12.7962 3.61102C12.7201 3.53499 12.6774 3.43187 12.6774 3.32435C12.6774 3.21683 12.7201 3.11371 12.7962 3.03769C12.8722 2.96166 12.9753 2.91895 13.0828 2.91895H16.9172C17.0247 2.91895 17.1278 2.96166 17.2038 3.03769C17.2799 3.11371 17.3226 3.21683 17.3226 3.32435C17.3226 3.43187 17.2799 3.53499 17.2038 3.61102C17.1278 3.68704 17.0247 3.72976 16.9172 3.72976Z" fill="#A52479"/>
<path d="M16.0305 27.4363H13.9695C13.7968 27.4394 13.6252 27.408 13.4648 27.344C13.3043 27.28 13.1582 27.1847 13.035 27.0637C12.9118 26.9426 12.814 26.7983 12.7472 26.639C12.6804 26.4797 12.646 26.3087 12.646 26.136C12.646 25.9633 12.6804 25.7923 12.7472 25.633C12.814 25.4737 12.9118 25.3293 13.035 25.2083C13.1582 25.0872 13.3043 24.9919 13.4648 24.928C13.6252 24.864 13.7968 24.8326 13.9695 24.8357H16.0305C16.2032 24.8326 16.3748 24.864 16.5352 24.928C16.6957 24.9919 16.8418 25.0872 16.965 25.2083C17.0882 25.3293 17.186 25.4737 17.2528 25.633C17.3196 25.7923 17.354 25.9633 17.354 26.136C17.354 26.3087 17.3196 26.4797 17.2528 26.639C17.186 26.7983 17.0882 26.9426 16.965 27.0637C16.8418 27.1847 16.6957 27.28 16.5352 27.344C16.3748 27.408 16.2032 27.4394 16.0305 27.4363ZM13.9695 25.6465C13.904 25.6446 13.8388 25.6558 13.7778 25.6796C13.7167 25.7034 13.6611 25.7391 13.6141 25.7848C13.5671 25.8304 13.5298 25.885 13.5043 25.9453C13.4788 26.0057 13.4656 26.0705 13.4656 26.136C13.4656 26.2015 13.4788 26.2663 13.5043 26.3267C13.5298 26.387 13.5671 26.4416 13.6141 26.4872C13.6611 26.5329 13.7167 26.5686 13.7778 26.5924C13.8388 26.6161 13.904 26.6274 13.9695 26.6255H16.0305C16.096 26.6274 16.1612 26.6161 16.2222 26.5924C16.2833 26.5686 16.3389 26.5329 16.3859 26.4872C16.4329 26.4416 16.4702 26.387 16.4957 26.3267C16.5212 26.2663 16.5344 26.2015 16.5344 26.136C16.5344 26.0705 16.5212 26.0057 16.4957 25.9453C16.4702 25.885 16.4329 25.8304 16.3859 25.7848C16.3389 25.7391 16.2833 25.7034 16.2222 25.6796C16.1612 25.6558 16.096 25.6446 16.0305 25.6465H13.9695Z" fill="#A52479"/>
<path d="M15 16.8904C14.8925 16.8904 14.7894 16.8477 14.7133 16.7717C14.6373 16.6956 14.5946 16.5925 14.5946 16.485V10.1351C14.5946 10.0276 14.6373 9.9245 14.7133 9.84848C14.7894 9.77245 14.8925 9.72974 15 9.72974C15.1075 9.72974 15.2106 9.77245 15.2867 9.84848C15.3627 9.9245 15.4054 10.0276 15.4054 10.1351V16.485C15.4054 16.5925 15.3627 16.6956 15.2867 16.7717C15.2106 16.8477 15.1075 16.8904 15 16.8904Z" fill="#A52479"/>
<path d="M15 16.8905C14.8925 16.8905 14.7894 16.8477 14.7134 16.7717L12.9981 15.0564C12.9243 14.98 12.8834 14.8776 12.8843 14.7713C12.8852 14.665 12.9279 14.5633 13.003 14.4881C13.0782 14.413 13.1799 14.3703 13.2862 14.3694C13.3925 14.3685 13.4949 14.4093 13.5714 14.4832L15 15.9118L16.4286 14.4832C16.5051 14.4093 16.6075 14.3685 16.7138 14.3694C16.8201 14.3703 16.9218 14.413 16.9969 14.4881C17.0721 14.5633 17.1147 14.665 17.1157 14.7713C17.1166 14.8776 17.0757 14.98 17.0019 15.0564L15.2866 16.7717C15.2106 16.8477 15.1075 16.8905 15 16.8905Z" fill="#A52479"/>
<path d="M19.1047 19.0539H10.8953C10.7878 19.0539 10.6846 19.0112 10.6086 18.9352C10.5326 18.8591 10.4899 18.756 10.4899 18.6485V16.6215C10.4899 16.5139 10.5326 16.4108 10.6086 16.3348C10.6846 16.2588 10.7878 16.2161 10.8953 16.2161C11.0028 16.2161 11.1059 16.2588 11.1819 16.3348C11.258 16.4108 11.3007 16.5139 11.3007 16.6215V18.2431H18.6993V16.6215C18.6993 16.5139 18.7421 16.4108 18.8181 16.3348C18.8941 16.2588 18.9972 16.2161 19.1047 16.2161C19.2123 16.2161 19.3154 16.2588 19.3914 16.3348C19.4674 16.4108 19.5102 16.5139 19.5102 16.6215V18.6485C19.5102 18.756 19.4674 18.8591 19.3914 18.9352C19.3154 19.0112 19.2123 19.0539 19.1047 19.0539Z" fill="#A52479"/>
</svg>
