<svg width="30" height="30" viewBox="0 0 30 30" fill="none" xmlns="http://www.w3.org/2000/svg">
<g clip-path="url(#clip0)">
<path d="M29.6965 6.48904L18.0125 0.073246C17.837 -0.0231133 17.6241 -0.0231133 17.4486 0.073246L13.0447 2.49138C12.9517 2.51587 12.865 2.56257 12.7931 2.62963L5.76483 6.48904C5.57738 6.5918 5.46088 6.78864 5.46088 7.00265V14.7622C4.27527 15.133 3.18877 15.7869 2.28537 16.6905C-0.0693639 19.045 -0.669721 22.6362 0.791461 25.6265C0.933368 25.9172 1.28424 26.0378 1.57492 25.8957C1.86583 25.7536 1.98622 25.4027 1.84432 25.112C0.602862 22.5712 1.11304 19.52 3.11392 17.5191C4.36522 16.2678 6.02874 15.5786 7.79822 15.5786C9.56771 15.5786 11.2312 16.2678 12.4825 17.5191C13.7336 18.7702 14.4227 20.4337 14.4227 22.2032C14.4227 23.9726 13.7336 25.6362 12.4823 26.8874C10.4814 28.8883 7.43018 29.3985 4.88936 28.1571C4.59868 28.0149 4.24781 28.1355 4.1059 28.4262C3.96376 28.7171 4.08416 29.068 4.37506 29.2099C5.46431 29.7423 6.63298 30.0009 7.79319 30.0009C9.81719 30.0007 11.8142 29.2129 13.3111 27.716C13.9975 27.0296 14.5399 26.2377 14.9238 25.3768L17.4486 26.7632C17.5365 26.8115 17.6335 26.8355 17.7305 26.8355C17.8276 26.8355 17.9249 26.8115 18.0125 26.7632L29.6965 20.3476C29.8839 20.2446 30.0004 20.0478 30.0004 19.834V15.762C30.0004 15.4383 29.7381 15.176 29.4145 15.176C29.0909 15.176 28.8286 15.4383 28.8286 15.762V19.4872L18.3183 25.2585V13.764L21.787 11.8593V14.8787C21.787 15.0861 21.8964 15.2779 22.0747 15.3832C22.1667 15.4374 22.2697 15.4646 22.373 15.4646C22.47 15.4646 22.5673 15.4406 22.6554 15.3921L25.1591 14.014C25.3464 13.911 25.4624 13.7144 25.4624 13.5008V9.84101L28.8286 7.99279V11.0747C28.8286 11.3983 29.0909 11.6606 29.4145 11.6606C29.7381 11.6606 30.0004 11.3983 30.0004 11.0747V7.00265C30.0004 6.78887 29.8839 6.5918 29.6965 6.48904ZM17.7305 1.25519L28.1971 7.00265L24.8955 8.81562L14.4289 3.06817L17.7305 1.25519ZM17.7305 12.7499L7.26401 7.00265L10.6867 5.12307L21.1535 10.8703L17.7305 12.7499ZM22.3707 10.202L11.9041 4.45473L13.2115 3.73673L23.6783 9.48396L22.3707 10.202ZM13.3111 16.6905C11.8384 15.2179 9.88059 14.407 7.79822 14.407C7.40432 14.407 7.01522 14.436 6.63275 14.493V7.99279L17.1467 13.7661V25.2606L15.3218 24.2585C15.5015 23.597 15.5944 22.9072 15.5944 22.2032C15.5944 20.1208 14.7835 18.1629 13.3111 16.6905ZM24.2908 13.1545L22.9589 13.8876V11.2159L24.2908 10.4846V13.1545Z" fill="#A52479"/>
<path d="M29.4141 12.8286C29.26 12.8286 29.1088 12.8913 28.9998 13.0003C28.8909 13.1092 28.8281 13.2603 28.8281 13.4146C28.8281 13.5686 28.8909 13.7197 28.9998 13.8286C29.1088 13.9378 29.26 14.0003 29.4141 14.0003C29.5681 14.0003 29.7194 13.9378 29.8284 13.8286C29.9373 13.7197 30 13.5686 30 13.4146C30 13.2603 29.9373 13.1092 29.8284 13.0003C29.7194 12.8913 29.5681 12.8286 29.4141 12.8286Z" fill="#A52479"/>
<path d="M5.82756 22.7882C5.97747 22.7882 6.12762 22.731 6.24183 22.6167C6.47072 22.3879 6.47072 22.0168 6.24183 21.788L5.83603 21.3819H9.29901C10.139 21.3819 10.8224 22.0654 10.8224 22.9054C10.8224 23.7454 10.139 24.4288 9.29901 24.4288H7.24708C6.92344 24.4288 6.66115 24.6911 6.66115 25.0147C6.66115 25.3382 6.92344 25.6005 7.24708 25.6005H9.29901C10.7851 25.6005 11.9943 24.3915 11.9943 22.9054C11.9943 21.4192 10.7851 20.2103 9.29901 20.2103H5.83603L6.24183 19.8042C6.47072 19.5753 6.47072 19.2043 6.24183 18.9754C6.01318 18.7468 5.64216 18.7468 5.41328 18.9754L4.00703 20.3817C3.77838 20.6106 3.77838 20.9816 4.00703 21.2105L5.41328 22.6165C5.52772 22.731 5.67764 22.7882 5.82756 22.7882Z" fill="#A52479"/>
<path d="M2.69966 27.8877C2.53303 27.8877 2.36755 27.8168 2.25197 27.6792L2.25082 27.6779C2.04254 27.4302 2.07458 27.0608 2.32223 26.8525C2.56988 26.644 2.93953 26.676 3.14781 26.9237C3.35586 27.1716 3.32451 27.5417 3.07686 27.75C2.96676 27.8424 2.83287 27.8877 2.69966 27.8877Z" fill="#A52479"/>
</g>
<defs>
<clipPath id="clip0">
<rect width="30" height="30" fill="white"/>
</clipPath>
</defs>
</svg>
