<svg width="30" height="30" viewBox="0 0 30 30" fill="none" xmlns="http://www.w3.org/2000/svg">
<g clip-path="url(#clip0)">
<path d="M12.1088 24.1905H6.31277C5.49209 24.1905 4.82443 23.5228 4.82443 22.7021V21.0723C4.95464 21.1026 5.08832 21.1195 5.22407 21.1195C5.28575 21.1195 5.34791 21.1163 5.41018 21.1098C5.51231 21.0992 5.61209 21.0796 5.70898 21.0525V22.7021C5.70898 23.0351 5.97983 23.3059 6.31277 23.3059H11.9927C12.2369 23.3059 12.435 23.108 12.435 22.8637C12.435 22.6193 12.2369 22.4214 11.9927 22.4214H6.59352V20.475C6.59647 20.4714 6.59966 20.4681 6.60255 20.4644C7.18523 19.7469 7.11228 18.7076 6.46025 18.0763C6.74502 17.9695 7.00614 17.7888 7.21129 17.5362C7.79397 16.8187 7.72103 15.7794 7.069 15.148C7.35376 15.0413 7.61488 14.8605 7.82004 14.6079C8.11831 14.2406 8.25571 13.7791 8.20688 13.3084C8.15805 12.8379 7.92889 12.4143 7.56157 12.1161L6.59347 11.3299V2.65359H8.55179L8.56447 2.69357C8.71184 3.1579 9.13813 3.46991 9.62528 3.46991H13.0436C13.5307 3.46991 13.957 3.15796 14.1044 2.69351L14.1172 2.65359H15.8748V8.79117C15.8748 9.03548 16.0727 9.23344 16.317 9.23344C16.5614 9.23344 16.7593 9.03548 16.7593 8.79117V2.37283C16.7593 2.03989 16.4885 1.76904 16.1556 1.76904H13.9981C13.6822 1.76904 13.4058 1.97137 13.3102 2.27247L13.2615 2.42597C13.2312 2.52132 13.1437 2.58536 13.0437 2.58536H9.6254C9.52544 2.58536 9.43793 2.52132 9.40768 2.42603L9.35897 2.27247C9.26344 1.97137 8.98705 1.76904 8.67109 1.76904H6.31277C5.97983 1.76904 5.70898 2.03995 5.70898 2.37283V10.6139C5.44768 10.4193 5.14346 10.3023 4.82443 10.2718V5.77014C4.82443 5.52583 4.62641 5.32787 4.38216 5.32787C4.13938 5.32787 3.94248 5.52347 3.94012 5.76572C3.61532 5.57295 3.23879 5.48957 2.85626 5.52925C2.38562 5.57808 1.96216 5.80724 1.66389 6.17456C1.36562 6.54188 1.22822 7.00338 1.27699 7.47402C1.32582 7.9446 1.55497 8.36812 1.92229 8.66639L3.93989 10.3048V10.4128C3.68455 10.5245 3.45769 10.696 3.27689 10.9186C2.97862 11.2859 2.84122 11.7474 2.88999 12.218C2.93333 12.6361 3.11938 13.0168 3.41783 13.3057C3.12705 13.4149 2.86911 13.5993 2.66808 13.8468C2.08529 14.5645 2.15835 15.6041 2.81073 16.2355C2.52585 16.342 2.26455 16.5223 2.05934 16.7751C1.76101 17.1424 1.62361 17.6039 1.67244 18.0745C1.72127 18.5451 1.95042 18.9686 2.31775 19.267L3.93983 20.5842V22.7021C3.93983 24.0105 5.00429 25.075 6.31271 25.075H12.1087C12.353 25.075 12.551 24.877 12.551 24.6327C12.551 24.3884 12.353 24.1905 12.1088 24.1905ZM2.47991 7.97968C2.29604 7.83037 2.18129 7.61838 2.15682 7.38273C2.1324 7.14709 2.20116 6.91605 2.35053 6.73212C2.49984 6.54825 2.71184 6.43355 2.94754 6.40902C3.18295 6.38449 3.41423 6.45331 3.5981 6.60274L3.93989 6.88031V9.16527L2.47991 7.97968ZM3.96359 11.4761C4.1129 11.2923 4.3249 11.1776 4.5606 11.153C4.59174 11.1498 4.62281 11.1482 4.65377 11.1482C4.85651 11.1482 5.05164 11.2172 5.21121 11.3467L7.00413 12.8026C7.188 12.952 7.30275 13.164 7.32723 13.3996C7.35164 13.6352 7.28288 13.8663 7.13357 14.0502C6.82528 14.4298 6.26565 14.488 5.88595 14.1795L4.09303 12.7236C3.90916 12.5743 3.79441 12.3623 3.76993 12.1267C3.74546 11.8911 3.81428 11.66 3.96359 11.4761ZM3.35485 14.4044C3.50416 14.2206 3.71615 14.1059 3.95186 14.0813C4.17771 14.0582 4.39902 14.1211 4.579 14.2578L5.32827 14.8663C5.33676 14.8732 5.34572 14.8789 5.35427 14.8856L6.39527 15.731C6.77492 16.0393 6.83294 16.5989 6.52465 16.9785C6.21635 17.3581 5.65667 17.4162 5.27702 17.1079L3.48417 15.652C3.10458 15.3438 3.04655 14.7841 3.35485 14.4044ZM2.55239 17.9833C2.52797 17.7477 2.59673 17.5167 2.7461 17.3328C2.92112 17.1172 3.17723 17.0053 3.4354 17.0053C3.62145 17.0053 3.80821 17.0642 3.96683 17.1835L4.71952 17.7947C4.72813 17.8017 4.73733 17.8075 4.74606 17.8143L5.78658 18.6593C6.16623 18.9676 6.22426 19.5273 5.91596 19.9069C5.76659 20.0907 5.5546 20.2055 5.31895 20.23C5.08337 20.2543 4.85227 20.1855 4.6684 20.0362L2.87554 18.5803C2.69155 18.431 2.5768 18.219 2.55239 17.9833Z" fill="#FFB400"/>
<path d="M4.38215 4.32768C4.62641 4.32768 4.82443 4.12971 4.82443 3.8854V2.37289C4.82443 1.5522 5.49214 0.884547 6.31276 0.884547H16.1555C16.9761 0.884547 17.6438 1.5522 17.6438 2.37289V10.5341C17.6438 10.7784 17.8418 10.9763 18.0861 10.9763C18.3304 10.9763 18.5283 10.7784 18.5283 10.5341V2.37289C18.5284 1.06446 17.4639 0 16.1555 0H6.31276C5.00434 0 3.93988 1.06446 3.93988 2.37289V3.88534C3.93988 4.12965 4.1379 4.32768 4.38215 4.32768Z" fill="#FFB400"/>
<path d="M28.6273 29.2714L25.61 25.722C25.4518 25.5359 25.1727 25.5133 24.9866 25.6715C24.8005 25.8297 24.7779 26.1088 24.9361 26.2949L27.9535 29.8442C28.0409 29.9471 28.1654 30.0001 28.2906 30.0001C28.3919 30.0001 28.4937 29.9655 28.5769 29.8948C28.7629 29.7366 28.7856 29.4574 28.6273 29.2714Z" fill="#FFB400"/>
<path d="M17.7979 28.0421C17.7293 27.9525 17.629 27.8926 17.5175 27.8745C15.9799 27.626 14.7362 26.4338 14.4228 24.9081L14.2598 24.1143C14.0754 23.2162 14.2239 22.2829 14.6779 21.4863L16.8658 17.6481C17.1503 17.1489 17.1059 16.5336 16.7527 16.0805L14.7035 13.4519C14.1039 12.6829 14.134 11.5913 14.7749 10.8565L14.8844 10.7309C14.9429 10.6637 15.0158 10.6525 15.054 10.6518C15.0931 10.6505 15.1654 10.6595 15.2265 10.7243L17.1819 12.799C17.3494 12.9768 17.6293 12.9849 17.8072 12.8174C17.9849 12.6499 17.9932 12.37 17.8256 12.1922L15.8702 10.1176C15.6548 9.88892 15.3511 9.76078 15.0369 9.76733C14.7228 9.7734 14.4243 9.91263 14.2177 10.1494L14.1082 10.275C13.1895 11.3284 13.1464 12.8931 14.0059 13.9956L16.0551 16.6242C16.187 16.7935 16.2037 17.0234 16.0973 17.21L13.9095 21.0483C13.349 22.0315 13.1657 23.1836 13.3934 24.2922L13.5564 25.086C13.9311 26.9106 15.3835 28.3487 17.1997 28.7156L18.0514 29.8268C18.1385 29.9404 18.2698 30 18.4028 30C18.4966 30 18.5912 29.9703 18.6715 29.9088C18.8654 29.7602 18.9021 29.4825 18.7535 29.2887L17.7979 28.0421Z" fill="#FFB400"/>
<path d="M23.2439 22.9385C23.1479 22.8255 23.095 22.6816 23.095 22.5334V20.2564C23.095 18.6613 22.4925 17.1437 21.3985 15.9829L19.119 13.5644C18.9515 13.3866 18.6715 13.3785 18.4937 13.546C18.316 13.7135 18.3077 13.9934 18.4753 14.1712L20.7548 16.5897C21.6935 17.5856 22.2104 18.8878 22.2104 20.2565V22.5335C22.2104 22.8913 22.3381 23.2387 22.57 23.5115L23.7113 24.8542C23.7988 24.9571 23.9233 25.01 24.0485 25.01C24.1498 25.01 24.2515 24.9755 24.3348 24.9048C24.5209 24.7465 24.5435 24.4674 24.3853 24.2813L23.2439 22.9385Z" fill="#FFB400"/>
<path d="M11.3345 4.81885C10.2002 4.81885 9.27747 5.74161 9.27747 6.87595C9.27747 8.01017 10.2002 8.93299 11.3345 8.93299C11.682 8.93299 12.0094 8.84607 12.2967 8.6934L12.9757 9.37244C13.062 9.45877 13.1753 9.50193 13.2884 9.50193C13.4016 9.50193 13.5148 9.45877 13.6011 9.37238C13.7739 9.19965 13.7739 8.91967 13.6011 8.74694L12.9726 8.11844C13.2352 7.773 13.3916 7.34252 13.3916 6.87607C13.3916 5.74161 12.4688 4.81885 11.3345 4.81885ZM10.162 6.87595C10.162 6.2294 10.688 5.70339 11.3345 5.70339C11.9811 5.70339 12.5071 6.2294 12.5071 6.87595C12.5071 7.52249 11.9811 8.04845 11.3345 8.04845C10.688 8.04845 10.162 7.52244 10.162 6.87595Z" fill="#FFB400"/>
<path d="M12.4764 19.9098H9.01725C8.94583 19.9098 8.88769 19.8517 8.88769 19.7803V17.8879C8.88769 17.8164 8.94583 17.7583 9.01725 17.7583H13.4568C13.7011 17.7583 13.8991 17.5604 13.8991 17.3161C13.8991 17.0717 13.7011 16.8738 13.4568 16.8738H9.01725C8.45809 16.8738 8.00314 17.3287 8.00314 17.8879V19.7803C8.00314 20.3394 8.45809 20.7944 9.01725 20.7944H12.4764C12.7206 20.7944 12.9186 20.5964 12.9186 20.3521C12.9186 20.1078 12.7206 19.9098 12.4764 19.9098Z" fill="#FFB400"/>
</g>
<defs>
<clipPath id="clip0">
<rect width="30" height="30" fill="white"/>
</clipPath>
</defs>
</svg>
