<svg width="30" height="30" viewBox="0 0 30 30" fill="none" xmlns="http://www.w3.org/2000/svg">
<g clip-path="url(#clip0)">
<path d="M8.88568 6.929C8.89922 6.7834 8.92852 6.64055 8.97334 6.50168C9.10957 6.31219 9.22049 6.10336 9.30111 5.88012C9.6825 5.38898 10.275 5.09766 10.8984 5.09766H12.5391C12.8123 5.09766 13.077 5.15104 13.3259 5.25627C13.5496 5.35102 13.8073 5.24619 13.9018 5.02272C13.9963 4.79924 13.8918 4.54137 13.6683 4.44686C13.6099 4.42213 13.5509 4.39945 13.4913 4.37871C13.9697 3.91512 14.2676 3.26613 14.2676 2.54883C14.2676 1.1434 13.1242 0 11.7188 0C10.3133 0 9.16992 1.1434 9.16992 2.54883C9.16992 3.26678 9.46834 3.91629 9.94758 4.38C9.76447 4.44375 9.58811 4.52561 9.42146 4.62416C9.23209 3.40441 8.17477 2.46791 6.90287 2.46791C5.49744 2.46791 4.35404 3.61131 4.35404 5.01674C4.35404 5.73416 4.65199 6.38326 5.13064 6.84686C5.01551 6.88682 4.90283 6.9341 4.79332 6.98848C4.46713 6.83654 4.10367 6.75164 3.72076 6.75164C2.31533 6.75164 1.17193 7.89504 1.17193 9.30047C1.17193 10.018 1.47 10.6672 1.94871 11.1308C0.815449 11.5256 0 12.6047 0 13.8708V15.863C0 16.8807 0.827988 17.7087 1.8457 17.7087H3.0283C3.271 17.7087 3.46775 17.512 3.46775 17.2693C3.46775 17.0265 3.271 16.8298 3.0283 16.8298H1.8457C1.31262 16.8298 0.878906 16.3961 0.878906 15.863V13.8708C0.878906 12.7562 1.78576 11.8494 2.90039 11.8494H4.54102C5.65564 11.8494 6.5625 12.7562 6.5625 13.8708V15.863C6.5625 16.3961 6.12879 16.8298 5.5957 16.8298H4.9251C4.6824 16.8298 4.48564 17.0265 4.48564 17.2693C4.48564 17.512 4.6824 17.7087 4.9251 17.7087H5.5957C6.61342 17.7087 7.44141 16.8807 7.44141 15.863V13.8708C7.44141 13.7193 7.42969 13.5704 7.40719 13.4251H8.77793C9.79564 13.4251 10.6236 12.5971 10.6236 11.5794V10.957H13.5938C14.6115 10.957 15.4395 10.129 15.4395 9.11133V7.11914C15.4395 6.73336 15.3649 6.35848 15.2177 6.00486C15.1244 5.78074 14.8672 5.67463 14.643 5.76803C14.419 5.86131 14.3129 6.11854 14.4062 6.3426C14.5086 6.58857 14.5605 6.84984 14.5605 7.11914V9.11133C14.5605 9.64441 14.1268 10.0781 13.5938 10.0781H10.6236V9.58711C10.6073 9.29643 10.5298 8.62137 10.0588 7.9459C9.64981 7.35926 9.14443 7.05984 8.88568 6.929ZM11.7188 0.878906C12.6396 0.878906 13.3887 1.62803 13.3887 2.54883C13.3887 3.46963 12.6396 4.21875 11.7188 4.21875C10.7979 4.21875 10.0488 3.46963 10.0488 2.54883C10.0488 1.62803 10.7979 0.878906 11.7188 0.878906ZM6.90281 3.34682C7.82361 3.34682 8.57273 4.09594 8.57273 5.01674C8.57273 5.17547 8.55047 5.32916 8.50887 5.47477C8.37902 5.66273 8.27227 5.86547 8.19088 6.0784C7.88432 6.44965 7.42072 6.68666 6.90281 6.68666C5.98201 6.68666 5.23289 5.93754 5.23289 5.01674C5.23289 4.09594 5.98201 3.34682 6.90281 3.34682ZM3.7207 7.63061C4.6415 7.63061 5.39062 8.37973 5.39062 9.30053C5.39062 10.2213 4.6415 10.9704 3.7207 10.9704C2.7999 10.9704 2.05078 10.2213 2.05078 9.30053C2.05078 8.37979 2.7999 7.63061 3.7207 7.63061ZM9.74473 11.5793C9.74473 12.1124 9.31102 12.5461 8.77793 12.5461H7.12078C6.78188 11.8888 6.19904 11.3769 5.4927 11.1308C5.97146 10.6672 6.26947 10.018 6.26947 9.30047C6.26947 8.65541 6.02859 8.06555 5.63203 7.61613C5.77893 7.58268 5.92998 7.56562 6.08256 7.56562H7.72318C7.92305 7.56562 8.12045 7.59475 8.30994 7.65223C9.16811 7.91238 9.74467 8.68998 9.74467 9.58711L9.74473 11.5793Z" fill="#A36D3C"/>
<path d="M21.8848 15.5273C18.3793 15.5273 15.5273 18.3793 15.5273 21.8848C15.5273 25.3903 18.3793 28.2422 21.8848 28.2422C25.3903 28.2422 28.2422 25.3903 28.2422 21.8848C28.2422 18.3793 25.3903 15.5273 21.8848 15.5273ZM21.8848 27.3633C18.8639 27.3633 16.4062 24.9056 16.4062 21.8848C16.4062 18.8639 18.8639 16.4062 21.8848 16.4062C24.9056 16.4062 27.3633 18.8639 27.3633 21.8848C27.3633 24.9056 24.9056 27.3633 21.8848 27.3633Z" fill="#A36D3C"/>
<path d="M28.4606 17.1282C28.3182 16.9317 28.0434 16.8877 27.8469 17.0302C27.6503 17.1726 27.6064 17.4473 27.7488 17.6439C28.6465 18.8829 29.1211 20.3494 29.1211 21.8848C29.1211 25.8749 25.8749 29.1211 21.8848 29.1211C17.8946 29.1211 14.6484 25.8749 14.6484 21.8848C14.6484 17.8946 17.8946 14.6484 21.8848 14.6484C23.5898 14.6484 25.2455 15.2528 26.5468 16.3501C26.7323 16.5066 27.0096 16.4829 27.166 16.2975C27.3224 16.1119 27.2989 15.8347 27.1134 15.6783C25.6537 14.4473 23.7969 13.7695 21.8848 13.7695C17.41 13.7695 13.7695 17.41 13.7695 21.8848C13.7695 26.3595 17.41 30 21.8848 30C26.3595 30 30 26.3595 30 21.8848C30 20.1629 29.4677 18.5181 28.4606 17.1282Z" fill="#A36D3C"/>
<path d="M22.4325 19.0455V18.4312C22.4325 18.1884 22.2357 17.9917 21.9931 17.9917C21.7504 17.9917 21.5536 18.1884 21.5536 18.4312V19.0455C20.8693 19.1545 20.3447 19.7487 20.3447 20.4632V20.8888C20.3447 21.6804 20.9887 22.3244 21.7802 22.3244H22.6016C22.6903 22.3244 22.7625 22.3965 22.7625 22.4852V23.3066C22.7625 23.6135 22.5128 23.8633 22.2059 23.8633H21.7802C21.4733 23.8633 21.2236 23.6135 21.2236 23.3066V23.0938C21.2236 22.8511 21.0268 22.6544 20.7841 22.6544C20.5415 22.6544 20.3447 22.8511 20.3447 23.0938V23.3066C20.3447 24.0211 20.8693 24.6153 21.5536 24.7243V25.3387C21.5536 25.5814 21.7504 25.7781 21.9931 25.7781C22.2357 25.7781 22.4325 25.5814 22.4325 25.3387V24.7243C23.1168 24.6153 23.6414 24.0211 23.6414 23.3066V22.4852C23.6414 21.9119 23.175 21.4455 22.6016 21.4455H21.7802C21.4733 21.4455 21.2236 21.1957 21.2236 20.8888V20.4632C21.2236 20.1563 21.4733 19.9065 21.7802 19.9065H22.2059C22.5128 19.9065 22.7625 20.1563 22.7625 20.4632V20.676C22.7625 20.9188 22.9593 21.1154 23.202 21.1154C23.4447 21.1154 23.6414 20.9188 23.6414 20.676V20.4632C23.6414 19.7486 23.1168 19.1545 22.4325 19.0455Z" fill="#A36D3C"/>
<path d="M19.3883 5.11627C21.8389 5.11627 23.8716 6.93918 24.2018 9.30021L23.8646 9.05113C23.6694 8.90681 23.3943 8.94818 23.25 9.14347C23.1058 9.33871 23.1472 9.6138 23.3424 9.758L24.4271 10.5592C24.5031 10.6155 24.5948 10.6452 24.6882 10.6452C24.711 10.6452 24.7339 10.6435 24.7568 10.6398C24.873 10.6215 24.977 10.5572 25.0455 10.4615L25.8763 9.30056C26.0176 9.10322 25.9721 8.82871 25.7747 8.68744C25.5773 8.54623 25.3029 8.59169 25.1616 8.7891L25.0379 8.96201C24.5575 6.27959 22.2069 4.2373 19.3884 4.2373C19.1457 4.2373 18.9489 4.434 18.9489 4.67676C18.9489 4.91951 19.1456 5.11627 19.3883 5.11627Z" fill="#A36D3C"/>
<path d="M9.21954 24.142C9.07523 23.9467 8.80007 23.9054 8.60495 24.0497C8.40972 24.1939 8.36835 24.469 8.51255 24.6642L8.76163 25.0014C6.40059 24.6712 4.57768 22.6385 4.57768 20.188C4.57768 19.9452 4.38093 19.7485 4.13823 19.7485C3.89553 19.7485 3.69878 19.9452 3.69878 20.188C3.69878 23.0065 5.741 25.357 8.42343 25.8374L8.25052 25.9612C8.05317 26.1024 8.00765 26.377 8.14892 26.5743C8.2347 26.6942 8.3697 26.7581 8.50663 26.7581C8.59517 26.7581 8.68452 26.7314 8.76198 26.676L9.92296 25.8452C10.0186 25.7767 10.0829 25.6727 10.1013 25.5564C10.1196 25.4401 10.0906 25.3213 10.0207 25.2267L9.21954 24.142Z" fill="#A36D3C"/>
</g>
<defs>
<clipPath id="clip0">
<rect width="30" height="30" fill="white"/>
</clipPath>
</defs>
</svg>
