<svg width="30" height="30" viewBox="0 0 30 30" fill="none" xmlns="http://www.w3.org/2000/svg">
<path d="M30 3.75527C30 3.5129 29.8036 3.31641 29.5611 3.31641H24.0159C23.7735 3.31641 23.5771 3.5129 23.5771 3.75527V5.22051C23.5771 5.78794 24.4548 5.78794 24.4548 5.22051V4.19414H29.1223V8.37796H27.4815C27.2391 8.37796 27.0427 8.57446 27.0427 8.81683V10.5002H24.4548V7.55851C24.4548 6.99108 23.5771 6.99108 23.5771 7.55851V10.9391C23.5771 11.1815 23.7735 11.378 24.0159 11.378H27.4815C27.5992 11.378 27.713 11.3299 27.795 11.2462L29.8746 9.12398C29.9543 9.04288 30 8.93012 30 8.81683V3.75527ZM27.9204 9.2557H28.5166L27.9204 9.86415V9.2557Z" fill="#A36D3C"/>
<path d="M17.9143 6.41043C18.392 6.5985 18.9147 6.58826 19.3861 6.38211C20.3561 5.95792 20.8042 4.82494 20.385 3.85639C20.1821 3.38756 19.8086 3.02628 19.3333 2.83915C18.8557 2.65114 18.333 2.66114 17.8614 2.86741C16.8915 3.29159 16.4434 4.42464 16.8625 5.39313C17.0654 5.86196 17.4389 6.22324 17.9143 6.41043ZM18.2131 3.67165C18.4689 3.55977 18.7526 3.55386 19.0117 3.65585C19.2684 3.75691 19.47 3.95189 19.5795 4.20497C19.8071 4.73102 19.5626 5.3469 19.0344 5.57786C18.7781 5.68992 18.4944 5.69548 18.2358 5.59366C17.9792 5.49261 17.7776 5.29763 17.668 5.04455C17.4404 4.51855 17.6849 3.90267 18.2131 3.67165Z" fill="#A36D3C"/>
<path d="M27.8865 11.8957H17.5862C18.2384 10.9598 18.4711 9.71578 18.2073 8.59713L18.4465 8.3547C18.5746 8.3571 18.703 8.35294 18.8307 8.34235L19.3635 8.84535C19.5142 8.96941 19.6733 8.99703 19.8406 8.92827L20.8334 8.49408C20.9937 8.42398 21.0971 8.26529 21.0964 8.09032L21.0936 7.35349C21.1891 7.2663 21.2801 7.17426 21.3661 7.07783L22.0963 7.05483C22.2711 7.04933 22.4261 6.94043 22.4905 6.77776L22.8894 5.77041C22.9542 5.60674 22.915 5.42013 22.7896 5.29643L22.3132 4.82631C22.3233 4.6675 22.3229 4.50828 22.312 4.34988L22.77 3.8649C22.8905 3.73733 22.9234 3.55032 22.8537 3.38928L22.4251 2.39884C22.3551 2.23687 22.1951 2.13014 22.0183 2.13429L21.3551 2.1405C21.2476 2.02516 21.1325 1.91685 21.0106 1.81638L20.9933 1.14514C20.9888 0.968659 20.8789 0.812129 20.7145 0.747761L19.7094 0.354418C19.5459 0.29046 19.3603 0.330017 19.2371 0.454831L18.7223 0.976441C18.5942 0.973984 18.4659 0.978197 18.3382 0.988788L17.8053 0.485786C17.6773 0.36501 17.4896 0.332182 17.3282 0.402869L16.3354 0.836998C16.1751 0.9071 16.0717 1.06579 16.0724 1.24076L16.0752 1.97759C15.9797 2.06478 15.8887 2.15682 15.8027 2.2532L15.0725 2.27619C14.8977 2.28169 14.7427 2.39059 14.6784 2.55327L14.2795 3.56056C14.2146 3.72428 14.2538 3.91083 14.3792 4.03454L14.8557 4.50471C14.8456 4.66358 14.846 4.8228 14.8568 4.98115L14.4909 5.36858C11.002 5.05283 8.69037 9.02131 10.6752 11.8956H2.32636C0.0973777 11.9878 0.0973192 15.1645 2.32636 15.2566H2.95716L7.79537 20.2417C8.19187 20.6502 8.81957 20.0367 8.42523 19.6304L4.18038 15.2568H26.0241L20.86 20.5165C20.4114 19.9024 19.3668 19.9273 19.0191 20.6361L17.5576 23.6243C16.584 22.6015 14.9089 23.3794 14.9161 24.732H13.3766L10.0627 21.3176C9.66753 20.9104 9.0376 21.5217 9.43282 21.9288L12.752 25.3488V27.3338C12.752 27.4898 12.8348 27.634 12.9695 27.7127L14.9834 28.8893C15.3607 30.1164 17.0803 30.3331 17.7532 29.2416C18.2687 29.7006 18.9265 29.9711 19.6212 29.9711C20.6377 29.9711 21.6543 29.9659 22.6707 29.9696C23.2142 29.9469 23.6521 29.6066 23.8057 29.0851C23.9232 28.6259 24.8387 25.0502 24.921 24.7289C25.113 23.9995 24.5533 23.2621 23.7959 23.2621C22.8846 23.2653 21.9733 23.2648 21.062 23.2652V21.5634C21.0643 21.5611 21.0665 21.5589 21.0688 21.5567L27.2541 15.2568H27.8865C30.116 15.1644 30.1151 11.9876 27.8865 11.8957ZM13.6297 25.6098H14.916V27.8335L13.6297 27.082V25.6098ZM16.4482 29.0942C16.0874 29.0942 15.7938 28.8006 15.7938 28.4398V24.6799C15.7938 23.8383 17.0951 23.8369 17.0951 24.6713V28.4468C17.0952 28.8001 16.8083 29.0942 16.4482 29.0942ZM23.7959 24.1399C24.0159 24.1399 24.0982 24.3272 24.0706 24.5112C23.9883 24.8325 23.0728 28.4082 22.9552 28.8678C22.9139 29.0082 22.8197 29.0833 22.6738 29.0919C22.141 29.09 20.071 29.0934 19.6211 29.0934C18.956 29.0934 18.4285 28.7108 17.9802 28.26V24.758L19.8005 21.0361C19.9002 20.8744 20.1842 20.9478 20.1842 21.1419V23.7042C20.1842 23.9466 20.3807 24.1431 20.6231 24.1431C21.1704 24.1431 23.6108 24.1399 23.7959 24.1399ZM13.4457 10.1042C12.7157 9.45591 13.2283 8.24808 14.1971 8.3042C14.7094 8.33592 15.1325 8.76255 15.1603 9.27539C15.1775 9.5919 15.0519 9.89402 14.8155 10.1043C14.5603 10.3313 14.6705 10.738 14.9544 10.8435C15.4757 11.0372 15.9149 11.4167 16.1885 11.8957H12.0712C12.3437 11.4136 12.7779 11.0399 13.3068 10.8435C13.5908 10.738 13.701 10.3314 13.4457 10.1042ZM15.7483 5.08173C15.7191 4.85405 15.7188 4.62227 15.7473 4.39277C15.7642 4.25742 15.7171 4.12196 15.6201 4.02611L15.2024 3.61392L15.3883 3.14457L16.0256 3.1245C16.1541 3.12046 16.2745 3.06019 16.3548 2.95966C16.484 2.79769 16.6311 2.64912 16.792 2.51816C16.8948 2.43442 16.9542 2.30873 16.9537 2.17619L16.9513 1.52585L17.414 1.3235L17.8835 1.7667C17.9805 1.85827 18.1138 1.90076 18.2462 1.88209C18.451 1.85312 18.6592 1.84628 18.8649 1.86155C18.9937 1.87109 19.1195 1.82375 19.2099 1.73217L19.6588 1.27727L20.1234 1.45908L20.1387 2.0471C20.1422 2.18362 20.2091 2.31072 20.3196 2.39089C20.5058 2.52606 20.6741 2.68405 20.8197 2.86053C20.9039 2.9627 21.0312 3.02145 21.1623 3.02011L21.7354 3.01472L21.9334 3.47243L21.5369 3.89228C21.4466 3.9879 21.404 4.11897 21.4207 4.24946C21.4499 4.47732 21.4502 4.70905 21.4216 4.93831C21.4047 5.07366 21.4517 5.20918 21.5488 5.30503L21.9665 5.71722L21.7807 6.18657L21.1434 6.20664C21.0149 6.21068 20.8946 6.27095 20.8143 6.37148C20.6849 6.53351 20.5378 6.68208 20.3769 6.81304C20.2742 6.89672 20.2147 7.02241 20.2152 7.15501L20.2176 7.80535L19.7549 8.0077L19.2854 7.5645C19.1884 7.47292 19.0548 7.43056 18.9227 7.44911C18.718 7.47813 18.5097 7.48498 18.304 7.46965C18.1431 7.458 17.9798 7.56052 17.8789 7.68025C17.3935 6.70391 16.5377 5.94291 15.4966 5.58222C15.6326 5.46683 15.7713 5.26196 15.7483 5.08173ZM14.1306 6.23104C16.7345 6.20758 18.3416 9.20376 16.8911 11.3561C16.6179 10.9123 16.2419 10.5419 15.7921 10.2747C15.9703 9.96102 16.0569 9.59974 16.0369 9.22787C15.9844 8.2616 15.2168 7.4879 14.2514 7.4281C12.7665 7.32898 11.7163 8.98287 12.4701 10.2745C12.0207 10.5416 11.6442 10.9125 11.3705 11.3564C9.9192 9.20341 11.5273 6.2074 14.1306 6.23104ZM27.8865 14.379H2.32636C1.26126 14.3348 1.26196 12.8172 2.32636 12.7735H27.8865C28.9517 12.8177 28.9509 14.3352 27.8865 14.379Z" fill="#A36D3C"/>
</svg>
