<svg width="110" height="110" viewBox="0 0 110 110" fill="none" xmlns="http://www.w3.org/2000/svg">
<path d="M61.0506 88.3456C61.0202 88.3456 60.9892 88.3429 60.9585 88.3377C60.6853 88.2907 60.5051 88.0471 60.5557 87.7934L65.8153 61.4423C65.8659 61.1886 66.1277 61.021 66.4015 61.0683C66.6748 61.1153 66.8549 61.3589 66.8044 61.6126L61.5448 87.9638C61.4997 88.1886 61.2885 88.3456 61.0506 88.3456Z" fill="#371A45"/>
<path d="M32.076 88.3456C31.838 88.3456 31.6268 88.1884 31.5821 87.9635L26.3225 61.6123C26.2719 61.3586 26.452 61.115 26.7253 61.068C26.9985 61.0213 27.2609 61.1883 27.3115 61.442L32.5712 87.7932C32.6218 88.0468 32.4416 88.2905 32.1684 88.3375C32.1374 88.3429 32.1063 88.3456 32.076 88.3456Z" fill="#371A45"/>
<path d="M60.1365 90.1109H32.3153C33.1258 86.5894 35.3572 84.0879 37.8021 82.3411C41.7371 79.5263 46.2267 78.6702 46.2267 78.6702C46.2267 78.6702 50.8237 79.5472 54.792 82.4417C57.1807 84.1846 59.3416 86.6579 60.1365 90.1109Z" fill="white"/>
<path d="M60.7589 90.5785H31.694L31.8239 90.0139C32.7196 86.1226 35.4824 82.8463 39.8141 80.5391C43.06 78.8101 46.0017 78.2362 46.1251 78.2125L46.2263 78.1931L46.3275 78.2125C46.4512 78.2362 49.3926 78.8101 52.6385 80.5391C56.9701 82.8463 59.733 86.1226 60.6287 90.0139L60.7589 90.5785ZM32.9524 89.6445H59.5002C58.5356 86.2345 56.0702 83.4503 52.1636 81.3628C49.3821 79.8766 46.7668 79.265 46.2263 79.1487C45.6857 79.265 43.0704 79.8766 40.289 81.3628C36.3827 83.4503 33.9173 86.2345 32.9524 89.6445Z" fill="#371A45"/>
<path d="M78.911 44.8496C78.911 45.1545 78.9071 45.4596 78.8976 45.7627C78.3776 62.0148 64.0246 75.0408 46.3943 75.0408C28.7657 75.0408 14.4107 62.0148 13.891 45.7627C13.8812 45.4593 13.8777 45.1545 13.8777 44.8496C13.8777 41.0314 14.6412 37.3801 16.0343 34.018C20.6665 22.8327 32.2639 14.8556 45.892 14.6638C46.0581 14.6602 46.2262 14.6602 46.3943 14.6602C46.5624 14.6602 46.7325 14.6602 46.9006 14.6638C60.5309 14.8574 72.1241 22.8348 76.7544 34.018C78.1475 37.3804 78.911 41.0317 78.911 44.8496Z" fill="#00BDFF"/>
<path d="M63.5217 61.6197C63.3706 60.1305 62.4749 58.7334 61.1418 57.9091C59.4307 56.8511 59.0419 54.5345 58.8046 52.8723C58.6133 51.5315 57.7046 50.4893 56.2964 51.4136C53.0606 53.5378 48.368 50.3063 47.4475 47.2075C46.6435 43.892 47.4915 40.9918 49.3051 38.1727C50.5641 36.2159 53.212 35.627 55.3377 36.5932C57.8433 37.7318 61.7496 34.2093 62.157 31.9085C62.2033 31.6463 62.2337 31.2915 62.1341 31.0823C61.1199 28.967 57.6468 28.8309 56.4857 30.7938C55.734 32.0649 54.1796 32.5267 52.7916 31.8397C50.2403 30.5772 49.4373 31.6315 48.569 33.9566C48.2893 34.706 48.2857 36.0616 47.2852 35.4858C46.3017 34.9197 45.4589 33.7899 45.9698 32.7146C47.216 30.0923 48.3755 27.3084 49.1204 24.4823C49.169 24.2978 49.3675 24.0478 49.5046 24.0344C52.6722 23.7259 52.3402 19.9343 52.961 17.8208C53.1801 17.0756 53.0126 16.7346 52.4949 16.4401C51.9664 16.1394 51.7206 16.4807 51.5163 17.0044C51.1732 17.8832 50.8367 18.7657 50.4881 19.641C50.3092 20.0901 50.2442 20.7732 49.7056 20.6993C49.075 20.6129 48.7509 19.8998 48.7877 19.2519C48.8935 17.3959 49.4233 15.3239 50.6402 13.8226C51.5613 12.6861 53.3403 11.8642 54.7531 12.737C56.5076 13.821 57.8746 13.711 59.795 12.7952C60.6016 12.4103 61.4692 11.9942 62.3228 11.7551C63.7642 11.3517 64.7941 10.274 65.1584 8.91362C65.5452 7.55652 66.7216 6.57855 68.1886 6.31974C69.1133 6.1567 69.7103 5.6818 69.9803 4.64716C70.4604 2.80487 72.0266 1.41444 73.915 0.822563C76.7228 -0.0572163 79.0411 0.0879486 81.076 2.03449C81.6315 2.56576 82.2103 2.35877 82.7531 2.25057C84.1727 1.96721 85.6889 1.75053 87.0364 1.43868C88.0578 1.20229 89.5244 1.65112 90.1841 2.41089C90.6293 2.92336 91.146 2.98034 91.6566 2.91276C92.3577 2.81972 93.1127 2.8076 93.7757 2.73638C95.3758 2.56454 96.057 2.86972 96.8992 4.20894C97.2331 5.52148 96.2924 7.27559 94.9681 7.5944C94.5836 7.68684 94.1184 7.74745 93.6765 7.75442C92.4377 7.77321 92.2324 8.49661 92.6473 9.94978C93.5377 13.0679 92.424 17.6596 88.8415 18.8164C87.9726 19.097 87.4914 19.4134 87.8972 20.6947C88.1094 21.3651 88.2301 22.1576 87.874 22.8507C87.0576 24.4396 86.6186 26.2328 87.1461 27.9408C87.561 29.284 86.1717 30.2977 84.8696 29.5883C83.4549 28.8176 82.0745 27.939 80.7593 27.0108C79.7432 26.2934 79.1631 26.5195 78.7319 27.7799C78.3605 28.8667 77.7458 29.9695 77.4618 31.0196C77.1002 32.3573 75.8914 33.2823 74.5681 32.2561C73.0568 31.363 72.2456 31.0223 70.6863 31.3878C70.1343 31.5172 69.5148 31.3181 68.9808 30.9417C68.4379 30.5593 67.8089 30.135 67.524 31.1714C67.2553 32.1476 68.1246 32.0864 68.5156 32.3834C69.2246 32.9222 69.9986 33.3483 70.7412 33.7871C72.0452 34.5578 72.1915 35.7801 71.3428 36.9253C70.5153 38.0421 68.9573 38.9634 67.5155 38.0388C66.5444 37.466 65.5896 36.8656 64.6224 36.2916C64.1638 36.0195 63.7323 35.5373 63.3131 36.5186C62.8689 37.5587 63.5126 37.6363 63.9373 37.903C65.6284 38.9643 67.3275 40.0114 69.0575 41.0154C70.5463 41.8794 71.0444 43.6341 70.2548 45.0664C68.626 48.0206 68.9292 51.216 70.0896 54.5351C70.5642 55.8931 70.92 57.2348 71.2399 58.6382C71.8921 61.4221 70.483 65.5768 67.1698 66.3268C65.8511 66.6008 64.7624 65.7477 64.3831 64.6233C64.0548 63.6545 63.7926 62.6195 63.5217 61.6197Z" fill="#77E236"/>
<path d="M1.13739 42.5494C-0.244352 39.9091 -0.0331573 37.8419 3.13737 36.7055C7.8215 34.8156 12.4456 32.7976 16.9998 30.6674C17.7679 30.3079 18.5558 29.8755 19.2394 30.6613C19.8171 31.3253 19.7773 32.1623 19.4835 33.0473C18.9622 34.6177 20.2183 35.0111 21.4003 35.5436C22.3959 35.9921 23.4913 35.4157 24.3106 34.6529C25.031 33.9819 24.2953 33.1497 24.1487 32.4057C24.0462 31.885 23.7241 31.3301 24.1517 30.8713C24.5933 30.3976 25.0461 30.8459 25.4241 31.0889C26.182 31.5756 26.904 31.652 27.7452 31.2077C28.4816 30.8186 29.2706 30.8407 29.8353 31.6293C30.3941 32.4093 30.307 33.3664 29.9695 34.2353C28.5952 37.7719 27.049 41.3592 25.7051 44.8005C25.128 46.2779 23.3578 46.7831 21.946 47.3295C20.5297 47.8777 20.4945 49.34 21.1075 50.4431C21.3601 50.898 21.6412 51.2286 22.0903 51.0601C23.8798 50.3892 25.3751 51.6017 26.6948 52.4548C27.7083 53.11 29.0992 53.5188 30.3148 52.9288C31.769 52.2227 32.9634 52.2999 34.3977 53.1018C35.5222 53.7304 37.107 54.6738 38.5096 54.3047C40.3385 53.8234 41.2923 58.7384 40.9245 60.0055C39.9175 63.4743 38.5465 67.1828 37.1386 70.5934C36.3738 72.4466 36.2482 74.3171 36.9026 76.1361C37.2304 77.0462 37.4902 78.115 37.7321 79.123C37.8819 79.7473 38.3666 80.5074 38.0059 80.9938C37.5568 81.5999 36.8857 80.965 36.3647 80.6771C34.604 79.6958 33.502 77.8559 32.9853 76.0739C32.6017 74.7517 32.1539 73.3937 31.8598 72.0636C31.2745 69.4167 30.2626 66.6107 27.6313 65.0757C25.2504 63.5543 24.3815 58.8939 25.1019 56.5543C25.2902 55.9427 26.1422 55.2881 25.4874 54.6026C24.8048 53.888 23.8925 52.9576 22.969 53.2979C21.0765 53.9952 18.9972 52.8973 17.5351 51.8505C16.11 50.8301 14.6701 49.8037 13.0827 48.9902C10.7495 47.8147 10.0973 45.2678 9.29268 43.18C8.60948 41.408 5.8225 39.4285 3.78107 39.6712C2.28704 39.8491 1.80296 41.432 1.13739 42.5494Z" fill="#77E236"/>
<path d="M105.92 40.6143C105.938 40.6676 105.968 40.7195 105.973 40.774C106.049 41.6095 107.068 42.4648 106.256 43.2042C105.481 43.9091 103.926 44.638 102.819 44.0825C101.134 43.5815 100.468 43.6812 99.0124 44.4295C97.8405 45.0323 96.3286 45.012 95.4237 43.9473C94.3775 42.7927 94.4722 41.2044 95.001 39.877C95.8255 37.8071 98.0005 35.6487 100.495 35.7781C102.97 35.9069 105.182 38.542 105.92 40.6143Z" fill="#77E236"/>
<path d="M32.8146 15.5647C33.4015 15.2659 34.0262 14.9465 34.5789 14.6753C35.7608 14.0949 37.8058 12.4632 38.883 14.2146C40.4247 16.7209 40.755 19.0581 39.7696 21.6283C38.9307 23.8161 37.9096 26.1672 37.108 28.482C36.4359 30.4225 35.6019 30.6661 34.2413 29.5697C33.4576 28.9381 32.5537 28.3595 32.2433 27.3464C31.7338 25.6848 30.4242 24.4398 28.8299 23.6358C27.947 23.1906 27.0004 22.5275 27.3036 21.0013C27.5657 19.6827 27.8755 18.0256 29.298 17.3543C30.4539 16.8091 31.6434 16.1721 32.8175 15.5744C32.8165 15.5711 32.8155 15.5681 32.8146 15.5647Z" fill="#77E236"/>
<path d="M23.3602 27.9278C22.3528 28.4988 21.4868 28.9036 20.5533 28.5418C20.1593 28.389 19.8293 28.0911 19.7516 27.6438C19.6445 27.0298 20.171 26.9122 20.5177 26.7201C21.1013 26.3964 21.7065 26.1288 22.299 25.8197C23.3526 25.27 24.5522 24.9754 24.9018 26.4471C25.2237 27.8011 23.7339 27.388 23.3602 27.9278Z" fill="#77E236"/>
<path d="M86.9315 33.1553C88.372 33.0395 90.4925 34.0432 91.19 35.0427C91.6356 35.681 91.0023 36.0522 90.6423 36.1104C89.5602 36.2853 87.0232 35.0394 86.3841 34.1235C86.1497 33.7877 86.3495 33.3826 86.9315 33.1553Z" fill="#77E236"/>
<path d="M71.6122 54.664C71.3765 53.5187 71.276 52.027 72.4438 51.3006C73.3173 50.7575 73.4397 51.9507 73.6134 52.6116C73.912 53.7478 74.0338 55.2434 72.8166 55.9753C71.841 56.5623 71.9523 55.2552 71.6122 54.664Z" fill="#77E236"/>
<path d="M96.6989 13.1446C96.9221 14.545 95.5336 17.2119 94.3699 17.4841C94.0637 17.5556 93.5388 17.2262 93.6994 16.8519C94.2018 15.5442 94.6189 13.9519 95.8681 13.1358C96.0927 12.9894 96.5908 12.773 96.6989 13.1446Z" fill="#77E236"/>
<path d="M96.0828 34.407C95.647 34.3895 94.8352 35.3717 94.559 34.0867C94.2643 32.7145 95.2266 32.2138 96.2124 32.0187C96.7386 31.9144 97.5328 31.1795 97.8031 32.1181C98.2173 33.3027 97.2854 34.2122 96.0828 34.407Z" fill="#77E236"/>
<path d="M109.308 41.1292C109.236 41.5663 110.205 42.1636 109.249 42.3967C108.252 42.6397 107.736 41.792 107.509 40.9029C107.378 40.3913 106.685 39.5767 107.467 39.3521C108.819 38.9639 108.872 40.3352 109.308 41.1292Z" fill="#77E236"/>
<path d="M46.4688 23.3344C46.7387 24.2966 47.2162 25.7316 46.0921 26.378C45.386 26.7841 45.2855 25.738 45.1739 25.1897C44.9754 24.216 44.3964 22.7471 45.4233 22.0255C46.3078 21.4042 46.0594 23.0695 46.4688 23.3344Z" fill="#77E236"/>
<path d="M91.9975 29.2047C92.2596 30.1924 92.539 31.1891 91.4726 31.5158C90.6213 31.7768 90.7006 30.7597 90.4849 30.2269C90.1101 29.3014 90.3164 28.4068 91.0411 28.0731C91.9188 27.6688 91.7265 28.825 91.9975 29.2047Z" fill="#77E236"/>
<path d="M44.5796 25.8048C44.7406 26.4418 44.6593 26.9458 44.089 27.1895C43.7009 27.3552 43.4039 27.2407 43.2639 26.7464C43.0893 26.1297 43.2179 25.586 43.6765 25.249C44.1674 24.8886 44.4106 25.2935 44.5796 25.8048Z" fill="#77E236"/>
<path d="M66.6765 66.6812C65.3972 66.6812 64.4222 65.7565 64.0703 64.714C63.7997 63.9124 63.5722 63.0629 63.3522 62.2417C63.3029 62.058 63.2539 61.8753 63.2047 61.6931L63.1962 61.6477C63.0535 60.2415 62.2176 58.9383 60.9602 58.161C59.2083 57.0782 58.7614 54.8837 58.4804 52.9117C58.3743 52.1677 58.042 51.5977 57.6134 51.424C57.2981 51.2961 56.9181 51.3758 56.484 51.661C55.241 52.4771 53.7237 52.6229 52.0959 52.0832C49.8211 51.3285 47.7333 49.312 47.132 47.2879C46.3701 44.1473 46.9727 41.2061 49.0239 38.0173C50.3381 35.9747 53.114 35.2453 55.4806 36.3208C56.3691 36.7245 57.3898 36.4096 58.0896 36.0744C59.8654 35.2238 61.5801 33.2936 61.834 31.8592C61.8964 31.5065 61.8735 31.2861 61.8347 31.2046C61.4139 30.327 60.4503 29.7539 59.3206 29.7099C58.2212 29.6678 57.2445 30.1384 56.7709 30.9394C55.9189 32.3796 54.1804 32.8708 52.6371 32.1068C51.6888 31.6377 50.9815 31.4986 50.4752 31.6831C49.7904 31.9322 49.3409 32.8117 48.8764 34.0555C48.8196 34.2079 48.7739 34.3937 48.7253 34.5907C48.5914 35.1341 48.4534 35.6959 47.9902 35.8756C47.7339 35.975 47.4382 35.9305 47.1121 35.7429C45.965 35.0825 45.1013 33.7882 45.67 32.592C47.1643 29.4475 48.1596 26.8475 48.802 24.4101C48.8598 24.1909 49.1147 23.7673 49.4692 23.7327C51.6523 23.5203 51.9833 21.4504 52.3038 19.4487C52.4027 18.8308 52.4961 18.2471 52.6449 17.7407C52.8313 17.1067 52.7027 16.9142 52.3231 16.6981C52.214 16.636 52.1442 16.6242 52.1158 16.6333C52.0783 16.6454 51.9745 16.716 51.8217 17.1073C51.7042 17.4085 51.5873 17.7101 51.4708 18.0116C51.2465 18.5907 51.0223 19.1702 50.7928 19.746C50.7595 19.8293 50.7295 19.9257 50.6978 20.0275C50.5735 20.4273 50.3652 21.0961 49.6565 20.9991C48.8209 20.8846 48.4165 20.0051 48.4605 19.2359C48.5343 17.9386 48.8816 15.4865 50.3783 13.6403C51.4176 12.3581 53.367 11.5171 54.9328 12.4847C56.4761 13.4382 57.709 13.4488 59.645 12.5256L59.6822 12.5078C60.5065 12.1147 61.3587 11.708 62.2277 11.4649C63.5206 11.1031 64.4976 10.1221 64.8407 8.84046C65.2556 7.38457 66.5146 6.30629 68.1268 6.02203C68.9777 5.87201 69.4367 5.43955 69.6619 4.57583C70.1489 2.70688 71.6994 1.19674 73.8094 0.535469C77.0145 -0.468864 79.3279 -0.0718585 81.3089 1.82346C81.6576 2.15713 81.9719 2.10834 82.4968 1.99378C82.5591 1.98015 82.6215 1.96651 82.6828 1.95439C83.2567 1.83983 83.8531 1.73497 84.4299 1.63345C85.2799 1.48404 86.1583 1.32948 86.956 1.14462C88.105 0.878228 89.6989 1.3713 90.437 2.22077C90.7399 2.56959 91.0797 2.68324 91.6092 2.61263C92.0172 2.55838 92.4389 2.5311 92.847 2.50474C93.1603 2.48443 93.4564 2.46534 93.7371 2.43503C95.4766 2.24835 96.2812 2.62687 97.1799 4.05579L97.2043 4.09488L97.2154 4.13913C97.5983 5.64533 96.5048 7.53701 95.0487 7.88765C94.6233 7.99008 94.1373 8.05009 93.6806 8.05706C93.2961 8.06312 93.0467 8.14222 92.9184 8.2995C92.7161 8.54771 92.7304 9.062 92.9615 9.87177C93.4342 11.5274 93.3477 13.5248 92.7294 15.2156C92.0172 17.1642 90.674 18.5447 88.9472 19.102C88.2225 19.336 87.8609 19.5093 88.2088 20.6088C88.5108 21.5625 88.4971 22.3384 88.167 22.9805C87.2492 24.7674 87.0109 26.4081 87.4584 27.8567C87.6888 28.6029 87.4541 29.3384 86.846 29.7763C86.2412 30.2118 85.4199 30.2397 84.7031 29.849C83.3589 29.1168 81.965 28.2428 80.5605 27.2515C80.1707 26.9766 79.8733 26.8666 79.6762 26.9242C79.447 26.9915 79.2339 27.31 79.0419 27.871C78.8768 28.354 78.6643 28.8411 78.459 29.3123C78.188 29.933 77.9324 30.5194 77.7774 31.0931C77.5274 32.0171 76.9411 32.7008 76.2093 32.9217C75.7879 33.0493 75.1288 33.0784 74.3745 32.5014C72.9392 31.6543 72.2067 31.3434 70.7652 31.6813C70.148 31.8262 69.4439 31.6489 68.7825 31.1828C68.5981 31.0528 68.2142 30.7812 68.0706 30.8291C68.0115 30.8482 67.9156 30.9688 67.8395 31.2458C67.7132 31.7056 67.8708 31.7665 68.2528 31.9141C68.4133 31.9762 68.5795 32.0401 68.7215 32.1483C69.2937 32.5832 69.923 32.9505 70.5312 33.3057C70.6598 33.3809 70.7881 33.4557 70.9154 33.5309C71.5907 33.93 72.0187 34.4655 72.1532 35.0795C72.2955 35.728 72.1078 36.4257 71.6106 37.0967C70.9856 37.9401 70.0928 38.5325 69.2219 38.6813C68.5609 38.7941 67.9064 38.6583 67.329 38.2877C66.8286 37.9928 66.3151 37.6794 65.8183 37.3764C65.3616 37.0976 64.905 36.8191 64.4457 36.5466C64.3791 36.5069 64.3128 36.4636 64.2472 36.4202C64.1402 36.3496 63.9424 36.2178 63.8826 36.2338C63.8816 36.2342 63.7697 36.2684 63.6153 36.6296C63.3506 37.2494 63.5134 37.3324 63.8705 37.5146C63.9522 37.5561 64.0364 37.5991 64.119 37.6512C65.5056 38.5216 67.3398 39.6611 69.2294 40.7579C70.856 41.7019 71.4213 43.6136 70.5442 45.2041C69.1354 47.7594 69.089 50.6946 70.399 54.4413C70.8246 55.6589 71.1932 56.9727 71.5581 58.5753C72.2145 61.3776 70.8919 65.7956 67.2461 66.6211C67.0505 66.6621 66.8602 66.6812 66.6765 66.6812ZM63.8441 61.5677C63.8918 61.7428 63.9388 61.9189 63.9861 62.0956C64.2038 62.9084 64.4291 63.7491 64.6938 64.5331C64.997 65.4323 65.8787 66.2848 67.0979 66.0314C70.3066 65.305 71.5065 61.2055 70.9203 58.7029C70.5547 57.0985 70.2028 55.8426 69.7784 54.6288C68.4114 50.7191 68.4705 47.6364 69.9635 44.9283C70.6849 43.62 70.2207 42.0483 68.8837 41.2722C66.9853 40.1703 65.1449 39.0268 63.7537 38.1537C63.6959 38.1174 63.628 38.0828 63.5562 38.0461C63.173 37.8504 62.5319 37.5231 63.0088 36.4066C63.126 36.132 63.3251 35.755 63.6979 35.6529C64.0609 35.5535 64.3742 35.7602 64.6262 35.9269C64.683 35.9644 64.7398 36.0023 64.7976 36.0363C65.2591 36.3102 65.7181 36.5899 66.1774 36.8703C66.6719 37.1721 67.1834 37.484 67.69 37.7828C68.1385 38.0701 68.6105 38.1698 69.1044 38.0852C69.8085 37.9649 70.5446 37.467 71.0734 36.7533C71.4677 36.2211 71.6201 35.6841 71.514 35.2004C71.4141 34.7452 71.0952 34.3555 70.5651 34.0421C70.4388 33.9676 70.3115 33.8933 70.1839 33.8185C69.5584 33.4533 68.9118 33.0757 68.3082 32.6172C68.2404 32.5656 68.1245 32.5208 68.0021 32.4735C67.6051 32.3202 66.9409 32.0635 67.2072 31.0958C67.3352 30.6312 67.5474 30.3566 67.8562 30.2566C68.3311 30.1033 68.8008 30.4336 69.1778 30.6997C69.6707 31.047 70.191 31.191 70.6062 31.0934C72.2857 30.7 73.1977 31.087 74.743 31.9998L74.7769 32.0229C75.2042 32.3541 75.6184 32.4626 76.0079 32.345C76.5174 32.1911 76.9529 31.6546 77.1448 30.9452C77.3109 30.3306 77.5874 29.6972 77.8544 29.0847C78.0552 28.6244 78.2628 28.1483 78.4204 27.6876C78.6875 26.9066 79.024 26.4802 79.4797 26.3463C80.0353 26.1829 80.5885 26.5093 80.9564 26.7688C82.3404 27.7455 83.7124 28.6059 85.0344 29.326C85.5237 29.5923 86.0515 29.5817 86.4468 29.2972C86.8395 29.0144 86.9874 28.5262 86.832 28.0234C86.3391 26.4281 86.5904 24.6434 87.5792 22.7193C87.8367 22.2177 87.838 21.5831 87.5837 20.7791C87.1346 19.3596 87.6908 18.8659 88.734 18.5289C91.9852 17.4791 93.2393 13.2054 92.3315 10.0263C92.0374 8.99684 92.0583 8.35133 92.3988 7.93311C92.656 7.61732 93.0722 7.45943 93.6708 7.45034C94.0717 7.44428 94.5146 7.38942 94.8858 7.30002C96.0005 7.03181 96.8645 5.51168 96.5913 4.32066C95.8347 3.13146 95.2804 2.87841 93.8128 3.0366C93.5171 3.06843 93.1998 3.08873 92.893 3.10873C92.4967 3.13449 92.0867 3.16086 91.7022 3.21207C91.2243 3.27541 90.5205 3.28117 89.9294 2.6005C89.3539 1.93863 88.0127 1.52435 87.1143 1.73255C86.2986 1.92135 85.4108 2.07773 84.5519 2.22865C83.9791 2.32957 83.3866 2.43352 82.8209 2.54656C82.7631 2.55808 82.7054 2.5708 82.6466 2.58353C82.1475 2.69233 81.464 2.84144 80.8412 2.24532C79.0583 0.539712 76.9542 0.18968 74.019 1.10946C72.1228 1.70376 70.7313 3.05267 70.2971 4.71797C70.0105 5.81776 69.3596 6.42115 68.2492 6.61693C66.886 6.85725 65.8225 7.76673 65.4736 8.99048C65.0757 10.477 63.9322 11.6204 62.4167 12.0447C61.6049 12.272 60.7793 12.6657 59.9812 13.0463L59.944 13.0642C58.1148 13.9364 56.5783 14.2282 54.5721 12.9887C53.3396 12.2268 51.7607 12.9436 50.9009 14.0043C49.5087 15.7217 49.1836 18.0389 49.1134 19.2672C49.085 19.7654 49.3216 20.3397 49.7532 20.3988C49.8648 20.4136 49.9366 20.2927 50.0717 19.8584C50.1054 19.7505 50.14 19.639 50.1814 19.5351C50.4103 18.9608 50.6338 18.3831 50.8574 17.8058C50.9743 17.5037 51.0915 17.2018 51.209 16.9003C51.3448 16.5521 51.5335 16.1802 51.901 16.0605C52.1347 15.9847 52.3916 16.0251 52.6652 16.1805C53.3438 16.5669 53.5207 17.0648 53.2756 17.8992C53.1368 18.3707 53.0464 18.9371 52.9505 19.5369C52.6289 21.5468 52.2291 24.0452 49.5831 24.33C49.5351 24.371 49.4571 24.4776 49.4372 24.5531C48.7853 27.026 47.7783 29.6578 46.2683 32.8357C45.8501 33.7154 46.55 34.7046 47.4571 35.2268C47.6089 35.3141 47.7039 35.3289 47.7395 35.3153C47.8926 35.2559 48.016 34.7543 48.0897 34.4546C48.14 34.2506 48.1919 34.0394 48.2604 33.8558C48.799 32.4138 49.3177 31.4528 50.2379 31.1176C50.9423 30.8612 51.8024 31.0052 52.9452 31.5707C54.1589 32.1717 55.5275 31.7828 56.1997 30.6464C56.7934 29.6423 58.0008 29.0511 59.3486 29.1032C60.7278 29.1565 61.9094 29.8672 62.4323 30.9576C62.5407 31.1852 62.5564 31.521 62.4793 31.9562C62.1918 33.5809 60.3573 35.6693 58.3899 36.6118C57.1956 37.1839 56.0906 37.2712 55.1943 36.8639C53.1355 35.9281 50.7239 36.5572 49.5854 38.3268C47.6252 41.3737 47.0471 44.174 47.7662 47.1394C48.3114 48.9735 50.2268 50.8176 52.3165 51.511C53.3059 51.8392 54.7667 52.0453 56.1083 51.1649C56.8975 50.6467 57.505 50.717 57.8758 50.8676C58.5221 51.1297 58.9906 51.8638 59.1286 52.8311C59.3907 54.6713 59.7984 56.713 61.3228 57.6555C62.7349 58.5298 63.676 59.9905 63.8441 61.5677Z" fill="#428E11"/>
<path d="M37.5461 81.5498C37.1651 81.5498 36.8051 81.3189 36.4832 81.1122C36.3817 81.047 36.2857 80.9855 36.1983 80.937C34.5756 80.0327 33.2902 78.2889 32.6706 76.1523C32.5678 75.7978 32.4601 75.4404 32.3524 75.0819C32.0602 74.1109 31.758 73.1069 31.5406 72.1241C31.0193 69.7663 30.0841 66.8639 27.4584 65.3316C24.8796 63.6839 24.0646 58.8223 24.7889 56.4702C24.8552 56.2548 24.9811 56.0499 25.1029 55.8517C25.4208 55.3344 25.5227 55.0946 25.2439 54.8028C24.5229 54.0476 23.7626 53.3311 23.0902 53.5784C21.4806 54.1715 19.5449 53.6703 17.3367 52.0892C15.9481 51.0949 14.5125 50.0669 12.9261 49.2544C10.7815 48.174 9.9893 46.0084 9.29011 44.0976C9.18859 43.8206 9.08871 43.5472 8.98621 43.2811C8.35459 41.6428 5.73768 39.7435 3.82355 39.9708C2.79663 40.093 2.29524 41.0546 1.81018 41.985C1.68614 42.2229 1.55786 42.4692 1.42305 42.695L1.11882 43.206L0.843979 42.6808C-0.0190773 41.0315 -0.217867 39.7087 0.236837 38.6368C0.64062 37.6843 1.57712 36.939 3.0199 36.4217C7.60578 34.5713 12.2641 32.542 16.853 30.3954L16.9714 30.3397C17.6922 29.9993 18.6793 29.5338 19.4934 30.4697C20.0715 31.1343 20.1704 32.0062 19.7956 33.1354C19.4183 34.2727 20.0695 34.6219 21.2531 35.1413C21.3497 35.1837 21.4467 35.2262 21.543 35.2698C22.5062 35.7041 23.5459 34.9349 24.0796 34.4379C24.4285 34.113 24.3012 33.7418 24.0649 33.1632C23.9715 32.9347 23.8749 32.6981 23.8279 32.4592C23.8073 32.3541 23.7757 32.2441 23.7421 32.1277C23.6167 31.6916 23.4607 31.1491 23.9049 30.6721C24.483 30.052 25.1385 30.5115 25.4535 30.7321C25.507 30.7694 25.5589 30.8061 25.6098 30.8388C26.297 31.28 26.8871 31.3116 27.584 30.9433C28.562 30.4269 29.5053 30.6203 30.1073 31.4604C30.6534 32.2226 30.7118 33.2172 30.2767 34.337C29.568 36.1605 28.8045 38.0201 28.0662 39.8184C27.3764 41.4983 26.6632 43.2357 26.0123 44.9025C25.4492 46.3448 23.9062 46.9209 22.5451 47.4294C22.3845 47.4894 22.2262 47.5485 22.0721 47.6082C21.6239 47.7819 21.319 48.0667 21.1666 48.4556C20.9603 48.9804 21.0468 49.6711 21.398 50.3033C21.715 50.8737 21.8615 50.8179 21.9686 50.7782C23.7372 50.1148 25.2504 51.1219 26.466 51.931C26.6067 52.0247 26.7451 52.1168 26.8819 52.2053C27.3062 52.4796 28.7973 53.3233 30.1641 52.6593C31.6937 51.9168 33.0101 51.9716 34.5668 52.8414L34.7209 52.9278C35.7746 53.519 37.218 54.3285 38.4215 54.0124C38.7447 53.9273 39.2359 53.923 39.7403 54.3855C41.0273 55.5653 41.5499 59.0171 41.2405 60.0839C40.3307 63.2172 39.0179 66.8888 37.4445 70.7015C36.6814 72.5502 36.6037 74.3461 37.2134 76.0396C37.5575 76.9951 37.8317 78.1383 38.0517 79.0568C38.0892 79.2135 38.1519 79.385 38.2185 79.5663C38.4111 80.0921 38.6294 80.6882 38.2759 81.1652C38.1219 81.3731 37.928 81.4983 37.6995 81.5374C37.6476 81.5459 37.5966 81.5498 37.5461 81.5498ZM23.3778 52.9205C24.3179 52.9205 25.1506 53.7924 25.7322 54.4012C26.3495 55.0474 25.9565 55.6862 25.6696 56.1526C25.5622 56.3272 25.461 56.4923 25.4163 56.6372C24.7403 58.8329 25.5468 63.3748 27.8168 64.8258C30.6403 66.473 31.6323 69.5269 32.1797 72.0026C32.3925 72.9648 32.6915 73.9582 32.9807 74.9192C33.0891 75.2795 33.1972 75.6386 33.3006 75.995C33.8768 77.9816 35.0551 79.5936 36.5328 80.417C36.6383 80.4752 36.748 80.5455 36.854 80.6136C37.1015 80.7724 37.4086 80.9697 37.5807 80.941C37.5999 80.9376 37.6587 80.9276 37.737 80.8215C37.9048 80.5952 37.7494 80.1712 37.5993 79.7614C37.5301 79.5726 37.4586 79.3775 37.4132 79.1884C37.1961 78.2834 36.9262 77.1573 36.5929 76.2317C35.9342 74.4016 36.0151 72.4681 36.8338 70.4848C38.3996 66.6912 39.705 63.0402 40.6092 59.9266C40.8752 59.0105 40.3402 55.7883 39.2807 54.8173C38.9764 54.5385 38.7457 54.5576 38.5984 54.5961C37.1224 54.9849 35.5386 54.0961 34.3821 53.4472L34.229 53.3615C32.857 52.5947 31.8017 52.5487 30.4657 53.1972C29.3235 53.7515 27.8442 53.5669 26.5078 52.7035C26.3688 52.6135 26.2278 52.5196 26.0845 52.4244C24.8865 51.6271 23.6481 50.8027 22.2118 51.341C21.4062 51.6431 20.9779 50.8721 20.8167 50.5821C20.3835 49.8023 20.2846 48.9298 20.5523 48.2489C20.7671 47.7025 21.2051 47.2879 21.8201 47.05C21.9764 46.9894 22.1374 46.9294 22.3006 46.8684C23.5952 46.3851 24.9338 45.885 25.3977 44.6973C26.0505 43.0257 26.7647 41.2861 27.4554 39.6038C28.1928 37.8079 28.9553 35.9511 29.662 34.1324C29.9147 33.4827 30.1024 32.5499 29.5631 31.7971C29.1489 31.2188 28.5914 31.1091 27.9062 31.4713C26.9847 31.9577 26.137 31.9159 25.238 31.3382C25.1803 31.3013 25.1209 31.2594 25.0601 31.217C24.624 30.9115 24.5408 30.9173 24.3985 31.07C24.1909 31.2928 24.2536 31.5579 24.3727 31.9725C24.408 32.0956 24.4445 32.2226 24.47 32.3517C24.5062 32.5362 24.5885 32.7371 24.6753 32.9496C24.9119 33.5284 25.2061 34.2488 24.5421 34.8673C23.4248 35.9077 22.2278 36.2535 21.258 35.8168C21.1637 35.7741 21.0687 35.7326 20.974 35.6911C19.9203 35.2286 18.6094 34.6531 19.1718 32.9587C19.4819 32.024 19.4229 31.3549 18.9855 30.8524C18.5259 30.3239 18.0568 30.5091 17.2672 30.8818L17.1464 30.9385C12.5465 33.0902 7.87704 35.1243 3.267 36.9842C1.97111 37.4491 1.18248 38.0613 0.843652 38.8604C0.51005 39.6475 0.611242 40.63 1.15506 41.8507C1.17726 41.8086 1.19945 41.7658 1.22197 41.7228C1.75632 40.6976 2.36249 39.5353 3.73998 39.3717C5.98086 39.105 8.8847 41.2228 9.60021 43.079C9.70401 43.3478 9.8052 43.6245 9.9077 43.9048C10.6004 45.7986 11.3169 47.7567 13.2388 48.725C14.8709 49.5611 16.3268 50.6036 17.7346 51.6116C19.7477 53.0529 21.4685 53.5257 22.8486 53.0175C23.0285 52.9499 23.2051 52.9205 23.3778 52.9205Z" fill="#428E11"/>
<path d="M97.3985 45.135C96.586 45.135 95.7739 44.8486 95.168 44.1355C94.1943 43.0615 94.02 41.4683 94.6954 39.7721C95.5872 37.5334 97.8705 35.339 100.514 35.4759C103.268 35.6187 105.514 38.5111 106.23 40.5191L106.231 40.5225C106.235 40.5337 106.24 40.5446 106.245 40.5558C106.264 40.6034 106.291 40.6682 106.298 40.7488C106.32 40.9858 106.443 41.2437 106.573 41.5165C106.843 42.0835 107.178 42.789 106.484 43.4206C105.711 44.1249 104.004 44.9965 102.692 44.3628C101.081 43.8867 100.52 44.0003 99.1706 44.6946C98.6418 44.9674 98.02 45.135 97.3985 45.135ZM100.285 36.076C98.0611 36.076 96.0748 38.0574 95.3081 39.9824C95.028 40.6855 94.5031 42.4602 95.6743 43.7527C96.5129 44.7395 97.8744 44.6689 98.855 44.1649C100.339 43.4021 101.093 43.2512 102.92 43.7943L102.975 43.8164C103.928 44.2946 105.334 43.62 106.028 42.9884C106.382 42.6663 106.246 42.3296 105.976 41.762C105.83 41.4556 105.679 41.1383 105.648 40.8001C105.647 40.7982 105.641 40.7861 105.635 40.774C105.626 40.7522 105.617 40.7304 105.61 40.7085C104.848 38.5714 102.669 36.1951 100.478 36.0815C100.413 36.0778 100.349 36.076 100.285 36.076Z" fill="#428E11"/>
<path d="M35.608 30.5235C35.1455 30.5235 34.634 30.2875 34.0272 29.7983C33.9185 29.7107 33.8072 29.6241 33.6955 29.5371C32.9719 28.9728 32.2234 28.3894 31.929 27.4293C31.3636 25.5858 29.8467 24.4936 28.6739 23.902C27.7096 23.4156 26.6458 22.6401 26.9824 20.9463L26.9941 20.8875C27.266 19.5177 27.6045 17.8133 29.1501 17.0841C29.957 16.7035 30.7972 16.2692 31.6097 15.8492C31.8849 15.707 32.1604 15.5646 32.4349 15.424L32.432 15.4137L32.8521 15.1997C33.3832 14.9294 33.9322 14.6497 34.4261 14.4072C34.6121 14.316 34.8276 14.1933 35.0561 14.0633C35.9348 13.5632 37.029 12.9407 38.0099 13.1741C38.4832 13.2868 38.8723 13.5862 39.1664 14.0642C40.7844 16.6947 41.0737 19.1304 40.0771 21.7297C39.7719 22.5255 39.4504 23.3241 39.1096 24.1699C38.5282 25.6134 37.9269 27.1063 37.4184 28.5746C37.0231 29.7165 36.5527 30.3223 35.939 30.4814C35.8313 30.5093 35.7213 30.5235 35.608 30.5235ZM33.1968 15.7155L33.1974 15.7173L32.9745 15.8404C32.6265 16.0174 32.2769 16.1983 31.9273 16.3789C31.1096 16.8017 30.2639 17.2387 29.4459 17.6248C28.1878 18.2182 27.882 19.7592 27.6362 20.9978L27.6244 21.0566C27.3806 22.2837 27.992 22.8689 28.9853 23.3699C30.2684 24.0169 31.9293 25.2179 32.5567 27.2639C32.7963 28.0451 33.437 28.5446 34.1153 29.0731C34.2296 29.1622 34.3435 29.251 34.4551 29.341C35.0215 29.7974 35.4494 29.9796 35.7638 29.898C36.1362 29.8014 36.4838 29.2937 36.7972 28.3891C37.3103 26.9075 37.9142 25.4079 38.4982 23.9578C38.838 23.1144 39.1585 22.3179 39.4621 21.5267C40.3901 19.1061 40.1163 16.8305 38.5997 14.3648C38.3937 14.0299 38.1479 13.8326 37.848 13.7611C37.1347 13.5911 36.1715 14.1396 35.3975 14.58C35.1602 14.7151 34.9359 14.8427 34.7316 14.943C34.2511 15.1788 33.7161 15.451 33.1968 15.7155Z" fill="#428E11"/>
<path d="M21.2749 28.9811C20.9972 28.9811 20.7154 28.9329 20.4275 28.8211C19.8811 28.6092 19.5175 28.1977 19.4293 27.6919C19.3024 26.9633 19.8537 26.7003 20.1834 26.543C20.2412 26.5154 20.2983 26.4884 20.3505 26.4593C20.6975 26.2669 21.0543 26.0929 21.3996 25.9244C21.6435 25.8053 21.8955 25.6823 22.1393 25.5553C23.0641 25.0728 23.7802 24.9492 24.3289 25.1771C24.7748 25.3623 25.0748 25.7674 25.2207 26.3814C25.4943 27.5325 24.6475 27.7513 24.1416 27.8819C23.9248 27.9379 23.7009 27.9958 23.635 28.0913L23.5945 28.1498L23.5305 28.1862C22.7846 28.6089 22.0459 28.9811 21.2749 28.9811ZM23.7384 25.6723C23.412 25.6723 22.9838 25.8099 22.4589 26.0838C22.2072 26.2154 21.951 26.3402 21.7032 26.4611C21.366 26.6257 21.0171 26.796 20.6851 26.98C20.6214 27.0154 20.5522 27.0485 20.4814 27.0821C20.1344 27.2476 20.0264 27.324 20.0737 27.5949C20.1439 27.998 20.483 28.1855 20.6789 28.2616C21.4019 28.5416 22.0779 28.2943 23.1346 27.6997C23.3415 27.4591 23.6722 27.3737 23.9663 27.2976C24.4859 27.1633 24.7233 27.1021 24.5829 26.5115C24.484 26.0954 24.3087 25.8323 24.0619 25.7299C23.9689 25.6917 23.8608 25.6723 23.7384 25.6723Z" fill="#428E11"/>
<path d="M90.4304 36.4287C89.1143 36.4287 86.7464 35.1998 86.1102 34.2885C85.9623 34.0767 85.9235 33.8318 86.0008 33.5988C86.1014 33.2957 86.387 33.039 86.8051 32.876L86.8525 32.8575L86.9034 32.8533C88.4069 32.7326 90.6664 33.7352 91.4639 34.8777C91.7413 35.275 91.6881 35.5953 91.5948 35.7941C91.4296 36.1454 91.0255 36.356 90.6984 36.409C90.6152 36.4224 90.5254 36.4287 90.4304 36.4287ZM87.0118 33.4533C86.8065 33.5415 86.6632 33.6609 86.6243 33.777C86.6037 33.8388 86.6145 33.8964 86.6579 33.9585C87.2559 34.8149 89.6787 35.9581 90.5861 35.8114C90.7356 35.7871 90.9351 35.6808 90.9961 35.5511C91.0121 35.5171 91.0604 35.4141 90.9158 35.2068C90.3207 34.3549 88.3779 33.3715 87.0118 33.4533Z" fill="#428E11"/>
<path d="M72.3939 56.4272C72.3077 56.4272 72.2248 56.4126 72.1455 56.3833C71.7436 56.2351 71.6265 55.7908 71.5129 55.3613C71.4587 55.1556 71.4025 54.9428 71.3242 54.8065L71.3007 54.7658L71.2912 54.7207C71.1528 54.0479 70.7311 52.0005 72.262 51.0486C72.5675 50.8585 72.8518 50.811 73.1071 50.9073C73.5964 51.0919 73.739 51.7159 73.865 52.2668C73.8872 52.3632 73.9081 52.4559 73.9303 52.5399C74.5168 54.7713 73.7449 55.778 72.9938 56.2299C72.7745 56.3617 72.576 56.4272 72.3939 56.4272ZM71.9242 54.5652C72.0263 54.7604 72.0877 54.9922 72.1471 55.2171C72.1954 55.4004 72.2959 55.7814 72.3864 55.8199C72.3864 55.8196 72.4562 55.8311 72.639 55.7208C73.473 55.2192 73.694 54.1973 73.2961 52.6832C73.2726 52.5938 73.25 52.4953 73.2265 52.3923C73.1626 52.1132 73.03 51.5322 72.8616 51.4686C72.8303 51.4568 72.7448 51.4777 72.6253 51.5519C71.8439 52.0383 71.6144 53.0242 71.9242 54.5652Z" fill="#428E11"/>
<path d="M94.279 17.7967C94.0208 17.7967 93.7397 17.6767 93.5494 17.4748C93.3448 17.2578 93.2889 16.9896 93.3963 16.7393C93.4642 16.562 93.5344 16.3687 93.6056 16.1723C94.0364 14.9867 94.5244 13.6427 95.6806 12.8875C95.8086 12.8038 96.2558 12.5411 96.6403 12.6705C96.8254 12.7326 96.958 12.8726 97.0141 13.065L97.0219 13.0996C97.2602 14.5928 95.8615 17.4472 94.4497 17.7773C94.3952 17.7906 94.3377 17.7967 94.279 17.7967ZM96.3841 13.2438C96.312 13.2551 96.1788 13.3039 96.0567 13.3836C95.0755 14.0245 94.6429 15.2152 94.2248 16.3665C94.1523 16.5663 94.0808 16.7629 94.0074 16.9539C93.9966 16.9799 93.9826 17.0124 94.0381 17.0733C94.1177 17.1602 94.249 17.1981 94.2907 17.1906C95.2583 16.9639 96.5411 14.5261 96.3841 13.2438Z" fill="#428E11"/>
<path d="M95.0808 35.0531C94.9828 35.0531 94.8833 35.0355 94.7844 34.9921C94.5141 34.8737 94.3355 34.5973 94.2389 34.1463C94.0467 33.2508 94.221 32.1037 96.1442 31.7227C96.2428 31.703 96.3858 31.6388 96.5235 31.5764C96.8483 31.4297 97.2524 31.2469 97.6252 31.4051C97.8579 31.5036 98.0228 31.7148 98.1158 32.0325C98.313 32.6025 98.2536 33.1565 97.9435 33.6347C97.5847 34.1878 96.927 34.5785 96.1387 34.7064L96.1038 34.7121L96.0711 34.7109C96.0192 34.7155 95.8795 34.7852 95.7868 34.8312C95.5903 34.9288 95.3409 35.0531 95.0808 35.0531ZM97.3092 31.9491C97.1904 31.9491 96.9564 32.0549 96.8091 32.1216C96.6358 32.1997 96.4569 32.2807 96.2804 32.3158C95.1069 32.5483 94.6747 33.0765 94.879 34.0281C94.9577 34.3945 95.0618 34.4436 95.0628 34.4442C95.1261 34.4721 95.3644 34.3539 95.4787 34.2969C95.6634 34.2048 95.854 34.1099 96.0535 34.1045C96.6348 34.0039 97.131 33.7126 97.3843 33.322C97.5952 32.9968 97.6324 32.6128 97.4923 32.2122L97.4875 32.1967C97.4431 32.0425 97.3879 31.9709 97.3539 31.9564C97.3419 31.9512 97.3269 31.9491 97.3092 31.9491Z" fill="#428E11"/>
<path d="M108.914 42.7423C108.664 42.7423 108.43 42.6823 108.215 42.5626C107.62 42.2313 107.33 41.5152 107.191 40.9727C107.164 40.8664 107.099 40.7273 107.03 40.58C106.86 40.219 106.669 39.8102 106.843 39.4575C106.936 39.269 107.113 39.1362 107.371 39.0623C108.707 38.6786 109.095 39.7187 109.351 40.4072C109.431 40.6218 109.507 40.8246 109.599 40.9918L109.645 41.0761L109.631 41.1755C109.623 41.2294 109.724 41.3961 109.778 41.4858C109.914 41.711 110.084 41.9913 109.953 42.2786C109.863 42.4756 109.66 42.6102 109.332 42.6899C109.189 42.7247 109.049 42.7423 108.914 42.7423ZM107.9 39.5857C107.803 39.5857 107.693 39.6044 107.564 39.6411C107.496 39.6608 107.448 39.6866 107.437 39.7102C107.384 39.8166 107.537 40.143 107.629 40.3378C107.706 40.5027 107.786 40.6736 107.827 40.8324C107.982 41.4391 108.239 41.8689 108.551 42.0425C108.728 42.141 108.929 42.161 109.167 42.1031C109.269 42.078 109.321 42.0537 109.344 42.0398C109.328 41.9786 109.255 41.858 109.209 41.7822C109.102 41.6052 108.982 41.4076 108.978 41.1916C108.884 41.0061 108.808 40.8027 108.735 40.6051C108.478 39.9166 108.309 39.5857 107.9 39.5857Z" fill="#428E11"/>
<path d="M45.8025 26.7724C45.6968 26.7724 45.6086 26.7491 45.5401 26.7203C45.0913 26.5324 44.9783 25.9205 44.8879 25.429C44.8762 25.3641 44.8647 25.3026 44.8533 25.2462C44.8233 25.0995 44.7844 24.9414 44.744 24.7762C44.5099 23.8209 44.1897 22.5126 45.2264 21.7841C45.4937 21.5962 45.7412 21.5407 45.9625 21.6189C46.3368 21.7517 46.4269 22.1784 46.5138 22.5911C46.5484 22.756 46.6068 23.0324 46.6655 23.0933L46.7644 23.1573L46.785 23.2579L46.8268 23.4058C47.1098 24.4004 47.5374 25.9039 46.2641 26.6357C46.0865 26.7379 45.9314 26.7724 45.8025 26.7724ZM45.7291 22.2032C45.7052 22.2138 45.6697 22.2329 45.6204 22.2675C44.9199 22.7596 45.1647 23.7594 45.3808 24.6416C45.4232 24.8144 45.4637 24.9798 45.495 25.1335C45.5071 25.1929 45.5192 25.2584 45.5319 25.3268C45.5708 25.5384 45.6742 26.1002 45.8087 26.1678C45.8084 26.1666 45.8446 26.1645 45.921 26.1206C46.7184 25.662 46.5174 24.6898 46.1962 23.5606L46.1779 23.4961C46.001 23.3112 45.939 23.0166 45.8737 22.7075C45.842 22.5614 45.7878 22.3035 45.7291 22.2032Z" fill="#428E11"/>
<path d="M91.2216 31.8606C91.0805 31.8606 90.9516 31.8294 90.8364 31.7673C90.4692 31.5691 90.3739 31.1324 90.29 30.7472C90.256 30.5908 90.2237 30.4432 90.1793 30.3335C89.7367 29.2407 90.0315 28.1997 90.8961 27.8015C91.1866 27.6678 91.4416 27.6496 91.6537 27.7475C92.0033 27.9087 92.0836 28.2982 92.1544 28.6418C92.1845 28.7882 92.222 28.9707 92.2697 29.0373L92.301 29.0813L92.3245 29.1701C92.5876 30.1605 92.9146 31.393 91.575 31.8037C91.45 31.8415 91.3322 31.8606 91.2216 31.8606ZM91.3613 28.2894C91.3613 28.2912 91.309 28.2879 91.186 28.3445C90.6327 28.5991 90.4698 29.3295 90.7904 30.1202C90.8534 30.2753 90.8922 30.4541 90.9297 30.6272C90.9777 30.8481 91.0508 31.1821 91.1644 31.2433C91.2003 31.2624 91.2754 31.2569 91.3704 31.2278C92.0595 31.0166 91.9938 30.4578 91.6922 29.321C91.5963 29.1595 91.5542 28.9543 91.513 28.7558C91.483 28.6091 91.4269 28.3373 91.3613 28.2894Z" fill="#428E11"/>
<path d="M43.784 27.563C43.6498 27.563 43.5421 27.533 43.4622 27.4979C43.2173 27.3906 43.0443 27.1636 42.948 26.8233C42.7352 26.0732 42.9271 25.4129 43.4739 25.0113C43.7259 24.8264 43.973 24.767 44.2084 24.8349C44.5926 24.9458 44.7754 25.3641 44.8919 25.7156L44.8978 25.7356C45.1159 26.5993 44.8896 27.1812 44.2257 27.4646C44.0566 27.537 43.9087 27.563 43.784 27.563ZM44.0141 25.4138C44.0145 25.415 43.9701 25.4201 43.8793 25.4868C43.4223 25.8223 43.4954 26.3717 43.58 26.669C43.6299 26.8457 43.6962 26.93 43.7416 26.9497C43.7817 26.9672 43.8588 26.9542 43.9534 26.9139C44.2074 26.8054 44.4428 26.5981 44.2652 25.8838C44.1261 25.4698 44.0223 25.4171 44.0141 25.4138Z" fill="#428E11"/>
<g opacity="0.6">
<g opacity="0.6">
<g opacity="0.6">
<path opacity="0.6" d="M13.8919 45.4908C13.9993 41.9896 14.7472 38.6381 16.0336 35.5332C20.6658 24.348 32.2632 16.3709 45.8913 16.1787C46.0575 16.1751 46.2256 16.1751 46.3937 16.1751C46.5618 16.1751 46.7319 16.1751 46.9 16.1787C60.5303 16.3724 72.1235 24.3498 76.7538 35.5332C78.0405 38.6381 78.7884 41.9896 78.8954 45.4908C78.8958 45.4805 78.8964 45.4702 78.8967 45.4599C78.9065 45.1568 78.9101 44.8517 78.9101 44.5468C78.9101 40.7286 78.1466 37.0776 76.7535 33.7152C72.1232 22.5317 60.5297 14.5547 46.8996 14.3607C46.7315 14.3571 46.5615 14.3571 46.3934 14.3571C46.2253 14.3571 46.0571 14.3571 45.891 14.3607C32.2626 14.5528 20.6655 22.5299 16.0333 33.7152C14.6398 37.0776 13.8766 40.7289 13.8766 44.5468C13.8766 44.852 13.8805 45.1568 13.89 45.4599C13.891 45.4702 13.8916 45.4805 13.8919 45.4908Z" fill="white"/>
</g>
</g>
</g>
<g opacity="0.3">
<g opacity="0.3">
<path opacity="0.3" d="M13.9249 45.0105C14.862 60.9053 29.0417 73.5264 46.394 73.5264C63.7481 73.5264 77.9259 60.905 78.863 45.0105C78.8777 45.2605 78.8898 45.5111 78.8976 45.763C78.8444 44.0665 78.6394 42.4066 78.2964 40.7904C77.1921 45.9885 72.4296 49.8979 66.9079 52.7539C54.1778 59.3388 38.6095 59.3388 25.8794 52.7539C20.3576 49.8979 15.5955 45.9885 14.4909 40.7904C14.1478 42.4066 13.9428 44.0665 13.8896 45.763C13.8981 45.5111 13.9105 45.2605 13.9249 45.0105Z" fill="#17172B"/>
</g>
</g>
<path d="M46.394 75.508C37.7481 75.508 29.5736 72.4265 23.3758 66.8312C17.1905 61.247 13.6436 53.7697 13.3877 45.7765C13.3782 45.485 13.374 45.1819 13.374 44.8495C13.374 41.0579 14.1111 37.3573 15.5643 33.85C17.9037 28.2016 21.9611 23.356 27.2978 19.8372C32.752 16.2414 39.1788 14.2906 45.8839 14.1964C46.2158 14.1891 46.5677 14.1891 46.9121 14.1964C53.6138 14.2915 60.0404 16.2426 65.4936 19.8384C70.8292 23.3569 74.8853 28.2019 77.2238 33.8497C78.677 37.357 79.4141 41.0576 79.4141 44.8489C79.4141 45.1813 79.4095 45.4847 79.4004 45.7759C79.1448 53.7694 75.5979 61.2467 69.4132 66.8306C63.2155 72.4265 55.0406 75.508 46.394 75.508ZM46.3826 15.1268C46.2224 15.1268 46.0621 15.1268 45.9034 15.1301C32.7591 15.3153 21.2205 22.7947 16.5034 34.1852C15.0946 37.5852 14.3803 41.1731 14.3803 44.8492C14.3803 45.1722 14.3846 45.4665 14.3937 45.7487C14.9108 61.9123 28.9671 74.5737 46.3944 74.5737C63.8216 74.5737 77.878 61.9123 78.395 45.7487C78.4038 45.4665 78.4084 45.1722 78.4084 44.8492C78.4084 41.1728 77.6942 37.5849 76.2854 34.1852C71.5699 22.7966 60.0329 15.3171 46.8931 15.1301C46.7205 15.1268 46.5507 15.1277 46.3826 15.1268Z" fill="#371A45"/>
<path d="M58.1344 75.3757C58.0005 75.3851 57.8843 75.2917 57.8742 75.1678L57.3532 68.6945C57.3431 68.5703 57.4436 68.4624 57.5771 68.453C58.9798 68.3557 60.2017 69.3324 60.3065 70.6347L60.484 72.8421C60.5888 74.1438 59.5367 75.2784 58.1344 75.3757Z" fill="white"/>
<path d="M58.1161 75.4598C57.9434 75.4598 57.7969 75.3359 57.7838 75.1735L57.2631 68.7002C57.2494 68.5302 57.3875 68.3817 57.5706 68.3689C59.021 68.2656 60.2885 69.2817 60.3969 70.6279L60.5745 72.8354C60.6829 74.1815 59.5913 75.3586 58.1413 75.4592C58.1328 75.4595 58.1243 75.4598 58.1161 75.4598ZM57.7688 68.5296C57.7074 68.5296 57.6461 68.5317 57.584 68.5359C57.5001 68.542 57.4371 68.6099 57.4433 68.6874L57.964 75.1607C57.9702 75.2383 58.0446 75.2956 58.1272 75.2913C59.4777 75.1974 60.4945 74.1012 60.3937 72.8472L60.2161 70.6397C60.1201 69.4439 59.0406 68.5296 57.7688 68.5296Z" fill="#371A45"/>
<g opacity="0.35">
<g opacity="0.35">
<path opacity="0.35" d="M60.4009 71.8062L60.4844 72.8414C60.5889 74.143 59.5372 75.2777 58.1342 75.3755C58.0007 75.3849 57.8842 75.2913 57.8741 75.167L57.735 73.4463C57.7788 73.5221 57.8679 73.5705 57.9661 73.5645L58.1313 73.5527C59.2398 73.476 60.1296 72.7508 60.4009 71.8062Z" fill="#371A45"/>
</g>
</g>
<path d="M58.1157 75.8432C57.7295 75.8432 57.4015 75.5656 57.3724 75.2025L56.8518 68.7289C56.8211 68.3482 57.1299 68.0155 57.5395 67.987C59.2173 67.8697 60.6826 69.0428 60.808 70.5996L60.9856 72.8071C61.1109 74.3639 59.8486 75.725 58.1718 75.8417H58.1715C58.1526 75.8426 58.1343 75.8432 58.1157 75.8432ZM57.8754 68.9155L58.3549 74.8764C59.3469 74.6882 60.0595 73.8378 59.9821 72.8762L59.8046 70.6687C59.7275 69.7074 58.8863 68.9649 57.8754 68.9155Z" fill="#371A45"/>
<path d="M34.5629 70.0489C34.6967 70.0395 34.8129 70.1328 34.823 70.2568L35.344 76.73C35.3541 76.8543 35.2536 76.9622 35.1201 76.9716C33.7174 77.0689 32.4957 76.0921 32.3909 74.7899L32.2133 72.5824C32.1085 71.2805 33.1606 70.1462 34.5629 70.0489Z" fill="white"/>
<path d="M34.9258 77.0617C34.2955 77.0617 33.6922 76.8544 33.2094 76.4687C32.6757 76.042 32.3529 75.448 32.3003 74.7958L32.1228 72.5884C32.0702 71.9362 32.2945 71.3044 32.7541 70.8086C33.2137 70.3131 33.8535 70.0133 34.556 69.9646C34.6441 69.9582 34.7306 69.9846 34.7982 70.0385C34.8657 70.0924 34.9065 70.1673 34.9131 70.2497L35.4337 76.7229C35.4402 76.8054 35.4122 76.8851 35.3541 76.9478C35.296 77.0105 35.215 77.0481 35.1266 77.0542C35.0596 77.0596 34.9924 77.0617 34.9258 77.0617ZM34.5814 70.1318C34.5775 70.1318 34.5736 70.1318 34.5697 70.1321C33.9155 70.1776 33.3194 70.4567 32.8912 70.9183C32.4632 71.3798 32.2543 71.9686 32.3033 72.576L32.4809 74.7834C32.5298 75.3907 32.8305 75.9441 33.3276 76.3417C33.8248 76.7393 34.46 76.932 35.1132 76.8875C35.154 76.8848 35.1909 76.8675 35.2173 76.8387C35.2437 76.8099 35.2568 76.7735 35.2539 76.7357L34.7332 70.2625C34.7303 70.2246 34.7117 70.1906 34.6807 70.1658C34.6526 70.1437 34.6177 70.1318 34.5814 70.1318Z" fill="#371A45"/>
<g opacity="0.35">
<g opacity="0.35">
<path opacity="0.35" d="M35.1999 74.9338L35.3442 76.7297C35.3543 76.8536 35.2534 76.9618 35.1196 76.9712C34.3835 77.0218 33.6964 76.7773 33.195 76.3442C32.7423 75.9533 32.4407 75.4081 32.3911 74.7898L32.3163 73.8597C32.7802 74.6483 33.7127 75.1553 34.7413 75.0841L34.9956 75.0665C35.0883 75.0598 35.1633 75.0068 35.1999 74.9338Z" fill="#371A45"/>
</g>
</g>
<path d="M34.9249 77.4451C34.1961 77.4451 33.4988 77.2054 32.9403 76.7593C32.3231 76.2659 31.9497 75.5786 31.8889 74.8245L31.7114 72.6171C31.6507 71.8627 31.9098 71.1321 32.4416 70.5587C32.973 69.9856 33.713 69.6389 34.5251 69.5825C34.7226 69.5689 34.9165 69.6274 35.0673 69.748C35.2184 69.8686 35.3095 70.0368 35.3245 70.2214L35.8451 76.6947C35.8601 76.879 35.7968 77.0581 35.6666 77.1981C35.5367 77.3384 35.3555 77.423 35.1567 77.4366C35.0793 77.4424 35.002 77.4451 34.9249 77.4451ZM34.342 70.5471C33.9 70.6302 33.5027 70.8457 33.2037 71.1681C32.8476 71.5521 32.674 72.0418 32.7144 72.5473L32.892 74.7548C32.9328 75.26 33.1829 75.7207 33.5964 76.0513C33.9437 76.3289 34.371 76.4871 34.8211 76.5084L34.342 70.5471Z" fill="#371A45"/>
<g opacity="0.35">
<g opacity="0.35">
<path opacity="0.35" d="M54.7922 82.4421C52.6447 84.4441 49.6765 85.6866 46.3924 85.6978C43.0241 85.7093 39.977 84.4214 37.8023 82.3412C41.7373 79.5264 46.2269 78.6703 46.2269 78.6703C46.2269 78.6703 50.8236 79.5473 54.7922 82.4421Z" fill="#371A45"/>
</g>
</g>
<path d="M46.3499 83.7741C52.9302 83.7741 58.2645 78.8215 58.2645 72.7122C58.2645 66.6029 52.9302 61.6503 46.3499 61.6503C39.7696 61.6503 34.4352 66.6029 34.4352 72.7122C34.4352 78.8215 39.7696 83.7741 46.3499 83.7741Z" fill="white"/>
<path d="M46.3486 83.8578C43.1585 83.8578 40.1568 82.7096 37.8914 80.6215C35.6159 78.524 34.3563 75.7289 34.3448 72.752C34.3334 69.7747 35.5715 66.9717 37.8307 64.8591C40.0898 62.7465 43.1004 61.577 46.3072 61.5664C46.3219 61.5664 46.3369 61.5664 46.3513 61.5664C49.5414 61.5664 52.5431 62.7147 54.8085 64.8028C57.084 66.9002 58.3436 69.6953 58.3551 72.6723C58.3665 75.6492 57.1284 78.4525 54.8692 80.5651C52.6101 82.6777 49.5995 83.8472 46.3927 83.8578C46.378 83.8578 46.3633 83.8578 46.3486 83.8578ZM46.3513 61.7337C46.3366 61.7337 46.3222 61.7337 46.3075 61.7337C43.1491 61.7443 40.1842 62.8959 37.9586 64.9767C35.7331 67.0575 34.5139 69.8187 34.5253 72.7508C34.5364 75.6832 35.7772 78.4358 38.0184 80.5021C40.2491 82.5586 43.2062 83.69 46.3483 83.69C46.363 83.69 46.3774 83.69 46.3921 83.69C49.5505 83.6793 52.5154 82.5277 54.7409 80.4469C56.9661 78.3661 58.1856 75.605 58.1742 72.6729C58.1628 69.7408 56.9224 66.9878 54.6812 64.9216C52.4504 62.865 49.4934 61.7337 46.3513 61.7337Z" fill="#371A45"/>
<g opacity="0.35">
<g opacity="0.35">
<path opacity="0.35" d="M58.1447 71.1412C58.2224 71.6413 58.2628 72.1522 58.2651 72.6723C58.2877 78.7813 52.9726 83.7515 46.3926 83.7739C39.8126 83.7948 34.4593 78.8601 34.4352 72.7511C34.4345 72.5753 34.4381 72.3995 34.4466 72.2265C35.2705 77.6088 40.2631 81.738 46.2839 81.7183C52.6745 81.6967 57.8711 77.0081 58.1447 71.1412Z" fill="#371A45"/>
</g>
</g>
<path d="M46.3483 84.2409C43.0486 84.2409 39.9436 83.0532 37.6006 80.8933C35.2468 78.7237 33.944 75.8328 33.9323 72.7531C33.9205 69.6737 35.2011 66.7741 37.5379 64.589C39.8751 62.4036 42.9888 61.1941 46.3056 61.1832C46.3206 61.1832 46.3363 61.1832 46.3513 61.1832C49.6511 61.1832 52.756 62.3709 55.099 64.5308C57.4528 66.7004 58.7556 69.5913 58.7673 72.671C58.7791 75.7504 57.4986 78.65 55.1617 80.8351C52.8249 83.0205 49.7111 84.23 46.394 84.2409C46.379 84.2409 46.3637 84.2409 46.3483 84.2409ZM46.3513 62.1166C46.3372 62.1166 46.3232 62.1166 46.3092 62.1166C43.2611 62.1266 40.3993 63.2383 38.2518 65.2466C36.104 67.2547 34.9272 69.9195 34.9383 72.7495C34.9491 75.5794 36.1464 78.2361 38.3096 80.2302C40.4627 82.2149 43.3166 83.3068 46.3487 83.3068C46.3627 83.3068 46.3767 83.3068 46.3908 83.3068C49.4389 83.2968 52.3003 82.1852 54.4481 80.1769C56.596 78.1685 57.7727 75.504 57.7616 72.674C57.7509 69.8441 56.5536 67.1874 54.3904 65.1933C52.2373 63.2086 49.3837 62.1166 46.3513 62.1166Z" fill="#371A45"/>
<path d="M58.2277 72.9568C58.2711 75.1212 57.5549 77.1435 56.2943 78.8285C55.349 80.0916 51.4045 82.3422 46.4801 82.4685C41.9142 82.5858 37.7138 80.3974 36.7185 79.1679C35.391 77.5278 34.5938 75.5315 34.5501 73.3674C34.4349 67.6399 39.6873 65.1739 46.2258 65.0603C52.7644 64.9469 58.1125 67.2293 58.2277 72.9568Z" fill="#371A45"/>
<g opacity="0.7">
<g opacity="0.7">
<path opacity="0.7" d="M55.8707 72.475C56.0569 71.4077 55.5326 70.4409 54.6996 70.3156C53.8666 70.1903 53.0404 70.954 52.8542 72.0213C52.668 73.0886 53.1923 74.0554 54.0252 74.1807C54.8582 74.306 55.6845 73.5423 55.8707 72.475Z" fill="white"/>
</g>
</g>
<g opacity="0.7">
<g opacity="0.7">
<path opacity="0.7" d="M53.3697 76.3832C53.5273 75.909 53.2998 75.4228 52.8615 75.2973C52.4232 75.1717 51.9402 75.4544 51.7826 75.9287C51.625 76.4029 51.8526 76.8891 52.2908 77.0146C52.7291 77.1402 53.2122 76.8575 53.3697 76.3832Z" fill="white"/>
</g>
</g>
<g opacity="0.35">
<g opacity="0.35">
<path opacity="0.35" d="M55.8175 67.6533C57.2907 68.9104 58.1808 70.656 58.2275 72.9563C58.2709 75.121 57.5544 77.1433 56.2944 78.8283C55.3491 80.0915 51.404 82.342 46.4799 82.469C44.7411 82.5141 43.0561 82.2241 41.58 81.7798C47.6293 81.504 52.4342 78.7426 53.606 77.1758C55.2062 75.0374 56.1152 72.4701 56.0594 69.7238C56.0454 68.9895 55.9618 68.3 55.8175 67.6533Z" fill="#111A28"/>
</g>
</g>
<path d="M35.3439 68.9224C35.2724 68.9224 35.2006 68.9006 35.1402 68.856C35.0041 68.7551 34.9783 68.5736 35.0782 68.4435C37.1154 65.553 41.1431 63.8458 46.1301 63.7588C51.0842 63.6761 55.1798 65.1875 57.3632 67.9144C57.4536 68.0208 57.4592 68.1741 57.3671 68.2863C57.2597 68.4175 57.06 68.4451 56.9163 68.3481C56.9124 68.3454 56.9065 68.3414 56.9026 68.3384L56.8697 68.3138L56.8445 68.2823C54.7897 65.7102 50.8883 64.2768 46.1422 64.3647C41.3696 64.4474 37.5338 66.0579 35.6184 68.7833L35.5903 68.8175C35.5267 68.8866 35.4356 68.9224 35.3439 68.9224Z" fill="#371A45"/>
<g opacity="0.7">
<g opacity="0.7">
<path opacity="0.7" d="M37.2779 76.7282C37.2779 76.7282 35.2538 71.1113 38.4879 68.8029C41.7224 66.4945 46.4411 66.4218 46.3363 66.7046C46.3363 66.7046 41.1362 67.9692 39.1695 71.839C37.6526 74.8229 37.2779 76.7282 37.2779 76.7282Z" fill="white"/>
</g>
</g>
<path d="M41.3406 85.3557C41.3406 85.3557 43.2645 85.4972 43.8361 86.4301C44.2353 87.0813 44.251 88.2242 44.251 88.2242L41.1617 87.5974L41.3406 85.3557Z" fill="white"/>
<path d="M44.6657 88.696L40.7287 87.8974L40.9638 84.9484L41.3724 84.9784C41.5915 84.9944 43.5311 85.1669 44.1904 86.243C44.6363 86.9707 44.6579 88.1687 44.6588 88.2193L44.6657 88.696ZM41.5951 87.2974L43.8059 87.7459C43.7599 87.3771 43.6642 86.9152 43.4818 86.6173C43.1864 86.1351 42.3018 85.8875 41.7155 85.7863L41.5951 87.2974Z" fill="#371A45"/>
<path d="M51.7502 85.3557C51.7502 85.3557 49.8263 85.4972 49.2547 86.4301C48.8555 87.0813 48.8398 88.2242 48.8398 88.2242L51.9291 87.5974L51.7502 85.3557Z" fill="white"/>
<path d="M48.4254 88.696L48.4319 88.2193C48.4326 88.1687 48.4541 86.9704 48.9004 86.243C49.5601 85.1669 51.4993 84.9944 51.7184 84.9784L52.127 84.9484L52.3621 87.8974L48.4254 88.696ZM51.3756 85.7857C50.7822 85.8866 49.907 86.1321 49.6093 86.6176C49.4259 86.9167 49.3306 87.378 49.2849 87.7462L51.4961 87.2977L51.3756 85.7857Z" fill="#371A45"/>
<path d="M62.7997 87.495L62.6035 89.2942L60.5764 107.886C51.2398 110.089 41.4579 110.089 32.1213 107.886L31.8807 105.681L29.8977 87.495C35.3486 88.2875 40.8488 88.683 46.3484 88.683C51.8486 88.683 57.3491 88.2878 62.7997 87.495Z" fill="#D66D27"/>
<g opacity="0.5">
<g opacity="0.5">
<g opacity="0.5">
<path opacity="0.5" d="M61.8142 94.5502L61.8027 94.5526C59.2766 95.0772 56.6907 95.4645 54.1048 95.7418C52.8112 95.8894 51.5117 95.9861 50.2122 96.0734C49.562 96.111 48.9118 96.147 48.2606 96.1643C47.9351 96.1737 47.6097 96.1892 47.2842 96.1937L46.3079 96.2067C43.7041 96.2231 41.0986 96.0719 38.5107 95.797C36.2692 95.5591 34.026 95.2245 31.8331 94.7705L31.0576 87.6571C30.6708 87.605 30.2839 87.5514 29.8975 87.495L30.6659 94.5417C30.4413 94.5575 30.2484 94.7117 30.2092 94.9269C30.1632 95.1806 30.3469 95.4206 30.6202 95.4636C30.6704 95.4715 30.7191 95.4785 30.769 95.4861L31.193 99.3752C30.9528 99.3731 30.7386 99.5301 30.6936 99.7571C30.6433 100.011 30.8242 100.255 31.0977 100.301C31.1653 100.313 31.2309 100.323 31.2975 100.334L31.6895 103.929C31.4613 103.936 31.2596 104.086 31.2126 104.303C31.1578 104.556 31.334 104.803 31.6066 104.854C31.6702 104.866 31.7313 104.876 31.794 104.887L31.8805 105.682L32.121 107.887C36.9752 109.032 41.9499 109.58 46.9196 109.535C42.3305 109.493 37.7456 108.944 33.2635 107.887L33.0229 105.682L32.957 105.077C33.1212 105.103 33.2854 105.13 33.4496 105.155C34.0616 105.244 34.6733 105.327 35.287 105.397C36.5117 105.55 37.7391 105.674 38.9677 105.777C40.1973 105.869 41.4266 105.96 42.6592 106C43.2748 106.031 43.8914 106.04 44.5074 106.059C45.124 106.061 45.7403 106.074 46.3565 106.067C48.8223 106.055 51.2858 105.934 53.7412 105.727C54.9688 105.622 56.1958 105.503 57.4202 105.357C58.6492 105.221 59.8622 105.05 61.099 104.857C61.1133 104.855 61.129 104.852 61.1434 104.848C61.4124 104.783 61.5736 104.527 61.5028 104.278C61.4323 104.028 61.1568 103.878 60.8878 103.944L60.8783 103.946C59.713 104.23 58.5043 104.446 57.305 104.654C56.1012 104.852 54.8908 105.02 53.6759 105.154C51.247 105.434 48.8001 105.576 46.3536 105.598C43.9068 105.618 41.4593 105.478 39.03 105.216C37.8158 105.082 36.6067 104.91 35.4055 104.706C34.8052 104.602 34.2082 104.484 33.6131 104.361C33.3618 104.309 33.1111 104.254 32.861 104.198L32.4592 100.513C32.6404 100.539 32.8215 100.565 33.003 100.591C33.6363 100.678 34.2692 100.759 34.9038 100.829C35.537 100.907 36.1713 100.974 36.8058 101.037L37.7577 101.129L38.7105 101.21C39.9822 101.304 41.2533 101.401 42.5283 101.441C43.1648 101.476 43.803 101.482 44.4398 101.504C45.0776 101.507 45.7151 101.52 46.353 101.513C48.9039 101.501 51.4513 101.371 53.9912 101.162C55.261 101.055 56.5301 100.937 57.7969 100.792C59.0677 100.658 60.3241 100.489 61.602 100.305C61.6144 100.303 61.6281 100.301 61.6405 100.298C61.9111 100.239 62.0789 99.9868 62.0149 99.7356C61.9509 99.4843 61.6797 99.3285 61.4091 99.3883L61.3964 99.391C58.9525 99.9274 56.4393 100.316 53.9275 100.59C51.4128 100.872 48.8814 101.023 46.3503 101.045C43.819 101.064 41.2869 100.917 38.7725 100.649C37.5148 100.516 36.263 100.34 35.0177 100.138C34.3955 100.033 33.776 99.9174 33.1581 99.7971C32.893 99.7434 32.6276 99.6904 32.3636 99.634L31.9294 95.6533L32.5793 95.7434C33.2305 95.8276 33.8821 95.907 34.5346 95.977C35.838 96.1261 37.143 96.2549 38.45 96.3583C39.7576 96.4562 41.0653 96.5537 42.3762 96.5977C43.031 96.6334 43.6871 96.6428 44.3425 96.6637C44.9983 96.6701 45.6547 96.681 46.3105 96.6753C48.9349 96.6637 51.5545 96.5237 54.1671 96.3134C55.4731 96.2049 56.7785 96.0849 58.0816 95.9428C59.3882 95.8094 60.6825 95.6433 61.9953 95.467C62.0074 95.4654 62.0208 95.463 62.0329 95.4606C62.3032 95.4045 62.4732 95.1554 62.4128 94.9045C62.3528 94.652 62.0848 94.4941 61.8142 94.5502Z" fill="white"/>
</g>
</g>
<g opacity="0.5">
<g opacity="0.5">
<path opacity="0.5" d="M46.9193 88.6802C47.1096 88.6812 47.3002 88.683 47.4906 88.683C52.601 88.683 57.7115 88.3411 62.7822 87.6571L62.7998 87.495C57.5379 88.2602 52.2292 88.6539 46.9193 88.6802Z" fill="white"/>
</g>
</g>
</g>
<g opacity="0.35">
<g opacity="0.35">
<path opacity="0.35" d="M62.6034 89.2942L60.5763 107.886C51.2397 110.089 41.4579 110.089 32.1213 107.886L31.8807 105.681C36.9709 106.313 44.4952 106.851 49.9954 105.533C55.5775 104.196 57.2837 99.5354 57.7887 96.3579C58.0325 94.8229 56.6328 93.4958 54.973 93.6719C41.7474 95.0768 31.393 90.6931 31.393 90.6931L62.6034 89.2942Z" fill="#371A45"/>
</g>
</g>
<path d="M46.3485 110C41.5201 110 36.6917 109.447 31.9977 108.339C31.7927 108.291 31.6423 108.129 31.621 107.934L29.3971 87.5423C29.3815 87.3984 29.4386 87.2556 29.5519 87.1562C29.6651 87.0565 29.8208 87.0108 29.9756 87.0338C40.8398 88.6121 51.8572 88.6121 62.7217 87.0338C62.8758 87.012 63.0322 87.0565 63.1454 87.1562C63.2587 87.2556 63.3158 87.3984 63.3002 87.5423L61.0766 107.934C61.0554 108.129 60.9049 108.291 60.6999 108.339C56.0053 109.447 51.1769 110 46.3485 110ZM32.5863 107.513C41.5978 109.584 51.0992 109.584 60.1107 107.513L62.2334 88.0482C51.6887 89.5195 41.0086 89.5195 30.4636 88.0482L32.5863 107.513ZM60.5755 107.886H60.5772H60.5755Z" fill="#371A45"/>
<path d="M63.4629 90.7622C52.1358 92.5645 40.5612 92.5645 29.2341 90.7622L28.5865 85.803C40.354 87.5392 52.3427 87.5392 64.1102 85.803L63.4629 90.7622Z" fill="#BC9D86"/>
<path d="M64.1107 85.8027L63.4624 90.7617C52.1359 92.5634 40.5611 92.5634 29.2346 90.7617L29.1497 90.111L29.1429 90.0601L29.0277 89.1758L28.5873 85.8027C30.6242 86.1037 32.6676 86.3519 34.7168 86.548C37.7496 86.8395 40.7915 87.0162 43.8367 87.0783C44.674 87.0971 45.5112 87.1053 46.3498 87.1053C47.2889 87.1053 48.23 87.0938 49.1691 87.072C52.212 87.0013 55.2539 86.8177 58.2844 86.5189C59.3015 86.4182 60.318 86.3049 61.3328 86.1794C61.4905 86.1606 61.6491 86.14 61.8068 86.1203C61.9746 86.0985 62.142 86.0767 62.3098 86.054C62.9114 85.9749 63.5104 85.8909 64.1107 85.8027Z" fill="#FFB200"/>
<g opacity="0.6">
<g opacity="0.6">
<g opacity="0.6">
<path opacity="0.6" d="M29.6492 88.4624C29.5731 89.0224 29.4265 89.6331 29.1497 90.1116L29.0273 89.1758L28.5873 85.8027C30.6245 86.1037 32.6682 86.3516 34.7165 86.5483C37.7496 86.8401 40.7915 87.0162 43.8367 87.0786C44.674 87.0971 45.5109 87.1053 46.3492 87.1053C47.2889 87.1053 48.2297 87.0941 49.1694 87.0725C52.2123 87.0019 55.2533 86.8177 58.2841 86.5195C59.4608 86.4028 60.6343 86.2697 61.8068 86.12C52.3546 89.2191 36.7331 87.7472 31.4944 87.1283C30.587 87.021 29.7637 87.6196 29.6492 88.4624Z" fill="white"/>
</g>
</g>
</g>
<path d="M46.3487 92.5844C40.602 92.5844 34.8557 92.1304 29.1492 91.2225C28.9302 91.1876 28.7614 91.0234 28.7347 90.8185L28.087 85.8592C28.0681 85.7138 28.1236 85.5686 28.2372 85.4668C28.3508 85.3649 28.5088 85.3186 28.6651 85.3416C40.3987 87.073 52.2977 87.073 64.0309 85.3416C64.1873 85.3183 64.3453 85.3649 64.4589 85.4665C64.5724 85.5683 64.6283 85.7135 64.609 85.8589L63.9614 90.8182C63.9346 91.0231 63.7662 91.1873 63.5468 91.2222C57.8416 92.1304 52.0953 92.5844 46.3487 92.5844ZM29.6885 90.36C40.7463 92.0807 51.9514 92.0807 63.0089 90.36L63.5312 86.3593C52.1263 87.9788 40.571 87.9788 29.1659 86.3593L29.6885 90.36ZM63.4629 90.7621H63.4646H63.4629Z" fill="#371A45"/>
<path d="M30.8319 94.2512C33.3404 94.8173 35.9267 95.2195 38.5106 95.4938C41.0984 95.7689 43.7036 95.9199 46.3078 95.9035L47.2844 95.8905C47.6099 95.8859 47.9353 95.8705 48.2607 95.8611C48.9116 95.8438 49.5622 95.8077 50.2124 95.7701C51.5119 95.6829 52.811 95.5859 54.105 95.4386C56.6909 95.161 59.2768 94.774 61.8029 94.2494L61.8143 94.247C62.0846 94.1909 62.3529 94.3488 62.4133 94.5998C62.4737 94.8507 62.3036 95.0998 62.0334 95.1559C62.0213 95.1583 62.0079 95.1607 61.9958 95.1622C60.683 95.3386 59.3887 95.5044 58.0821 95.638C56.7787 95.7801 55.4736 95.9002 54.1676 96.0086C51.5553 96.219 48.9355 96.359 46.311 96.3705C45.6553 96.3762 44.9988 96.3653 44.3431 96.359C43.6876 96.3381 43.0315 96.3287 42.3767 96.2929C41.0655 96.2487 39.7578 96.1514 38.4505 96.0535C37.1432 95.9502 35.8382 95.8214 34.5351 95.6723C33.8826 95.6022 33.2314 95.5229 32.5799 95.4386L31.6036 95.3031C31.2765 95.2595 30.9537 95.2125 30.6207 95.1604C30.3475 95.1174 30.1637 94.8774 30.2097 94.6237C30.2558 94.37 30.5146 94.1994 30.7878 94.2422C30.7993 94.244 30.8104 94.2461 30.8215 94.2485L30.8319 94.2512Z" fill="#371A45"/>
<path d="M31.3261 99.0889C31.6208 99.1626 31.9296 99.235 32.2348 99.3026C32.541 99.3696 32.8498 99.4302 33.1583 99.4926C33.7759 99.6129 34.3957 99.7287 35.0179 99.8332C36.2632 100.035 37.515 100.211 38.7727 100.345C41.2871 100.613 43.8195 100.76 46.3506 100.74C48.882 100.719 51.4134 100.567 53.9278 100.286C56.4392 100.012 58.9524 99.6229 61.3966 99.0865L61.4093 99.0838C61.6799 99.0244 61.9512 99.1799 62.0152 99.4311C62.0791 99.6823 61.9117 99.9342 61.6408 99.9936C61.6284 99.9963 61.6146 99.9987 61.6022 100.001C60.3243 100.184 59.0679 100.353 57.7972 100.488C56.5303 100.633 55.2612 100.751 53.9914 100.858C51.4515 101.067 48.9042 101.197 46.3532 101.209C45.7157 101.215 45.0779 101.203 44.44 101.199C43.8029 101.178 43.1647 101.172 42.5285 101.137C41.2535 101.097 39.9824 100.999 38.7107 100.906L37.7579 100.825L36.806 100.732C36.1715 100.67 35.5369 100.603 34.904 100.525C34.2697 100.455 33.6365 100.373 33.0032 100.287C32.6869 100.242 32.3703 100.198 32.054 100.148C31.7357 100.102 31.4227 100.054 31.0976 99.9978C30.824 99.9511 30.6432 99.7075 30.6935 99.4535C30.7437 99.1996 31.0062 99.0317 31.2797 99.0783C31.2928 99.0805 31.3058 99.0832 31.3186 99.0865L31.3261 99.0889Z" fill="#371A45"/>
<path d="M31.8533 103.645C32.1337 103.721 32.4317 103.795 32.7248 103.864C33.0196 103.932 33.3163 103.996 33.6137 104.058C34.2084 104.18 34.8057 104.298 35.406 104.402C36.6073 104.607 37.8163 104.778 39.0306 104.912C41.4598 105.174 43.9074 105.315 46.3542 105.294C48.8007 105.272 51.2479 105.13 53.6765 104.85C54.8914 104.716 56.1021 104.549 57.3056 104.35C58.5049 104.143 59.7137 103.926 60.879 103.642L60.8884 103.64C61.1574 103.575 61.4329 103.724 61.5034 103.974C61.5739 104.223 61.413 104.479 61.144 104.545C61.1297 104.548 61.114 104.551 61.0996 104.553C59.8628 104.746 58.6499 104.917 57.4209 105.053C56.1965 105.199 54.9695 105.319 53.7418 105.423C51.2861 105.631 48.8229 105.751 46.3571 105.764C45.7409 105.771 45.1243 105.757 44.508 105.755C43.892 105.736 43.2754 105.727 42.6598 105.696C41.4272 105.656 40.1979 105.565 38.9683 105.474C37.7396 105.37 36.5123 105.246 35.2875 105.094C34.6742 105.024 34.0622 104.94 33.4501 104.851C33.1443 104.805 32.8387 104.758 32.5329 104.707C32.2251 104.659 31.9234 104.61 31.6071 104.55C31.3346 104.5 31.158 104.253 31.2132 104C31.268 103.747 31.5337 103.583 31.8063 103.634C31.82 103.636 31.8334 103.639 31.8464 103.643L31.8533 103.645Z" fill="#371A45"/>
<path d="M37.1864 95.4235C37.1864 95.4235 38.0785 95.4872 38.325 95.1044C38.7712 94.4116 38.6746 92.7821 38.809 92.7821C38.9435 92.7821 38.5042 95.5248 40.0968 95.6954L37.1864 95.4235Z" fill="#371A45"/>
<path d="M55.1539 95.4235C55.1539 95.4235 54.2618 95.4872 54.0153 95.1044C53.5691 94.4116 53.6657 92.7821 53.5312 92.7821C53.3967 92.7821 53.8361 95.5248 52.2435 95.6954L55.1539 95.4235Z" fill="#371A45"/>
<path d="M37.1864 104.916C37.1864 104.916 38.0785 104.979 38.325 104.596C38.7712 103.904 38.6746 102.274 38.809 102.274C38.9435 102.274 38.5042 105.017 40.0968 105.187L37.1864 104.916Z" fill="#371A45"/>
<path d="M55.1539 104.916C55.1539 104.916 54.2618 104.979 54.0153 104.596C53.5691 103.904 53.6657 102.274 53.5312 102.274C53.3967 102.274 53.8361 105.017 52.2435 105.187L55.1539 104.916Z" fill="#371A45"/>
<path d="M47.8466 100.881C47.8466 100.881 47.0165 100.712 46.6333 100.443C46.1672 100.116 46.6862 97.3945 46.3487 97.3742C46.1071 97.3596 46.7123 100.881 44.8746 100.906L47.8466 100.881Z" fill="#371A45"/>
<path d="M47.8466 109.139C47.8466 109.139 46.9424 109.042 46.6333 108.701C46.2566 108.284 46.5586 105.942 46.2328 106.026C46.0716 106.067 46.7123 109.139 44.8746 109.164L47.8466 109.139Z" fill="#371A45"/>
<path d="M61.5913 99.5437C61.5913 99.5437 61.2763 99.2145 60.9414 99.2624C60.8249 99.2791 60.6532 99.3188 60.5605 99.2167C60.2377 98.8615 60.3708 96.8289 60.0882 96.8749C59.8998 96.9055 60.4348 99.4167 59.1683 99.6143C58.9757 99.6443 58.9349 99.8561 58.6829 99.8685L61.5913 99.5437Z" fill="#371A45"/>
<path d="M31.5142 99.6648C31.5142 99.6648 31.8292 99.3357 32.1641 99.3836C32.2806 99.4003 32.42 99.3487 32.5062 99.2418C32.9008 98.7505 32.7392 96.9194 32.8737 96.9194C32.9906 96.9194 32.6707 99.5378 33.9372 99.7354C34.1298 99.7654 34.1706 99.9773 34.4226 99.9897L31.5142 99.6648Z" fill="#371A45"/>
<g opacity="0.35">
<g opacity="0.35">
<path opacity="0.35" d="M64.1108 85.8027L63.4626 90.7617C52.1361 92.5634 40.5612 92.5634 29.2348 90.7617L29.1499 90.111L29.143 90.0601C31.5086 90.2159 33.7028 90.3268 35.7397 90.3974C33.6437 89.7404 34.0984 87.4862 34.0984 87.4862C34.2316 86.5167 35.9597 86.0664 38.2616 85.9718C42.3487 85.8036 43.1537 88.0581 42.05 89.5443C41.737 89.9656 41.0058 90.2968 40.0925 90.4941C44.8592 90.5314 48.583 90.3199 51.4895 89.9556C51.2838 89.8319 51.1206 89.694 51.01 89.5446C49.9076 88.0584 50.7126 85.8039 54.7997 85.9721C57.1003 86.0667 58.8297 86.5171 58.9629 87.4865C58.9629 87.4865 59.0099 87.7211 59.003 88.0614C60.2865 87.4335 60.9749 86.7683 61.3327 86.1797C61.4903 86.161 61.649 86.1403 61.8066 86.1206C61.9744 86.0988 62.1419 86.077 62.3097 86.0543C62.9116 85.9749 63.5106 85.8909 64.1108 85.8027Z" fill="#371A45"/>
</g>
</g>
<path d="M34.0988 86.4483C34.0988 86.4483 33.617 88.836 35.9294 89.4134C38.2418 89.9907 41.3121 89.5019 42.0507 88.5066C43.1537 87.0204 42.3488 84.766 38.2613 84.9342C35.9604 85.029 34.232 85.4785 34.0988 86.4483Z" fill="white"/>
<g opacity="0.35">
<g opacity="0.35">
<path opacity="0.35" d="M42.0505 88.5063C41.3114 89.5015 38.2418 89.9904 35.93 89.4133C33.617 88.8363 34.0988 86.4482 34.0988 86.4482C34.1089 86.3776 34.1269 86.3103 34.1523 86.2449C34.3244 86.9092 34.785 87.6377 35.9297 87.9232C38.2414 88.5002 41.3114 88.0114 42.0501 87.0162C42.1719 86.8522 42.2714 86.6779 42.3442 86.4994C42.6361 87.1498 42.5055 87.8929 42.0505 88.5063Z" fill="#371A45"/>
</g>
</g>
<path d="M38.063 90.1131C37.2937 90.1131 36.5148 90.0304 35.8019 89.8525C33.6361 89.3115 33.4233 87.3504 33.6146 86.377C33.7827 85.2375 35.3384 84.5996 38.2393 84.4802C41.1892 84.3593 42.2843 85.4348 42.6734 86.0873C43.1591 86.9013 43.0749 87.9272 42.4534 88.7645C41.8338 89.5994 39.9788 90.1131 38.063 90.1131ZM34.5798 86.531C34.5625 86.621 34.2214 88.516 36.0562 88.9742C38.2514 89.5227 41.0671 89.0303 41.6471 88.2484C42.0623 87.6887 42.126 87.0456 41.8169 86.5276C41.3413 85.7306 40.0542 85.3157 38.2827 85.3882C35.6541 85.4964 34.6487 86.0364 34.5841 86.5058L34.5798 86.531ZM34.0987 86.4483H34.1003H34.0987Z" fill="#371A45"/>
<path d="M58.9627 86.4483C58.9627 86.4483 59.4445 88.836 57.1321 89.4134C54.8198 89.9907 51.7495 89.5019 51.0108 88.5066C49.9078 87.0204 50.7128 84.766 54.8002 84.9342C57.1008 85.029 58.8292 85.4785 58.9627 86.4483Z" fill="white"/>
<g opacity="0.35">
<g opacity="0.35">
<path opacity="0.35" d="M57.1321 89.4134C54.8204 89.9904 51.7494 89.5016 51.0104 88.5063C50.5554 87.893 50.4258 87.1499 50.7163 86.498C50.7891 86.6774 50.8883 86.852 51.0104 87.0168C51.7494 88.0121 54.8201 88.5009 57.1321 87.923C58.2769 87.6375 58.7375 86.9089 58.9095 86.2446C58.9353 86.3101 58.9532 86.3774 58.963 86.448C58.963 86.4483 59.4452 88.8364 57.1321 89.4134Z" fill="#371A45"/>
</g>
</g>
<path d="M54.9981 90.1131C53.082 90.1131 51.2272 89.5994 50.6074 88.7645C49.9858 87.9272 49.9016 86.9013 50.3873 86.0873C50.7768 85.4348 51.8703 84.3593 54.8215 84.4802C57.7221 84.5996 59.2778 85.2378 59.4463 86.377C59.6375 87.3501 59.425 89.3115 57.2589 89.8525C56.5463 90.0301 55.7671 90.1131 54.9981 90.1131ZM54.3867 85.38C52.8182 85.38 51.6839 85.7906 51.2442 86.5276C50.9351 87.0456 50.9987 87.689 51.4139 88.2484C51.994 89.03 54.8097 89.5231 57.0049 88.9742C58.8587 88.5115 58.4977 86.6125 58.4817 86.5319L58.4771 86.5058C58.4125 86.0367 57.4071 85.4964 54.7784 85.3882C54.6452 85.3827 54.5143 85.38 54.3867 85.38Z" fill="#371A45"/>
<g opacity="0.3">
<g opacity="0.3">
<path opacity="0.3" d="M45.8936 18.9407C56.1645 18.3789 63.7475 23.3172 65.7583 29.5253C67.4501 34.7485 61.047 34.0763 57.3441 31.9546C53.6412 29.8329 50.6245 26.899 44.6728 25.8911C34.4556 24.1603 39.8901 19.2692 45.8936 18.9407Z" fill="white"/>
</g>
</g>
<g opacity="0.3">
<g opacity="0.3">
<path opacity="0.3" d="M71.1328 35.3203C75.2623 38.3715 74.8938 42 73.8401 44.2138C72.8331 46.3298 70.4245 44.8393 69.7318 43.2513C69.0391 41.6633 68.8009 39.9571 67.0382 38.226C64.0123 35.2536 69.1371 33.8456 71.1328 35.3203Z" fill="white"/>
</g>
</g>
</svg>
