<svg width="156" height="98" viewBox="0 0 156 98" fill="none" xmlns="http://www.w3.org/2000/svg">
<g opacity="0.2">
<path opacity="0.2" d="M155.681 94.2208C155.681 96.3081 120.831 97.9999 77.8407 97.9999C34.8506 97.9999 0 96.3081 0 94.2208C0 93.5862 3.23613 92.9862 8.94948 92.4586H146.732C152.445 92.9862 155.681 93.5862 155.681 94.2208Z" fill="#000072"/>
</g>
<path d="M67.4448 92.6939H53.9066C53.4878 92.6939 53.1486 92.3542 53.1486 91.9354C53.1486 91.7258 53.2339 91.536 53.3712 91.3991C53.5086 91.2618 53.6979 91.177 53.9075 91.177H68.4167L68.0375 92.6934L67.4448 92.6939Z" fill="#000072"/>
<path d="M32.1143 59.9904C31.1944 59.8347 30.3228 60.4544 30.1676 61.3742L28.178 73.1406L31.5086 73.7039L33.4982 61.9375C33.6538 61.0177 33.0342 60.146 32.1143 59.9904Z" fill="#4089FF"/>
<path d="M33.4991 61.937L33.1715 63.8755L29.8405 63.3122L30.1681 61.3738C30.3237 60.4549 31.1949 59.8352 32.1138 59.9909C33.0351 60.1465 33.6548 61.0177 33.4991 61.937Z" fill="#FFCE00"/>
<path d="M33.1726 64.5976C33.1326 64.5976 33.0922 64.5942 33.0512 64.5875L29.7202 64.0242C29.3265 63.9577 29.0615 63.5848 29.128 63.1911L29.4557 61.2531C29.5631 60.6181 29.911 60.063 30.4362 59.6901C30.961 59.3171 31.5999 59.1702 32.235 59.2781C32.8705 59.3855 33.4266 59.7339 33.8 60.2586C34.1734 60.7833 34.3199 61.4223 34.2125 62.0573L33.8848 63.9953C33.8246 64.3485 33.5186 64.5976 33.1726 64.5976ZM30.6738 62.7194L32.5795 63.0417L32.7867 61.8164C32.8296 61.562 32.7713 61.3066 32.6214 61.0965C32.4716 60.886 32.2485 60.7462 31.9931 60.7034C31.7387 60.6605 31.4833 60.7188 31.2727 60.8682C31.0626 61.0175 30.9229 61.2397 30.88 61.4941L30.6738 62.7194ZM33.4993 61.9369H33.5017H33.4993Z" fill="#000072"/>
<path d="M31.5098 74.4274C31.4699 74.4274 31.4294 74.424 31.3894 74.4173L28.0578 73.854C27.8689 73.8222 27.7003 73.7162 27.589 73.5601C27.4782 73.404 27.4333 73.2098 27.4656 73.0209L29.1275 63.1917C29.1594 63.0028 29.2654 62.8342 29.4215 62.7229C29.5776 62.6121 29.7723 62.5677 29.9607 62.5995L33.2918 63.1628C33.6854 63.2293 33.9505 63.6023 33.884 63.9959L32.222 73.8251C32.1902 74.014 32.0842 74.1826 31.9281 74.2939C31.8057 74.3812 31.6587 74.4274 31.5098 74.4274ZM29.0114 72.5492L30.9176 72.8715L32.3386 64.4677L30.4329 64.1453L29.0114 72.5492Z" fill="#000072"/>
<path d="M35.4078 69.8064C35.3678 69.8064 35.3273 69.803 35.2863 69.7963C34.8927 69.7298 34.6276 69.3568 34.6941 68.9631L35.0613 66.7923C35.2305 65.793 34.5544 64.8423 33.555 64.6731L32.4222 64.4818C32.0285 64.4153 31.7635 64.0424 31.83 63.6487C31.8965 63.255 32.2709 62.991 32.6631 63.0565L33.796 63.2478C35.5817 63.5499 36.7883 65.248 36.4867 67.0333L36.1195 69.2041C36.0597 69.5573 35.7538 69.8064 35.4078 69.8064Z" fill="#000072"/>
<path d="M18.5252 77.7891L24.0509 76.6182L20.4694 59.716L14.9437 60.8869L18.5252 77.7891Z" fill="#D2E4FF"/>
<path d="M18.5253 78.5156C18.3866 78.5156 18.2492 78.4756 18.1312 78.3985C17.9702 78.294 17.858 78.1301 17.818 77.9427L14.4069 61.8451C14.2306 61.012 14.765 60.1899 15.5981 60.0131L19.5151 59.1833C20.3487 59.0065 21.1702 59.5414 21.3471 60.3745L24.7586 76.472C24.8415 76.8628 24.5919 77.2464 24.2011 77.3288L18.6752 78.4997C18.6256 78.5103 18.5755 78.5156 18.5253 78.5156ZM19.8355 60.5952C19.8287 60.5952 19.8215 60.5957 19.8148 60.5971L15.8983 61.4269C15.8448 61.4384 15.8101 61.4914 15.8217 61.5449L19.0828 76.9356L23.1945 76.0644L19.9328 60.6737C19.9227 60.6275 19.8813 60.5952 19.8355 60.5952Z" fill="#000072"/>
<path d="M17.0302 60.4486L14.9443 60.8904" stroke="#000072" stroke-width="17.2883" stroke-miterlimit="10" stroke-linecap="round" stroke-linejoin="round"/>
<path d="M17.7458 63.8289L15.6603 64.2712" stroke="#000072" stroke-width="17.2883" stroke-miterlimit="10" stroke-linecap="round" stroke-linejoin="round"/>
<path d="M18.4624 67.2095L16.3765 67.6513" stroke="#000072" stroke-width="17.2883" stroke-miterlimit="10" stroke-linecap="round" stroke-linejoin="round"/>
<path d="M19.1786 70.5898L17.0931 71.0317" stroke="#000072" stroke-width="17.2883" stroke-miterlimit="10" stroke-linecap="round" stroke-linejoin="round"/>
<path d="M19.895 73.97L17.8095 74.4118" stroke="#000072" stroke-width="17.2883" stroke-miterlimit="10" stroke-linecap="round" stroke-linejoin="round"/>
<path d="M20.6116 77.35L18.5256 77.7923" stroke="#000072" stroke-width="17.2883" stroke-miterlimit="10" stroke-linecap="round" stroke-linejoin="round"/>
<path d="M32.9463 75.6434H16.6438V91.6564H32.9463V75.6434Z" fill="#F91228"/>
<path d="M32.9466 92.4896H16.6439C16.1838 92.4896 15.8108 92.1166 15.8108 91.6564V75.6434C15.8108 75.1833 16.1838 74.8103 16.6439 74.8103H32.9466C33.4068 74.8103 33.7797 75.1833 33.7797 75.6434V91.6564C33.7797 92.1166 33.4068 92.4896 32.9466 92.4896ZM17.4771 90.8233H32.1135V76.4766H17.4771V90.8233Z" fill="#000072"/>
<g opacity="0.3">
<path opacity="0.3" d="M33.5746 76.4983V77.8456C33.5746 78.4913 33.2267 79.0536 32.7063 79.3577V91.6575H16.4033V89.1437H26.2591C28.8949 89.1437 31.0314 87.0071 31.0314 84.3714C31.0314 81.7356 28.8949 79.5991 26.2591 79.5991H17.2885C16.32 79.5991 15.535 78.8141 15.535 77.8456V76.4983C15.535 75.5298 16.32 74.7449 17.2885 74.7449H31.8207C32.7897 74.7449 33.5746 75.5298 33.5746 76.4983Z" fill="#000072"/>
</g>
<path d="M32.0613 72.6627H17.5292C16.5606 72.6627 15.7757 73.4477 15.7757 74.4162V75.7625C15.7757 76.731 16.5606 77.516 17.5292 77.516H32.0608C33.0294 77.516 33.8143 76.731 33.8143 75.7625V74.4162C33.8148 73.4481 33.0299 72.6627 32.0613 72.6627Z" fill="#F91228"/>
<g opacity="0.5">
<path opacity="0.5" d="M33.8155 73.934V75.2813C33.8155 75.4085 33.803 75.5333 33.776 75.6518C33.6074 74.8606 32.9034 74.267 32.0621 74.267H17.5294C16.6881 74.267 15.9841 74.8606 15.8155 75.6518C15.7885 75.5333 15.7759 75.408 15.7759 75.2813V73.934C15.7759 72.9655 16.5609 72.1805 17.5294 72.1805H32.0616C33.0301 72.1805 33.8155 72.9655 33.8155 73.934Z" fill="white"/>
</g>
<path d="M32.061 78.3497H17.5287C16.1024 78.3497 14.9421 77.1894 14.9421 75.7631V74.4168C14.9421 72.9905 16.1024 71.8302 17.5287 71.8302H32.0605C33.4868 71.8302 34.6471 72.9905 34.6471 74.4168V75.7631C34.6475 77.1894 33.4872 78.3497 32.061 78.3497ZM17.5287 73.496C17.0213 73.496 16.6084 73.9089 16.6084 74.4163V75.7626C16.6084 76.27 17.0213 76.6829 17.5287 76.6829H32.0605C32.5679 76.6829 32.9813 76.27 32.9813 75.7626V74.4163C32.9813 73.9089 32.5683 73.496 32.0605 73.496H17.5287Z" fill="#000072"/>
<path d="M25.2932 59.0406C24.3603 59.0406 23.6043 59.7967 23.6043 60.7296V72.6632H26.9821V60.7296C26.9821 59.7967 26.2256 59.0406 25.2932 59.0406Z" fill="#FFCE00"/>
<path d="M26.9831 60.7292V62.6952H23.6043V60.7292C23.6043 59.7968 24.3603 59.0413 25.2922 59.0413C26.227 59.0413 26.9831 59.7968 26.9831 60.7292Z" fill="#F91228"/>
<path d="M26.9832 63.4173H23.6044C23.2054 63.4173 22.8816 63.094 22.8816 62.6946V60.7286C22.8816 59.3992 23.9634 58.3179 25.2923 58.3179C26.6227 58.3179 27.7055 59.3996 27.7055 60.7286V62.6946C27.7059 63.094 27.3821 63.4173 26.9832 63.4173ZM24.3272 61.9718H26.2604V60.7286C26.2604 60.1966 25.8262 59.7634 25.2928 59.7634C24.7603 59.7634 24.3276 60.1966 24.3276 60.7286V61.9718H24.3272Z" fill="#000072"/>
<path d="M26.9831 73.3865H23.6044C23.2054 73.3865 22.8816 73.0631 22.8816 72.6637V62.6946C22.8816 62.2951 23.2054 61.9718 23.6044 61.9718H26.9831C27.3821 61.9718 27.7059 62.2951 27.7059 62.6946V72.6637C27.7059 73.0631 27.3821 73.3865 26.9831 73.3865ZM24.3272 71.9409H26.2604V63.4174H24.3272V71.9409Z" fill="#000072"/>
<path d="M96.7254 91.9354H110.263C114.026 91.9354 117.411 89.6461 118.81 86.1527C119.252 85.0512 119.471 83.888 119.471 82.7277C119.471 81.3086 119.144 79.8948 118.494 78.5991L110.988 63.6371C108.101 57.8813 102.581 53.987 96.3148 53.1196L83.0778 52.936H82.7525L69.5155 53.1196C63.2494 53.987 57.7293 57.8818 54.842 63.6371L47.3361 78.7206V91.9181H64.6304" fill="#4089FF"/>
<g opacity="0.35">
<path opacity="0.35" d="M105.636 82.6593H96.098V79.8887H108.406C108.406 81.419 107.166 82.6593 105.636 82.6593Z" fill="white"/>
</g>
<g opacity="0.3">
<path opacity="0.3" d="M119.472 82.7266C119.472 83.8864 119.252 85.0506 118.81 86.1516C117.41 89.6451 114.026 91.9348 110.264 91.9348H96.7259L64.6309 91.918H47.3361V87.3326H64.6309L96.7259 87.3514H110.264C114.026 87.3514 117.41 85.0617 118.81 81.5682C118.958 81.1948 119.083 80.8156 119.182 80.433C119.376 81.1837 119.472 81.9552 119.472 82.7266Z" fill="#000072"/>
</g>
<g opacity="0.5">
<path opacity="0.5" d="M119.472 82.7266C119.472 83.1415 119.443 83.5568 119.386 83.9683C119.25 82.9752 118.952 82.0048 118.493 81.0892L110.987 66.1262C110.265 64.6874 109.379 63.3652 108.358 62.1769C104.768 58.0016 99.4943 55.6541 93.9886 55.5774L83.0775 55.4257H82.7513L71.8401 55.5774C66.3344 55.6541 61.061 58.0016 57.4712 62.1769C56.4496 63.3647 55.5635 64.6874 54.8417 66.1262L47.3353 81.2107V78.72L54.8417 63.6374C55.5635 62.1981 56.4501 60.8754 57.4716 59.6872C61.0615 55.5114 66.3354 53.1633 71.8411 53.0872L82.7513 52.9354H83.0775L93.9877 53.0872C99.4938 53.1638 104.768 55.5119 108.357 59.6872C109.379 60.8754 110.265 62.1981 110.987 63.6374L118.493 78.5985C119.144 79.8947 119.472 81.3085 119.472 82.7266Z" fill="white"/>
</g>
<path d="M110.263 92.6934H96.7252C96.3065 92.6934 95.9673 92.3537 95.9673 91.935C95.9673 91.5162 96.3065 91.1765 96.7252 91.1765H110.263C113.736 91.1765 116.815 89.0935 118.106 85.8698C118.508 84.8666 118.713 83.8094 118.713 82.7267C118.713 81.4175 118.403 80.1074 117.816 78.9384L110.31 63.9763C107.565 58.5029 102.313 54.73 96.2564 53.8761L83.0671 53.6935H82.7524L71.8543 53.8443C66.4778 53.919 61.4448 56.2286 58.0468 60.1807C57.0541 61.3353 56.2041 62.6122 55.5199 63.9758L48.0945 78.8974V91.1582H64.6308C65.0495 91.1582 65.3888 91.4979 65.3888 91.9166C65.3888 92.3354 65.0491 92.6751 64.6308 92.6751H46.5786V78.5413L54.1635 63.2983C54.9041 61.8219 55.8235 60.4409 56.897 59.1925C60.5784 54.9107 66.0224 52.4089 71.8336 52.3284L83.0777 52.1771L96.372 52.3617L96.4183 52.3679C102.989 53.2777 108.689 57.3633 111.666 63.2969L119.171 78.259C119.863 79.6385 120.229 81.1833 120.229 82.7272C120.229 84.0041 119.988 85.2516 119.514 86.4346C117.99 90.2364 114.359 92.6934 110.263 92.6934Z" fill="#000072"/>
<path d="M82.085 58.577H82.0841C79.1361 58.577 76.7461 56.187 76.7461 53.239V47.2245H87.4235V53.239C87.4235 56.187 85.0335 58.577 82.085 58.577Z" fill="#FFCFAE"/>
<path d="M82.0844 59.3354C78.723 59.3354 75.988 56.6004 75.988 53.239V46.4666H88.1808V53.239C88.1808 56.6004 85.4458 59.3354 82.0844 59.3354ZM77.5044 47.9829V53.2385C77.5044 55.7639 79.559 57.8186 82.0844 57.8186C84.6098 57.8186 86.6644 55.7639 86.6644 53.2385V47.9829H77.5044Z" fill="#000072"/>
<path d="M66.0717 39.7033C69.2231 39.7033 71.7778 37.1485 71.7778 33.9971C71.7778 30.8457 69.2231 28.291 66.0717 28.291C62.9203 28.291 60.3656 30.8457 60.3656 33.9971C60.3656 37.1485 62.9203 39.7033 66.0717 39.7033Z" fill="#FFCFAE"/>
<g opacity="0.3">
<path opacity="0.3" d="M71.7778 33.9976C71.7778 37.1488 69.2231 39.7026 66.0717 39.7026C62.9204 39.7026 60.3656 37.1493 60.3656 33.9976C60.3656 33.4531 60.4422 32.926 60.5844 32.4282C61.2657 34.8172 63.4649 36.5648 66.0717 36.5648C68.6786 36.5648 70.8777 34.8172 71.5591 32.4282C71.7012 32.926 71.7778 33.4531 71.7778 33.9976Z" fill="#000072"/>
</g>
<path d="M66.0713 40.4612C62.507 40.4612 59.6068 37.5614 59.6068 33.9967C59.6068 30.4319 62.5066 27.5321 66.0713 27.5321C69.6356 27.5321 72.5354 30.4319 72.5354 33.9967C72.5354 37.5614 69.6356 40.4612 66.0713 40.4612ZM66.0713 29.0495C63.3431 29.0495 61.1232 31.2689 61.1232 33.9972C61.1232 36.7254 63.3426 38.9448 66.0713 38.9448C68.7996 38.9448 71.019 36.7254 71.019 33.9972C71.019 31.2689 68.7991 29.0495 66.0713 29.0495Z" fill="#000072"/>
<path d="M99.8998 23.2832C94.3127 25.0116 87.7321 19.278 87.6212 19.7801C87.4121 20.7202 88.5845 21.827 89.3511 22.305C89.5742 22.4433 89.6373 22.6938 89.5713 22.903C89.5178 23.0784 89.3742 23.2244 89.1579 23.2586C85.7888 23.7828 79.0028 31.7455 78.1244 35.3334H66.3672C66.3672 35.3334 60.4379 21.8983 62.6024 13.4196C63.2525 10.8744 65.3215 9.02696 69.1296 10.3448C69.1296 10.3448 70.7405 7.94857 73.4485 5.55133C77.8536 1.65408 85.158 -2.24462 93.1442 4.17467C101.679 11.0358 104.732 10.8267 104.732 10.8267C104.732 10.8267 107.17 21.0348 99.8998 23.2832Z" fill="#94452F"/>
<g opacity="0.35">
<path opacity="0.35" d="M89.4317 23.1246C89.3619 23.1916 89.2689 23.2398 89.1566 23.2571C88.8377 23.3063 88.4903 23.4229 88.1183 23.5949C87.7555 23.142 87.516 22.6317 87.6201 22.1624C87.6558 22.0039 88.3385 22.4693 89.4317 23.1246Z" fill="white"/>
<path opacity="0.35" d="M88.0814 23.7574L88.0178 23.6774C87.5745 23.1237 87.3934 22.5902 87.4941 22.1349C87.5061 22.0809 87.5418 22.0375 87.5919 22.0163C87.7461 21.9498 87.9836 22.0896 88.8672 22.6293C89.0585 22.7464 89.27 22.8755 89.4994 23.0129L89.6454 23.1006L89.5225 23.2186C89.431 23.3068 89.3115 23.3646 89.178 23.3863C88.8817 23.4321 88.5439 23.542 88.1739 23.7135L88.0814 23.7574ZM87.7331 22.2804C87.6844 22.6924 87.9205 23.1198 88.1585 23.4355C88.5146 23.2779 88.8436 23.1753 89.1375 23.13C89.1501 23.128 89.1621 23.1256 89.1741 23.1222C89.0166 23.0268 88.8687 22.9367 88.7314 22.8524C88.3083 22.5936 87.9051 22.3474 87.7331 22.2804Z" fill="#000072"/>
</g>
<g opacity="0.35">
<path opacity="0.35" d="M99.8992 25.6668C96.08 26.8478 91.7954 24.5431 89.4325 23.1255C89.498 23.0639 89.5447 22.9858 89.5707 22.9024C89.6363 22.6928 89.5736 22.4428 89.3505 22.3045C88.5844 21.827 87.4116 20.7197 87.6207 19.7796C87.7315 19.2775 94.3121 25.011 99.8992 23.2826C103.733 22.0978 104.867 18.6983 105.083 15.7494C105.297 18.9272 104.843 24.1384 99.8992 25.6668Z" fill="white"/>
<path opacity="0.35" d="M97.6359 26.1276C94.5997 26.1276 91.5578 24.5524 89.3658 23.2374L89.2179 23.1487L89.3436 23.0307C89.3909 22.9864 89.4265 22.9285 89.4468 22.8635C89.4921 22.7189 89.4588 22.5243 89.2824 22.4149C88.4416 21.8906 87.2721 20.7491 87.4943 19.7512C87.5063 19.6977 87.542 19.6543 87.5921 19.6326C87.7473 19.5671 87.9838 19.7059 88.8671 20.2451C91.0938 21.6058 95.7263 24.4382 99.8621 23.1574C103.708 21.9687 104.754 18.4675 104.954 15.7393L105.214 15.7397C105.422 18.8198 105.014 24.2209 99.9392 25.7898L99.9007 25.6655L99.9392 25.7898C99.1808 26.0254 98.4083 26.1276 97.6359 26.1276ZM89.6279 23.0904C92.3326 24.7003 96.2834 26.6489 99.8616 25.5421C103.946 24.2792 104.9 20.4152 104.988 17.4238C104.492 19.8524 103.168 22.4091 99.9387 23.407C95.6902 24.721 90.9897 21.8482 88.7307 20.4677C88.3076 20.2094 87.9053 19.9632 87.7333 19.8962C87.6326 20.739 88.6975 21.7436 89.4198 22.1937C89.6752 22.3522 89.786 22.6524 89.6954 22.9415C89.679 22.9945 89.6564 23.0442 89.6279 23.0904Z" fill="#000072"/>
</g>
<g opacity="0.3">
<path opacity="0.3" d="M89.5708 22.9026C89.5173 23.078 89.3737 23.224 89.1574 23.2582C85.7882 23.7825 79.0023 31.7451 78.1239 35.333H68.3316C65.3388 27.0745 67.5804 18.046 67.5804 18.046C67.5804 18.046 83.7837 21.6397 89.5708 22.9026Z" fill="#000072"/>
</g>
<path d="M101.464 39.7033C104.616 39.7033 107.17 37.1485 107.17 33.9971C107.17 30.8457 104.616 28.291 101.464 28.291C98.3127 28.291 95.758 30.8457 95.758 33.9971C95.758 37.1485 98.3127 39.7033 101.464 39.7033Z" fill="#FFCFAE"/>
<g opacity="0.3">
<path opacity="0.3" d="M107.17 33.9976C107.17 37.1488 104.615 39.7026 101.464 39.7026C98.3128 39.7026 95.758 37.1493 95.758 33.9976C95.758 33.4531 95.8346 32.926 95.9768 32.4282C96.6581 34.8162 98.8573 36.5648 101.464 36.5648C104.071 36.5648 106.27 34.8162 106.951 32.4282C107.094 32.926 107.17 33.4531 107.17 33.9976Z" fill="#000072"/>
</g>
<path d="M101.464 40.4612C97.9 40.4612 94.9997 37.5614 94.9997 33.9967C94.9997 30.4319 97.8995 27.5321 101.464 27.5321C105.029 27.5321 107.929 30.4319 107.929 33.9967C107.929 37.5614 105.029 40.4612 101.464 40.4612ZM101.464 29.0495C98.736 29.0495 96.5161 31.2689 96.5161 33.9972C96.5161 36.7254 98.7355 38.9448 101.464 38.9448C104.193 38.9448 106.412 36.7254 106.412 33.9972C106.412 31.2689 104.193 29.0495 101.464 29.0495Z" fill="#000072"/>
<path d="M100.955 35.3338C100.955 35.3338 105.395 24.2627 103.229 15.784C102.578 13.2379 100.679 11.1953 98.1924 10.3448" fill="#94452F"/>
<path d="M100.955 36.0917C100.861 36.0917 100.765 36.0744 100.673 36.0373C100.284 35.8816 100.095 35.4402 100.251 35.0514C100.294 34.943 104.572 24.1065 102.494 15.9714C101.906 13.6705 100.207 11.8352 97.9475 11.0623C97.5514 10.9269 97.3399 10.4956 97.4757 10.0995C97.6111 9.70342 98.0419 9.49237 98.4385 9.62729C101.183 10.5664 103.249 12.7974 103.964 15.596C106.165 24.2154 101.844 35.154 101.659 35.6152C101.54 35.912 101.255 36.0917 100.955 36.0917Z" fill="#000072"/>
<g opacity="0.3">
<path opacity="0.3" d="M87.423 47.2245V52.7514C86.2435 52.8747 85.0215 52.9349 83.7682 52.9349C81.2736 52.9349 78.8995 52.6955 76.7466 52.1958V47.2245H87.423Z" fill="#000072"/>
</g>
<path d="M101.322 38.2907C101.322 46.8681 93.3993 50.5365 83.6258 50.5365C73.8523 50.5365 65.9292 46.8677 65.9292 38.2907C65.9292 36.2625 67.143 29.6409 67.8928 25.7408C68.1375 24.4696 68.5124 23.2313 69.0121 22.0459C69.6404 20.557 70.4683 19.1528 71.4864 17.8846C72.919 16.1003 74.7544 14.514 76.756 14.514H90.4951C92.4972 14.514 94.3321 16.0998 95.7647 17.8846C97.5928 20.1628 98.8052 22.8723 99.3584 25.7408C99.3815 25.8627 99.4051 25.9855 99.4297 26.1128C100.183 30.0485 101.322 36.3257 101.322 38.2907Z" fill="#FFCFAE"/>
<path d="M72.6921 27.1452C72.19 27.4069 71.6682 26.8277 71.9828 26.3569C72.6622 25.3422 73.7628 24.2619 75.4232 24.0846C78.2614 23.7825 79.4164 25.1466 78.8801 26.0461C78.5254 26.6407 76.7271 26.1266 75.3042 26.3063C74.2861 26.4345 73.3927 26.781 72.6921 27.1452Z" fill="#000072"/>
<path d="M94.5781 27.3022C95.057 27.5518 95.5548 26.9991 95.2541 26.5505C94.606 25.5829 93.5565 24.5523 91.9727 24.3836C89.2657 24.0955 88.1646 25.3965 88.6759 26.2542C89.0141 26.8213 90.729 26.3312 92.0864 26.5023C93.0578 26.6242 93.9102 26.9543 94.5781 27.3022Z" fill="#000072"/>
<g opacity="0.3">
<path opacity="0.3" d="M101.464 38.2905C101.464 46.8679 93.5413 50.5363 83.7679 50.5363C73.9944 50.5363 66.0713 46.8675 66.0713 38.2905C66.0713 38.0457 66.0891 37.7349 66.1204 37.3696C66.8018 45.126 74.443 48.4662 83.7674 48.4662C93.0918 48.4662 100.732 45.1275 101.413 37.3711C101.447 37.7363 101.464 38.0466 101.464 38.2905Z" fill="#000072"/>
</g>
<path d="M83.7675 51.2952C81.1404 51.2952 78.7037 51.036 76.5257 50.5252C69.295 48.8358 65.3129 44.491 65.3129 38.2909C65.3129 37.6727 65.4122 36.6705 65.616 35.2278C66.0217 32.3511 66.7503 28.4033 67.2905 25.5979C67.8745 22.5675 69.1702 19.7357 71.0369 17.4093C72.9845 14.9856 74.9568 13.7563 76.8982 13.7563H90.6373C92.5787 13.7563 94.5504 14.9851 96.4981 17.4088C98.3653 19.7362 99.661 22.5675 100.245 25.5979C100.785 28.4038 101.514 32.3516 101.919 35.2283C102.123 36.6705 102.223 37.6727 102.223 38.2914C102.223 44.4915 98.2405 48.8363 91.0098 50.5257C88.8318 51.036 86.395 51.2952 83.7675 51.2952ZM76.8982 15.2727C75.0806 15.2727 73.3507 16.9506 72.2193 18.3585C70.5068 20.4932 69.3171 23.0957 68.7794 25.8846C68.2426 28.6726 67.5189 32.5935 67.1175 35.4398C66.9262 36.7929 66.8293 37.7522 66.8293 38.2909C66.8293 45.2431 72.2902 47.9782 76.8707 49.0488H76.8712C78.9359 49.5331 81.2561 49.7784 83.7675 49.7784C86.2789 49.7784 88.599 49.5331 90.6638 49.0488C95.2453 47.9782 100.706 45.2431 100.706 38.2909C100.706 37.7513 100.609 36.7924 100.418 35.4398C100.017 32.594 99.2928 28.6726 98.7561 25.8842C98.2183 23.0957 97.0286 20.4932 95.3156 18.3581C94.1847 16.951 92.4548 15.2727 90.6373 15.2727H76.8982Z" fill="#000072"/>
<g opacity="0.3">
<path opacity="0.3" d="M87.621 22.5167C87.4119 23.4568 88.5842 24.5636 89.3509 25.0426C89.7585 25.2956 89.6328 25.921 89.1581 25.9952C86.0478 26.4795 75.7968 26.7055 69.1544 22.0459C69.7828 20.557 70.6106 19.1529 71.6287 17.8846C73.0613 16.1003 74.8967 14.514 76.8983 14.514H90.6374C92.6395 14.514 94.4744 16.0998 95.907 17.8846C97.7351 20.1628 98.9475 22.8723 99.5007 25.7408C99.5238 25.8627 99.5474 25.9856 99.572 26.1128C94.0581 27.5266 87.7294 22.0242 87.621 22.5167Z" fill="#000072"/>
</g>
<path d="M69.1291 10.345C69.1291 10.345 80.2498 -6.19136 93.1438 4.17386C101.678 11.035 104.733 10.8259 104.733 10.8259C104.733 10.8259 107.171 21.034 99.9009 23.2828C94.3138 25.0113 87.7335 19.2767 87.6218 19.7788C87.4126 20.7203 88.585 21.8272 89.3511 22.3047C89.7588 22.5591 89.633 23.1831 89.1579 23.2573C85.7893 23.782 74.0455 24.0042 67.5814 18.046L69.1291 10.345Z" fill="#94452F"/>
<path d="M97.6804 24.3631C94.8736 24.3631 92.0971 23.1079 90.1283 22.0184C90.323 22.2979 90.3996 22.6491 90.3278 23.0018C90.2198 23.5295 89.8064 23.9241 89.274 24.007C85.6466 24.5722 73.7805 24.7924 67.0673 18.6039C66.7594 18.3201 66.7401 17.8407 67.0235 17.5328C67.3073 17.2249 67.7867 17.2046 68.0946 17.4894C74.0894 23.0149 84.8332 22.9734 88.436 22.5865C87.5783 21.91 86.6199 20.7877 86.8806 19.6149C86.9365 19.3643 87.1105 19.1547 87.3461 19.0545C87.8048 18.8603 88.1267 19.0569 89.195 19.7098C91.3426 21.0224 95.8113 23.755 99.6757 22.5585C105.303 20.8181 104.449 13.5358 104.096 11.5202C102.732 11.2696 99.2917 10.0896 92.6681 4.76458C89.4441 2.17268 86.0576 1.12416 82.6047 1.64938C75.2111 2.77307 69.8115 10.6875 69.758 10.7675C69.5243 11.115 69.0535 11.2075 68.7056 10.9738C68.3582 10.7401 68.2657 10.2693 68.4994 9.92139C68.7336 9.57301 74.3313 1.3728 82.3763 0.150328C86.2677 -0.440909 90.0493 0.713616 93.6179 3.58258C101.608 10.0062 104.652 10.0679 104.701 10.0679C104.701 10.0679 104.701 10.0679 104.702 10.0679L105.342 10.024L105.47 10.649C106.37 14.4185 106.411 22.0617 100.124 24.0065C99.3201 24.2561 98.4985 24.3631 97.6804 24.3631Z" fill="#000072"/>
<path d="M108.406 80.647H98.5852C98.1664 80.647 97.8272 80.3073 97.8272 79.8886C97.8272 79.4698 98.1664 79.1301 98.5852 79.1301H108.406C108.825 79.1301 109.164 79.4698 109.164 79.8886C109.164 80.3073 108.825 80.647 108.406 80.647Z" fill="#000072"/>
<g opacity="0.5">
<path opacity="0.5" d="M105.084 15.4893C104.981 13.9936 104.732 12.9494 104.732 12.9494C104.732 12.9494 101.679 13.1585 93.1441 6.29732C91.914 5.30807 90.6987 4.5636 89.5095 4.02729C89.6916 4.26822 89.7914 4.52697 89.7914 4.79488C89.7914 6.09638 87.4597 7.14973 84.583 7.14973C81.7063 7.14973 79.3746 6.0959 79.3746 4.79488C79.3746 4.37326 79.6194 3.97669 80.0477 3.63457C77.4736 4.52938 75.2253 6.10168 73.4477 7.67399C70.7397 10.0712 69.1288 12.4675 69.1288 12.4675C65.3207 11.1496 63.2516 12.9971 62.6016 15.5423C62.3568 16.5031 62.2156 17.528 62.1583 18.5895C62.0638 16.6804 62.1761 14.8238 62.6016 13.158C63.2516 10.6128 65.3207 8.7654 69.1288 10.0833C69.1288 10.0833 70.7397 7.687 73.4477 5.28975C77.8529 1.39248 85.1573 -2.50623 93.1437 3.91309C101.678 10.7743 104.731 10.5651 104.731 10.5651C104.731 10.5651 105.277 12.8458 105.084 15.4893Z" fill="white"/>
</g>
<path d="M66.3671 36.0919C66.076 36.0919 65.798 35.9232 65.6732 35.6399C65.427 35.0814 59.663 21.8656 61.868 13.2327C62.2838 11.6045 63.1623 10.3893 64.4083 9.71853C65.6371 9.05743 67.1226 8.96972 68.8308 9.4564C70.165 7.64173 75.3329 1.22199 82.3771 0.151304C86.2685 -0.439931 90.0501 0.714591 93.6187 3.58355C101.609 10.0076 104.653 10.0688 104.702 10.0688C104.702 10.0688 104.702 10.0688 104.703 10.0688L105.343 10.025L105.47 10.65C106.37 14.4195 106.412 22.0627 100.125 24.0074C96.5619 25.109 92.6714 23.4254 90.1287 22.0184C90.3233 22.2978 90.3999 22.6491 90.3281 23.0018C90.2202 23.5294 89.8068 23.9241 89.2743 24.007C85.6469 24.5722 73.7808 24.7924 67.0677 18.6039C66.7598 18.3201 66.7405 17.8407 67.0238 17.5328C67.3076 17.2249 67.7871 17.2051 68.095 17.4894C74.0897 23.0148 84.8336 22.9734 88.4364 22.5865C87.5787 21.9099 86.6203 20.7877 86.881 19.6149C86.9369 19.3643 87.1108 19.1547 87.3464 19.0545C87.8052 18.8603 88.127 19.0569 89.1953 19.7098C91.3429 21.0224 95.8116 23.755 99.6761 22.5585C105.303 20.8181 104.449 13.5358 104.097 11.5202C102.732 11.2696 99.292 10.0896 92.6685 4.76458C89.4464 2.17461 86.0628 1.12562 82.6113 1.64843C75.2288 2.76633 69.8118 10.688 69.7579 10.768L69.4321 11.2513L68.8809 11.061C67.3587 10.5343 66.0958 10.5314 65.1268 11.0528C64.0368 11.6397 63.5516 12.7658 63.3372 13.6066C61.2623 21.7307 67.0021 34.895 67.0604 35.027C67.2296 35.4101 67.0556 35.8577 66.6726 36.0268C66.5728 36.0712 66.4692 36.0919 66.3671 36.0919Z" fill="#000072"/>
<path d="M102.763 91.9353H61.4502C60.632 91.9353 59.969 91.2723 59.969 90.4541C59.969 89.6359 60.632 88.9729 61.4502 88.9729H102.763C103.581 88.9729 104.244 89.6359 104.244 90.4541C104.244 91.2723 103.581 91.9353 102.763 91.9353Z" fill="#ADB9C4"/>
<g opacity="0.3">
<path opacity="0.3" d="M104.244 90.4546C104.244 90.8622 104.079 91.2338 103.809 91.5007C103.542 91.7681 103.172 91.9349 102.763 91.9349H61.4503C60.6335 91.9349 59.97 91.2713 59.97 90.4546C59.97 90.1833 60.0418 89.9313 60.169 89.7135C60.423 90.1573 60.9024 90.4546 61.4503 90.4546H102.763C103.173 90.4546 103.542 90.2898 103.809 90.0204C103.9 89.9294 103.98 89.8272 104.045 89.7135C104.172 89.9313 104.244 90.1833 104.244 90.4546Z" fill="#000072"/>
</g>
<path d="M102.762 92.6938H61.4503C60.2154 92.6938 59.2112 91.6891 59.2112 90.4541C59.2112 89.2196 60.2158 88.215 61.4503 88.215H102.762C103.997 88.215 105.002 89.2196 105.002 90.4541C105.002 91.6891 103.997 92.6938 102.762 92.6938ZM61.4503 89.7314C61.0519 89.7314 60.7276 90.0556 60.7276 90.4541C60.7276 90.8531 61.0519 91.1769 61.4503 91.1769H102.762C103.161 91.1769 103.485 90.8526 103.485 90.4541C103.485 90.0556 103.161 89.7314 102.762 89.7314H61.4503Z" fill="#000072"/>
<path d="M103.328 88.9735H60.885C60.3632 88.9735 59.9242 88.5822 59.8644 88.0632L57.2214 65.0128C57.1217 64.142 57.8026 63.3783 58.6791 63.3783H105.533C106.409 63.3783 107.09 64.142 106.99 65.0128L104.348 88.0632C104.289 88.5817 103.85 88.9735 103.328 88.9735Z" fill="#ADB9C4"/>
<g opacity="0.5">
<path opacity="0.5" d="M84.8013 79.0591C85.971 77.8895 85.971 75.9931 84.8013 74.8234C83.6317 73.6538 81.7353 73.6538 80.5656 74.8234C79.396 75.9931 79.3959 77.8895 80.5656 79.0591C81.7353 80.2288 83.6317 80.2288 84.8013 79.0591Z" fill="white"/>
</g>
<g opacity="0.3">
<path opacity="0.3" d="M106.991 65.0118L104.348 88.0632C104.288 88.5812 103.85 88.973 103.329 88.973H60.8852C60.3643 88.973 59.9244 88.5812 59.8656 88.0632L59.5986 85.7349H101.795C102.317 85.7349 102.755 85.3432 102.814 84.8252L105.275 63.3788H105.534C106.41 63.3788 107.091 64.142 106.991 65.0118Z" fill="#000072"/>
</g>
<g opacity="0.5">
<path opacity="0.5" d="M106.821 65.0118L106.668 66.3369C106.427 65.8676 105.937 65.5404 105.364 65.5404H58.509C57.9351 65.5404 57.445 65.8676 57.2046 66.3369L57.0518 65.0118C56.9521 64.1416 57.6329 63.3788 58.509 63.3788H105.364C106.24 63.3788 106.92 64.1421 106.821 65.0118Z" fill="white"/>
</g>
<path d="M103.328 89.7314H60.8853C59.9775 89.7314 59.2152 89.0511 59.1116 88.1495L56.4687 65.099C56.3964 64.4697 56.5968 63.8371 57.0184 63.3644C57.4401 62.8917 58.0458 62.6204 58.6794 62.6204H105.533C106.167 62.6204 106.772 62.8917 107.194 63.3644C107.616 63.8371 107.816 64.4697 107.744 65.099L105.101 88.1495C104.998 89.0515 104.236 89.7314 103.328 89.7314ZM58.6799 64.1368C58.4751 64.1368 58.2872 64.2206 58.1508 64.3738C58.0144 64.5271 57.9523 64.7232 57.9754 64.9265L60.6184 87.977C60.6338 88.1129 60.7485 88.215 60.8853 88.215H103.328C103.465 88.215 103.58 88.1129 103.595 87.977L106.238 64.9265C106.261 64.7232 106.199 64.5266 106.063 64.3738C105.926 64.2211 105.738 64.1368 105.533 64.1368H58.6799Z" fill="#000072"/>
<path d="M53.3124 90.8306C54.6627 90.8306 55.7573 89.5463 55.7573 87.9621C55.7573 86.3779 54.6627 85.0936 53.3124 85.0936C51.9621 85.0936 50.8675 86.3779 50.8675 87.9621C50.8675 89.5463 51.9621 90.8306 53.3124 90.8306Z" fill="#FFCFAE"/>
<path d="M53.3126 91.5888C51.5466 91.5888 50.1097 89.9621 50.1097 87.9619C50.1097 85.9617 51.5466 84.335 53.3126 84.335C55.079 84.335 56.5155 85.9622 56.5155 87.9619C56.5155 89.9616 55.0786 91.5888 53.3126 91.5888ZM53.3126 85.8514C52.3826 85.8514 51.6261 86.7982 51.6261 87.9619C51.6261 89.1256 52.3826 90.0719 53.3126 90.0719C54.2425 90.0719 54.9991 89.1256 54.9991 87.9619C54.9991 86.7982 54.2425 85.8514 53.3126 85.8514Z" fill="#000072"/>
<path d="M51.2493 91.9172H40.8403C40.2572 91.9172 39.7845 91.4445 39.7845 90.861C39.7845 87.4037 42.5875 84.6007 46.0448 84.6007C49.5026 84.6007 52.3051 87.4037 52.3051 90.861C52.3051 91.4445 51.8324 91.9172 51.2493 91.9172Z" fill="#ADB9C4"/>
<path d="M51.2492 92.6755H40.8402C39.8399 92.6755 39.026 91.8617 39.026 90.8613C39.026 86.9911 42.1744 83.8427 46.0447 83.8427C49.9149 83.8427 53.0634 86.9911 53.0634 90.8613C53.0634 91.8617 52.2495 92.6755 51.2492 92.6755ZM46.0447 85.359C43.0109 85.359 40.5424 87.8271 40.5424 90.8609C40.5424 91.0252 40.6759 91.1586 40.8402 91.1586H51.2492C51.4135 91.1586 51.547 91.0252 51.547 90.8609C51.547 87.8271 49.0785 85.359 46.0447 85.359Z" fill="#000072"/>
<path d="M36.8711 88.9633C37.3866 89.5188 38.8987 90.709 42.0683 89.0538C45.238 87.3987 49.0022 87.0238 50.2257 86.9313C52.1632 86.7848 53.7022 85.8611 53.2079 83.5829C52.7173 81.323 49.7525 79.2197 45.5401 79.305C36.9997 79.4775 34.9615 86.9053 36.8711 88.9633Z" fill="#FFCFAE"/>
<g opacity="0.2">
<path opacity="0.2" d="M53.2081 83.5824C53.078 82.982 52.7715 82.3937 52.3152 81.8535C52.1341 83.2938 50.8292 83.9211 49.2622 84.0396C48.0388 84.1322 44.274 84.507 41.1049 86.1622C38.4494 87.5489 36.958 86.9384 36.2406 86.3776C36.1321 87.4641 36.3572 88.409 36.8713 88.9632C37.3869 89.5187 38.899 90.7089 42.0686 89.0538C45.2382 87.3986 49.0025 87.0237 50.2259 86.9312C52.1634 86.7843 53.7025 85.8606 53.2081 83.5824Z" fill="#000072"/>
</g>
<g opacity="0.5">
<path opacity="0.5" d="M46.2634 80.9909C49.5347 80.9249 52.0533 82.1787 53.245 83.8011C53.2329 83.7283 53.2247 83.6585 53.2083 83.5823C52.7178 81.3224 49.753 79.2191 45.5406 79.3044C36.9997 79.4769 34.9615 86.9047 36.8711 88.9627C36.8976 88.9912 36.9269 89.0215 36.9588 89.0528C36.6513 86.1111 39.288 81.1321 46.2634 80.9909Z" fill="white"/>
</g>
<path d="M39.1545 90.6514C37.6333 90.6514 36.7245 89.9199 36.3149 89.479C35.279 88.363 35.1672 86.2366 36.0364 84.1878C37.4965 80.7464 41.0434 78.6378 45.5246 78.5472C50.3374 78.4503 53.4068 80.9261 53.9484 83.4226C54.1922 84.5467 54.0356 85.4922 53.4825 86.2337C52.8561 87.0736 51.7492 87.5766 50.2825 87.6875C48.8904 87.793 45.3372 88.2021 42.4186 89.7262C41.1133 90.408 40.032 90.6514 39.1545 90.6514ZM37.4266 88.4474C38.3036 89.3923 39.8272 89.3692 41.7175 88.3814C44.7715 86.7864 48.3232 86.3142 50.1688 86.1749C51.171 86.0988 51.916 85.7976 52.2677 85.3269C52.5467 84.9525 52.6142 84.4195 52.4672 83.7435C52.0673 81.8994 49.511 79.9836 45.556 80.0631C39.8267 80.1787 37.8901 83.7025 37.4329 84.78C36.7303 86.4351 36.898 87.8778 37.4266 88.4474Z" fill="#000072"/>
<path d="M46.7052 78.5789C47.6786 78.5148 48.649 78.5292 49.6219 78.5615C50.694 78.6078 51.7551 78.8752 52.7034 79.345C53.1857 79.5628 53.6232 79.865 54.0468 80.1685C54.2477 80.3367 54.4588 80.4894 54.6405 80.6774L54.9195 80.9482L55.1792 81.2358C55.5155 81.6261 55.8167 82.0434 56.0581 82.4906L56.2373 82.8245L56.3901 83.1705C56.4426 83.2842 56.4884 83.4008 56.526 83.5208L56.5857 83.6981L56.6156 83.7863L56.6305 83.8306L56.6378 83.8528L56.6416 83.8639L56.6435 83.8692L56.6445 83.8721C56.6011 83.8933 56.7433 83.8287 56.5472 83.9198C56.3501 84.0094 56.4918 83.9434 56.4469 83.9627L56.4455 83.9603L56.4421 83.9554L56.4354 83.9458L56.4224 83.927L56.3963 83.8899L56.3443 83.8157L56.2402 83.6678C56.1723 83.569 56.1048 83.4712 56.0272 83.3791L55.807 83.0997L55.5719 82.8346C55.4211 82.6554 55.2423 82.4998 55.0828 82.3335C54.9055 82.1822 54.7388 82.0227 54.5532 81.8859C54.2 81.5914 53.8015 81.3626 53.4146 81.1351C53.0118 80.9303 52.6056 80.7424 52.1815 80.608C51.3407 80.3165 50.4589 80.2191 49.593 80.2056C48.624 80.2056 47.6521 80.1902 46.6835 80.0948H46.6816C46.2633 80.0538 45.9578 79.6814 45.9988 79.2631C46.0354 78.8877 46.34 78.6025 46.7052 78.5789Z" fill="#000072"/>
<path d="M47.9329 81.7696C48.3083 82.0953 48.6186 82.4701 48.9067 82.8696C49.1881 83.2719 49.4373 83.7031 49.6416 84.1652C49.8396 84.6292 50.0034 85.1245 50.0718 85.6507C50.1301 86.1778 50.1012 86.7391 49.9167 87.2667C49.7827 87.6498 49.364 87.8521 48.9805 87.7187C48.6793 87.6136 48.4899 87.3322 48.4875 87.0306L48.4871 86.9487C48.4847 86.5633 48.4991 86.1898 48.4861 85.7894C48.4601 85.39 48.4374 84.9718 48.3758 84.5425C48.2442 83.6853 48.0163 82.7992 47.7585 81.8857L47.7571 81.8809C47.7407 81.823 47.7744 81.7633 47.8318 81.7469C47.8684 81.7368 47.906 81.7464 47.9329 81.7696Z" fill="#000072"/>
<path d="M44.0923 82.5667C44.4026 82.929 44.671 83.3111 44.9303 83.699C45.1842 84.0888 45.4247 84.4868 45.6468 84.8935C45.8675 85.3012 46.0838 85.7132 46.253 86.1459C46.4211 86.5786 46.5638 87.0253 46.6264 87.4984C46.6799 87.9042 46.3946 88.2766 45.9889 88.3301C45.6665 88.3725 45.3654 88.2015 45.2285 87.9258L45.2218 87.9119C45.0247 87.5143 44.8821 87.098 44.7515 86.6725C44.618 86.248 44.5192 85.8086 44.4147 85.3677C44.2089 84.4844 44.0147 83.5891 43.901 82.6515C43.8938 82.5917 43.9362 82.5368 43.9964 82.5296C44.033 82.5247 44.0692 82.5402 44.0923 82.5667Z" fill="#000072"/>
<path d="M40.3458 84.7669C40.6682 85.0319 40.951 85.322 41.2262 85.6197C41.496 85.9204 41.7533 86.2307 41.9933 86.5536C42.2318 86.8774 42.4674 87.2065 42.6568 87.5631C42.8457 87.9201 43.0104 88.2955 43.0957 88.7084C43.1786 89.1103 42.9199 89.5035 42.518 89.5869C42.2125 89.65 41.9123 89.5156 41.7494 89.2713L41.7355 89.2501C41.5283 88.9378 41.3707 88.601 41.2228 88.2531C41.0729 87.9061 40.9525 87.5395 40.8267 87.1713C40.5781 86.4336 40.3357 85.6814 40.1675 84.8758C40.155 84.816 40.1931 84.7572 40.2528 84.7442C40.2866 84.737 40.3208 84.7466 40.3458 84.7669Z" fill="#000072"/>
<path d="M85.4199 34.8863C85.1062 34.8863 84.8518 34.6319 84.8518 34.3182C84.8518 34.2175 84.8262 34.0855 84.6263 33.9582C84.4354 33.8368 84.1555 33.7674 83.8572 33.7674C83.4727 33.7674 82.8627 33.9168 82.8627 34.3182C82.8627 34.6319 82.6082 34.8863 82.2945 34.8863C81.9809 34.8863 81.7264 34.6319 81.7264 34.3182C81.7264 33.3405 82.6227 32.6307 83.8572 32.6307C85.0917 32.6307 85.988 33.3405 85.988 34.3182C85.988 34.6319 85.7336 34.8863 85.4199 34.8863Z" fill="#000072"/>
<path d="M75.72 41.4606C71.7813 41.4606 68.5775 38.2563 68.5775 34.3176C68.5775 30.3789 71.7818 27.175 75.72 27.175C79.6587 27.175 82.8625 30.3789 82.8625 34.3176C82.8625 38.2563 79.6582 41.4606 75.72 41.4606ZM75.72 28.3117C72.4082 28.3117 69.7137 31.0063 69.7137 34.3181C69.7137 37.6303 72.4082 40.3244 75.72 40.3244C79.0318 40.3244 81.7263 37.6299 81.7263 34.3181C81.7263 31.0063 79.0318 28.3117 75.72 28.3117Z" fill="#000072"/>
<path d="M91.8155 41.2352C88.0011 41.2352 84.8984 38.132 84.8984 34.3182C84.8984 30.5038 88.0016 27.4011 91.8155 27.4011C95.6294 27.4011 98.7325 30.5038 98.7325 34.3182C98.7325 38.132 95.6294 41.2352 91.8155 41.2352ZM91.8155 28.5017C88.6082 28.5017 85.999 31.1109 85.999 34.3182C85.999 37.5254 88.6082 40.1346 91.8155 40.1346C95.0227 40.1346 97.6319 37.5254 97.6319 34.3182C97.6319 31.1109 95.0227 28.5017 91.8155 28.5017Z" fill="#000072"/>
<path d="M69.2718 33.8931H65.5764C65.2888 33.8931 65.0555 33.6599 65.0555 33.3722C65.0555 33.0845 65.2888 32.8513 65.5764 32.8513H69.2718C69.5594 32.8513 69.7927 33.0845 69.7927 33.3722C69.7927 33.6599 69.5594 33.8931 69.2718 33.8931Z" fill="#000072"/>
<path d="M101.647 33.8931H98.1816C97.894 33.8931 97.6608 33.6599 97.6608 33.3722C97.6608 33.0845 97.894 32.8513 98.1816 32.8513H101.647C101.934 32.8513 102.168 33.0845 102.168 33.3722C102.168 33.6599 101.934 33.8931 101.647 33.8931Z" fill="#000072"/>
<path d="M45.8248 92.6755C45.4061 92.6755 45.0669 92.3358 45.0669 91.9171V87.9621C45.0669 87.5433 45.4061 87.2036 45.8248 87.2036C46.2435 87.2036 46.5826 87.5433 46.5826 87.9621V91.9171C46.5831 92.3358 46.2435 92.6755 45.8248 92.6755Z" fill="#000072"/>
<path d="M76.4033 38.9561C78.3229 38.7758 79.6896 36.6125 79.4559 34.1241C79.2222 31.6358 77.4766 29.7647 75.557 29.945C73.6374 30.1252 72.2707 32.2886 72.5044 34.7769C72.7381 37.2653 74.4837 39.1363 76.4033 38.9561Z" fill="#000072"/>
<path d="M77.2863 34.9726C77.7997 34.9132 78.1354 34.1708 78.0362 33.3144C77.937 32.4581 77.4404 31.8122 76.9271 31.8717C76.4137 31.9311 76.078 32.6735 76.1772 33.5299C76.2764 34.3862 76.773 35.0321 77.2863 34.9726Z" fill="white"/>
<path d="M74.9106 35.8305C74.9232 36.2612 74.7237 36.6077 74.4649 36.6038C74.2062 36.6 73.9864 36.2478 73.9739 35.817C73.9614 35.3862 74.1609 35.0398 74.4196 35.0436C74.6784 35.0475 74.8981 35.3997 74.9106 35.8305Z" fill="white"/>
<path d="M95.3424 34.7727C95.5761 32.2843 94.2095 30.1209 92.2899 29.9406C90.3704 29.7603 88.6248 31.6315 88.3912 34.1199C88.1575 36.6082 89.5241 38.7716 91.4437 38.9519C93.3632 39.1322 95.1087 37.2611 95.3424 34.7727Z" fill="#000072"/>
<path d="M91.6895 33.5221C91.7887 32.6658 91.453 31.9234 90.9396 31.864C90.4262 31.8045 89.9296 32.4504 89.8304 33.3067C89.7312 34.1629 90.0669 34.9053 90.5803 34.9648C91.0937 35.0242 91.5903 34.3783 91.6895 33.5221Z" fill="white"/>
<path d="M92.9466 35.8307C92.9341 36.2615 93.1335 36.6079 93.3921 36.6041C93.6508 36.6002 93.8704 36.248 93.883 35.8172C93.8955 35.3865 93.6961 35.04 93.4374 35.0439C93.1788 35.0477 92.9591 35.3999 92.9466 35.8307Z" fill="white"/>
<path d="M79.3027 41.7358C79.3027 42.6875 79.6019 43.7004 80.2076 44.5158C80.9083 45.4694 82.0171 46.1512 83.5335 46.1512C84.7888 46.1512 85.9376 45.4737 86.7216 44.5052C87.3693 43.7086 87.7644 42.7126 87.7644 41.7358C87.7644 40.6761 87.3076 40.6612 86.5665 40.9224C86.2923 41.0159 85.9781 41.1518 85.634 41.2833C85.0158 41.5214 84.3002 41.7546 83.5335 41.7546C82.7288 41.7546 81.9766 41.504 81.3376 41.2597C80.983 41.1238 80.6601 40.9923 80.3859 40.905C79.7108 40.6954 79.3027 40.759 79.3027 41.7358Z" fill="#000072"/>
<path d="M80.272 41.4414C80.272 42.2518 81.0213 43.054 82.1094 43.1566C83.1974 43.2593 83.7472 43.2593 84.8353 43.1566C86.0679 43.04 86.8673 42.0273 86.6341 41.1196C86.6172 41.0531 86.5951 40.9861 86.5676 40.9225C86.2929 41.0169 85.9792 41.1528 85.6352 41.2834C85.016 41.5219 84.2999 41.7551 83.5343 41.7551C82.7295 41.7551 81.9774 41.5055 81.3389 41.2612C80.9838 41.1253 80.6619 40.9919 80.3867 40.9061C80.3564 40.9755 80.3342 41.0449 80.3144 41.12C80.286 41.2251 80.272 41.333 80.272 41.4414Z" fill="white"/>
<path d="M80.2069 44.5149C80.9075 45.4685 82.0163 46.1503 83.5327 46.1503C84.7879 46.1503 85.9366 45.4728 86.7206 44.5043C86.1684 44.1516 84.5142 43.6847 83.7644 44.313C83.5307 44.5106 83.4734 44.8864 83.4734 44.8864C83.4734 44.8864 83.4161 44.5106 83.1804 44.313C82.422 43.6779 80.7422 44.1603 80.2069 44.5149Z" fill="#FF4AA1"/>
<path d="M83.534 46.2363C81.7429 46.2363 80.6992 45.3285 80.1393 44.5666C80.1253 44.5479 80.12 44.5242 80.1238 44.5011C80.1282 44.478 80.1412 44.4577 80.1609 44.4447C80.6968 44.0891 82.4387 43.5807 83.2362 44.2486C83.3495 44.3435 83.4251 44.4732 83.4743 44.5898C83.5234 44.4732 83.5981 44.344 83.7104 44.2491C84.5007 43.587 86.2113 44.0785 86.7678 44.4336C86.7881 44.4467 86.8021 44.4679 86.8059 44.492C86.8098 44.516 86.8035 44.5406 86.7881 44.5594C85.9255 45.6253 84.7397 46.2363 83.534 46.2363ZM80.3325 44.5397C80.8818 45.2533 81.8721 46.0662 83.534 46.0662C84.6587 46.0662 85.7685 45.5068 86.5924 44.5286C86.0075 44.2081 84.4997 43.8091 83.8203 44.3797C83.6145 44.5532 83.5591 44.8972 83.5586 44.9006C83.5456 44.9839 83.4029 44.9839 83.3899 44.9006C83.3895 44.8972 83.334 44.5536 83.1264 44.3797C82.4546 43.8164 80.931 44.197 80.3325 44.5397Z" fill="#390075"/>
<path d="M83.5337 46.6143C80.485 46.6143 78.8405 44.1006 78.8405 41.7353C78.8405 41.3551 78.8867 40.816 79.2857 40.523C79.6639 40.2445 80.1463 40.3447 80.525 40.4633C80.7433 40.5317 80.9818 40.6247 81.2348 40.7239L81.5041 40.828C82.1334 41.0689 82.8148 41.2915 83.5337 41.2915C84.2314 41.2915 84.9031 41.0689 85.4679 40.8506C85.6076 40.7976 85.7396 40.7451 85.8664 40.694C86.063 40.6155 86.247 40.5423 86.4166 40.484C86.8585 40.3283 87.3673 40.206 87.7649 40.4873C88.1793 40.7803 88.227 41.3402 88.227 41.7353C88.227 44.0384 86.22 46.6143 83.5337 46.6143ZM79.8268 41.2746C79.8302 41.278 79.7671 41.3782 79.7671 41.7358C79.7671 43.6515 81.0873 45.6877 83.5337 45.6877C85.6548 45.6877 87.3004 43.5633 87.3004 41.7358C87.3004 41.332 87.2242 41.24 87.2238 41.239C87.2218 41.2433 87.1158 41.2207 86.7217 41.3595C86.5617 41.4144 86.3921 41.4823 86.2109 41.5551C86.0793 41.6076 85.9415 41.6625 85.7994 41.7165C85.1576 41.9642 84.3837 42.2186 83.5342 42.2186C82.662 42.2186 81.8516 41.9535 81.1731 41.6938L80.898 41.5874C80.6604 41.4944 80.4359 41.4067 80.2479 41.3479C79.9367 41.2506 79.8422 41.2698 79.8268 41.2746Z" fill="#000072"/>
<path d="M82.1645 79.4157C83.8187 79.4157 85.1596 78.0747 85.1596 76.4205C85.1596 74.7663 83.8187 73.4253 82.1645 73.4253C80.5104 73.4253 79.1694 74.7663 79.1694 76.4205C79.1694 78.0747 80.5104 79.4157 82.1645 79.4157Z" fill="#000072"/>
<g opacity="0.2">
<path opacity="0.2" d="M54.4892 85.8766C54.4892 85.8766 54.8978 89.4881 51.9142 87.962L52.3055 89.4139L52.8427 90.831L54.2203 90.4551L55.3358 89.5743L55.7175 87.4407L55.4727 86.6186L54.4892 85.8766Z" fill="#000072"/>
</g>
<path d="M7.00835 92.1041C9.95971 91.6676 12.9111 91.563 15.8624 91.5095C18.8138 91.4493 21.7652 91.4811 24.7165 91.5139L29.1438 91.5404L33.5711 91.5418H42.4247H77.841H113.257H130.965L135.393 91.5404L137.606 91.5201L139.82 91.485C141.295 91.4666 142.771 91.4951 144.247 91.5654C145.723 91.657 147.199 91.7852 148.675 92.1037C148.83 92.1374 148.929 92.2901 148.895 92.4453C148.87 92.559 148.781 92.6424 148.675 92.6655C147.199 92.984 145.723 93.1122 144.247 93.2037C142.772 93.2745 141.296 93.3025 139.82 93.2842L137.606 93.249L135.393 93.2288L130.965 93.2273H113.257H77.841H42.4247H33.5706L29.1433 93.2288L24.716 93.2553C21.7647 93.288 18.8133 93.3203 15.862 93.2596C12.9106 93.2061 9.95923 93.1015 7.00787 92.665C6.85271 92.6419 6.74526 92.4978 6.76839 92.3422C6.78767 92.2169 6.88789 92.122 7.00835 92.1041Z" fill="#000072"/>
<path d="M136.383 79.5958C136.11 79.5958 135.846 79.4507 135.706 79.1944L131.865 72.1567C131.661 71.7828 131.799 71.3144 132.172 71.1106C132.546 70.9067 133.015 71.0441 133.219 71.418L137.059 78.4557C137.263 78.8296 137.126 79.298 136.752 79.5018C136.634 79.5654 136.508 79.5958 136.383 79.5958Z" fill="#000072"/>
<path d="M140.672 72.4994L140.533 74.3039L139.149 92.2174H127.979L126.595 74.3039L126.456 72.4994H140.672Z" fill="white"/>
<path d="M139.262 92.3388H127.869L126.328 72.3799H140.803L139.262 92.3388ZM128.091 92.0979H139.038L140.542 72.6208H126.587L128.091 92.0979Z" fill="#000072"/>
<g opacity="0.3">
<path opacity="0.3" d="M140.673 72.5002L140.534 74.3048H126.596L126.457 72.5002H140.673Z" fill="#000072"/>
</g>
<path d="M141.61 72.4994H125.519C124.907 72.4994 124.41 72.0031 124.41 71.3906V70.0564C124.41 69.4439 124.907 68.9476 125.519 68.9476H141.61C142.222 68.9476 142.718 69.4439 142.718 70.0564V71.3906C142.718 72.0031 142.222 72.4994 141.61 72.4994Z" fill="#26BA02"/>
<path d="M141.61 72.6208H125.52C124.842 72.6208 124.291 72.0695 124.291 71.3916V70.0573C124.291 69.3794 124.842 68.8281 125.52 68.8281H141.61C142.288 68.8281 142.84 69.3794 142.84 70.0573V71.3916C142.839 72.0695 142.288 72.6208 141.61 72.6208ZM125.52 69.0695C124.975 69.0695 124.532 69.5128 124.532 70.0578V71.3921C124.532 71.937 124.975 72.3803 125.52 72.3803H141.61C142.155 72.3803 142.599 71.937 142.599 71.3921V70.0578C142.599 69.5128 142.155 69.0695 141.61 69.0695H125.52Z" fill="#000072"/>
<g opacity="0.5">
<path opacity="0.5" d="M142.718 69.9436V70.9261C142.718 70.5097 142.381 70.1724 141.966 70.1724H125.164C124.749 70.1724 124.411 70.5097 124.411 70.9261V69.9436C124.411 69.5272 124.749 69.1899 125.164 69.1899H141.966C142.381 69.1899 142.718 69.5272 142.718 69.9436Z" fill="white"/>
</g>
<g opacity="0.3">
<path opacity="0.3" d="M142.718 70.356V71.7466C142.718 72.1629 142.381 72.5002 141.966 72.5002H125.164C124.749 72.5002 124.411 72.1629 124.411 71.7466V70.356C124.411 70.7723 124.749 71.1096 125.164 71.1096H141.966C142.381 71.1096 142.718 70.7728 142.718 70.356Z" fill="#000072"/>
</g>
<path d="M140.735 68.9483H126.393V68.5898C126.393 67.2512 127.478 66.1665 128.816 66.1665H138.311C139.65 66.1665 140.734 67.2516 140.734 68.5898V68.9483H140.735Z" fill="#26BA02"/>
<path d="M140.856 69.0694H126.273V68.5905C126.273 67.1878 127.414 66.0468 128.817 66.0468H138.313C139.715 66.0468 140.856 67.1878 140.856 68.5905V69.0694ZM126.514 68.8285H140.615V68.5905C140.615 67.3208 139.582 66.2877 138.313 66.2877H128.817C127.547 66.2877 126.514 67.3208 126.514 68.5905V68.8285Z" fill="#000072"/>
<g opacity="0.5">
<path opacity="0.5" d="M140.736 67.9136V68.9491H140.73C140.657 68.05 139.905 67.345 138.989 67.345H128.141C127.225 67.345 126.472 68.05 126.4 68.9491H126.393V67.9136C126.393 66.9489 127.176 66.1678 128.141 66.1678H138.989C139.954 66.1678 140.736 66.9494 140.736 67.9136Z" fill="white"/>
</g>
<path d="M140.357 76.5889L139.636 85.9243H127.494L126.773 76.5889H140.357Z" fill="#26BA02"/>
<path d="M141.61 73.223H125.52C124.51 73.223 123.688 72.4015 123.688 71.3915V70.0572C123.688 69.0473 124.51 68.2257 125.52 68.2257H141.61C142.62 68.2257 143.442 69.0473 143.442 70.0572V71.3915C143.441 72.4015 142.62 73.223 141.61 73.223ZM125.52 69.6718C125.307 69.6718 125.134 69.8447 125.134 70.0577V71.392C125.134 71.6045 125.307 71.7779 125.52 71.7779H141.61C141.823 71.7779 141.996 71.605 141.996 71.392V70.0577C141.996 69.8452 141.823 69.6718 141.61 69.6718H125.52Z" fill="#000072"/>
<g opacity="0.3">
<path opacity="0.3" d="M140.673 72.5001L139.15 92.2181H127.98L126.457 72.5001H126.569L127.846 89.0316H133.999C136.281 89.0316 138.178 87.2748 138.354 84.9994L139.319 72.4996H140.673V72.5001Z" fill="#000072"/>
</g>
<path d="M141.459 69.6718H125.671V68.5905C125.671 66.8558 127.082 65.4445 128.817 65.4445H138.312C140.047 65.4445 141.459 66.8558 141.459 68.5905V69.6718ZM127.156 68.2262H139.974C139.807 67.4629 139.125 66.89 138.312 66.89H128.817C128.005 66.89 127.323 67.4629 127.156 68.2262Z" fill="#000072"/>
<path d="M132.167 82.6186C132.234 82.6798 132.308 82.7299 132.39 82.7699C133.093 83.1111 134.092 82.503 134.62 81.4126C135.014 80.6021 135.037 79.7512 134.734 79.2289C134.476 79.3161 133.815 79.6172 133.744 80.4532C133.698 80.9948 133.56 82.6133 132.167 82.6186Z" fill="white"/>
<path d="M131.861 82.1494C131.914 82.0824 132 82.041 132.093 82.0468C132.557 82.068 133.048 81.894 133.176 80.407C133.248 79.545 133.791 79.0468 134.268 78.8044C133.567 78.5018 132.594 79.107 132.074 80.1786C131.73 80.8879 131.669 81.6256 131.861 82.1494Z" fill="white"/>
<g opacity="0.3">
<path opacity="0.3" d="M140.358 76.5889L139.637 85.9243H127.495L127.368 84.2841H133.85C136.059 84.2841 137.895 82.5841 138.065 80.382L138.358 76.5893H140.358V76.5889Z" fill="#000072"/>
</g>
<path d="M140.193 86.5262H126.936L126.122 75.9861H141.007L140.193 86.5262ZM128.051 85.3215H139.078L139.706 77.1907H127.423L128.051 85.3215Z" fill="#000072"/>
<path d="M139.864 92.9887H127.267L125.624 71.7302H141.507L139.864 92.9887ZM128.694 91.4467H138.436L139.841 73.2722H127.289L128.694 91.4467Z" fill="#000072"/>
<g opacity="0.4">
<g opacity="0.4">
<g opacity="0.4">
<g opacity="0.4">
<g opacity="0.4">
<path opacity="0.4" d="M30.5683 24.425C29.6164 24.425 28.842 23.6506 28.842 22.6988V21.2469C28.842 20.295 29.6164 19.5206 30.5683 19.5206H36.1508C37.1027 19.5206 37.877 20.295 37.877 21.2469V22.6988C37.877 23.6506 37.1027 24.425 36.1508 24.425H30.5683Z" fill="#FF6F48"/>
</g>
<g opacity="0.4">
<path opacity="0.4" d="M36.1505 19.9685C36.8567 19.9685 37.4292 20.541 37.4292 21.2472V22.6988C37.4292 23.405 36.8567 23.9776 36.1505 23.9776H30.5683C29.8621 23.9776 29.2896 23.405 29.2896 22.6988V21.2472C29.2896 20.541 29.8621 19.9685 30.5683 19.9685H36.1505ZM36.1505 19.0735H30.5683C29.3699 19.0735 28.3946 20.0485 28.3946 21.2472V22.6988C28.3946 23.8972 29.3696 24.8726 30.5683 24.8726H36.1508C37.3492 24.8726 38.3245 23.8975 38.3245 22.6988V21.2472C38.3242 20.0485 37.3492 19.0735 36.1505 19.0735Z" fill="#000072"/>
</g>
</g>
</g>
<g opacity="0.5">
<path opacity="0.5" d="M30.083 23.2279V21.7763C30.083 21.0701 30.6555 20.4976 31.3618 20.4976H36.9443C37.0337 20.4976 37.1209 20.5069 37.2049 20.5244C36.9743 20.1888 36.5884 19.9685 36.1506 19.9685H30.5684C29.8621 19.9685 29.2896 20.541 29.2896 21.2473V22.6988C29.2896 23.3157 29.7265 23.8304 30.3077 23.951C30.1662 23.7451 30.083 23.4963 30.083 23.2279Z" fill="white"/>
</g>
<g opacity="0.3">
<path opacity="0.3" d="M36.1505 19.9685H34.9598C35.6661 19.9685 36.2386 20.541 36.2386 21.2473V22.6988C36.2386 23.4051 35.6661 23.9776 34.9598 23.9776H36.1505C36.8567 23.9776 37.4292 23.4051 37.4292 22.6988V21.2473C37.4295 20.541 36.8567 19.9685 36.1505 19.9685Z" fill="#000072"/>
</g>
<g opacity="0.4">
<g opacity="0.4">
<path opacity="0.4" d="M35.0311 29.3632C34.0792 29.3632 33.3048 28.5888 33.3048 27.6369V26.1854C33.3048 25.2335 34.0792 24.4591 35.0311 24.4591H40.6136C41.5655 24.4591 42.3399 25.2335 42.3399 26.1854V27.6369C42.3399 28.5888 41.5655 29.3632 40.6136 29.3632H35.0311Z" fill="#FF6F48"/>
</g>
<g opacity="0.4">
<g opacity="0.4">
<path opacity="0.4" d="M40.6133 24.9063C41.3195 24.9063 41.892 25.4788 41.892 26.185V27.6366C41.892 28.3428 41.3195 28.9153 40.6133 28.9153H35.0311C34.3249 28.9153 33.7524 28.3428 33.7524 27.6366V26.185C33.7524 25.4788 34.3249 24.9063 35.0311 24.9063H40.6133ZM40.6133 24.0116H35.0311C33.8327 24.0116 32.8574 24.9866 32.8574 26.1853V27.6369C32.8574 28.8353 33.8324 29.8107 35.0311 29.8107H40.6136C41.812 29.8107 42.7874 28.8357 42.7874 27.6369V26.1853C42.787 24.9866 41.812 24.0116 40.6133 24.0116Z" fill="#000072"/>
</g>
</g>
</g>
<g opacity="0.5">
<path opacity="0.5" d="M34.5462 28.0338V26.5822C34.5462 25.876 35.1187 25.3035 35.8249 25.3035H41.4074C41.454 25.3035 41.4999 25.3063 41.5453 25.3113C41.3118 25.0629 40.9815 24.9066 40.6137 24.9066H35.0312C34.3249 24.9066 33.7524 25.4791 33.7524 26.1854V27.6369C33.7524 28.2966 34.2521 28.8394 34.8934 28.9082C34.6787 28.6791 34.5462 28.3722 34.5462 28.0338Z" fill="white"/>
</g>
<g opacity="0.3">
<path opacity="0.3" d="M40.6134 24.9062H39.4228C40.129 24.9062 40.7015 25.4788 40.7015 26.185V27.6366C40.7015 28.3428 40.129 28.9153 39.4228 28.9153H40.6134C41.3197 28.9153 41.8922 28.3428 41.8922 27.6366V26.185C41.8925 25.4788 41.32 24.9062 40.6134 24.9062Z" fill="#000072"/>
</g>
</g>
</g>
</svg>
