<svg width="125" height="116" viewBox="0 0 125 116" fill="none" xmlns="http://www.w3.org/2000/svg">
<path d="M104.5 41C115.822 41 125 31.8218 125 20.5C125 9.17816 115.822 0 104.5 0C93.1782 0 84 9.17816 84 20.5C84 31.8218 93.1782 41 104.5 41Z" fill="#371A45"/>
<path d="M104.5 0.468479C115.742 0.468479 124.876 9.51904 125 20.7375C125 20.6605 125 20.5835 125 20.5065C125 9.18142 115.819 0.00646973 104.5 0.00646973C93.1749 0.00646973 84 9.18734 84 20.5065C84 20.5835 84 20.6605 84.0059 20.7375C84.1303 9.51904 93.2579 0.468479 104.5 0.468479Z" fill="#E2B5A4"/>
<path d="M104.5 37.452C113.862 37.452 121.452 29.8624 121.452 20.5C121.452 11.1377 113.862 3.54797 104.5 3.54797C95.1377 3.54797 87.548 11.1377 87.548 20.5C87.548 29.8624 95.1377 37.452 104.5 37.452Z" fill="#F3F3F3"/>
<path d="M104.5 3.54797C102.859 3.54797 101.272 3.7849 99.7733 4.22321L104.257 20.346L120.161 13.9964C117.608 7.86002 111.56 3.54797 104.5 3.54797Z" fill="#EF9931"/>
<path opacity="0.5" d="M117.697 15.7319C117.608 15.5127 117.359 15.4061 117.14 15.495L105.128 20.2927L103.925 16.0991C103.801 15.6667 103.345 15.412 102.913 15.5364C102.48 15.6608 102.226 16.1169 102.35 16.5493L103.665 21.1456C103.689 21.5899 104.056 21.9393 104.5 21.9393C104.956 21.9393 105.323 21.578 105.341 21.1279L117.454 16.2946C117.673 16.2057 117.786 15.951 117.697 15.7319Z" fill="#FEB71D"/>
<path d="M104.5 4.25276C113.746 4.25276 121.257 11.6567 121.446 20.8553C121.446 20.7369 121.458 20.6243 121.458 20.5059C121.458 11.1414 113.864 3.55383 104.506 3.55383C95.1414 3.55383 87.5539 11.1473 87.5539 20.5059C87.5539 20.6243 87.5598 20.7369 87.5657 20.8553C87.7434 11.6508 95.2599 4.25276 104.5 4.25276Z" fill="#EF962B"/>
<path d="M104.891 20.7132L104.571 19.9195L117.134 14.9026C117.353 14.8137 117.602 14.9203 117.691 15.1395C117.78 15.3586 117.673 15.6074 117.454 15.6963L104.891 20.7132Z" fill="#210C59"/>
<path d="M103.671 20.5652L102.35 15.957C102.226 15.5246 102.474 15.0685 102.913 14.9441C103.345 14.8197 103.801 15.0685 103.926 15.5068L105.246 20.115L103.671 20.5652Z" fill="#210C59"/>
<path d="M104.5 32.5062C104.204 32.5062 103.961 32.7491 103.961 33.0452V35.6751C103.961 35.9712 104.204 36.2141 104.5 36.2141C104.796 36.2141 105.039 35.9712 105.039 35.6751V33.0452C105.045 32.7491 104.802 32.5062 104.5 32.5062ZM104.5 4.78589C104.204 4.78589 103.961 5.02874 103.961 5.3249V7.95477C103.961 8.25093 104.204 8.49378 104.5 8.49378C104.796 8.49378 105.039 8.25093 105.039 7.95477V5.3249C105.045 5.02874 104.802 4.78589 104.5 4.78589ZM91.9548 19.961H89.325C89.0288 19.961 88.7859 20.2038 88.7859 20.5C88.7859 20.7962 89.0288 21.039 89.325 21.039H91.9548C92.251 21.039 92.4938 20.7962 92.4938 20.5C92.4998 20.2038 92.2569 19.961 91.9548 19.961ZM119.681 19.961H117.051C116.755 19.961 116.512 20.2038 116.512 20.5C116.512 20.7962 116.755 21.039 117.051 21.039H119.681C119.977 21.039 120.22 20.7962 120.22 20.5C120.22 20.2038 119.977 19.961 119.681 19.961ZM95.2481 28.9879L93.3882 30.8477C93.175 31.061 93.175 31.4045 93.3882 31.6118C93.6015 31.825 93.945 31.825 94.1523 31.6118L96.0122 29.7519C96.2254 29.5387 96.2254 29.1952 96.0122 28.9879C95.8049 28.7805 95.4613 28.7805 95.2481 28.9879ZM114.854 9.38817L112.994 11.248C112.781 11.4613 112.781 11.8048 112.994 12.0121C113.207 12.2254 113.551 12.2254 113.758 12.0121L115.618 10.1523C115.831 9.93903 115.831 9.59548 115.618 9.38817C115.405 9.18086 115.061 9.17494 114.854 9.38817ZM113.758 28.9879C113.545 28.7746 113.201 28.7746 112.994 28.9879C112.781 29.2011 112.781 29.5446 112.994 29.7519L114.854 31.6118C115.067 31.825 115.41 31.825 115.618 31.6118C115.831 31.3986 115.831 31.055 115.618 30.8477L113.758 28.9879ZM94.1523 9.38817C93.9391 9.17494 93.5956 9.17494 93.3882 9.38817C93.175 9.60141 93.175 9.94495 93.3882 10.1523L95.2481 12.0121C95.4613 12.2254 95.8049 12.2254 96.0122 12.0121C96.2254 11.7989 96.2254 11.4554 96.0122 11.248L94.1523 9.38817Z" fill="#210C59"/>
<path d="M105.347 20.5C105.347 20.968 104.968 21.3411 104.506 21.3411C104.038 21.3411 103.665 20.962 103.665 20.5C103.665 20.0321 104.044 19.6589 104.506 19.6589C104.968 19.6589 105.347 20.038 105.347 20.5Z" fill="#371A45"/>
<g opacity="0.35">
<path opacity="0.35" d="M86 112.416C86 113.947 66.7478 115.186 43 115.186C19.2508 115.186 0 113.947 0 112.416C0 111.908 2.12338 111.432 5.82777 111.024H80.1726C83.878 111.434 86 111.908 86 112.416Z" fill="#371A45"/>
</g>
<path d="M61.6527 82.1118L35.2641 85.1725C32.4674 85.4974 29.9376 83.493 29.6141 80.6964L27.3483 61.1652L26.9299 57.5574L26.6548 55.186C26.4492 53.4063 27.1856 51.7351 28.4677 50.6709C29.2012 50.0625 30.1139 49.6525 31.1323 49.5346L36.9006 48.8663L55.4889 46.7116L57.5199 46.4754C58.1146 46.4058 58.6981 46.4422 59.2509 46.5698C61.2932 47.0394 62.9171 48.7509 63.1713 50.9515L63.484 53.6464L64.4022 61.5665L66.1288 76.4619C66.4541 79.2586 64.4494 81.7884 61.6527 82.1118Z" fill="white"/>
<path d="M34.673 85.7627C31.8446 85.7627 29.3952 83.6364 29.0612 80.76L26.103 55.2496C25.7442 52.1529 27.9714 49.3415 31.0678 48.9826L57.4562 45.9224C60.5536 45.5628 63.3644 47.7904 63.7232 50.8871L66.6814 76.3972C66.8553 77.8974 66.4348 79.3752 65.4971 80.5592C64.5595 81.7427 63.2169 82.4903 61.717 82.6645L35.3283 85.7244C35.1083 85.75 34.8898 85.7627 34.673 85.7627ZM58.1161 46.9956C57.9398 46.9956 57.7623 47.0057 57.5842 47.0262L31.1958 50.0865C28.7082 50.3747 26.9187 52.6336 27.2069 55.1216L30.1651 80.6317C30.4536 83.1193 32.7133 84.9098 35.1999 84.6202L61.5886 81.5603C64.0766 81.2718 65.8657 79.0132 65.5772 76.5256L62.619 51.0151C62.4794 49.8099 61.8786 48.7313 60.9276 47.9779C60.1176 47.336 59.1349 46.9956 58.1161 46.9956ZM61.6532 82.1124H61.655H61.6532Z" fill="#371A45"/>
<path d="M68.2782 61.6074L64.4021 61.5656L27.3483 61.1642L24.9825 61.1393C24.9825 61.1393 25.4661 59.6669 26.9303 57.5565C27.904 56.1504 29.3144 54.4612 31.3051 52.7385C32.814 51.4312 34.6586 50.1045 36.901 48.8654C37.8123 48.3623 38.7889 47.8733 39.835 47.4066C45.7407 44.7712 50.9006 44.5335 55.4892 46.7106C56.359 47.1217 57.2062 47.6205 58.0356 48.2069C59.9498 49.5571 61.7616 51.3703 63.4843 53.6458C65.1605 55.8601 66.7542 58.5136 68.2782 61.6074Z" fill="white"/>
<path d="M68.2776 62.1633C68.2758 62.1633 68.2736 62.1633 68.2715 62.1633L24.9757 61.6945C24.7986 61.6927 24.6327 61.6061 24.53 61.4622C24.4268 61.318 24.3987 61.1333 24.4539 60.9653C24.5689 60.6158 27.4085 52.343 39.6079 46.8994C45.8576 44.1106 51.2501 43.9433 56.0937 46.3876C60.8468 48.7862 64.9952 53.6846 68.776 61.3623C68.8615 61.5354 68.8506 61.7406 68.7475 61.904C68.6462 62.0656 68.4684 62.1633 68.2776 62.1633ZM25.8124 60.592L67.3731 61.0421C63.8152 54.0549 59.9568 49.5814 55.5935 47.3797C51.0673 45.0955 45.9864 45.2704 40.0612 47.9142C30.3945 52.2276 26.7926 58.4863 25.8124 60.592Z" fill="#371A45"/>
<path d="M55.7412 57.3248C55.7412 57.3248 50.9669 57.3248 49.8298 59.2636C48.8006 61.0187 50.1313 61.6812 50.1313 61.6812L54.7711 61.8641L55.7412 57.3248Z" fill="white"/>
<path d="M55.7418 57.3248L55.5027 58.4431L54.7706 61.8648L50.1317 61.6812C50.1317 61.6812 49.7303 61.4811 49.5385 61.0101C49.3816 60.6239 49.3646 60.0544 49.8288 59.2639C50.967 57.3248 55.7418 57.3248 55.7418 57.3248Z" fill="white"/>
<g opacity="0.35">
<path opacity="0.35" d="M55.5025 58.4431L54.7704 61.8648L50.1317 61.6812C50.1317 61.6812 49.7303 61.481 49.5385 61.0101C49.5998 60.8171 49.6939 60.6058 49.8288 60.3764C50.814 58.6984 54.523 58.4723 55.5025 58.4431Z" fill="#371A45"/>
</g>
<path d="M54.7712 62.4199C54.764 62.4199 54.7564 62.4199 54.7492 62.4195L50.1093 62.2367C50.0307 62.2338 49.9539 62.2139 49.8836 62.179C49.8136 62.144 49.1915 61.8158 48.9636 61.0495C48.7793 60.4299 48.9095 59.735 49.3502 58.9831C50.6117 56.8319 55.2198 56.7699 55.741 56.7699C55.9087 56.7699 56.0673 56.8456 56.173 56.9762C56.2783 57.1067 56.3194 57.2777 56.2844 57.4417L55.3147 61.981C55.2595 62.2374 55.0327 62.4199 54.7712 62.4199ZM50.3044 61.1321L54.3255 61.2904L55.0489 57.9041C53.5361 57.9964 50.9871 58.388 50.3088 59.5446C50.034 60.0134 49.9369 60.4238 50.0285 60.7318C50.0891 60.9341 50.2208 61.0653 50.3044 61.1321Z" fill="#371A45"/>
<path d="M30.5514 57.3248C30.5514 57.3248 35.3257 57.3248 36.4628 59.2636C37.492 61.0187 36.1613 61.6812 36.1613 61.6812L31.5215 61.8641L30.5514 57.3248Z" fill="white"/>
<path d="M36.755 61.0077C36.5646 61.4801 36.1618 61.6813 36.1618 61.6813L31.5215 61.8649L30.7894 58.4375L30.5518 57.3246C30.5518 57.3246 35.3251 57.3246 36.4633 59.264C36.9256 60.0531 36.9119 60.6215 36.755 61.0077Z" fill="white"/>
<g opacity="0.35">
<path opacity="0.35" d="M36.7549 61.0076C36.5645 61.48 36.1616 61.6812 36.1616 61.6812L31.5214 61.8648L30.7894 58.4374C31.7659 58.4666 35.4779 58.6916 36.4631 60.37C36.5991 60.6019 36.6936 60.8132 36.7549 61.0076Z" fill="#371A45"/>
</g>
<path d="M31.5211 62.4199C31.26 62.4199 31.0328 62.2374 30.978 61.9803L30.0082 57.441C29.9732 57.2769 30.014 57.106 30.1197 56.9754C30.2253 56.8453 30.384 56.7692 30.5517 56.7692C31.0728 56.7692 35.6813 56.8312 36.9424 58.9827C37.3834 59.7343 37.5136 60.4295 37.329 61.0491C37.1011 61.8154 36.479 62.144 36.409 62.1786C36.3387 62.2136 36.2619 62.2334 36.1833 62.2363L31.5434 62.4191C31.5355 62.4199 31.5283 62.4199 31.5211 62.4199ZM36.1609 61.6813H36.1627H36.1609ZM31.2434 57.9044L31.9668 61.2907L35.9882 61.1321C36.0733 61.0646 36.2089 60.9294 36.2673 60.7191C36.3524 60.413 36.2543 60.0069 35.9835 59.5453C35.3051 58.388 32.7562 57.9967 31.2434 57.9044Z" fill="#371A45"/>
<path d="M74.2733 76.4241L75.1327 82.0304C75.2073 82.5184 74.7479 82.9172 74.2751 82.7744L71.763 82.0156H14.2499L11.7489 82.7733C11.2765 82.9165 10.816 82.5176 10.891 82.0293L11.7504 76.4241" fill="#EF962B"/>
<g opacity="0.35">
<path opacity="0.35" d="M74.2733 76.4241L75.1327 82.0304C75.2073 82.5184 74.7479 82.9172 74.2751 82.7744L71.763 82.0156H14.2499L11.7489 82.7733C11.2765 82.9165 10.816 82.5176 10.891 82.0293L11.7504 76.4241" fill="#371A45"/>
</g>
<path d="M74.472 83.3595C74.353 83.3595 74.2325 83.3422 74.1146 83.3065L71.6811 82.5715H14.3321L11.9101 83.3054C11.5044 83.4287 11.0706 83.3357 10.7507 83.058C10.4304 82.78 10.2775 82.3642 10.3417 81.9455L11.2011 76.3403C11.2476 76.0371 11.5314 75.8286 11.8344 75.8751C12.1377 75.9217 12.3457 76.2051 12.2996 76.5084L11.4402 82.1135C11.4323 82.1655 11.4568 82.199 11.4788 82.2181C11.5008 82.2372 11.5372 82.2571 11.5881 82.2416L14.089 81.4839C14.1413 81.468 14.1954 81.4601 14.2502 81.4601H71.7637C71.8181 81.4601 71.8722 81.468 71.9245 81.4839L74.4363 82.2426C74.4868 82.2578 74.5235 82.2383 74.5452 82.2196C74.5672 82.2004 74.5917 82.1669 74.5838 82.1146L73.7244 76.5088C73.6779 76.2055 73.886 75.922 74.1896 75.8755C74.4925 75.8286 74.7767 76.0371 74.8229 76.3407L75.6823 81.9466C75.7464 82.3656 75.5939 82.7814 75.2737 83.0591C75.0465 83.2556 74.7626 83.3595 74.472 83.3595Z" fill="#371A45"/>
<path d="M72.724 66.7885L71.6851 83.2602L70.0738 108.826C69.9966 110.052 68.9793 111.007 67.7506 111.007H18.2633C17.0347 111.007 16.0174 110.052 15.9402 108.826L14.3289 83.2602L13.2899 66.7885H72.724Z" fill="#371A45"/>
<path d="M34.6333 86.6866C34.7615 86.6866 34.8737 86.7315 34.9699 86.8213C35.0725 86.9046 35.1238 87.0393 35.1238 87.2252C35.1238 87.4047 35.0725 87.5393 34.9699 87.6291C34.8737 87.7188 34.7615 87.7637 34.6333 87.7637C34.4923 87.7637 34.3737 87.7188 34.2775 87.6291C34.1813 87.5393 34.1332 87.4047 34.1332 87.2252C34.1332 87.0393 34.1813 86.9046 34.2775 86.8213C34.3737 86.7315 34.4923 86.6866 34.6333 86.6866ZM35.0468 88.6196V93.7742H34.2006V88.6196H35.0468Z" fill="white"/>
<path d="M45.8657 88.5234C46.4491 88.5234 46.885 88.6741 47.1735 88.9754C47.462 89.2703 47.6063 89.7512 47.6063 90.4179V93.7742H46.7696V90.4564C46.7696 89.6422 46.4202 89.2351 45.7214 89.2351C45.2213 89.2351 44.8623 89.3793 44.6443 89.6678C44.4328 89.9563 44.327 90.3763 44.327 90.9276V93.7742H43.4903V90.4564C43.4903 89.6422 43.1377 89.2351 42.4325 89.2351C41.9132 89.2351 41.5541 89.3954 41.3554 89.7159C41.1566 90.0365 41.0573 90.4981 41.0573 91.1007V93.7742H40.211V88.6196H40.8938L41.0188 89.3216H41.0669C41.2272 89.0524 41.4419 88.8536 41.7112 88.7254C41.9869 88.5908 42.2786 88.5234 42.5863 88.5234C43.3941 88.5234 43.9199 88.8119 44.1635 89.3889H44.2116C44.3847 89.094 44.6187 88.8761 44.9136 88.735C45.2149 88.594 45.5323 88.5234 45.8657 88.5234Z" fill="white"/>
<path d="M27.3726 88.594L27.4274 87.9968C27.4895 87.9911 27.5782 87.9867 27.6936 87.9842C27.8086 87.9817 27.8844 87.9806 27.9219 87.9806L30.8774 87.7963C31.0854 87.7736 31.2557 87.7628 31.3887 87.7639C31.8082 87.7675 32.0246 87.8894 32.0404 88.1303C32.0469 88.2269 32.0365 88.3124 32.0101 88.3877C31.9838 88.4631 31.9377 88.5233 31.872 88.5684C31.8064 88.6138 31.74 88.6517 31.6733 88.682C31.6062 88.7127 31.5157 88.7354 31.4014 88.7505C31.2867 88.766 31.1904 88.7768 31.1121 88.783C31.0339 88.7895 30.9264 88.7956 30.7897 88.8021C30.6523 88.8086 30.5513 88.8151 30.4871 88.8212L30.5005 89.5659C30.441 89.8306 30.4348 90.3189 30.4814 91.0304C30.4958 91.2514 30.5214 91.5763 30.5586 92.0055C30.5953 92.4346 30.6199 92.7411 30.6321 92.9251C30.6664 93.4465 30.6556 93.7794 30.6 93.924C30.5448 94.0751 30.4374 94.1555 30.2776 94.1649C30.1229 94.1739 29.9653 94.1194 29.8044 94.0011C29.6432 93.8829 29.5513 93.7462 29.5289 93.5915C29.3753 93.1879 29.2692 92.5377 29.2105 91.6423C29.2014 91.5057 29.1895 91.3005 29.1748 91.0264C29.16 90.7527 29.1484 90.5536 29.1401 90.4292C29.1344 90.4357 29.1383 90.3095 29.1517 90.0509C29.165 89.7927 29.1812 89.5313 29.2004 89.2669C29.2195 89.003 29.2317 88.871 29.2379 88.871L28.8282 88.8724C28.7795 88.8724 28.6691 88.8699 28.4975 88.8641C28.3251 88.8587 28.209 88.8526 28.1498 88.8464C28.0907 88.8403 28.003 88.8281 27.8873 88.8097C27.7708 88.7909 27.6741 88.7646 27.5969 88.73C27.5205 88.6968 27.4451 88.651 27.3726 88.594Z" fill="white"/>
<path d="M51.418 87.4439C51.4097 87.3148 51.4162 87.2492 51.4379 87.2474C52.8471 87.0649 54.0238 86.8521 54.982 86.6083C55.0556 86.5896 55.1562 86.5755 55.2842 86.5665C55.6859 86.5373 55.8933 86.6401 55.9088 86.8748C55.916 86.9859 55.8731 87.0941 55.7797 87.1998C55.6859 87.3058 55.5536 87.3855 55.3819 87.4393C55.1634 87.5099 54.9762 87.5882 54.8219 87.674C54.6668 87.7602 54.5118 87.8262 54.3567 87.8727C54.2009 87.9196 53.9438 87.9579 53.5835 87.9889C53.1717 88.0242 52.9413 88.0675 52.8951 88.1187C52.8688 88.1479 52.8572 88.193 52.8612 88.2536C52.863 88.2806 52.8753 88.3621 52.8984 88.4988C52.9214 88.6355 52.9369 88.7639 52.9449 88.8851C52.9532 89.0127 52.9532 89.175 52.9449 89.3719L53.0083 90.3399L54.1966 90.1823L54.6589 90.1329C55.3296 90.0611 55.7346 90.0571 55.8799 90.1206C55.9488 90.1527 55.9856 90.2014 55.9899 90.2667C55.9975 90.3842 55.8825 90.5224 55.6441 90.681C55.4043 90.8408 55.1699 90.944 54.9413 90.9901C54.7656 91.0305 54.5889 91.0608 54.4111 91.0817C54.2186 91.1041 53.9661 91.1218 53.6524 91.1344C53.3369 91.1474 53.136 91.1585 53.0516 91.1683L53.0985 92.6981L53.1447 92.9159L54.3524 92.7262C54.6192 92.6844 54.8507 92.6505 55.048 92.6245C55.3992 92.5784 55.625 92.5585 55.7267 92.565C56.004 92.5878 56.1479 92.684 56.1591 92.8539C56.1735 93.0761 56.0437 93.2391 55.7678 93.3437C55.7415 93.3541 55.4548 93.4273 54.9041 93.5644C54.3401 93.7039 53.8792 93.7995 53.524 93.85C52.4296 94.0051 51.8569 93.8248 51.823 93.3072L51.8176 93.2257C51.8493 92.4871 51.8374 91.6963 51.7823 90.8527C51.7411 90.227 51.6715 89.522 51.5727 88.7368C51.4746 87.9496 51.4227 87.5189 51.418 87.4439Z" fill="white"/>
<g opacity="0.35">
<path opacity="0.35" d="M72.724 66.7885L71.6851 83.2602L70.0695 108.895C69.9948 110.083 69.0099 111.007 67.8206 111.007H18.3582C17.0758 111.007 16.0145 110.011 15.9337 108.731H51.1794C59.8287 108.731 66.9883 102.008 67.5324 93.3762L67.9024 87.5048C68.0474 85.205 66.2212 83.2605 63.9171 83.2605H14.3289L13.2899 66.7888H72.724V66.7885Z" fill="#371A45"/>
</g>
<path d="M45.9632 70.9818H46.4371C46.3383 71.5228 46.2524 72.068 46.181 72.6104C46.0808 72.0994 46.0094 71.5545 45.9632 70.9818Z" fill="#F9A528"/>
<path d="M68.1697 111.563H17.8436C16.5612 111.563 15.4916 110.56 15.4079 109.281L12.3018 61.6531C12.2917 61.4998 12.3458 61.3491 12.4507 61.2369C12.556 61.1247 12.7025 61.0613 12.8564 61.0613H73.1572C73.3108 61.0613 73.4576 61.1251 73.5629 61.2369C73.6682 61.3491 73.7219 61.4998 73.7118 61.6531L70.6057 109.281C70.5221 110.56 69.4521 111.563 68.1697 111.563ZM13.4493 62.1727L16.5168 109.208C16.5623 109.906 17.145 110.451 17.8436 110.451H68.17C68.8686 110.451 69.4514 109.905 69.4968 109.208L72.5643 62.1727H13.4493Z" fill="#371A45"/>
<path d="M75.7317 76.424H10.2689C9.68828 76.424 9.25769 75.8848 9.38391 75.3194L12.5766 61.1407C12.732 60.4461 13.349 59.9528 14.0616 59.9528H71.9389C72.6515 59.9528 73.2686 60.4461 73.424 61.1407L76.6152 75.3194C76.7429 75.8848 76.3123 76.424 75.7317 76.424Z" fill="#EF962B"/>
<g opacity="0.3">
<path opacity="0.3" d="M73.0727 60.4587C72.7914 60.145 72.3836 59.9524 71.9389 59.9524H45.9632H45.8431H14.0612C13.349 59.9524 12.732 60.4461 12.5755 61.1407L12.4705 61.6077H70.7254C71.5325 61.6077 72.231 62.1677 72.4066 62.9557L73.8373 69.3774C74.4536 72.1434 72.3489 74.7681 69.5151 74.7681H9.50831L9.38425 75.3191C9.31141 75.6434 9.42176 75.9578 9.63778 76.1681H76.3617C76.4385 76.0931 76.5023 76.0054 76.5488 75.9084L73.0727 60.4587Z" fill="white"/>
</g>
<path d="M75.732 76.9795H45.9635C45.9433 76.9795 45.9231 76.9784 45.9033 76.9762C45.8835 76.9784 45.8636 76.9795 45.8431 76.9795H10.2685C9.82206 76.9795 9.40589 76.7794 9.12712 76.431C8.84836 76.0826 8.7445 75.6326 8.84259 75.1973L12.0338 61.019C12.2487 60.0641 13.0825 59.397 14.0616 59.397H71.9393C72.918 59.397 73.7518 60.0641 73.9671 61.019L77.1583 75.1973C77.2564 75.6329 77.1525 76.0826 76.8737 76.431C76.595 76.7794 76.1781 76.9795 75.732 76.9795ZM14.0612 60.508C13.6058 60.508 13.2181 60.8182 13.1178 61.2628L9.92664 75.4411C9.89454 75.5839 9.95549 75.6877 9.9948 75.7368C10.0341 75.7858 10.1217 75.8681 10.2682 75.8681H45.8427C45.8629 75.8681 45.8831 75.8691 45.903 75.8713C45.9228 75.8691 45.943 75.8681 45.9632 75.8681H75.7316C75.878 75.8681 75.9657 75.7855 76.005 75.7368C76.0443 75.6877 76.1052 75.5839 76.0732 75.4411L72.882 61.2628C72.7821 60.8185 72.394 60.508 71.9385 60.508H14.0612Z" fill="#371A45"/>
<g opacity="0.35">
<path opacity="0.35" d="M25.1575 68.0315C17.6376 67.6814 17.6236 61.3811 17.7195 59.953H34.5695C34.9056 66.1324 31.9535 68.3471 25.1575 68.0315Z" fill="#371A45"/>
</g>
<g opacity="0.35">
<path opacity="0.35" d="M61.018 68.0315C68.5378 67.6814 68.5519 61.3811 68.456 59.953H51.606C51.2698 66.1324 54.222 68.3471 61.018 68.0315Z" fill="#371A45"/>
</g>
<path d="M18.0538 59.9526C18.0538 59.9526 17.1064 66.623 24.6038 66.9527C30.7013 67.2206 33.2975 65.3071 32.9051 59.9526C32.652 56.4992 25.7243 56.7556 25.7243 56.7556C25.7243 56.7556 18.5233 56.8869 18.0538 59.9526Z" fill="white"/>
<path d="M25.6684 67.5325C25.3189 67.5325 24.9561 67.5242 24.5793 67.5076C22.065 67.3973 20.1685 66.5923 18.9423 65.1152C17.0992 62.8955 17.4861 59.9965 17.5034 59.8742C17.5038 59.8724 17.5038 59.8702 17.5041 59.8681C18.0292 56.4389 24.9287 56.2138 25.7138 56.1998C26.0088 56.1879 33.1701 55.9693 33.459 59.9117C33.6494 62.5075 33.155 64.3737 31.9476 65.6168C30.6872 66.9155 28.6764 67.5325 25.6684 67.5325ZM18.6037 60.0322C18.5918 60.1263 18.2957 62.6049 19.8042 64.4134C20.8219 65.6341 22.4451 66.3017 24.6283 66.3972C27.909 66.5418 29.9808 66.0474 31.1506 64.8426C32.124 63.84 32.5167 62.254 32.3512 59.9928C32.1434 57.159 25.8105 57.3073 25.7448 57.3105C23.9893 57.344 18.9355 57.9149 18.6037 60.0322Z" fill="#371A45"/>
<g opacity="0.35">
<path opacity="0.35" d="M24.605 66.9525C30.7014 67.2205 33.2972 65.3062 32.906 59.9523C32.8897 59.7324 32.8457 59.5272 32.7797 59.3357C32.1219 62.5622 29.4857 63.7462 24.6053 63.5316C20.3806 63.3469 18.8382 61.1471 18.2943 59.2632C18.1739 59.4738 18.0917 59.7035 18.0534 59.9523C18.0534 59.9527 17.1068 66.6233 24.605 66.9525Z" fill="#371A45"/>
</g>
<path d="M68.2384 59.9526C68.2384 59.9526 69.1858 66.623 61.6884 66.9527C55.5909 67.2206 52.9947 65.3071 53.3871 59.9526C53.6402 56.4992 60.5679 56.7556 60.5679 56.7556C60.5679 56.7556 67.7689 56.8869 68.2384 59.9526Z" fill="white"/>
<path d="M60.6238 67.5324C57.6155 67.5324 55.6053 66.9154 54.3446 65.6167C53.1372 64.3737 52.6427 62.5074 52.8331 59.9116C53.122 55.9695 60.2841 56.1891 60.5885 56.2C61.3631 56.214 68.2627 56.4391 68.7878 59.8683C68.7881 59.8701 68.7885 59.8723 68.7885 59.8744C68.8058 59.9967 69.1927 62.8954 67.3496 65.1155C66.1234 66.5926 64.2265 67.3976 61.7122 67.5079C61.3364 67.5241 60.9729 67.5324 60.6238 67.5324ZM60.3526 57.3089C59.2552 57.3089 54.1282 57.4477 53.9414 59.9931C53.7758 62.2539 54.1682 63.8403 55.1419 64.8428C56.3118 66.0477 58.385 66.5414 61.6639 66.3975C63.8471 66.3016 65.4703 65.6341 66.4884 64.4137C67.9973 62.6044 67.7005 60.1251 67.6886 60.0324C67.3572 57.9151 62.3033 57.3442 60.5575 57.3114C60.5499 57.3107 60.4771 57.3089 60.3526 57.3089Z" fill="#371A45"/>
<g opacity="0.35">
<path opacity="0.35" d="M61.6873 66.9525C55.5909 67.2205 52.9951 65.3062 53.3864 59.9523C53.4026 59.7324 53.4466 59.5272 53.5126 59.3357C54.1707 62.5622 56.8065 63.7462 61.6869 63.5316C65.9116 63.3469 67.454 61.1471 67.9978 59.2632C68.1183 59.4738 68.2005 59.7035 68.2387 59.9523C68.2387 59.9527 69.1857 66.6233 61.6873 66.9525Z" fill="#371A45"/>
</g>
<g opacity="0.3">
<g opacity="0.3">
<path opacity="0.3" d="M31.221 72.0723C31.221 72.0723 29.3256 71.4452 30.7905 70.2854C32.2553 69.1257 45.0162 68.6706 46.722 69.6583C49.0073 70.9818 46.0707 71.6605 42.6433 71.9529C39.2159 72.2457 34.3333 72.716 31.221 72.0723Z" fill="white"/>
</g>
</g>
<g opacity="0.3">
<g opacity="0.3">
<path opacity="0.3" d="M54.7177 72.0785C54.7177 72.0785 49.6236 72.0882 50.1879 70.5256C50.9557 68.3993 54.0971 68.8761 55.5172 69.3983C57.3513 70.0723 57.2392 72.2516 54.7177 72.0785Z" fill="white"/>
</g>
</g>
<path d="M62.043 30.4141C61.8288 30.505 61.5811 30.4051 61.4902 30.1909L56.7421 19.011C56.6512 18.7968 56.7511 18.5491 56.9653 18.4582C59.2142 17.5032 61.8115 18.5519 62.7665 20.8008L64.3857 24.6131C65.3407 26.8619 64.292 29.4592 62.043 30.4141Z" fill="white"/>
<path d="M61.878 30.5478C61.812 30.5478 61.746 30.5352 61.6825 30.5096C61.5534 30.4573 61.4521 30.3581 61.3976 30.2301L56.6493 19.0507C56.5368 18.786 56.6609 18.4791 56.9255 18.3666C59.2213 17.3914 61.8827 18.4661 62.8578 20.7618L64.477 24.574C65.4521 26.8702 64.3774 29.5312 62.0817 30.5064C62.0161 30.5338 61.9472 30.5478 61.878 30.5478ZM58.6883 18.2061C58.1253 18.2061 57.5538 18.3168 57.0042 18.5501C56.8408 18.6194 56.7644 18.8087 56.8336 18.9721L61.5819 30.1515C61.6154 30.2308 61.6778 30.2922 61.7575 30.3242C61.8372 30.3563 61.9245 30.3556 62.0038 30.3221C63.0669 29.8706 63.8906 29.0321 64.323 27.9611C64.7554 26.89 64.7449 25.7147 64.2934 24.6519L62.6742 20.8397C61.9757 19.1949 60.372 18.2061 58.6883 18.2061Z" fill="#371A45"/>
<g opacity="0.35">
<path opacity="0.35" d="M63.6261 22.8253L64.386 24.6133C65.3406 26.8615 64.2919 29.4591 62.043 30.4152C61.8287 30.5064 61.581 30.4054 61.4897 30.1912L60.2264 27.2196C60.344 27.3296 60.5196 27.3657 60.6772 27.3L60.9419 27.1868C62.7195 26.432 63.7477 24.6505 63.6261 22.8253Z" fill="#371A45"/>
</g>
<path d="M61.8781 31.0035C61.7544 31.0035 61.6303 30.9797 61.512 30.932C61.2701 30.8343 61.0804 30.6479 60.9783 30.4077L56.23 19.2283C56.0194 18.732 56.2516 18.1572 56.7475 17.9466C59.2747 16.873 62.2041 18.0562 63.2773 20.5831L64.8965 24.3953C65.4161 25.6197 65.4284 26.9731 64.9304 28.2064C64.4323 29.4398 63.4839 30.4055 62.2596 30.9256C62.1373 30.9775 62.0075 31.0035 61.8781 31.0035ZM57.3065 18.9192L61.948 29.848C62.8398 29.4333 63.5301 28.707 63.9001 27.7903C64.287 26.8321 64.2776 25.7809 63.8737 24.8299L62.2545 21.0177C61.4388 19.0956 59.2405 18.1752 57.3065 18.9192Z" fill="#371A45"/>
<path d="M20.0632 34.1306C20.2775 34.0398 20.5252 34.1396 20.6161 34.3539L25.3641 45.5337C25.455 45.7479 25.3551 45.9956 25.1409 46.0865C22.892 47.0415 20.2948 45.9928 19.3398 43.7439L17.7206 39.9317C16.7656 37.6832 17.8147 35.0859 20.0632 34.1306Z" fill="white"/>
<path d="M23.4124 46.541C22.839 46.541 22.2656 46.4306 21.7182 46.2096C20.5977 45.7573 19.7206 44.8954 19.2482 43.7832L17.629 39.9707C17.1566 38.8585 17.1457 37.6291 17.5983 36.5086C18.0506 35.3882 18.9125 34.5111 20.0247 34.0387C20.2894 33.9265 20.5963 34.0502 20.7088 34.3149L25.4568 45.4944C25.5113 45.6228 25.5124 45.7645 25.4604 45.8936C25.4085 46.0227 25.309 46.1241 25.1809 46.1785C24.6115 46.4202 24.0121 46.541 23.4124 46.541ZM20.1025 34.2226C19.0394 34.6741 18.2157 35.5126 17.7833 36.5837C17.3509 37.6544 17.3614 38.83 17.8129 39.8928L19.4321 43.7053C19.8836 44.7685 20.7221 45.5922 21.7932 46.0246C22.8643 46.4569 24.0395 46.4461 25.1023 45.995C25.1817 45.9614 25.243 45.8991 25.2751 45.8194C25.3072 45.7397 25.3064 45.652 25.2729 45.573L20.5248 34.3935C20.4552 34.2298 20.2656 34.153 20.1025 34.2226Z" fill="#371A45"/>
<g opacity="0.35">
<path opacity="0.35" d="M24.0483 42.4317L25.3653 45.5335C25.4565 45.7477 25.3552 45.9955 25.1413 46.0871C23.9606 46.588 22.6833 46.5379 21.5981 46.0503C20.6183 45.6103 19.7946 44.8123 19.3409 43.7448L18.6586 42.1385C19.8956 43.2767 21.7348 43.6546 23.3836 42.9547L23.7915 42.7812C23.9404 42.7174 24.032 42.5814 24.0483 42.4317Z" fill="#371A45"/>
</g>
<path d="M23.4123 46.9972C22.7816 46.9972 22.1501 46.8756 21.5475 46.6322C20.3142 46.1342 19.3484 45.1857 18.8284 43.9617L17.2092 40.1492C16.6891 38.9248 16.6772 37.5718 17.1753 36.3384C17.6733 35.1051 18.6217 34.1393 19.8461 33.6193C19.8464 33.6193 19.8464 33.6193 19.8464 33.6193C20.3419 33.409 20.9171 33.6413 21.1281 34.1368L25.8765 45.3166C26.0871 45.8128 25.8549 46.3877 25.3587 46.5983C24.7326 46.8641 24.0727 46.9972 23.4123 46.9972ZM20.158 34.6968C19.2662 35.1115 18.5756 35.8379 18.2056 36.7546C17.8186 37.7128 17.828 38.764 18.2319 39.7146L19.8511 43.5272C20.255 44.4782 21.0051 45.2149 21.963 45.6019C22.8793 45.9719 23.8815 45.9795 24.7993 45.6257L20.158 34.6968Z" fill="#371A45"/>
<g opacity="0.35">
<path opacity="0.35" d="M59.2509 46.5689C58.8744 47.1344 58.4687 47.6803 58.0352 48.2069C55.6847 51.0688 52.5353 53.3361 48.7732 54.6264C42.7244 56.7032 36.3755 55.8157 31.3047 52.7385C30.3043 52.1326 29.3555 51.441 28.468 50.6699C29.2015 50.0616 30.1143 49.6515 31.1327 49.5336L36.901 48.8654C37.8123 48.3623 38.7888 47.8733 39.835 47.4066C45.7407 44.7712 50.9006 44.5335 55.4892 46.7106L57.5203 46.4744C58.1146 46.4052 58.6981 46.4412 59.2509 46.5689Z" fill="#371A45"/>
</g>
<path d="M55.6901 46.9072C63.7732 38.8241 63.7732 25.7188 55.6901 17.6357C47.607 9.55266 34.5018 9.55266 26.4187 17.6358C18.3356 25.7188 18.3356 38.8241 26.4187 46.9072C34.5018 54.9903 47.607 54.9903 55.6901 46.9072Z" fill="white"/>
<path d="M41.0378 53.0801C37.9144 53.0801 34.8083 52.3675 31.9196 50.9553C26.9289 48.5149 23.1874 44.2776 21.3839 39.0232C17.6607 28.1762 23.4564 16.3227 34.3034 12.5996C45.15 8.87644 57.0039 14.6721 60.727 25.5191C64.4501 36.3661 58.6541 48.2196 47.8075 51.9427C45.594 52.7026 43.3115 53.0801 41.0378 53.0801ZM41.0381 11.6713C38.8246 11.6713 36.5757 12.0309 34.3683 12.7885C23.6255 16.476 17.8858 28.2155 21.5728 38.9583C25.2603 49.7011 36.9991 55.4415 47.7426 51.7538C58.4854 48.0663 64.2255 36.3264 60.5381 25.5837C57.6087 17.049 49.5951 11.6713 41.0381 11.6713Z" fill="#371A45"/>
<g opacity="0.35">
<path opacity="0.35" d="M59.515 22.906C59.9435 23.7484 60.3171 24.6313 60.6334 25.5516C64.3428 36.3639 58.5868 48.137 47.7754 51.849C36.963 55.5584 25.1899 49.8024 21.478 38.9911C21.3712 38.6803 21.2713 38.3665 21.1812 38.0549C25.772 47.132 36.4675 51.6625 46.3603 48.2672C56.8608 44.6624 62.5912 33.4544 59.515 22.906Z" fill="#371A45"/>
</g>
<path d="M41.0734 53.527C32.2434 53.527 23.9757 47.9788 20.9529 39.1715C17.1483 28.0868 23.0712 15.9733 34.1555 12.1687C45.2404 8.36406 57.3536 14.2867 61.1582 25.3713C64.9628 36.456 59.0398 48.5695 47.9556 52.3741C45.6782 53.1559 43.3565 53.527 41.0734 53.527ZM41.0384 12.1272C38.8739 12.1272 36.6748 12.4788 34.5165 13.2199C24.0114 16.8259 18.3986 28.3057 22.0041 38.8105C23.7506 43.8993 27.3746 48.0036 32.2081 50.3668C37.0412 52.73 42.5054 53.0698 47.5946 51.3229C58.0997 47.7169 63.7125 36.2371 60.1069 25.7319C57.2421 17.3859 49.406 12.1272 41.0384 12.1272Z" fill="#371A45"/>
<path d="M60.7425 26.0759C62.1151 29.8867 62.1526 33.8698 61.0913 37.559C60.2957 40.3247 55.1593 46.5138 47.1346 49.4865C39.6937 52.2424 31.4681 50.709 29.0916 49.0858C25.9217 46.9206 23.4102 43.8286 22.0377 40.0178C18.4054 29.9336 25.5632 22.6323 36.2519 18.7822C46.9405 14.9325 57.1103 15.992 60.7425 26.0759Z" fill="#371A45"/>
<path d="M38.2598 51.5711C33.9193 51.5711 30.2863 50.5751 28.7781 49.5451C25.3947 47.2342 22.8829 44.0048 21.5147 40.2063C19.7307 35.2538 20.3412 30.7192 23.3294 26.7292C25.9346 23.2506 30.3379 20.3219 36.0632 18.2595C41.7885 16.1971 47.0476 15.6453 51.2731 16.6633C56.1192 17.8314 59.481 20.9346 61.265 25.8875C62.6332 29.686 62.758 33.7748 61.6253 37.7129C60.8395 40.4446 55.839 46.8552 47.3274 50.0078C44.2686 51.1409 41.1116 51.5711 38.2598 51.5711ZM46.8226 17.2768C43.6948 17.2768 40.178 17.9591 36.4401 19.3053C30.7785 21.3447 18.0927 27.427 22.5605 39.8298C23.8491 43.4065 26.2159 46.4487 29.4049 48.6273C31.6689 50.1737 39.6868 51.6523 46.9412 48.9656C54.9811 45.9875 59.8485 39.8694 60.5567 37.4056C61.6242 33.694 61.5077 29.8411 60.2188 26.2644C58.5697 21.6858 55.4719 18.8188 51.0123 17.7441C49.7173 17.4322 48.3141 17.2768 46.8226 17.2768Z" fill="#371A45"/>
<g opacity="0.7">
<path opacity="0.7" d="M54.5678 30.5871C56.0135 30.3442 56.9137 28.53 56.5785 26.5349C56.2433 24.5398 54.7996 23.1194 53.3539 23.3623C51.9083 23.6052 51.0081 25.4194 51.3433 27.4145C51.6785 29.4096 53.1222 30.83 54.5678 30.5871Z" fill="white"/>
</g>
<g opacity="0.7">
<path opacity="0.7" d="M53.407 36.5776C54.2036 36.5553 54.8283 35.7849 54.8024 34.8568C54.7765 33.9286 54.1098 33.1942 53.3132 33.2165C52.5166 33.2387 51.8919 34.0091 51.9178 34.9373C51.9437 35.8654 52.6104 36.5998 53.407 36.5776Z" fill="white"/>
</g>
<g opacity="0.35">
<path opacity="0.35" d="M53.5897 18.0242C56.7686 19.4295 59.2826 22.0253 60.742 26.0756C62.115 29.887 62.1514 33.8705 61.0918 37.559C60.2959 40.325 55.1588 46.5141 47.1344 49.4872C44.3013 50.5373 41.3546 50.9643 38.6593 51.0007C48.4453 47.1359 54.6896 39.5612 55.6759 36.1309C57.0229 31.4485 56.9749 26.3925 55.2327 21.5572C54.7679 20.2648 54.2157 19.0898 53.5897 18.0242Z" fill="#111A28"/>
</g>
<path d="M20.3982 31.4498C20.3229 31.4498 20.2461 31.4346 20.1728 31.4018C19.9143 31.2871 19.787 30.9994 19.8656 30.7354C21.478 24.4792 27.0749 19.2086 35.2248 16.2727C43.3238 13.3556 50.9659 13.7548 56.1942 17.3672C56.4031 17.5039 56.5015 17.77 56.4153 18.016C56.3136 18.3059 55.9984 18.4585 55.7088 18.3575C55.662 18.3409 55.6136 18.3171 55.5729 18.2886C50.6434 14.876 43.3642 14.5222 35.6013 17.3182C27.7958 20.13 22.4513 25.1272 20.9377 31.0289C20.9359 31.0361 20.9338 31.0434 20.9316 31.0506C20.9248 31.0729 20.9154 31.0985 20.906 31.1198C20.814 31.3268 20.611 31.4498 20.3982 31.4498Z" fill="#371A45"/>
<g opacity="0.7">
<path opacity="0.7" d="M28.5449 44.4513C28.5449 44.4513 21.8382 35.6282 25.7717 29.7331C29.7051 23.8375 37.4244 21.0751 37.4219 21.6348C37.4219 21.6348 29.6272 26.7781 28.7177 34.7324C28.0166 40.866 28.5449 44.4513 28.5449 44.4513Z" fill="white"/>
</g>
<path d="M30.221 99.8814L29.5171 99.9899C29.3761 100.012 29.2654 100.122 29.2437 100.263L29.1352 100.967L29.0266 100.263C29.005 100.122 28.8943 100.012 28.7533 99.9899L28.0493 99.8814L28.7533 99.7728C28.8943 99.7512 29.005 99.6405 29.0266 99.4995L29.1352 98.7955L29.2437 99.4995C29.2654 99.6405 29.3761 99.7512 29.5171 99.7728L30.221 99.8814Z" fill="#FFF2BD"/>
<path d="M25.8845 105.403L25.2242 105.505C25.0918 105.526 24.988 105.629 24.9678 105.761L24.8657 106.422L24.7636 105.761C24.7431 105.629 24.6392 105.525 24.5072 105.505L23.8469 105.403L24.5072 105.301C24.6396 105.28 24.7434 105.176 24.7636 105.044L24.8657 104.384L24.9678 105.044C24.9883 105.177 25.0922 105.281 25.2242 105.301L25.8845 105.403Z" fill="#FFF2BD"/>
<path d="M23.2912 97.3098L22.7985 97.3859C22.6997 97.401 22.6226 97.4785 22.6071 97.5774L22.531 98.07L22.4549 97.5774C22.4397 97.4785 22.3622 97.4014 22.2634 97.3859L21.7708 97.3098L22.2634 97.2337C22.3622 97.2185 22.4394 97.141 22.4549 97.0422L22.531 96.5496L22.6071 97.0422C22.6222 97.141 22.6997 97.2182 22.7985 97.2337L23.2912 97.3098Z" fill="#FFF2BD"/>
<path d="M63.1868 101.324L63.8908 101.432C64.0318 101.454 64.1425 101.565 64.1641 101.706L64.2727 102.41L64.3812 101.706C64.4029 101.565 64.5136 101.454 64.6546 101.432L65.3585 101.324L64.6546 101.215C64.5136 101.194 64.4029 101.083 64.3812 100.942L64.2727 100.238L64.1641 100.942C64.1425 101.083 64.0318 101.194 63.8908 101.215L63.1868 101.324Z" fill="#FFF2BD"/>
<path d="M55.5267 105.673L56.187 105.775C56.3194 105.795 56.4232 105.899 56.4434 106.031L56.5455 106.691L56.6476 106.031C56.6681 105.899 56.772 105.795 56.904 105.775L57.5643 105.673L56.904 105.571C56.7716 105.55 56.6678 105.446 56.6476 105.314L56.5455 104.654L56.4434 105.314C56.4229 105.447 56.319 105.55 56.187 105.571L55.5267 105.673Z" fill="#FFF2BD"/>
<path d="M59.0201 95.8665L59.5127 95.9426C59.6115 95.9578 59.6887 96.0353 59.7042 96.1341L59.7803 96.6267L59.8564 96.1341C59.8715 96.0353 59.9491 95.9581 60.0479 95.9426L60.5405 95.8665L60.0479 95.7904C59.9491 95.7753 59.8719 95.6977 59.8564 95.5989L59.7803 95.1063L59.7042 95.5989C59.689 95.6977 59.6115 95.7749 59.5127 95.7904L59.0201 95.8665Z" fill="#FFF2BD"/>
<path d="M23.7507 81.3155L23.2533 81.3923C23.1538 81.4078 23.0756 81.4857 23.06 81.5856L22.9832 82.0829L22.9064 81.5856C22.8909 81.4861 22.813 81.4078 22.7131 81.3923L22.2158 81.3155L22.7131 81.2387C22.8127 81.2232 22.8909 81.1453 22.9064 81.0454L22.9832 80.5481L23.06 81.0454C23.0756 81.1449 23.1535 81.2232 23.2533 81.2387L23.7507 81.3155Z" fill="#FFF2BD"/>
<path d="M20.7495 85.9487L20.2334 86.0284C20.1299 86.0443 20.0488 86.1254 20.0329 86.2289L19.9532 86.745L19.8735 86.2289C19.8576 86.1254 19.7765 86.0443 19.673 86.0284L19.1569 85.9487L19.673 85.869C19.7765 85.8532 19.8576 85.772 19.8735 85.6685L19.9532 85.1525L20.0329 85.6685C20.0488 85.772 20.1299 85.8532 20.2334 85.869L20.7495 85.9487Z" fill="#FFF2BD"/>
<path d="M62.1868 80.3227L62.6841 80.3995C62.7837 80.415 62.8619 80.4929 62.8774 80.5928L62.9542 81.0901L63.0311 80.5928C63.0466 80.4933 63.1245 80.415 63.2244 80.3995L63.7217 80.3227L63.2244 80.2459C63.1248 80.2304 63.0466 80.1525 63.0311 80.0526L62.9542 79.5553L62.8774 80.0526C62.8619 80.1521 62.784 80.2304 62.6841 80.2459L62.1868 80.3227Z" fill="#FFF2BD"/>
<path d="M65.1879 84.9548L65.704 85.0345C65.8075 85.0504 65.8886 85.1315 65.9045 85.235L65.9842 85.7511L66.0639 85.235C66.0798 85.1315 66.1609 85.0504 66.2644 85.0345L66.7805 84.9548L66.2644 84.8751C66.1609 84.8593 66.0798 84.7781 66.0639 84.6746L65.9842 84.1586L65.9045 84.6746C65.8886 84.7781 65.8075 84.8593 65.704 84.8751L65.1879 84.9548Z" fill="#FFF2BD"/>
<path d="M39.8417 106.376L40.4562 106.47C40.5792 106.49 40.6758 106.586 40.6949 106.709L40.7898 107.324L40.8846 106.709C40.9037 106.586 41.0004 106.49 41.1233 106.47L41.7379 106.376L41.1233 106.281C41.0004 106.262 40.9037 106.165 40.8846 106.042L40.7898 105.427L40.6949 106.042C40.6758 106.165 40.5792 106.262 40.4562 106.281L39.8417 106.376Z" fill="#FFF2BD"/>
<path d="M45.2509 102.95L45.8654 103.044C45.9884 103.064 46.0851 103.16 46.1042 103.283L46.199 103.898L46.2939 103.283C46.313 103.16 46.4096 103.064 46.5326 103.044L47.1471 102.95L46.5326 102.855C46.4096 102.836 46.313 102.739 46.2939 102.616L46.199 102.001L46.1042 102.616C46.0851 102.739 45.9884 102.836 45.8654 102.855L45.2509 102.95Z" fill="#FFF2BD"/>
<path d="M6.2609 110.829C7.79176 110.528 9.32263 110.448 10.8531 110.416C12.384 110.374 13.9149 110.396 15.4454 110.419C16.9762 110.436 18.5071 110.441 20.0376 110.438H24.6298H42.9999H61.3695H70.5544L72.8505 110.438C73.6158 110.438 74.3814 110.411 75.1466 110.399C76.6775 110.392 78.2084 110.409 79.7389 110.829C79.8467 110.858 79.9102 110.97 79.8806 111.078C79.8611 111.149 79.8052 111.201 79.7389 111.219C78.208 111.639 76.6771 111.657 75.1466 111.65C74.3814 111.637 73.6158 111.61 72.8505 111.611L70.5544 111.61H61.3695H42.9999H24.6302H20.038C18.5071 111.607 16.9762 111.612 15.4457 111.63C13.9149 111.652 12.384 111.675 10.8535 111.633C9.32263 111.6 7.79176 111.52 6.26126 111.219C6.15343 111.198 6.0831 111.094 6.10438 110.986C6.11989 110.904 6.18408 110.844 6.2609 110.829Z" fill="#371A45"/>
</svg>
