<svg width="92" height="113" viewBox="0 0 92 113" fill="none" xmlns="http://www.w3.org/2000/svg">
<path d="M16.681 92.8268C11.3454 93.4926 1.95219 93.9597 0.885709 88.7196C0.746649 88.0334 0.650077 87.2816 0.594243 86.4876C0.217094 81.2188 1.58417 74.1147 3.59703 72.2939C4.74638 71.2548 6.958 70.8531 9.41193 70.969C14.2885 71.199 20.1276 73.4679 20.5104 76.8289C20.8809 80.0631 22.0165 92.161 16.681 92.8268Z" fill="white"/>
<g opacity="0.35">
<path opacity="0.35" d="M16.6809 92.8271C11.3453 93.4929 1.95207 93.9599 0.885584 88.7198C0.746523 88.0336 0.649951 87.2818 0.594116 86.4878C2.17927 87.5132 4.14297 86.2891 4.25991 84.8454C4.98296 75.9339 7.938 72.2667 9.41148 70.9688C14.2881 71.1988 20.1272 73.4676 20.51 76.8286C20.8808 80.0632 22.0165 92.1612 16.6809 92.8271Z" fill="#371A45"/>
</g>
<path d="M10.8313 93.7667C5.74159 93.7667 1.13608 92.6546 0.35825 88.8277C-0.67101 83.7653 0.58756 74.2896 3.23603 71.8944C5.58145 69.7734 11.4845 70.141 15.6086 71.6974C18.8832 72.9335 20.8142 74.7339 21.0463 76.7674C21.722 82.6803 22.0616 92.6989 16.7474 93.3622C14.8318 93.601 12.7954 93.7667 10.8313 93.7667ZM8.63131 71.4814C6.58473 71.4814 4.85349 71.8856 3.95908 72.6943C1.81452 74.6338 0.387748 83.5603 1.4149 88.6128C2.37639 93.3443 11.35 92.9489 16.6143 92.2919C21.2985 91.7072 20.371 80.3552 19.9753 76.8896C19.7937 75.3013 18.0636 73.7766 15.2279 72.7063C13.0647 71.8898 10.6888 71.4814 8.63131 71.4814ZM3.59773 72.2944H3.59949H3.59773Z" fill="#371A45"/>
<path d="M4.68573 81.2374L2.01091 80.5853C1.40621 80.4378 0.790262 80.7875 0.699662 81.3319C0.388179 83.205 0.029642 87.0602 2.21599 87.6344C4.86553 88.33 5.44425 85.6815 5.45057 82.1181C5.45127 81.7076 5.13698 81.3473 4.68573 81.2374Z" fill="white"/>
<g opacity="0.35">
<path opacity="0.35" d="M5.44966 82.1178C5.44369 85.6814 4.86498 88.3305 2.21547 87.6338C1.12722 87.349 0.669658 86.2496 0.523926 84.9871C0.77922 85.3285 1.11634 85.5799 1.55915 85.6958C3.93124 86.3184 4.64445 84.2602 4.76946 81.2631C5.17646 81.3926 5.45177 81.734 5.44966 82.1178Z" fill="#371A45"/>
</g>
<path d="M3.00604 88.1845C2.72405 88.1845 2.42345 88.1427 2.1046 88.0591C-0.370068 87.4091 -0.10915 83.5203 0.266948 81.2602C0.326998 80.8992 0.537696 80.5832 0.86112 80.3697C1.22422 80.1299 1.68074 80.0533 2.11513 80.159L4.78996 80.8111C5.43856 80.9691 5.89086 81.5071 5.88981 82.1188C5.88419 85.2133 5.42697 86.9438 4.40649 87.7294C4.01248 88.0324 3.54367 88.1845 3.00604 88.1845ZM1.73096 80.9905C1.5919 80.9905 1.45529 81.0292 1.34468 81.1022C1.2769 81.1468 1.15926 81.2455 1.13292 81.4039C0.927841 82.6382 0.407063 86.7054 2.32759 87.2096C2.98637 87.3828 3.4917 87.3252 3.87096 87.0337C4.88723 86.2513 5.00874 83.8532 5.0119 82.1174C5.01225 81.9124 4.83561 81.7259 4.58207 81.6641L1.90724 81.012C1.84895 80.9976 1.7896 80.9905 1.73096 80.9905Z" fill="#371A45"/>
<path d="M23.4539 71.2756C26.9838 71.0758 33.4083 75.3997 34.3277 75.052C35.247 74.704 35.0609 70.9575 37.2824 69.6933C40.248 68.0056 41.6298 71.079 41.8988 74.6917C42.2636 79.5883 39.2029 83.3163 36.2103 83.4697C31.2374 83.725 27.1895 80.0508 25.2666 79.7274" fill="white"/>
<g opacity="0.35">
<path opacity="0.35" d="M36.2098 83.4705C31.238 83.7254 27.1898 80.0519 25.2661 79.7268L23.4545 71.2757C24.1164 71.2381 24.8795 71.3593 25.6896 71.5791L26.5714 72.6874C28.4937 73.0108 31.3841 81.4039 36.357 81.1479C38.793 81.0225 41.2733 78.53 41.9166 74.9671C42.1494 79.7268 39.1473 83.3195 36.2098 83.4705Z" fill="#371A45"/>
</g>
<path d="M35.7103 84.0217C32.4547 84.0217 29.6485 82.4913 27.5707 81.3581C26.5797 80.8177 25.7239 80.351 25.1772 80.259C24.8836 80.2095 24.6855 79.9313 24.7351 79.6378C24.7846 79.3438 25.0627 79.1454 25.3563 79.1957C26.0814 79.3179 26.9667 79.8004 28.0873 80.4114C30.1637 81.5435 33.005 83.0946 36.183 82.9313C37.2979 82.8741 38.4329 82.2515 39.3793 81.178C40.8222 79.5412 41.5445 77.1916 41.3616 74.7317C41.1762 72.2413 40.4816 70.4433 39.5043 69.9226C38.9709 69.6385 38.3318 69.7168 37.5497 70.1617C36.4067 70.8124 35.9832 72.3206 35.6425 73.5325C35.362 74.5315 35.14 75.321 34.5188 75.5559C33.9643 75.7655 33.0868 75.362 30.9798 74.3461C28.6635 73.2294 25.489 71.6994 23.4849 71.8139C23.1854 71.8294 22.9329 71.6036 22.916 71.3061C22.8992 71.0087 23.1267 70.7541 23.4238 70.7373C25.7092 70.6108 29.0263 72.2072 31.4483 73.3748C32.4765 73.8707 33.7445 74.4817 34.1445 74.5294C34.2916 74.3532 34.4711 73.7147 34.6045 73.2407C34.9774 71.9126 35.4884 70.0939 37.0163 69.2241C38.1302 68.5903 39.138 68.5049 40.0117 68.9702C41.8258 69.9366 42.3101 72.9443 42.4372 74.6509C42.6419 77.3984 41.8223 80.037 40.1884 81.8905C39.0485 83.1834 37.6456 83.9353 36.2381 84.0076C36.0611 84.0174 35.8849 84.0217 35.7103 84.0217Z" fill="#371A45"/>
<path d="M30.674 106.32C30.6789 106.433 30.674 106.546 30.6575 106.661C30.6445 106.747 30.6248 106.836 30.5985 106.924C29.7817 109.638 23.6163 110.009 20.8274 107.592C20.7817 107.552 20.7375 107.512 20.6932 107.472C20.6507 107.431 20.6082 107.391 20.5672 107.349C20.032 106.819 19.6801 106.228 19.4543 105.552C19.4413 105.516 19.4297 105.48 19.4199 105.444C19.3936 105.362 19.3693 105.277 19.3479 105.192C19.284 104.951 19.2334 104.699 19.1959 104.437C19.1909 104.406 19.186 104.373 19.1829 104.341C19.0027 103.02 19.0912 101.416 19.1551 99.4027C19.2598 96.1439 19.3058 91.8151 18.0634 85.8903L29.3943 91.8611C29.3943 91.8611 29.5204 92.3538 29.6563 93.1509C30.0591 95.503 30.5433 100.505 28.1179 103.339C28.1179 103.339 30.5402 104.587 30.6712 106.262C30.6722 106.282 30.674 106.301 30.674 106.32Z" fill="white"/>
<g opacity="0.35">
<path opacity="0.35" d="M30.6574 106.661C30.6444 106.747 30.6247 106.836 30.5984 106.924C29.7816 109.638 23.6163 110.009 20.8273 107.592C20.7817 107.552 20.7374 107.512 20.6932 107.472C20.6507 107.431 20.6082 107.391 20.5671 107.349C20.032 106.819 19.6801 106.228 19.4543 105.552C19.4413 105.516 19.4297 105.48 19.4199 105.444C19.3936 105.362 19.3693 105.277 19.3479 105.192C19.2826 104.951 19.2334 104.701 19.1959 104.437C19.1909 104.406 19.186 104.373 19.1829 104.341C19.0027 103.02 19.0894 101.416 19.1551 99.4027C19.2598 96.1439 19.3058 91.8151 18.0634 85.8903L29.3943 91.8611C29.3943 91.8611 29.5203 92.3538 29.6562 93.1509C28.8542 95.6716 26.8705 97.5275 23.6595 98.4802C20.6855 99.364 19.7479 103.197 22.0115 105.318C22.0606 105.366 22.1129 105.412 22.1653 105.457C24.3274 107.332 28.5157 107.53 30.6711 106.263C30.6729 106.282 30.6743 106.3 30.6743 106.32C30.6806 106.432 30.6757 106.544 30.6574 106.661Z" fill="#371A45"/>
</g>
<path d="M25.8427 109.736C23.9545 109.736 21.8823 109.219 20.4745 108C18.3823 106.187 18.4655 103.775 18.5916 100.124C18.7054 96.8318 18.8609 92.3225 17.5364 86.0023C17.4753 85.7108 17.6621 85.425 17.9535 85.3639C18.2446 85.3028 18.5308 85.4896 18.5919 85.781C19.9432 92.2291 19.7848 96.8138 19.6693 100.161C19.5457 103.739 19.4779 105.709 21.1804 107.185C22.8951 108.67 25.9884 108.959 27.988 108.379C29.125 108.049 29.8688 107.478 30.0823 106.769C30.5416 105.244 27.8974 103.833 27.8703 103.819L27.2642 103.507L27.7077 102.989C30.7393 99.4479 28.8904 92.07 28.8715 91.9959C28.7974 91.7076 28.9712 91.4137 29.2595 91.3396C29.5475 91.2651 29.8417 91.4393 29.9158 91.7276C29.9959 92.0391 31.7654 99.1132 28.9161 103.187C29.8702 103.808 31.6639 105.255 31.1147 107.08C30.7927 108.15 29.7887 108.979 28.2882 109.414C27.5722 109.622 26.7276 109.736 25.8427 109.736Z" fill="#371A45"/>
<path d="M20.6907 95.5571C20.5639 95.5652 20.4358 95.5704 20.3065 95.576C17.9313 95.673 16.0346 95.3239 14.5208 94.6795C14.0341 94.472 13.5891 94.2346 13.1793 93.9705C11.9741 93.1994 11.0843 92.2073 10.428 91.1194C10.1059 90.5856 9.84012 90.0277 9.62064 89.4626C9.09495 88.1092 8.84 86.7113 8.72693 85.4696C8.71464 85.3509 8.70551 85.2336 8.69743 85.1177C8.62193 84.0839 8.62334 83.1143 8.68128 82.1992C8.89303 78.8276 9.86891 76.1841 10.5698 73.655C10.6007 73.5444 10.6306 73.4352 10.6601 73.3246C10.7061 73.1507 10.7517 72.978 10.7949 72.8055C10.9445 72.2058 11.0727 71.607 11.1629 71.003C11.1914 70.8183 11.2156 70.6336 11.2356 70.4475C11.2518 70.2993 11.2665 70.1497 11.2774 69.9987C11.3947 68.4525 22.3356 69.3529 26.1899 71.3725H26.1913C26.9692 71.7809 27.4559 72.2324 27.5096 72.7206C27.5809 73.3878 27.6891 74.0378 27.8235 74.6713C27.8787 74.9368 27.938 75.1998 28.0016 75.46C28.3117 76.7273 28.7106 77.935 29.1165 79.1026C29.8255 81.1545 30.5549 83.0781 30.8583 84.9667C31.8258 91.0127 28.5459 95.1136 20.6907 95.5571Z" fill="white"/>
<g opacity="0.35">
<path opacity="0.35" d="M13.5572 77.8817C13.5572 77.8402 13.1892 79.1827 15.8457 81.0857C18.5023 82.9886 16.3521 88.8183 16.3521 88.8183L10.9803 84.1647L13.5572 77.8817Z" fill="#371A45"/>
</g>
<g opacity="0.35">
<path opacity="0.35" d="M20.3063 95.5764C10.9468 95.9577 9.01188 89.417 8.69724 85.118C8.6249 84.139 8.62244 83.2196 8.67125 82.348C8.67792 82.4815 8.68776 82.6149 8.69724 82.7498C9.01188 87.0491 10.9468 93.5895 20.3063 93.2095C26.9669 92.9384 30.4543 90.1154 30.9582 85.728C31.5478 91.4502 28.0987 95.2589 20.3063 95.5764Z" fill="#371A45"/>
</g>
<path d="M19.5396 96.1316C10.3606 96.1323 8.4636 89.3057 8.15915 85.1574C7.85153 80.9641 8.78808 77.8029 9.61437 75.014C10.1278 73.2806 10.6131 71.6435 10.7405 69.9593C10.8045 69.1137 11.8843 68.7197 14.2409 68.6814C17.9148 68.6182 27.7295 69.7546 28.0452 72.6615C28.3222 75.2124 29.1268 77.508 29.9046 79.7277C30.5293 81.5105 31.1193 83.1944 31.3897 84.8821C31.8809 87.9512 31.3328 90.4824 29.7599 92.4047C27.8917 94.6883 24.7186 95.9367 20.3294 96.1154C20.0604 96.1263 19.7963 96.1316 19.5396 96.1316ZM11.8095 70.1163C11.6655 71.8869 11.1711 73.5553 10.6482 75.3206C9.80891 78.153 8.94119 81.0818 9.23441 85.0787C9.57188 89.6719 11.6532 95.0528 19.5428 95.0535C19.7851 95.0535 20.0316 95.0486 20.2848 95.0381C24.353 94.8727 27.26 93.757 28.9245 91.722C30.2937 90.0484 30.7649 87.8044 30.3242 85.0527C30.0693 83.4602 29.4944 81.8206 28.8862 80.0848C28.088 77.8075 27.2628 75.4526 26.9724 72.7785C26.9594 72.6591 26.7796 72.0249 24.5051 71.2569C22.5326 70.5911 19.5597 70.0489 16.7461 69.8427C13.6784 69.6169 12.1262 69.8814 11.8095 70.1163Z" fill="#371A45"/>
<path d="M25.2408 101.489C22.8437 101.489 20.7378 100.71 20.5963 100.656C20.3694 100.57 20.2553 100.317 20.341 100.091C20.4263 99.8637 20.6799 99.7493 20.9064 99.835C20.9583 99.8543 26.1538 101.772 29.1847 99.4719C29.3782 99.3254 29.6535 99.3634 29.7996 99.5561C29.946 99.7493 29.9084 100.025 29.7153 100.171C28.3904 101.177 26.7571 101.489 25.2408 101.489Z" fill="#371A45"/>
<path d="M30.6791 84.3833C31.5535 84.0211 31.9687 83.0187 31.6065 82.1443C31.2443 81.2699 30.2419 80.8547 29.3674 81.2169C28.493 81.5791 28.0778 82.5815 28.44 83.4559C28.8022 84.3303 29.8047 84.7455 30.6791 84.3833Z" fill="white"/>
<g opacity="0.35">
<path opacity="0.35" d="M31.7341 82.7989C31.7341 83.7453 30.9675 84.5133 30.0211 84.5133C29.0748 84.5133 28.3068 83.7453 28.3068 82.7989C28.3068 82.5373 28.3654 82.2883 28.4715 82.0664C28.7464 82.6451 29.3374 83.0469 30.0211 83.0469C30.7049 83.0469 31.2959 82.6451 31.5694 82.0664C31.6755 82.2883 31.7341 82.5373 31.7341 82.7989Z" fill="#371A45"/>
</g>
<path d="M30.0206 84.9516C28.8336 84.9516 27.8679 83.9859 27.8679 82.799C27.8679 81.6121 28.8336 80.6464 30.0206 80.6464C31.2075 80.6464 32.1732 81.6121 32.1732 82.799C32.1732 83.9859 31.2075 84.9516 30.0206 84.9516ZM30.0206 81.5243C29.3179 81.5243 28.7458 82.096 28.7458 82.799C28.7458 83.5017 29.3175 84.0737 30.0206 84.0737C30.7232 84.0737 31.2953 83.502 31.2953 82.799C31.2953 82.0963 30.7236 81.5243 30.0206 81.5243Z" fill="#371A45"/>
<path d="M21.4619 108.206C20.6455 110.919 14.4801 111.291 11.6897 108.875C8.8994 106.457 10.3792 102.818 9.99924 95.3338C9.91145 93.5765 9.72006 91.6069 9.34748 89.3918C9.22738 88.6786 9.08797 87.9401 8.92749 87.1738L15.2491 90.5042L20.2574 93.1439C20.2574 93.1439 20.5183 94.1616 20.6943 95.6396C21.0012 98.2207 21.0475 102.208 18.9802 104.622C18.9802 104.621 22.0635 106.209 21.4619 108.206Z" fill="white"/>
<path d="M20.4309 93.099C20.6893 93.5604 20.8526 94.0422 20.9969 94.5321C21.1353 95.0227 21.2301 95.5235 21.2944 96.0284C21.431 97.0377 21.465 98.0645 21.3874 99.0903C21.3513 99.603 21.2996 100.117 21.2122 100.628C21.1248 101.138 21.0222 101.65 20.8667 102.152C20.7121 102.654 20.5302 103.153 20.2816 103.627C20.0358 104.102 19.7401 104.556 19.3904 104.972L19.2274 104.142C19.435 104.252 19.6039 104.356 19.784 104.473C19.9607 104.588 20.1334 104.71 20.3016 104.839C20.6384 105.097 20.9594 105.386 21.2498 105.722C21.5356 106.06 21.7997 106.449 21.9528 106.92C22.0286 107.154 22.0743 107.407 22.0782 107.664C22.081 107.922 22.0353 108.18 21.9577 108.419C21.8025 108.894 21.5089 109.307 21.1676 109.624C20.8245 109.943 20.4365 110.18 20.0393 110.365C19.2415 110.731 18.404 110.909 17.57 110.983C17.1524 111.021 16.7342 111.031 16.3174 111.013C15.9005 110.997 15.4844 110.959 15.0722 110.889C14.2476 110.756 13.4336 110.517 12.6639 110.145C12.2808 109.955 11.91 109.731 11.5637 109.464C11.215 109.197 10.9102 108.884 10.6296 108.54C10.3533 108.193 10.1338 107.802 9.95539 107.399C9.78754 106.992 9.66955 106.573 9.58703 106.156C9.43041 105.32 9.40407 104.498 9.40126 103.693C9.40126 102.887 9.43252 102.093 9.45886 101.303C9.51609 99.7248 9.55051 98.159 9.50907 96.5942C9.46483 95.0301 9.3528 93.4691 9.16669 91.9156C9.11647 91.5279 9.05397 91.1413 8.98935 90.7557C8.91526 90.3712 8.85029 89.9859 8.80078 89.5975C8.74565 89.2102 8.7014 88.8207 8.68806 88.4246C8.67155 88.0289 8.67577 87.6282 8.75197 87.21L8.75267 87.2061C8.77163 87.1014 8.87171 87.0323 8.97636 87.0512C9.03079 87.0611 9.07574 87.0934 9.10383 87.1362C9.33384 87.4933 9.49186 87.868 9.62917 88.2476C9.75769 88.629 9.84724 89.0188 9.93011 89.41C10.0063 89.8023 10.0579 90.1987 10.1053 90.5955C10.1454 90.9934 10.1893 91.3902 10.2377 91.7867C10.4277 93.3729 10.5422 94.969 10.5875 96.5654C10.6296 98.1618 10.5942 99.7589 10.5369 101.34C10.5106 102.13 10.48 102.917 10.48 103.692C10.4821 104.466 10.5109 105.232 10.6465 105.952C10.7174 106.31 10.8161 106.654 10.9492 106.979C11.0921 107.298 11.2607 107.601 11.4773 107.873C11.6968 108.14 11.9458 108.399 12.226 108.612C12.5055 108.828 12.8135 109.015 13.1383 109.176C14.4517 109.807 15.9989 110.032 17.4755 109.909C18.2136 109.845 18.9448 109.682 19.5849 109.387C20.2237 109.096 20.7546 108.642 20.9334 108.084C21.0254 107.812 21.0208 107.538 20.9281 107.254C20.8382 106.97 20.6553 106.687 20.4319 106.424C20.2054 106.162 19.9371 105.917 19.6464 105.695C19.5013 105.584 19.3503 105.477 19.1962 105.376C19.0452 105.278 18.8763 105.176 18.7348 105.101L18.1395 104.784L18.5718 104.271C19.1526 103.58 19.5698 102.741 19.8346 101.842C19.9719 101.394 20.072 100.93 20.1391 100.459C20.2096 99.9889 20.2532 99.5117 20.2655 99.0316C20.2939 98.0719 20.2469 97.1065 20.1907 96.138C20.1215 95.1698 20.052 94.1968 20.0839 93.1879V93.1836C20.0871 93.0811 20.1728 93.0003 20.2757 93.0038C20.3417 93.006 20.4 93.0442 20.4309 93.099Z" fill="#371A45"/>
<path d="M28.2343 87.0506L19.1908 87.5886C18.1204 87.6525 17.1916 86.8286 17.1277 85.7569L16.8418 80.9445C16.786 80.0062 17.4111 79.1782 18.2865 78.9439C18.4105 78.9099 18.5397 78.8895 18.6732 78.8814L27.7153 78.3434C28.787 78.2795 29.7158 79.1034 29.7784 80.1751L30.0059 83.9867L30.066 84.9875C30.1299 86.0589 29.3046 86.9863 28.2343 87.0506Z" fill="white"/>
<g opacity="0.35">
<path opacity="0.35" d="M28.2343 87.0506L19.1908 87.5886C18.1204 87.6525 17.1916 86.8287 17.1277 85.7569L16.8418 80.9446C16.786 80.0062 17.4111 79.1782 18.2865 78.944C18.8203 79.2544 19.1595 79.4532 19.1595 79.4532C19.8295 83.29 21.0442 85.1508 25.8457 84.944C27.9182 84.8541 29.2067 84.4604 30.0059 83.9867L30.066 84.9875C30.1299 86.0589 29.3046 86.9863 28.2343 87.0506Z" fill="#371A45"/>
</g>
<path d="M19.0742 88.0309C17.8209 88.0309 16.7656 87.0505 16.6901 85.7831L16.4039 80.9701C16.3256 79.6547 17.3321 78.5212 18.6475 78.4425L27.6903 77.9045C29.0044 77.8252 30.1393 78.8326 30.2177 80.1481L30.5038 84.9614C30.5418 85.5963 30.3286 86.2098 29.9041 86.6881C29.4792 87.1667 28.8955 87.4508 28.2606 87.4887L19.2178 88.0267C19.1697 88.0295 19.1216 88.0309 19.0742 88.0309ZM27.8329 78.7782C27.803 78.7782 27.7725 78.7793 27.7423 78.781L18.6995 79.319C17.8672 79.3685 17.2306 80.0859 17.2801 80.9178L17.5663 85.7308C17.6162 86.563 18.3357 87.2011 19.1655 87.1502L28.2083 86.6122C28.6093 86.5883 28.978 86.4082 29.2474 86.1051C29.5164 85.8021 29.6516 85.4144 29.6277 85.0134L29.3415 80.2001C29.2934 79.3987 28.6258 78.7782 27.8329 78.7782Z" fill="#371A45"/>
<path d="M28.5953 86.9932C28.4794 87.0244 28.3596 87.0434 28.2343 87.0504L19.1908 87.5884C18.4063 87.6348 17.6983 87.2057 17.351 86.5493C17.2243 86.3109 17.1452 86.0426 17.1291 85.7568L17.0009 83.6189L16.9588 82.9134L16.8415 80.9445C16.7776 79.8727 17.6028 78.9453 18.6732 78.8814L20.6274 78.7655C19.7368 78.9888 19.0981 79.8236 19.1539 80.7713L19.3077 83.371L19.4397 85.585C19.5037 86.6554 20.4325 87.4806 21.5028 87.4167L28.5953 86.9932Z" fill="white"/>
<g opacity="0.35">
<path opacity="0.35" d="M28.5951 86.9933C28.4792 87.0245 28.3595 87.0435 28.2341 87.0505L19.1906 87.5885C18.1203 87.6524 17.1914 86.8286 17.1289 85.7568L16.9586 82.9135C17.216 83.4023 17.6613 83.9947 18.319 84.0207C18.68 84.0358 19.0175 83.7566 19.3075 83.371L19.4396 85.5851C19.5035 86.6555 20.4323 87.4807 21.5027 87.4168L28.5951 86.9933Z" fill="#371A45"/>
</g>
<path d="M19.0721 88.0309C18.4895 88.0309 17.9329 87.8192 17.4908 87.4269C17.0122 87.002 16.7277 86.418 16.6905 85.7831L16.4043 80.9701C16.366 80.3352 16.5792 79.7221 17.0041 79.2434C17.4286 78.7651 18.0126 78.4807 18.6475 78.4424L20.601 78.3265L20.7341 79.1904C20.0293 79.3677 19.5493 80.022 19.5925 80.7457L19.8787 85.5588C19.9022 85.9598 20.0824 86.3289 20.3858 86.5982C20.6888 86.8672 21.0737 87.0038 21.4765 86.9782L28.5696 86.5554L28.7073 87.4182C28.5605 87.4568 28.4091 87.4803 28.2581 87.4884L19.2171 88.0264C19.1686 88.0295 19.1202 88.0309 19.0721 88.0309ZM19.1405 79.2926L18.6998 79.3186C18.2988 79.3428 17.9297 79.523 17.6608 79.826C17.3914 80.1291 17.2566 80.5167 17.2804 80.9174L17.567 85.7312C17.5905 86.1319 17.7707 86.5009 18.0737 86.7703C18.3768 87.0393 18.7627 87.1755 19.1644 87.1502L19.6631 87.1207C19.2687 86.7109 19.0359 86.1814 19.0022 85.6107L18.716 80.798C18.6833 80.2464 18.8421 79.7207 19.1405 79.2926Z" fill="#371A45"/>
<path d="M22.8655 83.0051C22.875 83.1832 22.7019 84.6338 22.7019 84.6338C22.7019 84.6338 22.2468 84.6584 21.6877 84.6883C20.9892 84.7258 20.3842 84.033 20.3364 83.141C20.2883 82.2491 20.8158 81.4955 21.5142 81.4579C21.9855 81.4326 22.5284 81.4034 22.5284 81.4034C22.5284 81.4034 22.8501 82.7151 22.8655 83.0051Z" fill="#22A7F0"/>
<g opacity="0.35">
<path opacity="0.35" d="M22.8655 83.0051C22.875 83.1832 22.7019 84.6338 22.7019 84.6338C22.7019 84.6338 22.2468 84.6584 21.6877 84.6883C20.9892 84.7258 20.3842 84.033 20.3364 83.141C20.2883 82.2491 20.8158 81.4955 21.5142 81.4579C21.9855 81.4326 22.5284 81.4034 22.5284 81.4034C22.5284 81.4034 22.8501 82.7151 22.8655 83.0051Z" fill="#371A45"/>
</g>
<path d="M21.6318 85.0408C21.2111 85.0408 20.8129 84.8484 20.5036 84.4941C20.197 84.1429 20.013 83.6692 19.9856 83.1597C19.9582 82.6505 20.0902 82.1595 20.3575 81.7775C20.643 81.3691 21.0471 81.131 21.4952 81.1071L22.8001 81.0372L22.8693 81.3199C22.9244 81.5443 23.1994 82.6789 23.2159 82.9862C23.2261 83.1744 23.1035 84.23 23.0505 84.6753L23.0154 84.9685L21.7063 85.0387C21.6817 85.0401 21.6567 85.0408 21.6318 85.0408ZM22.2555 81.7698L21.5331 81.8084C21.3056 81.8207 21.0924 81.9527 20.9334 82.1803C20.7557 82.4342 20.6682 82.7688 20.6872 83.1221C20.7062 83.4757 20.8287 83.7988 21.0327 84.0323C21.2153 84.2416 21.4422 84.3494 21.669 84.3378L22.3879 84.2992C22.456 83.7085 22.5164 83.127 22.515 83.0224C22.5058 82.8707 22.3742 82.2716 22.2555 81.7698Z" fill="#371A45"/>
<path d="M22.708 84.6356C23.4063 84.5981 23.9336 83.8445 23.8856 82.9525C23.8376 82.0604 23.2326 81.3677 22.5343 81.4053C21.8359 81.4428 21.3087 82.1964 21.3566 83.0885C21.4046 83.9805 22.0096 84.6732 22.708 84.6356Z" fill="#22A7F0"/>
<path d="M22.6481 84.9864C21.7885 84.9864 21.0563 84.1601 20.9998 83.1056C20.9724 82.5961 21.1044 82.1052 21.3716 81.7235C21.6575 81.3151 22.0613 81.077 22.5094 81.0531C22.9596 81.0292 23.3845 81.2224 23.7125 81.5978C24.0191 81.9489 24.2031 82.4226 24.2305 82.9321C24.2578 83.4413 24.1258 83.9322 23.8586 84.3143C23.5731 84.7227 23.1689 84.9607 22.7208 84.9846C22.6962 84.9857 22.672 84.9864 22.6481 84.9864ZM22.5818 81.7533C22.5702 81.7533 22.5586 81.7537 22.547 81.7544C22.3194 81.7667 22.1063 81.8987 21.9468 82.1262C21.7692 82.3801 21.6817 82.7148 21.7007 83.068C21.7372 83.7535 22.1818 84.3097 22.6825 84.2834C22.9101 84.2711 23.1232 84.139 23.2823 83.9115C23.46 83.6576 23.5474 83.323 23.5285 82.9697C23.5095 82.6165 23.387 82.293 23.1829 82.0599C23.0098 81.8611 22.7974 81.7533 22.5818 81.7533Z" fill="#371A45"/>
<path d="M25.4206 87.534C25.2324 87.534 25.0768 87.3848 25.0698 87.1955L24.9501 83.8532C24.9458 83.7356 25.001 83.6235 25.0968 83.5551L26.4302 82.6017L26.1967 78.4355C26.1858 78.2417 26.334 78.0763 26.5275 78.0654C26.7224 78.057 26.8871 78.2027 26.898 78.3966L27.1421 82.7555C27.1487 82.8756 27.0936 82.9908 26.9956 83.0606L25.6584 84.0168L25.7714 87.1706C25.7785 87.3644 25.6268 87.527 25.4329 87.534C25.429 87.5337 25.4248 87.534 25.4206 87.534Z" fill="#371A45"/>
<path d="M16.4943 102.004C13.4213 102.004 10.3272 100.944 10.1309 100.876C9.90194 100.797 9.78114 100.546 9.86085 100.318C9.94021 100.089 10.1899 99.9674 10.4195 100.047C10.4884 100.071 17.3494 102.419 20.3887 100.112C20.5822 99.9656 20.8575 100.004 21.0035 100.196C21.15 100.39 21.1124 100.665 20.9193 100.811C19.739 101.708 18.1195 102.004 16.4943 102.004Z" fill="#371A45"/>
<path d="M7.92625 79.9658C7.92625 79.9658 6.96406 80.5266 6.93526 81.5583C6.9019 82.7512 7.77068 83.3363 7.77068 83.3363C7.77068 83.3363 10.7194 85.4197 17.6068 85.0261C17.6068 85.0261 19.363 83.2713 17.3631 81.9387C17.3634 81.939 11.0636 82.9188 7.92625 79.9658Z" fill="white"/>
<g opacity="0.35">
<path opacity="0.35" d="M8.6592 82.6206C8.65253 82.7294 8.64972 82.8397 8.64691 82.95C8.6441 83.0304 8.64269 83.1108 8.64129 83.1922C8.63707 83.391 8.63707 83.5926 8.64129 83.797C8.05168 83.5343 7.7711 83.3366 7.7711 83.3366C7.7711 83.3366 6.90232 82.7508 6.93498 81.5579C6.93638 81.5116 6.93919 81.4666 6.94446 81.4231C7.18431 81.829 7.48245 82.0306 7.48245 82.0306C7.48245 82.0306 7.85995 82.2978 8.6592 82.6206Z" fill="#371A45"/>
</g>
<path d="M15.9047 85.6153C10.1333 85.6156 7.57505 83.8587 7.45952 83.7769C7.42405 83.753 6.35476 83.0163 6.39619 81.5435C6.43307 80.227 7.6049 79.5293 7.65476 79.5001L8.00277 79.2975L8.29599 79.5735C11.2015 82.3084 17.2205 81.4154 17.2809 81.4062L17.4881 81.3743L17.6626 81.4905C18.3821 81.9702 18.7818 82.5619 18.8495 83.2495C18.9651 84.4178 18.0285 85.3684 17.9885 85.4081L17.8431 85.5535L17.638 85.565C17.0309 85.5995 16.4525 85.6153 15.9047 85.6153ZM7.90971 80.6667C7.71236 80.8626 7.48515 81.1738 7.47427 81.5737C7.45004 82.4397 8.05123 82.8744 8.07651 82.8923C8.10777 82.9141 10.9374 84.8195 17.3508 84.5C17.5481 84.2471 17.821 83.7896 17.7757 83.351C17.7444 83.0476 17.559 82.7628 17.224 82.5022C16.0799 82.6472 10.9568 83.1315 7.90971 80.6667Z" fill="#371A45"/>
<g opacity="0.35">
<path opacity="0.35" d="M21.4616 108.206C20.6452 110.919 14.4798 111.291 11.6895 108.875C8.89914 106.457 10.3789 102.818 9.99898 95.3338C9.99336 95.2235 9.98774 95.1133 9.98072 95.0016C9.9765 94.9166 9.97089 94.8285 9.96527 94.7421C9.96105 94.6708 9.95684 94.5984 9.95122 94.5258C9.9456 94.4197 9.93717 94.3123 9.92875 94.2034C9.92172 94.0959 9.9133 93.9871 9.90346 93.8768C9.88801 93.6759 9.87151 93.4719 9.85184 93.2668C9.79882 92.685 9.73315 92.0817 9.65238 91.458C9.63693 91.3379 9.62183 91.2164 9.60497 91.0939C9.55616 90.7269 9.50033 90.3526 9.44028 89.9715C9.42061 89.8444 9.4013 89.7163 9.37883 89.5863C9.36899 89.5221 9.35775 89.4578 9.34687 89.3921C9.34687 89.3907 9.34547 89.3907 9.34547 89.3893C8.80819 88.0033 8.54692 86.5698 8.43104 85.2997C8.4184 85.1782 8.40856 85.0581 8.40049 84.9394C8.36713 84.4759 8.34746 84.025 8.34325 83.5853C8.33903 83.376 8.33903 83.1692 8.34325 82.9655C8.34465 82.8819 8.34606 82.7994 8.34887 82.7172C8.35168 82.6042 8.35448 82.4911 8.36151 82.3794C9.7349 82.9378 12.3272 83.6608 16.354 83.5449C16.5492 83.5393 16.7378 83.5003 16.9137 83.4319C17.4092 83.2419 17.7986 82.8247 17.923 82.2874C17.9244 82.2804 17.9258 82.2734 17.9272 82.2664C18.8693 83.5102 17.5335 84.846 17.5335 84.846C17.3534 84.8558 17.1746 84.8657 17.0005 84.8713L17.0436 85.5943C17.0605 85.8875 17.1413 86.1625 17.2712 86.4065C17.0647 86.5 16.8372 86.5544 16.5998 86.5614C15.7331 86.5853 14.9346 86.5698 14.2003 86.5252C14.5855 88.1192 14.989 89.5459 15.2485 90.5046C15.4006 91.0658 18.8974 90.0028 18.9182 90.1829C19.0045 90.9271 17.5089 93.2258 14.9398 93.8796C13.9095 94.1419 12.6267 94.1398 11.7446 94.0591C11.7249 99.613 10.8042 104.517 13.2037 106.597C15.3057 108.418 19.3287 108.656 21.5297 107.499C21.5536 107.727 21.5343 107.963 21.4616 108.206Z" fill="#371A45"/>
</g>
<g opacity="0.35">
<path opacity="0.35" d="M13.7209 83.6866C12.0718 83.5721 10.164 83.1949 8.68103 82.1994C8.89208 78.8276 9.86865 76.1834 10.5699 73.6543C12.095 71.428 13.5576 77.8812 13.5576 77.8812C13.1421 79.3003 13.3258 81.4764 13.7209 83.6866Z" fill="#371A45"/>
</g>
<path d="M17.3666 90.9117C14.9092 91.6031 12.4313 91.7488 10.4279 91.1192C8.2156 90.4235 6.58443 88.7829 6.19885 85.8914C5.60152 81.4116 8.11867 76.0978 10.0704 72.7681C10.468 72.09 10.843 71.4927 11.1622 71.0035C11.7701 70.0733 12.1799 69.5272 12.1799 69.5272L13.0992 75.1111L13.5561 77.8828C13.0817 79.5097 12.634 81.6978 13.7679 82.9662C14.3354 83.6011 16.9291 82.4054 18.319 83.2682C21.2031 85.0557 21.5065 89.7469 17.3666 90.9117Z" fill="white"/>
<g opacity="0.35">
<path opacity="0.35" d="M20.4778 87.28C20.4132 88.837 19.4559 90.3239 17.3665 90.9117C12.1939 92.3677 6.93248 91.4013 6.19925 85.8915C5.67497 81.9633 7.54595 77.3957 9.3295 74.085C8.08253 76.9427 7.13756 80.2335 7.5284 83.1668C8.26303 88.6762 13.5231 89.643 18.6957 88.187C19.4236 87.9823 20.0153 87.6684 20.4778 87.28Z" fill="#371A45"/>
</g>
<path d="M12.3205 69.6324C11.9103 70.6526 11.3906 71.5853 10.8614 72.5113C10.3413 73.4426 9.80651 74.3633 9.30785 75.3041C8.81658 76.248 8.37482 77.2168 7.99521 78.2064C7.6149 79.1949 7.28481 80.2017 7.04777 81.225C6.81039 82.2472 6.65904 83.2856 6.64148 84.3184C6.62181 85.3498 6.74191 86.3818 7.08008 87.318C7.41193 88.256 7.98467 89.0854 8.76215 89.681C9.53611 90.2818 10.4902 90.652 11.4872 90.836C12.4866 91.0235 13.5313 91.0246 14.5641 90.9203C15.0813 90.8683 15.5975 90.7847 16.1092 90.6758C16.3655 90.6242 16.6198 90.5614 16.8737 90.4964L17.2512 90.3942C17.3674 90.3556 17.4861 90.3222 17.6006 90.2801C18.0581 90.1122 18.4799 89.8766 18.8366 89.5739C19.1955 89.2733 19.4733 88.8937 19.6675 88.4758C20.0531 87.6327 20.0352 86.6161 19.6938 85.7248C19.5225 85.2785 19.2749 84.8599 18.9596 84.5C18.805 84.3173 18.6302 84.153 18.4455 84.0024C18.3513 83.929 18.2583 83.8545 18.1568 83.791C18.1097 83.7611 18.0525 83.7169 18.0139 83.6986C17.9735 83.6747 17.9317 83.6522 17.8861 83.6336C17.5272 83.4732 17.0387 83.4472 16.5397 83.4791C16.0351 83.5086 15.5161 83.5978 14.9496 83.6561C14.8081 83.6709 14.6592 83.681 14.503 83.6846C14.3467 83.6874 14.1788 83.6832 13.9815 83.6428C13.8832 83.6224 13.7729 83.5876 13.6581 83.5311C13.598 83.4956 13.5394 83.4633 13.4818 83.4145C13.453 83.3896 13.4245 83.3636 13.3975 83.3369C13.3638 83.3046 13.3645 83.2993 13.348 83.28C13.2479 83.1504 13.138 83.0261 13.06 82.8828C13.0186 82.813 12.9736 82.7441 12.9361 82.6725L12.8353 82.4534C12.7622 82.3083 12.725 82.1563 12.6695 82.0071C12.5891 81.7061 12.5249 81.4013 12.5073 81.1018C12.4602 80.5006 12.5336 79.9169 12.6759 79.3674C12.7503 79.0931 12.8409 78.8248 12.9621 78.5692C13.079 78.3121 13.2149 78.0646 13.3887 77.8317C13.4505 77.7489 13.5678 77.7317 13.651 77.7935C13.6953 77.8265 13.7209 77.8753 13.7255 77.9262L13.7258 77.9297C13.7511 78.2159 13.7409 78.4884 13.7325 78.7563C13.7223 79.0246 13.7048 79.2855 13.6844 79.5426C13.638 80.0553 13.6124 80.555 13.6296 81.0319C13.6342 81.2724 13.6686 81.5007 13.7128 81.7247C13.7743 81.9389 13.8403 82.1542 13.959 82.3312C14.0064 82.4288 14.0823 82.5036 14.1441 82.5896C14.1493 82.596 14.1669 82.6209 14.1602 82.6093C14.1578 82.6054 14.1546 82.6023 14.1507 82.6002C14.1434 82.5963 14.1465 82.5938 14.1427 82.5952C14.15 82.5967 14.1676 82.6058 14.2017 82.6125C14.2687 82.6269 14.3727 82.6346 14.4857 82.6311C14.5995 82.6283 14.7203 82.6209 14.8471 82.6075C15.3545 82.5563 15.9016 82.4622 16.4758 82.4274C16.7637 82.4102 17.0598 82.4046 17.3684 82.4355C17.6757 82.4674 17.9974 82.5282 18.3134 82.6701C18.3924 82.7034 18.47 82.7438 18.5462 82.7887C18.6274 82.833 18.6769 82.873 18.7436 82.9155C18.8711 82.9963 18.9894 83.0897 19.1081 83.1827C19.3416 83.3727 19.5611 83.5806 19.756 83.8099C20.1521 84.2633 20.4629 84.7869 20.6785 85.3487C20.892 85.9102 21.0114 86.5128 21.0075 87.1217C21.0125 87.4262 20.9707 87.7314 20.9138 88.0323C20.8492 88.3325 20.7536 88.6268 20.6283 88.9095C20.3705 89.4703 19.9913 89.9809 19.5225 90.3742C19.0558 90.771 18.5188 91.066 17.9633 91.2697C17.8242 91.3209 17.6831 91.3613 17.543 91.407C17.4057 91.447 17.2736 91.4797 17.1388 91.5165C16.8698 91.5854 16.5994 91.6517 16.3265 91.7069C15.7819 91.8227 15.2306 91.9123 14.6733 91.9681C13.5608 92.0801 12.4227 92.0819 11.2961 91.8719C10.1752 91.6651 9.05467 91.2409 8.11741 90.5136C7.65002 90.1526 7.23459 89.7193 6.89396 89.2361C6.55228 88.7532 6.28645 88.223 6.0898 87.6755C5.69439 86.5764 5.56868 85.4256 5.58869 84.3023C5.60801 83.175 5.77235 82.065 6.02273 80.9848C6.52735 78.8206 7.3884 76.7863 8.33619 74.8142C8.81166 73.8278 9.32717 72.8596 9.9259 71.9438C10.5183 71.0248 11.1757 70.1444 12.0399 69.421C12.1165 69.3571 12.2299 69.3673 12.2938 69.4435C12.338 69.4962 12.3468 69.5668 12.3229 69.6265L12.3205 69.6324Z" fill="#371A45"/>
<g opacity="0.35">
<path opacity="0.35" d="M28.0014 75.4602C27.8627 75.5328 27.7222 75.6045 27.5807 75.6744C26.8394 76.0371 26.083 76.3349 25.3174 76.5681C24.6583 76.7704 23.9911 76.9252 23.3235 77.0344C22.5162 77.1665 21.7071 77.2325 20.9022 77.2339C20.6083 77.2339 20.3158 77.2258 20.0247 77.2097C17.5806 77.071 15.2014 76.3483 13.0997 75.1107C12.2341 74.6012 11.4159 74.0039 10.6598 73.3247C10.4589 73.1453 10.2623 72.9595 10.0706 72.7681C10.4681 72.09 10.8431 71.4927 11.1623 71.0035C11.1908 70.8188 11.215 70.6341 11.235 70.448C11.2512 70.2998 11.2659 70.1502 11.2768 69.9992C11.3941 68.453 22.335 69.3534 26.1894 71.3729H26.1908C26.9686 71.7814 27.4553 72.2329 27.509 72.7211C27.5803 73.3883 27.6885 74.0383 27.823 74.6718C27.8788 74.9373 27.9382 75.1999 28.0014 75.4602Z" fill="#371A45"/>
</g>
<path d="M34.6488 65.8435C33.5497 68.1486 31.8704 70.1885 29.6932 71.7252C29.2489 72.0384 28.7861 72.3306 28.3026 72.5992C28.0676 72.7309 27.8264 72.8563 27.5809 72.9778C26.8393 73.3409 26.0828 73.6376 25.317 73.8711C24.6575 74.0737 23.9906 74.2282 23.3227 74.3378C22.5164 74.4706 21.7066 74.5355 20.9018 74.5376C20.6082 74.5373 20.3157 74.5292 20.0239 74.5134C14.6855 74.2131 9.66136 71.1166 7.14456 65.972C3.43522 58.3943 6.57252 49.2454 14.1489 45.5361C15.6087 44.8229 17.1275 44.3604 18.654 44.1388C18.832 44.1111 19.0118 44.0886 19.1916 44.07C19.6723 44.0166 20.1527 43.9864 20.6317 43.9794C21.7396 43.9632 22.8405 44.0693 23.9134 44.2891C24.9862 44.5079 26.0337 44.8418 27.0338 45.2833C27.352 45.4234 27.6652 45.574 27.9742 45.7363C28.4367 45.98 28.8876 46.2458 29.3258 46.538C31.5101 47.9862 33.3498 50.0173 34.5849 52.5418C36.7189 56.9011 36.5869 61.7792 34.6488 65.8435Z" fill="white"/>
<path d="M20.9026 74.5921C20.6098 74.5918 20.3134 74.5837 20.0216 74.5679C14.4834 74.2564 9.5309 70.972 7.09698 65.9967C3.38096 58.4052 6.53406 49.2055 14.1259 45.4888C15.5667 44.7847 17.0876 44.3131 18.6468 44.0866C18.8157 44.0602 18.9976 44.037 19.1865 44.0174C19.6651 43.9644 20.1519 43.9334 20.6315 43.9264C21.7367 43.911 22.8407 44.0149 23.9248 44.2372C24.9993 44.4563 26.0528 44.792 27.0561 45.2349C27.3778 45.3767 27.6952 45.5295 27.9997 45.6896C28.473 45.9389 28.9292 46.2093 29.3559 46.4941C31.6121 47.9901 33.4371 50.0735 34.6335 52.519C36.7033 56.7467 36.7265 61.6121 34.6978 65.8675C33.5727 68.2266 31.853 70.2675 29.7246 71.7698C29.2737 72.088 28.8042 72.3829 28.3291 72.647C28.1117 72.7689 27.8747 72.8928 27.605 73.027C26.871 73.3862 26.1065 73.6879 25.3329 73.9235C24.685 74.1226 24.0119 74.2803 23.3316 74.392C22.5366 74.5226 21.7195 74.5904 20.9026 74.5921ZM20.8524 44.0325C20.7794 44.0325 20.7063 44.0328 20.6333 44.0342C20.1568 44.0413 19.6739 44.0718 19.1981 44.1248C19.0102 44.1445 18.8304 44.1673 18.6626 44.1933C17.1139 44.4181 15.6039 44.8869 14.1729 45.5857C6.63449 49.276 3.50352 58.4112 7.19355 65.9493C9.61061 70.8898 14.5283 74.1511 20.0275 74.4604C20.3173 74.4762 20.6119 74.4843 20.9023 74.4843C21.7131 74.4822 22.5247 74.4155 23.3144 74.2852C23.9897 74.1746 24.6583 74.018 25.3017 73.8203C26.07 73.586 26.8292 73.2865 27.5576 72.9301C27.8255 72.7973 28.0608 72.6737 28.2767 72.5529C28.7484 72.2906 29.2147 71.9974 29.6628 71.6817C31.7764 70.1899 33.4838 68.1634 34.6009 65.8211L34.6497 65.8443L34.6009 65.8211C36.6155 61.5956 36.5923 56.7646 34.5373 52.5668C33.3493 50.1385 31.5373 48.0694 29.2965 46.584C28.8727 46.3013 28.4197 46.0327 27.9502 45.7851C27.6478 45.6264 27.3325 45.4744 27.0133 45.3335C26.017 44.8939 24.9709 44.5606 23.904 44.3429C22.8983 44.1368 21.8729 44.0325 20.8524 44.0325Z" fill="#371A45"/>
<g opacity="0.35">
<path opacity="0.35" d="M34.6488 65.8435C33.5497 68.1486 31.8704 70.1885 29.6932 71.7252C29.249 72.0384 28.7861 72.3306 28.3026 72.5992C28.0677 72.7309 27.8264 72.8563 27.5809 72.9778C26.8393 73.3409 26.0829 73.6376 25.317 73.8711C24.6575 74.0737 23.9906 74.2283 23.3227 74.3378C22.5165 74.4706 21.7067 74.5355 20.9018 74.5376C20.6082 74.5373 20.3157 74.5292 20.0239 74.5134C14.6855 74.2132 9.66139 71.1166 7.1446 65.9721C5.80034 63.2256 5.35542 60.2716 5.69534 57.4462C5.95204 58.625 6.35307 59.793 6.90721 60.9255C7.85114 62.8548 9.38046 63.5613 10.9136 64.875C13.4691 67.0645 16.4497 69.279 19.7865 69.4668C20.0783 69.4826 20.3708 69.4907 20.6644 69.4911C21.4693 69.489 22.2787 69.424 23.0853 69.2912C23.7533 69.1817 24.4201 69.0272 25.0796 68.8246C25.8455 68.591 26.6019 68.2943 27.3436 67.9312C27.589 67.8093 27.8306 67.684 28.0652 67.5523C28.5488 67.2836 29.0116 66.9911 29.4558 66.6782C31.633 65.1415 33.3123 63.1016 34.4114 60.7966C35.1278 59.2929 35.598 57.6776 35.7968 56.0187C36.5293 59.3797 36.084 62.8344 34.6488 65.8435Z" fill="#371A45"/>
</g>
<path d="M20.903 74.9041C20.6035 74.9038 20.3019 74.8957 20.0044 74.8796C14.3528 74.5618 9.2999 71.2106 6.81613 66.1338C3.02462 58.3879 6.24197 49.0006 13.9879 45.2084C15.4583 44.4899 17.01 44.0084 18.6012 43.7774C18.7725 43.751 18.9594 43.7268 19.1535 43.7068C19.6399 43.6527 20.1365 43.6215 20.6263 43.6141C21.7479 43.5976 22.8804 43.7043 23.987 43.9312C25.0829 44.1545 26.1579 44.4973 27.1815 44.9489C27.5095 45.0935 27.8333 45.2495 28.1444 45.4131C28.6272 45.6673 29.0929 45.9437 29.5287 46.2341C31.8305 47.7603 33.6928 49.8862 34.9134 52.3816C37.0253 56.6953 37.0492 61.6593 34.9791 66.0014C33.8311 68.4087 32.0764 70.4914 29.9041 72.0246C29.4437 72.3491 28.9651 72.65 28.4804 72.9197C28.2592 73.0437 28.0176 73.1701 27.7434 73.3063C26.9929 73.6737 26.213 73.9813 25.4236 74.2218C24.763 74.4248 24.0758 74.5856 23.3823 74.6998C22.5707 74.8332 21.7367 74.902 20.903 74.9041ZM20.8521 44.3442C20.7805 44.3442 20.7092 44.3449 20.6379 44.3459C20.1712 44.3529 19.6986 44.3828 19.2329 44.4344C19.0482 44.4537 18.8733 44.4758 18.7107 44.5011C17.1912 44.7217 15.7118 45.1806 14.3103 45.8657C6.92674 49.4803 3.86003 58.4283 7.47421 65.8118C9.84175 70.6512 14.6587 73.8454 20.0452 74.1484C20.3289 74.1639 20.6175 74.1716 20.9027 74.172C21.6956 74.1699 22.4903 74.1045 23.2636 73.9771C23.9252 73.8686 24.5797 73.7151 25.2097 73.5216C25.963 73.292 26.7064 72.9987 27.4203 72.6493C27.6819 72.5194 27.9126 72.3982 28.124 72.2799C28.5868 72.0225 29.0437 71.7353 29.4827 71.4259C31.5524 69.965 33.2247 67.9803 34.3185 65.6861C36.2921 61.5469 36.2696 56.815 34.2564 52.7032C33.0926 50.3245 31.3178 48.2983 29.1234 46.8434C28.708 46.5663 28.2645 46.3029 27.8041 46.0606C27.5084 45.9051 27.1994 45.7565 26.8865 45.6185C25.9106 45.1876 24.8859 44.8614 23.8405 44.6483C22.8562 44.4463 21.8519 44.3442 20.8521 44.3442ZM34.649 65.8438H34.6507H34.649Z" fill="#371A45"/>
<path d="M20.9036 75.0773C20.6006 75.077 20.2958 75.0685 19.9952 75.0524C14.2811 74.7311 9.17199 71.3427 6.66082 66.2097C2.82718 58.3781 6.08035 48.8868 13.9123 45.0525C15.3988 44.3263 16.9681 43.8396 18.5768 43.6057C18.7492 43.579 18.9392 43.5548 19.1362 43.5341C19.6268 43.4796 20.1286 43.448 20.6241 43.4403C21.7612 43.4234 22.9035 43.5316 24.0223 43.7609C25.1302 43.9867 26.2171 44.333 27.2519 44.7898C27.5834 44.9359 27.9111 45.0939 28.2254 45.259C28.7138 45.516 29.1844 45.7956 29.6251 46.0895C31.9519 47.6325 33.8352 49.782 35.0695 52.3051C37.2046 56.6665 37.2288 61.6857 35.1355 66.0756C33.975 68.5095 32.2005 70.6154 30.004 72.1658C29.5387 72.4938 29.0545 72.7983 28.5646 73.0708C28.3412 73.1958 28.0972 73.3236 27.8201 73.4613C27.0606 73.8328 26.2722 74.1443 25.4737 74.3873C24.8061 74.5927 24.1111 74.7553 23.4095 74.8705C22.5896 75.0057 21.7461 75.0752 20.9036 75.0773ZM20.852 44.5177C20.7811 44.5177 20.7108 44.518 20.6399 44.5191C20.1792 44.5261 19.7114 44.5556 19.2511 44.6065C19.0681 44.6255 18.896 44.6476 18.7366 44.6722C17.2333 44.8906 15.771 45.3443 14.3857 46.0214C7.08784 49.5941 4.05695 58.4378 7.62898 65.7357C9.96913 70.5189 14.7298 73.6762 20.0542 73.9754C20.3344 73.9905 20.6199 73.9982 20.9022 73.9985C21.6853 73.9968 22.4709 73.9318 23.235 73.8061C23.8889 73.6986 24.5361 73.5473 25.1583 73.3559C25.9035 73.1291 26.6381 72.839 27.3436 72.4938C27.6017 72.3656 27.8303 72.2459 28.0389 72.1289C28.4968 71.8743 28.9481 71.5903 29.3821 71.2844C31.4276 69.8408 33.0802 67.8792 34.1614 65.6114C36.1121 61.5203 36.0897 56.8432 34.1003 52.7791C32.9503 50.4281 31.1958 48.4254 29.0274 46.9874C28.6166 46.7131 28.178 46.4533 27.7229 46.2134C27.4307 46.06 27.1255 45.9128 26.8162 45.7766C25.8512 45.3506 24.8384 45.0283 23.8056 44.8176C22.8326 44.6185 21.8402 44.5177 20.852 44.5177ZM34.6488 65.8438H34.6506H34.6488Z" fill="#371A45"/>
<path d="M32.5251 69.1321C23.9093 75.838 11.5224 72.0113 10.3253 61.2647C9.51093 53.9531 16.0412 47.5107 23.1136 47.1785C28.2609 46.9365 33.3921 48.9522 35.9518 56.8383C35.9518 56.8383 36.5456 60.5044 35.6726 63.0103C34.7996 65.5166 33.5277 67.8065 33.5277 67.8065L32.5251 69.1321Z" fill="#371A45"/>
<g opacity="0.4">
<path opacity="0.4" d="M35.8577 62.3787C35.8065 62.595 35.7447 62.8071 35.6734 63.0104C34.8004 65.5163 33.5278 67.8076 33.5278 67.8076L32.5249 69.1326C23.9101 75.8384 11.5229 72.0114 10.3258 61.2651C10.2482 60.5716 10.238 59.8851 10.2868 59.2112C14.6686 67.762 26.5583 69.9501 35.2446 63.1895L35.8577 62.3787Z" fill="#111A28"/>
</g>
<path d="M23.0788 74.4655C19.6033 74.4655 16.2571 73.3734 13.6444 71.3419C10.5967 68.9719 8.74536 65.566 8.29131 61.4914C7.87343 57.7413 9.09969 53.9698 11.7439 50.8708C14.6203 47.5 18.8585 45.3691 23.0809 45.1707C25.4505 45.0587 27.6063 45.3821 29.4878 46.1301L29.5303 46.1469L29.5682 46.1722C31.8817 47.7061 33.7527 49.8419 34.9793 52.3492C37.101 56.6829 37.1249 61.6701 35.045 66.0327C33.8918 68.4511 32.1286 70.5437 29.9461 72.0839C29.484 72.4098 29.0025 72.7125 28.5158 72.9832C28.2939 73.1076 28.0512 73.235 27.7759 73.3716C27.0216 73.7407 26.2382 74.0501 25.4449 74.2917L25.3775 74.3064C24.6095 74.4132 23.8408 74.4655 23.0788 74.4655ZM23.9841 46.0275C23.7003 46.0275 23.4134 46.0345 23.1223 46.0479C19.1377 46.2351 15.1341 48.2511 12.4118 51.4411C9.92667 54.3533 8.77346 57.8881 9.16395 61.3945C9.59132 65.2278 11.3271 68.4279 14.1835 70.6491C17.1743 72.9748 21.1965 73.9921 25.2223 73.4419C25.9597 73.215 26.6884 72.9267 27.3879 72.5843C27.6481 72.4551 27.8781 72.3346 28.0881 72.217C28.5488 71.9607 29.0036 71.6752 29.4404 71.3672C31.5 69.9137 33.1642 67.9384 34.2528 65.6555C36.2165 61.5367 36.194 56.8276 34.191 52.7358C33.0398 50.3827 31.2872 48.3758 29.1212 46.93C27.5961 46.3302 25.8716 46.0275 23.9841 46.0275ZM34.6489 65.8437H34.6506H34.6489Z" fill="#371A45"/>
<path d="M23.0624 73.0036C21.17 73.0036 19.2944 72.6412 17.5386 71.9006C13.1564 70.0517 10.332 66.197 9.78943 61.3242C9.41333 57.9468 10.5163 54.551 12.8958 51.7628C15.4811 48.7333 19.2912 46.818 23.088 46.6397C29.7018 46.3289 34.2031 49.7043 36.4642 56.6717L36.4835 56.7521C36.5088 56.9073 37.0889 60.5829 36.1815 63.1879C35.3036 65.7089 34.0517 67.9732 33.999 68.0683L33.9576 68.1319L32.9118 69.5141L32.856 69.5576C29.9449 71.8237 26.4768 73.0036 23.0624 73.0036ZM23.8904 47.6988C23.6432 47.6988 23.3932 47.7047 23.1389 47.7167C19.6343 47.8814 16.1118 49.6554 13.7161 52.4626C11.5323 55.0219 10.5184 58.1266 10.8612 61.2049C11.3595 65.678 13.9462 69.2142 17.9579 70.9068C22.5016 72.8238 27.9288 71.9961 32.1382 68.7496L33.0741 67.5124C33.2293 67.2277 34.372 65.1056 35.1632 62.8328C35.9354 60.6163 35.4838 57.3561 35.4251 56.9632C33.4165 50.8125 29.5375 47.6988 23.8904 47.6988ZM32.5252 69.132H32.527H32.5252Z" fill="#371A45"/>
<path d="M11.4699 61.3892C11.4699 61.4109 11.4699 61.4341 11.4685 61.4559C11.414 64.4369 9.62203 66.7436 7.44446 66.6211C5.25074 66.4985 3.49668 63.9547 3.52512 60.9411C3.5483 58.6164 4.62672 56.6896 6.1276 55.9898C6.57007 55.7815 7.05081 55.6807 7.55052 55.7092C9.74459 55.8332 11.4997 58.3769 11.4699 61.3892Z" fill="white"/>
<g opacity="0.35">
<path opacity="0.35" d="M11.4685 61.4559C11.4141 64.4369 9.62209 66.7437 7.4445 66.6212C5.25076 66.4986 3.49668 63.9548 3.52512 60.9411C3.53004 60.4365 3.58482 59.9505 3.68315 59.4915C4.10033 57.5404 6.75797 57.2163 7.66995 58.9907L8.65111 60.9C8.65111 60.9 9.20666 62.18 10.4582 62.18C10.8828 62.1804 11.2153 61.8685 11.4685 61.4559Z" fill="#371A45"/>
</g>
<path d="M7.61413 67.1656C7.54776 67.1656 7.48139 67.1639 7.41467 67.16C4.94105 67.0206 2.95451 64.2288 2.98646 60.9367C3.00508 59.0271 3.67861 57.3113 4.8343 56.2293C5.63355 55.481 6.58486 55.1148 7.58112 55.1716C10.0547 55.3111 12.0413 58.1032 12.0093 61.395C11.9907 63.3049 11.3172 65.0207 10.1611 66.1027C9.41597 66.8004 8.5391 67.1656 7.61413 67.1656ZM7.38587 56.2444C6.73762 56.2444 6.1129 56.5096 5.5714 57.0163C4.64362 57.8847 4.08035 59.3543 4.06489 60.9469C4.03821 63.6715 5.56824 65.9755 7.47507 66.083C8.17143 66.1234 8.84567 65.8568 9.42439 65.315C10.3522 64.4466 10.9154 62.9769 10.9309 61.3844C10.9576 58.6597 9.42755 56.3558 7.52037 56.2483C7.47577 56.2459 7.43082 56.2444 7.38587 56.2444ZM3.52585 60.942H3.52761H3.52585Z" fill="#371A45"/>
<path d="M6.53786 65.8024C8.31869 65.665 9.61524 63.6465 9.43378 61.2938C9.25232 58.9411 7.66157 57.1453 5.88074 57.2827C4.0999 57.42 2.80335 59.4386 2.98481 61.7912C3.16627 64.1439 4.75702 65.9397 6.53786 65.8024Z" fill="white"/>
<path d="M6.34783 65.8682C6.00614 65.8682 5.66235 65.799 5.33015 65.6599C4.35707 65.2526 3.57187 64.309 3.17646 63.0712C2.46499 60.8452 3.24212 58.3484 4.90875 57.505C5.59563 57.1573 6.3696 57.1317 7.08844 57.4323C8.06151 57.8396 8.84672 58.7832 9.24213 60.021C9.95359 62.2467 9.17647 64.7437 7.50983 65.5872C7.14041 65.7744 6.7457 65.8682 6.34783 65.8682ZM6.0683 57.3318C5.6908 57.3318 5.31681 57.4228 4.95862 57.604C3.33869 58.4236 2.58685 60.861 3.28216 63.0371C3.66774 64.2437 4.42976 65.1623 5.37299 65.557C6.07076 65.8492 6.7924 65.8253 7.45962 65.4878C9.07954 64.6679 9.83139 62.2305 9.13608 60.0547C8.7505 58.8481 7.98847 57.9295 7.04524 57.5348C6.72252 57.3996 6.39418 57.3318 6.0683 57.3318Z" fill="#371A45"/>
<g opacity="0.35">
<path opacity="0.35" d="M9.31022 63.3042C9.51811 62.5095 9.50898 61.6551 9.32392 60.851C8.69709 62.623 7.07296 63.3327 5.55803 62.4319C4.57899 61.85 3.87139 60.7288 3.58554 59.4843C3.54516 59.5959 3.51004 59.7132 3.47844 59.8337C2.94993 61.8574 3.70283 64.4982 5.31362 65.4565C6.92441 66.4145 8.78172 65.3269 9.31022 63.3042Z" fill="#371A45"/>
</g>
<path d="M6.30671 66.387C6.25298 66.387 6.1989 66.3853 6.14482 66.3818C4.23167 66.2585 2.74519 64.0265 2.76099 61.3001C2.77047 59.7013 3.32496 58.2348 4.24466 57.378C4.83392 56.8288 5.52922 56.5622 6.25262 56.6096C8.16577 56.7325 9.65226 58.9649 9.63645 61.6913C9.62697 63.2901 9.07248 64.7566 8.15278 65.6134C7.60742 66.1216 6.97216 66.387 6.30671 66.387ZM3.63855 61.3054C3.62591 63.4921 4.79915 65.4157 6.20065 65.506C6.67718 65.5358 7.14564 65.3518 7.55404 64.9715C8.30027 64.2762 8.75011 63.0478 8.75819 61.6864C8.77083 59.4993 7.59759 57.576 6.19609 57.4858C5.71675 57.4556 5.2511 57.6399 4.8427 58.0203C4.09682 58.7156 3.64663 59.9436 3.63855 61.3054Z" fill="#371A45"/>
<g opacity="0.7">
<path opacity="0.7" d="M27.4557 50.4298C27.376 50.3171 27.8687 50.4446 27.8687 50.4446L28.2199 50.4699C28.2199 50.4699 28.8439 50.5422 29.1505 50.6002C29.4598 50.6588 29.7654 50.7318 30.066 50.8193C30.427 50.9243 30.7546 51.1255 31.0001 51.4103C32.0413 52.619 32.8289 54.0791 33.2567 55.7282C34.1145 59.0372 33.4382 61.5646 31.6666 63.9953C31.6666 63.9953 31.9984 62.2476 31.3242 58.7858C30.9474 56.8491 30.3392 54.4991 27.4557 50.4298Z" fill="white"/>
</g>
<g opacity="0.7">
<path opacity="0.7" d="M16.6091 60.3887C17.7335 60.302 18.5631 59.1696 18.462 57.8595C18.3609 56.5493 17.3675 55.5575 16.2431 55.6442C15.1187 55.731 14.2891 56.8634 14.3901 58.1735C14.4912 59.4837 15.4846 60.4754 16.6091 60.3887Z" fill="white"/>
</g>
<g opacity="0.7">
<path opacity="0.7" d="M16.5098 64.0026C16.9694 63.9277 17.2713 63.4329 17.184 62.8974C17.0968 62.3619 16.6534 61.9884 16.1938 62.0633C15.7342 62.1382 15.4323 62.633 15.5196 63.1685C15.6068 63.704 16.0502 64.0775 16.5098 64.0026Z" fill="white"/>
</g>
<g opacity="0.35">
<path opacity="0.35" d="M39.1476 71.3914C38.7887 70.9883 38.2034 70.5813 37.3083 70.5978C35.3965 70.6329 34.2872 74.7197 36.2867 77.3471C37.1443 78.4736 40.1186 77.8805 39.7783 76.0625" fill="#371A45"/>
</g>
<path d="M40.4958 70.0437C40.1369 69.6406 39.5515 69.2336 38.6563 69.2501C36.7446 69.2852 35.6352 73.372 37.6348 75.9994C38.4923 77.1259 39.6698 76.8418 40.1158 76.3067" fill="white"/>
<g opacity="0.35">
<path opacity="0.35" d="M40.1163 76.3066C39.6699 76.8418 38.4918 77.1262 37.6346 75.9994C36.2461 74.1741 36.3567 71.645 37.1953 70.2594C37.0281 71.5439 37.2922 73.0525 38.2077 74.2548C38.5069 74.6481 38.8454 74.8693 39.178 74.968C39.7641 75.1422 40.1535 75.696 40.1163 76.3066Z" fill="#371A45"/>
</g>
<path d="M40.469 70.9966L40.4444 70.9394C40.4339 70.9152 40.4219 70.8902 40.4082 70.865C40.384 70.8144 40.3534 70.7645 40.3243 70.715C40.2618 70.6177 40.1968 70.5208 40.1203 70.4358C39.9717 70.2617 39.7983 70.1177 39.6072 70.0127C39.4151 69.9102 39.2094 69.8319 38.9839 69.8097C38.9295 69.7971 38.8715 69.7971 38.8139 69.7953C38.7592 69.795 38.6928 69.7869 38.6478 69.7911C38.6054 69.7974 38.5618 69.7939 38.5204 69.808L38.4568 69.821L38.3943 69.8445C38.054 69.9614 37.7348 70.3463 37.5245 70.7852C37.3082 71.2295 37.1874 71.7422 37.1371 72.2577C37.0918 72.7749 37.1164 73.3041 37.2355 73.8094C37.3517 74.3162 37.5603 74.7902 37.811 75.2313C37.936 75.4483 38.0853 75.6758 38.2163 75.8395C38.3564 76.0094 38.5144 76.1429 38.6928 76.2387C38.8719 76.3297 39.0777 76.3866 39.3024 76.3827C39.4141 76.3803 39.5286 76.3631 39.6441 76.3339C39.7561 76.2995 39.8702 76.256 39.9781 76.1913L39.9984 76.179C40.0852 76.1271 40.1975 76.1552 40.2495 76.2419C40.2836 76.2988 40.2829 76.3666 40.2544 76.4213C39.9261 77.0432 39.1093 77.3351 38.3796 77.1381C38.0133 77.0478 37.6864 76.842 37.4318 76.5962C37.1712 76.3392 36.9928 76.0906 36.8218 75.8159C36.4903 75.266 36.2838 74.6529 36.1651 74.0349C36.0454 73.4161 36.0068 72.7854 36.0633 72.1583C36.1251 71.5325 36.2677 70.9078 36.5535 70.3157C36.6968 70.0208 36.8752 69.7328 37.1101 69.4709C37.3433 69.2103 37.6432 68.9712 38.0172 68.8335L38.1573 68.7843L38.3041 68.751C38.4013 68.7257 38.5028 68.7218 38.6033 68.7134C38.7016 68.7078 38.7788 68.7166 38.8677 68.718C38.9537 68.7211 39.0397 68.7236 39.1265 68.7404C39.4734 68.778 39.8193 68.8995 40.1305 69.0691C40.4423 69.2412 40.7162 69.4723 40.9402 69.7349C41.0551 69.8645 41.152 70.0064 41.244 70.1511C41.2879 70.2252 41.3318 70.2982 41.3701 70.3769C41.3901 70.4151 41.4094 70.4548 41.4276 70.4966L41.4554 70.5602L41.4859 70.6381C41.5948 70.9148 41.4585 71.227 41.1822 71.3359C40.9114 71.4423 40.607 71.3144 40.4918 71.0497L40.469 70.9966Z" fill="#371A45"/>
<path d="M35.438 83.8827C35.4092 83.8827 35.3797 83.8796 35.3506 83.8733C34.2234 83.6246 33.3908 83.0196 32.876 82.0746C31.4236 79.4089 33.054 74.9473 33.1242 74.7587C33.2022 74.5494 33.4347 74.4427 33.644 74.5206C33.8533 74.5982 33.96 74.8311 33.8824 75.0404C33.8666 75.0832 32.3099 79.3471 33.5871 81.6887C33.9906 82.4286 34.6244 82.8847 35.5251 83.0835C35.7432 83.1316 35.8812 83.3476 35.8327 83.5656C35.7909 83.7542 35.6238 83.8827 35.438 83.8827Z" fill="#371A45"/>
<path d="M6.59195 87.9317C6.57791 87.9317 6.56386 87.931 6.54981 87.9296C6.32752 87.9068 6.16634 87.708 6.18917 87.4857C6.19549 87.4239 6.89571 81.3575 13.0351 81.3575C13.0804 81.3575 13.125 81.3579 13.171 81.3586C13.3944 81.3618 13.5727 81.5454 13.5696 81.7688C13.5664 81.99 13.3859 82.1673 13.1654 82.1673C13.1633 82.1673 13.1615 82.1673 13.1594 82.1673C7.62648 82.0915 7.01686 87.3452 6.99368 87.5693C6.97226 87.7768 6.79668 87.9317 6.59195 87.9317Z" fill="#371A45"/>
<path d="M37.9909 69.0347L46.1629 60.1548L54.3636 51.3016L62.5906 42.4733L66.7045 38.0595C68.0762 36.5885 69.4664 35.135 70.956 33.7732C71.0386 33.6977 71.1671 33.7033 71.2426 33.7862C71.3107 33.8606 71.3128 33.9716 71.2524 34.0482C70.0072 35.6365 68.6629 37.1328 67.2997 38.6115L63.2094 43.0475L55.0283 51.9186L46.8206 60.7651L38.5841 69.5846C38.4316 69.7479 38.1756 69.7567 38.0124 69.6043C37.8498 69.4522 37.8406 69.198 37.9909 69.0347Z" fill="#371A45"/>
<path d="M16.3518 83.3705C16.1738 83.3705 16.0108 83.2522 15.9617 83.0721C15.903 82.8564 16.0302 82.6341 16.2458 82.5755L39.0015 76.384C39.2164 76.325 39.4391 76.4525 39.4981 76.6681C39.5567 76.8838 39.4296 77.106 39.214 77.1647L16.4582 83.3561C16.4228 83.366 16.3869 83.3705 16.3518 83.3705Z" fill="#371A45"/>
<path d="M15.3315 91.3082C15.4927 91.9887 15.577 92.6405 15.6258 93.3151C15.6701 93.9854 15.6679 94.6611 15.5995 95.3353C15.5342 96.0092 15.3993 96.6813 15.1847 97.3334C14.967 97.9841 14.6605 98.6134 14.258 99.1816C14.0508 99.4608 13.8331 99.7351 13.5813 99.977C13.3348 100.227 13.0911 100.435 12.8439 100.656L11.3669 101.94C10.3889 102.794 9.42811 103.661 8.53826 104.586C8.09403 105.049 7.66912 105.526 7.28144 106.026C6.89551 106.526 6.5475 107.052 6.29677 107.602C6.04534 108.148 5.90733 108.734 6.01689 109.241C6.11557 109.75 6.48113 110.175 6.96995 110.492C7.21542 110.655 7.47388 110.786 7.7685 110.917C8.05962 111.051 8.35179 111.172 8.64606 111.286C8.94069 111.396 9.23602 111.499 9.53732 111.59C9.84002 111.675 10.1455 111.754 10.457 111.821C11.0793 111.958 11.7177 112.065 12.3586 112.171L13.3218 112.331C13.6431 112.386 13.9655 112.436 14.2872 112.497L14.2896 112.497C14.363 112.511 14.4111 112.582 14.3971 112.655C14.3848 112.721 14.3272 112.766 14.2626 112.765C12.9534 112.75 11.6485 112.715 10.3281 112.524C9.66865 112.431 9.00355 112.274 8.36618 112.052C8.04908 111.939 7.7362 111.818 7.43174 111.687C7.12868 111.56 6.79543 111.411 6.49729 111.212C6.19599 111.015 5.90803 110.771 5.671 110.467C5.54914 110.318 5.45117 110.146 5.36303 109.971C5.28437 109.791 5.21554 109.603 5.18253 109.409C5.10422 109.023 5.13091 108.634 5.20149 108.273C5.27804 107.913 5.40236 107.577 5.54879 107.259C5.84482 106.623 6.23181 106.063 6.64126 105.531C7.05283 105.001 7.49565 104.504 7.95427 104.026C8.87221 103.072 9.84915 102.191 10.8345 101.331L12.3087 100.049C12.5472 99.8362 12.7996 99.6195 13.0093 99.4046C13.2288 99.195 13.417 98.9558 13.5982 98.7128C14.3033 97.719 14.6742 96.4994 14.7936 95.2552C14.8571 94.6323 14.8596 93.9998 14.8178 93.3702C14.7742 92.7451 14.6871 92.1004 14.5477 91.5122L14.5439 91.4953C14.4923 91.278 14.6267 91.0602 14.8438 91.0086C15.0618 90.9566 15.2799 91.0908 15.3315 91.3082Z" fill="#371A45"/>
<path d="M8.39303 73.2124C7.93512 73.21 7.48914 73.1798 7.04457 73.1507C6.60034 73.1222 6.16069 73.0808 5.72314 73.0587C5.28594 73.0362 4.8505 73.0228 4.4284 73.0422C4.2177 73.0492 4.01122 73.0713 3.81667 73.1022C3.62388 73.1356 3.44128 73.1865 3.31346 73.2546L3.29168 73.2662C3.12067 73.3575 2.90821 73.2925 2.81726 73.1219C2.73123 72.9607 2.78531 72.762 2.9349 72.6633C3.18915 72.4969 3.44585 72.4291 3.69061 72.3838C3.93607 72.3389 4.17591 72.3259 4.41119 72.3228C4.8821 72.3224 5.33932 72.3705 5.78986 72.4421C6.2397 72.5166 6.68392 72.6068 7.11901 72.7342C7.5527 72.8613 7.98217 73.0088 8.39303 73.2124Z" fill="#371A45"/>
<path d="M78.8518 54.9913H72.2321V83.3964H78.8518V54.9913Z" fill="#EC1C24"/>
<path d="M78.902 54.9913H78.8522V83.3964H78.902V54.9913Z" fill="#EC1C24"/>
<path d="M78.9516 54.9913H78.9017V83.3964H78.9516V54.9913Z" fill="#EC1C24"/>
<path d="M79.0014 54.9913H78.9515V83.3964H79.0014V54.9913Z" fill="#EC1C24"/>
<path d="M79.0512 54.9913H79.0013V83.3964H79.0512V54.9913Z" fill="#EC1C24"/>
<path d="M79.101 54.9913H79.0511V83.3964H79.101V54.9913Z" fill="#EC1C24"/>
<path d="M79.1506 54.9913H79.1007V83.3964H79.1506V54.9913Z" fill="#EC1C24"/>
<path d="M79.1998 54.9913H79.1499V83.3964H79.1998V54.9913Z" fill="#EC1D24"/>
<path d="M79.2501 54.9913H79.2002V83.3964H79.2501V54.9913Z" fill="#EC1D24"/>
<path d="M79.2993 54.9913H79.2494V83.3964H79.2993V54.9913Z" fill="#EC1D24"/>
<path d="M79.3493 54.9913H79.2994V83.3964H79.3493V54.9913Z" fill="#EC1D24"/>
<path d="M79.3992 54.9913H79.3494V83.3964H79.3992V54.9913Z" fill="#EC1D24"/>
<path d="M79.4484 54.9913H79.3986V83.3964H79.4484V54.9913Z" fill="#EC1E24"/>
<path d="M79.4984 54.9913H79.4485V83.3964H79.4984V54.9913Z" fill="#EC1E24"/>
<path d="M79.5479 54.9913H79.498V83.3964H79.5479V54.9913Z" fill="#EC1E24"/>
<path d="M79.598 54.9913H79.5481V83.3964H79.598V54.9913Z" fill="#EC1F24"/>
<path d="M79.6472 54.9913H79.5973V83.3964H79.6472V54.9913Z" fill="#EC1F24"/>
<path d="M79.6971 54.9913H79.6472V83.3964H79.6971V54.9913Z" fill="#EC1F24"/>
<path d="M79.7464 54.9913H79.6965V83.3964H79.7464V54.9913Z" fill="#EC2024"/>
<path d="M79.7962 54.9913H79.7463V83.3964H79.7962V54.9913Z" fill="#EC2024"/>
<path d="M79.8456 54.9913H79.7958V83.3964H79.8456V54.9913Z" fill="#EC2024"/>
<path d="M79.8956 54.9913H79.8457V83.3964H79.8956V54.9913Z" fill="#ED2124"/>
<path d="M79.9454 54.9913H79.8955V83.3964H79.9454V54.9913Z" fill="#ED2124"/>
<path d="M79.9952 54.9913H79.9453V83.3964H79.9952V54.9913Z" fill="#ED2124"/>
<path d="M80.0447 54.9913H79.9949V83.3964H80.0447V54.9913Z" fill="#ED2224"/>
<path d="M80.0945 54.9913H80.0447V83.3964H80.0945V54.9913Z" fill="#ED2224"/>
<path d="M80.1442 54.9913H80.0944V83.3964H80.1442V54.9913Z" fill="#ED2324"/>
<path d="M80.194 54.9913H80.1442V83.3964H80.194V54.9913Z" fill="#ED2324"/>
<path d="M80.2441 54.9913H80.1942V83.3964H80.2441V54.9913Z" fill="#ED2424"/>
<path d="M80.2934 54.9913H80.2435V83.3964H80.2934V54.9913Z" fill="#ED2424"/>
<path d="M80.3432 54.9913H80.2933V83.3964H80.3432V54.9913Z" fill="#ED2524"/>
<path d="M80.3931 54.9913H80.3433V83.3964H80.3931V54.9913Z" fill="#ED2524"/>
<path d="M80.4426 54.9913H80.3927V83.3964H80.4426V54.9913Z" fill="#ED2624"/>
<path d="M80.4927 54.9913H80.4429V83.3964H80.4927V54.9913Z" fill="#ED2624"/>
<path d="M80.5423 54.9913H80.4924V83.3964H80.5423V54.9913Z" fill="#ED2724"/>
<path d="M80.5919 54.9913H80.542V83.3964H80.5919V54.9913Z" fill="#ED2724"/>
<path d="M80.6419 54.9913H80.592V83.3964H80.6419V54.9913Z" fill="#ED2824"/>
<path d="M80.6915 54.9913H80.6416V83.3964H80.6915V54.9913Z" fill="#ED2824"/>
<path d="M80.741 54.9913H80.6912V83.3964H80.741V54.9913Z" fill="#ED2924"/>
<path d="M80.791 54.9913H80.7411V83.3964H80.791V54.9913Z" fill="#ED2A24"/>
<path d="M80.8401 54.9913H80.7903V83.3964H80.8401V54.9913Z" fill="#EE2A24"/>
<path d="M80.8903 54.9913H80.8405V83.3964H80.8903V54.9913Z" fill="#EE2B24"/>
<path d="M80.9395 54.9913H80.8896V83.3964H80.9395V54.9913Z" fill="#EE2B24"/>
<path d="M80.9893 54.9913H80.9395V83.3964H80.9893V54.9913Z" fill="#EE2C24"/>
<path d="M81.0397 54.9913H80.9899V83.3964H81.0397V54.9913Z" fill="#EE2D24"/>
<path d="M81.0888 54.9913H81.0389V83.3964H81.0888V54.9913Z" fill="#EE2D24"/>
<path d="M81.1389 54.9913H81.089V83.3964H81.1389V54.9913Z" fill="#EE2E24"/>
<path d="M81.1882 54.9913H81.1383V83.3964H81.1882V54.9913Z" fill="#EE2F24"/>
<path d="M81.238 54.9913H81.1881V83.3964H81.238V54.9913Z" fill="#EE2F24"/>
<path d="M81.2878 54.9913H81.2379V83.3964H81.2878V54.9913Z" fill="#EE3024"/>
<path d="M81.3373 54.9913H81.2875V83.3964H81.3373V54.9913Z" fill="#EE3124"/>
<path d="M81.3865 54.9913H81.3367V83.3964H81.3865V54.9913Z" fill="#EE3224"/>
<path d="M81.4369 54.9913H81.3871V83.3964H81.4369V54.9913Z" fill="#EE3225"/>
<path d="M81.486 54.9913H81.4362V83.3964H81.486V54.9913Z" fill="#EF3325"/>
<path d="M81.5361 54.9913H81.4862V83.3964H81.5361V54.9913Z" fill="#EF3425"/>
<path d="M81.586 54.9913H81.5361V83.3964H81.586V54.9913Z" fill="#EF3525"/>
<path d="M81.6352 54.9913H81.5853V83.3964H81.6352V54.9913Z" fill="#EF3525"/>
<path d="M81.6851 54.9913H81.6353V83.3964H81.6851V54.9913Z" fill="#EF3625"/>
<path d="M81.7346 54.9913H81.6847V83.3964H81.7346V54.9913Z" fill="#EF3725"/>
<path d="M81.7847 54.9913H81.7349V83.3964H81.7847V54.9913Z" fill="#EF3825"/>
<path d="M81.8343 54.9913H81.7844V83.3964H81.8343V54.9913Z" fill="#EF3925"/>
<path d="M81.8839 54.9913H81.834V83.3964H81.8839V54.9913Z" fill="#EF3925"/>
<path d="M81.9339 54.9913H81.884V83.3964H81.9339V54.9913Z" fill="#EF3A25"/>
<path d="M81.9835 54.9913H81.9336V83.3964H81.9835V54.9913Z" fill="#EF3B25"/>
<path d="M82.033 54.9913H81.9832V83.3964H82.033V54.9913Z" fill="#EF3C25"/>
<path d="M82.0829 54.9913H82.0331V83.3964H82.0829V54.9913Z" fill="#F03D25"/>
<path d="M82.1328 54.9913H82.0829V83.3964H82.1328V54.9913Z" fill="#F03E25"/>
<path d="M82.1823 54.9913H82.1324V83.3964H82.1823V54.9913Z" fill="#F03E25"/>
<path d="M82.2321 54.9913H82.1823V83.3964H82.2321V54.9913Z" fill="#F03F25"/>
<path d="M82.2819 54.9913H82.2321V83.3964H82.2819V54.9913Z" fill="#F04025"/>
<path d="M82.3317 54.9913H82.2819V83.3964H82.3317V54.9913Z" fill="#F04125"/>
<path d="M82.3813 54.9913H82.3314V83.3964H82.3813V54.9913Z" fill="#F04225"/>
<path d="M82.4315 54.9913H82.3816V83.3964H82.4315V54.9913Z" fill="#F04325"/>
<path d="M82.4808 54.9913H82.4309V83.3964H82.4808V54.9913Z" fill="#F04425"/>
<path d="M82.5306 54.9913H82.4807V83.3964H82.5306V54.9913Z" fill="#F04525"/>
<path d="M82.58 54.9913H82.5302V83.3964H82.58V54.9913Z" fill="#F14625"/>
<path d="M82.6299 54.9913H82.5801V83.3964H82.6299V54.9913Z" fill="#F14725"/>
<path d="M82.6799 54.9913H82.63V83.3964H82.6799V54.9913Z" fill="#F14825"/>
<path d="M82.7291 54.9913H82.6792V83.3964H82.7291V54.9913Z" fill="#F14925"/>
<path d="M82.7791 54.9913H82.7292V83.3964H82.7791V54.9913Z" fill="#F14A25"/>
<path d="M82.8287 54.9913H82.7788V83.3964H82.8287V54.9913Z" fill="#F14B25"/>
<path d="M82.8782 54.9913H82.8284V83.3964H82.8782V54.9913Z" fill="#F14C25"/>
<path d="M82.9278 54.9913H82.8779V83.3964H82.9278V54.9913Z" fill="#F14D25"/>
<path d="M82.9778 54.9913H82.928V83.3964H82.9778V54.9913Z" fill="#F14E25"/>
<path d="M83.0269 54.9913H82.9771V83.3964H83.0269V54.9913Z" fill="#F24F25"/>
<path d="M83.0771 54.9913H83.0272V83.3964H83.0771V54.9913Z" fill="#F25025"/>
<path d="M83.1263 54.9913H83.0764V83.3964H83.1263V54.9913Z" fill="#F25125"/>
<path d="M83.1761 54.9913H83.1262V83.3964H83.1761V54.9913Z" fill="#F25225"/>
<path d="M83.2265 54.9913H83.1766V83.3964H83.2265V54.9913Z" fill="#F25325"/>
<path d="M83.2755 54.9913H83.2256V83.3964H83.2755V54.9913Z" fill="#F25425"/>
<path d="M83.3256 54.9913H83.2758V83.3964H83.3256V54.9913Z" fill="#F25525"/>
<path d="M83.3751 54.9913H83.3252V83.3964H83.3751V54.9913Z" fill="#F25625"/>
<path d="M83.4247 54.9913H83.3749V83.3964H83.4247V54.9913Z" fill="#F25725"/>
<path d="M83.4748 54.9913H83.4249V83.3964H83.4748V54.9913Z" fill="#F35825"/>
<path d="M83.5241 54.9913H83.4742V83.3964H83.5241V54.9913Z" fill="#F35925"/>
<path d="M83.5739 54.9913H83.524V83.3964H83.5739V54.9913Z" fill="#F35A25"/>
<path d="M83.6239 54.9913H83.574V83.3964H83.6239V54.9913Z" fill="#F35C25"/>
<path d="M83.6733 54.9913H83.6234V83.3964H83.6733V54.9913Z" fill="#F35D25"/>
<path d="M83.7232 54.9913H83.6733V83.3964H83.7232V54.9913Z" fill="#F35E26"/>
<path d="M83.773 54.9913H83.7231V83.3964H83.773V54.9913Z" fill="#F35F26"/>
<path d="M83.8226 54.9913H83.7727V83.3964H83.8226V54.9913Z" fill="#F36026"/>
<path d="M83.8726 54.9913H83.8228V83.3964H83.8726V54.9913Z" fill="#F46126"/>
<path d="M83.9222 54.9913H83.8723V83.3964H83.9222V54.9913Z" fill="#F46226"/>
<path d="M83.972 54.9913H83.9221V83.3964H83.972V54.9913Z" fill="#F46426"/>
<path d="M84.0217 54.9913H83.9718V83.3964H84.0217V54.9913Z" fill="#F46526"/>
<path d="M84.0715 54.9913H84.0216V83.3964H84.0715V54.9913Z" fill="#F46626"/>
<path d="M84.121 54.9913H84.0712V83.3964H84.121V54.9913Z" fill="#F46726"/>
<path d="M84.1708 54.9913H84.121V83.3964H84.1708V54.9913Z" fill="#F46826"/>
<path d="M84.22 54.9913H84.1702V83.3964H84.22V54.9913Z" fill="#F46A26"/>
<path d="M84.2704 54.9913H84.2206V83.3964H84.2704V54.9913Z" fill="#F56B26"/>
<path d="M84.32 54.9913H84.2701V83.3964H84.32V54.9913Z" fill="#F56C26"/>
<path d="M84.3692 54.9913H84.3193V83.3964H84.3692V54.9913Z" fill="#F56D26"/>
<path d="M84.4195 54.9913H84.3696V83.3964H84.4195V54.9913Z" fill="#F56F26"/>
<path d="M84.4687 54.9913H84.4188V83.3964H84.4687V54.9913Z" fill="#F57026"/>
<path d="M84.5187 54.9913H84.4689V83.3964H84.5187V54.9913Z" fill="#F57126"/>
<path d="M84.568 54.9913H84.5182V83.3964H84.568V54.9913Z" fill="#F57226"/>
<path d="M84.6179 54.9913H84.568V83.3964H84.6179V54.9913Z" fill="#F67426"/>
<path d="M84.6677 54.9913H84.6178V83.3964H84.6677V54.9913Z" fill="#F67526"/>
<path d="M84.7172 54.9913H84.6674V83.3964H84.7172V54.9913Z" fill="#F67626"/>
<path d="M84.7668 54.9913H84.7169V83.3964H84.7668V54.9913Z" fill="#F67726"/>
<path d="M84.8167 54.9913H84.7668V83.3964H84.8167V54.9913Z" fill="#F67926"/>
<path d="M84.8665 54.9913H84.8167V83.3964H84.8665V54.9913Z" fill="#F67A26"/>
<path d="M84.916 54.9913H84.8661V83.3964H84.916V54.9913Z" fill="#F67B26"/>
<path d="M84.9659 54.9913H84.916V83.3964H84.9659V54.9913Z" fill="#F77D26"/>
<path d="M85.0152 54.9913H84.9653V83.3964H85.0152V54.9913Z" fill="#F77E26"/>
<path d="M85.065 54.9913H85.0151V83.3964H85.065V54.9913Z" fill="#F77F26"/>
<path d="M85.1146 54.9913H85.0647V83.3964H85.1146V54.9913Z" fill="#F78126"/>
<path d="M85.1646 54.9913H85.1147V83.3964H85.1646V54.9913Z" fill="#F78226"/>
<path d="M85.2142 54.9913H85.1643V83.3964H85.2142V54.9913Z" fill="#F78426"/>
<path d="M85.264 54.9913H85.2141V83.3964H85.264V54.9913Z" fill="#F78526"/>
<path d="M85.3138 54.9913H85.2639V83.3964H85.3138V54.9913Z" fill="#F88626"/>
<path d="M85.3635 54.9913H85.3136V83.3964H85.3635V54.9913Z" fill="#F88826"/>
<path d="M85.413 54.9913H85.3632V83.3964H85.413V54.9913Z" fill="#F88927"/>
<path d="M85.4628 54.9913H85.413V83.3964H85.4628V54.9913Z" fill="#F88A27"/>
<path d="M85.5129 54.9913H85.463V83.3964H85.5129V54.9913Z" fill="#F88C27"/>
<path d="M85.5624 54.9913H85.5126V83.3964H85.5624V54.9913Z" fill="#F88D27"/>
<path d="M85.612 54.9913H85.5621V83.3964H85.612V54.9913Z" fill="#F98F27"/>
<path d="M85.6618 54.9913H85.6119V83.3964H85.6618V54.9913Z" fill="#F99027"/>
<path d="M85.7115 54.9913H85.6616V83.3964H85.7115V54.9913Z" fill="#F99227"/>
<path d="M85.7613 54.9913H85.7114V83.3964H85.7613V54.9913Z" fill="#F99327"/>
<path d="M85.8113 54.9913H85.7615V83.3964H85.8113V54.9913Z" fill="#F99427"/>
<path d="M85.8607 54.9913H85.8108V83.3964H85.8607V54.9913Z" fill="#F99627"/>
<path d="M85.9105 54.9913H85.8606V83.3964H85.9105V54.9913Z" fill="#F99727"/>
<path d="M85.9604 54.9913H85.9105V83.3964H85.9604V54.9913Z" fill="#FA9927"/>
<path d="M86.0098 54.9913H85.96V83.3964H86.0098V54.9913Z" fill="#FA9A27"/>
<path d="M86.0597 54.9913H86.0099V83.3964H86.0597V54.9913Z" fill="#FA9C27"/>
<path d="M86.109 54.9913H86.0591V83.3964H86.109V54.9913Z" fill="#FA9D27"/>
<path d="M86.159 54.9913H86.1091V83.3964H86.159V54.9913Z" fill="#FA9F27"/>
<path d="M86.2085 54.9913H86.1587V83.3964H86.2085V54.9913Z" fill="#FAA027"/>
<path d="M86.2583 54.9913H86.2084V83.3964H86.2583V54.9913Z" fill="#FBA227"/>
<path d="M86.3079 54.9913H86.2581V83.3964H86.3079V54.9913Z" fill="#FBA327"/>
<path d="M86.3576 54.9913H86.3077V83.3964H86.3576V54.9913Z" fill="#FBA527"/>
<path d="M86.4068 54.9913H86.3569V83.3964H86.4068V54.9913Z" fill="#FBA627"/>
<path d="M86.457 54.9913H86.4071V83.3964H86.457V54.9913Z" fill="#FBA827"/>
<path d="M86.5068 54.9913H86.4569V83.3964H86.5068V54.9913Z" fill="#FBAA27"/>
<path d="M86.5563 54.9913H86.5065V83.3964H86.5563V54.9913Z" fill="#FCAB27"/>
<path d="M86.6064 54.9913H86.5565V83.3964H86.6064V54.9913Z" fill="#FCAD27"/>
<path d="M86.6555 54.9913H86.6056V83.3964H86.6555V54.9913Z" fill="#FCAE27"/>
<path d="M86.7055 54.9913H86.6556V83.3964H86.7055V54.9913Z" fill="#FCB027"/>
<path d="M86.7548 54.9913H86.705V83.3964H86.7548V54.9913Z" fill="#FCB127"/>
<path d="M86.8049 54.9913H86.755V83.3964H86.8049V54.9913Z" fill="#FCB327"/>
<path d="M86.8547 54.9913H86.8048V83.3964H86.8547V54.9913Z" fill="#FDB528"/>
<path d="M86.904 54.9913H86.8541V83.3964H86.904V54.9913Z" fill="#FDB628"/>
<path d="M86.9538 54.9913H86.9039V83.3964H86.9538V54.9913Z" fill="#FDB828"/>
<path d="M87.0037 54.9913H86.9539V83.3964H87.0037V54.9913Z" fill="#FDB928"/>
<path d="M87.0535 54.9913H87.0037V83.3964H87.0535V54.9913Z" fill="#FDBB28"/>
<path d="M87.1033 54.9913H87.0535V83.3964H87.1033V54.9913Z" fill="#FEBD28"/>
<path d="M87.1529 54.9913H87.103V83.3964H87.1529V54.9913Z" fill="#FEBE28"/>
<path d="M87.2024 54.9913H87.1526V83.3964H87.2024V54.9913Z" fill="#FEC028"/>
<path d="M87.2524 54.9913H87.2025V83.3964H87.2524V54.9913Z" fill="#FEC228"/>
<path d="M87.3022 54.9913H87.2523V83.3964H87.3022V54.9913Z" fill="#FEC328"/>
<path d="M87.3517 54.9913H87.3019V83.3964H87.3517V54.9913Z" fill="#FEC528"/>
<path d="M87.4015 54.9913H87.3517V83.3964H87.4015V54.9913Z" fill="#FFC728"/>
<path d="M87.4514 54.9913H87.4015V83.3964H87.4514V54.9913Z" fill="#FFC828"/>
<path d="M87.5012 54.9913H87.4513V83.3964H87.5012V54.9913Z" fill="#FFCA28"/>
<path d="M88.351 54.9913H87.5009V83.3964H88.351V54.9913Z" fill="#FFCA28"/>
<path d="M83.1741 83.493C83.1267 83.493 83.0852 83.4582 83.0786 83.4097C82.2554 77.5931 79.5452 74.3216 77.1541 71.4351C75.1935 69.0686 73.5002 67.0248 73.0791 64.0466C72.137 57.3878 79.0539 54.9237 79.1238 54.8998C79.1353 54.8956 79.1487 54.8939 79.1603 54.8946C79.234 54.8981 86.5632 55.3465 87.5054 62.0056C87.9268 64.9838 86.8669 67.417 85.64 70.2344C84.1433 73.6709 82.4472 77.5657 83.27 83.3823C83.2707 83.3869 83.271 83.3915 83.271 83.396C83.271 83.4434 83.2362 83.4849 83.1878 83.4919C83.1832 83.4926 83.1787 83.493 83.1741 83.493ZM79.1691 55.0895C78.7817 55.231 72.374 57.6846 73.2702 64.0199C73.6839 66.9437 75.361 68.9681 77.3026 71.3121C79.4145 73.8616 81.7736 76.7092 82.8819 81.3329C82.6638 76.5835 84.1405 73.193 85.4623 70.1579C86.6777 67.3672 87.7273 64.9571 87.3136 62.0334C86.4174 55.6973 79.5799 55.1179 79.1691 55.0895Z" fill="#390075"/>
<g opacity="0.6">
<path opacity="0.6" d="M87.6044 62.0192C86.6626 55.3622 79.3505 54.9913 79.3505 54.9913C79.3505 54.9913 79.3438 54.9938 79.3312 54.9984C81.4901 55.4636 85.5502 56.9772 86.2356 61.8239C87.0085 67.2856 82.6633 71.1098 81.8981 78.104C82.5572 79.6161 83.0794 81.348 83.3691 83.3964C81.8841 72.899 88.5462 68.6762 87.6044 62.0192Z" fill="white"/>
</g>
<path d="M81.7154 72.8267C80.8508 66.7154 75.51 65.5611 74.9618 61.6857C74.4137 57.8102 79.3756 56.2897 79.3756 56.2897C79.3756 56.2897 84.5647 56.3736 85.1132 60.2494C85.6613 64.1248 80.8508 66.715 81.7154 72.8267Z" fill="#FFD553"/>
<path d="M83.1728 83.9557C82.8985 83.9557 82.6594 83.7541 82.6197 83.4746C81.8148 77.7875 79.1491 74.5695 76.797 71.7303C74.8751 69.4106 73.0596 67.2193 72.62 64.1115C71.6251 57.0791 78.8984 54.4879 78.9722 54.4626C79.0396 54.4394 79.1109 54.4286 79.1825 54.4328C79.2605 54.4366 86.9671 54.9086 87.9623 61.941C88.402 65.0488 87.266 67.6576 86.0629 70.4194C84.5908 73.7994 82.9224 77.6309 83.7269 83.318C83.7308 83.3447 83.7325 83.371 83.7325 83.397C83.7325 83.6713 83.531 83.9104 83.2514 83.9501C83.2255 83.9539 83.1991 83.9557 83.1728 83.9557ZM79.2345 55.5575C78.3819 55.8813 72.9125 58.1948 73.7275 63.9549C74.1229 66.7495 75.7615 68.7268 77.6585 71.0168C79.362 73.0728 81.2231 75.3196 82.4835 78.5194C82.8065 75.0952 83.9717 72.4204 85.0378 69.9724C86.2251 67.2463 87.2505 64.8918 86.8551 62.0972C86.0404 56.3385 80.1461 55.6323 79.2345 55.5575Z" fill="#371A45"/>
<path d="M71.5092 53.5014L72.3685 55.7671C72.7572 56.7922 73.6772 57.5208 74.7641 57.6648C78.0004 58.0929 81.2919 57.6272 84.2824 56.3181C85.2867 55.8784 85.9683 54.9229 86.0575 53.8305L86.2545 51.4152L71.5092 53.5014Z" fill="#00ABFC"/>
<g opacity="0.35">
<path opacity="0.35" d="M73.0735 53.5015L73.9328 55.7671C74.3215 56.7922 75.2416 57.5208 76.3284 57.6648C76.8527 57.734 77.3784 57.7775 77.9037 57.8C77.4047 57.8221 76.9047 57.8225 76.4043 57.8032C79.1019 57.9096 81.796 57.4064 84.2823 56.3181C85.2866 55.8785 85.9682 54.9233 86.0574 53.8305L86.2361 51.6393L73.0735 53.5015Z" fill="#371A45"/>
</g>
<path d="M76.3882 57.818C77.8999 57.6597 79.3896 57.3096 80.8202 56.7716C81.1159 56.6602 81.4088 56.5419 81.6985 56.4148C82.201 56.1949 82.6231 55.8459 82.9307 55.4164C83.2366 54.9862 83.4304 54.4735 83.4743 53.9278L83.6559 51.7L85.6677 51.4152L85.4696 53.8298C85.425 54.3773 85.2336 54.8889 84.926 55.3184C84.6188 55.749 84.1984 56.0977 83.6955 56.3175C83.4058 56.4446 83.113 56.5633 82.8187 56.6739C80.7598 57.4483 78.5801 57.8339 76.3882 57.818Z" fill="#00ABFC"/>
<g opacity="0.6">
<g opacity="0.6">
<path opacity="0.6" d="M79.8794 57.0942C78.7409 57.4513 77.5719 57.6943 76.3888 57.8183C76.668 57.8204 76.9471 57.8154 77.2256 57.8046C78.125 57.6364 79.0123 57.3994 79.8794 57.0942Z" fill="white"/>
</g>
<g opacity="0.6">
<path opacity="0.6" d="M83.6558 51.7L83.6464 51.8137L85.0805 51.6108L84.8824 54.0254C84.8375 54.5728 84.6465 55.0845 84.3388 55.514C84.0316 55.9445 83.6112 56.2932 83.1084 56.513C82.8187 56.6401 82.5258 56.7588 82.2315 56.8694C82.1047 56.9172 81.9762 56.9586 81.8488 57.0036C82.1743 56.9021 82.498 56.7943 82.8183 56.6742C83.1126 56.5636 83.4058 56.4449 83.6952 56.3178C84.1977 56.0979 84.6184 55.7492 84.9256 55.3187C85.2333 54.8892 85.4246 54.3776 85.4692 53.8301L85.6673 51.4155L83.6558 51.7Z" fill="white"/>
</g>
</g>
<path d="M91.1637 56.0584C90.3781 55.1134 86.7225 50.6428 83.6337 51.2001L85.1732 45.6569C85.327 45.6499 85.4889 45.6513 85.6564 45.6618L85.6571 45.6615C88.0601 45.816 91.7203 47.9107 91.3912 55.808C91.3891 55.8667 91.3863 55.9257 91.3835 55.9854C91.3782 56.0978 91.236 56.1452 91.1637 56.0584Z" fill="#ED1B24"/>
<g opacity="0.3">
<path opacity="0.3" d="M91.1637 56.0584C90.3781 55.1134 86.7225 50.6427 83.6337 51.2L85.1732 45.6569C85.327 45.6499 85.4889 45.6513 85.6564 45.6618L85.4281 45.6288C85.6602 45.9803 85.9408 46.5597 85.9689 47.149C86.0718 49.3153 86.2839 50.4285 87.5446 51.3005C89.1252 52.3933 90.9603 54.6197 91.3909 55.808C91.3888 55.8667 91.3859 55.9257 91.3831 55.9854C91.3782 56.0977 91.236 56.1451 91.1637 56.0584Z" fill="#293856"/>
</g>
<g opacity="0.6">
<path opacity="0.6" d="M90.8938 55.7359C91.0978 55.9684 91.0072 55.8711 91.1632 56.0586C91.2358 56.1457 91.377 56.0983 91.383 55.9853C91.8019 47.3825 87.5437 45.5505 85.1727 45.6569L85.0062 46.257C87.2607 46.5801 90.8201 49.2096 90.8938 55.7359Z" fill="white"/>
</g>
<path d="M91.2571 56.6909C91.0503 56.6909 90.8512 56.6003 90.7132 56.4342L90.6756 56.3893C86.9937 51.9526 84.7476 51.5955 83.7381 51.7777C83.4196 51.8357 83.114 51.6232 83.0568 51.3044C82.9992 50.9855 83.211 50.6804 83.5302 50.6228C85.5894 50.2516 88.0401 51.6443 90.8255 54.7637C90.8118 51.5418 90.0544 49.0959 88.6115 47.6473C87.2711 46.3017 85.778 46.2174 85.2003 46.243C84.873 46.2571 84.6023 46.007 84.5879 45.6833C84.5731 45.3595 84.8238 45.0852 85.1476 45.0708C85.8851 45.0378 87.7725 45.1425 89.4427 46.8193C91.3249 48.7086 92.175 51.802 91.9703 56.0139C91.9559 56.3088 91.7656 56.5599 91.485 56.6537C91.4095 56.6786 91.333 56.6909 91.2571 56.6909Z" fill="#371A45"/>
<path d="M70.4832 47.7355C68.176 48.291 64.4617 51.2513 67.2507 59.3998C67.2872 59.5065 67.4371 59.5132 67.4824 59.4096C67.9748 58.2834 70.3862 52.9548 73.5085 52.6325" fill="#ED1B24"/>
<g opacity="0.35">
<path opacity="0.35" d="M69.5875 55.6087C70.6238 54.1489 71.9659 52.8102 73.4748 52.6368C73.4798 52.6255 73.4854 52.6143 73.4899 52.603L70.4833 47.7355C69.8358 47.8914 69.0769 48.2366 68.383 48.8339C68.0505 50.5922 68.2819 52.8394 69.5875 55.6087Z" fill="#371A45"/>
</g>
<path d="M67.369 60.0704C67.3588 60.0704 67.3486 60.07 67.3384 60.0697C67.0431 60.0574 66.7902 59.8688 66.6947 59.5893C65.3462 55.6496 65.3164 52.4621 66.6055 50.1156C67.7774 47.983 69.6112 47.3414 70.3451 47.1648C70.6608 47.0889 70.9769 47.2827 71.0531 47.5977C71.1289 47.9127 70.9351 48.2298 70.6201 48.3053C70.1657 48.4149 68.6072 48.9093 67.6345 50.6802C66.6459 52.48 66.5866 55.0227 67.4529 58.0828C68.5847 55.796 70.7317 52.3286 73.448 52.0484C73.77 52.0136 74.0583 52.2496 74.0917 52.5716C74.1251 52.894 73.8905 53.1823 73.5681 53.2153C70.907 53.4899 68.6483 58.205 68.0197 59.6437C67.9052 59.9057 67.6524 60.0704 67.369 60.0704ZM67.8055 59.2097H67.8072H67.8055Z" fill="#371A45"/>
<path d="M83.6127 52.6189C79.7668 54.0654 75.5637 54.3846 71.5092 53.5007C71.5092 53.5007 63.1034 46.0332 61.8793 29.0173C60.4423 9.04104 71.4941 0.239502 71.4941 0.239502C71.4941 0.239502 82.6031 4.82639 87.5931 20.9089C88.0142 22.263 88.3906 23.6996 88.7133 25.2209C89.7984 30.3327 89.9888 34.7704 89.7296 38.4671C89.1428 46.8405 86.2549 51.4151 86.2549 51.4151C85.398 51.8776 84.5155 52.2794 83.6127 52.6189Z" fill="white"/>
<g opacity="0.35">
<path opacity="0.35" d="M80.0094 49.2943C79.9897 49.2957 79.9704 49.2967 79.9508 49.2978C76.2597 49.5141 72.7369 47.6887 70.7423 44.575C68.2599 40.7002 65.3337 33.8437 65.0556 24.0923C64.9797 21.4308 67.0828 17.9567 69.9634 16.4239C76.0627 13.1781 82.8752 13.8896 82.7274 12.6826C82.4995 10.8204 65.1525 12.4786 65.5033 11.0244C63.7493 15.5098 62.5093 21.4645 63.0522 29.017C64.276 46.0333 72.6817 53.5019 72.6817 53.5019C73.9979 53.7885 75.3298 53.9451 76.6604 53.9805C79.0318 53.9145 81.3817 53.4577 83.6116 52.6187C84.5144 52.2792 85.3969 51.8774 86.2537 51.4149C86.2537 51.4149 87.1769 49.9513 88.0857 47.1666C85.5447 48.4051 82.799 49.1229 80.0094 49.2943Z" fill="#371A45"/>
</g>
<path d="M62.8073 15.9625C69.6444 13.4583 76.936 12.4266 84.2008 12.9355C78.7806 3.24757 71.4929 0.239502 71.4929 0.239502C71.4929 0.239502 65.3272 5.15123 62.8073 15.9625Z" fill="#ED1B24"/>
<g opacity="0.6">
<path opacity="0.6" d="M71.4928 0.239502C71.4928 0.239502 70.3122 1.17992 68.7731 3.14362C69.8065 1.97846 70.5148 1.41274 70.5148 1.41274C70.5148 1.41274 77.161 4.16129 82.4804 12.847C83.0538 12.868 83.6273 12.8951 84.2007 12.9351C78.7805 3.24757 71.4928 0.239502 71.4928 0.239502Z" fill="white"/>
</g>
<g opacity="0.35">
<path opacity="0.35" d="M83.9011 12.4109C78.7162 11.5298 74.8678 11.0297 70.3792 11.6197C68.5268 11.863 67.0804 10.0342 67.7743 8.29943C68.7108 5.95858 69.7872 3.91551 70.8336 2.26855C68.8748 4.50336 65.8274 8.83004 64.145 15.4941C70.5917 13.3309 77.4077 12.459 84.2014 12.9358C84.1027 12.7589 84.0026 12.5833 83.9011 12.4109Z" fill="#371A45"/>
</g>
<path d="M62.8077 16.6469C62.643 16.6469 62.4811 16.5876 62.354 16.4748C62.1658 16.3084 62.0839 16.0517 62.1408 15.8069C63.995 7.85273 67.7637 3.02669 69.845 0.857906C70.7356 -0.0698679 72.135 -0.268275 73.2482 0.376109C75.8503 1.88225 80.8105 5.47324 84.7987 12.6008C84.9216 12.8203 84.9138 13.0893 84.7793 13.3017C84.6445 13.5142 84.4046 13.635 84.1536 13.6178C76.9364 13.1121 69.8345 14.1171 63.0433 16.6048C62.9661 16.6332 62.8864 16.6469 62.8077 16.6469ZM71.8526 1.3699C71.4776 1.3699 71.1071 1.5195 70.8325 1.80605C68.9566 3.76062 65.6416 7.98582 63.7815 14.8932C69.983 12.789 76.4244 11.8778 82.9684 12.1787C79.265 6.05863 74.9071 2.91888 72.562 1.56129C72.3401 1.43241 72.0953 1.3699 71.8526 1.3699Z" fill="#371A45"/>
<path d="M76.0625 54.6776C74.4879 54.6776 72.9168 54.5087 71.3643 54.1709C71.2495 54.1459 71.1431 54.0918 71.0553 54.0139C70.9661 53.9345 68.8419 52.0242 66.5572 47.9774C64.4654 44.2719 61.8376 37.9836 61.1964 29.0676C60.86 24.3926 61.1774 19.931 62.1393 15.8073C62.1937 15.5741 62.3651 15.3887 62.588 15.3139C69.5565 12.7645 76.8446 11.7338 84.2485 12.2528C84.4785 12.269 84.6854 12.4 84.7977 12.6012C86.8657 16.2961 88.4084 20.4943 89.3825 25.0794C91.2398 33.8234 90.4599 40.5938 89.4787 44.734C88.407 49.2556 86.8966 51.6804 86.8327 51.7812C86.7699 51.8806 86.6828 51.962 86.5795 52.0179C84.2654 53.2687 81.7711 54.0897 79.1654 54.4585C78.133 54.6045 77.0967 54.6776 76.0625 54.6776ZM71.8398 52.8726C74.1933 53.3625 76.5928 53.4401 78.9737 53.103C81.3556 52.7658 83.6385 52.0259 85.7624 50.9026C86.0921 50.3242 87.2917 48.0613 88.1636 44.3471C89.1005 40.3557 89.8401 33.8223 88.0435 25.3639C87.1266 21.0474 85.6935 17.0894 83.7829 13.5936C76.8158 13.1546 69.9604 14.1252 63.3901 16.4791C62.5241 20.3682 62.2453 24.5681 62.5617 28.9693C63.1822 37.5942 65.7057 43.6658 67.7133 47.2406C69.5815 50.5662 71.3615 52.4073 71.8398 52.8726Z" fill="#371A45"/>
<path d="M77.1091 58.5038C76.2975 58.5038 75.4843 58.4505 74.6741 58.3434C73.3355 58.1664 72.2069 57.272 71.7282 56.0099L70.8693 53.7442C70.7351 53.3909 70.9132 52.9955 71.2664 52.8617C71.6208 52.7279 72.0151 52.9056 72.1489 53.2592L73.0079 55.5249C73.3077 56.3154 74.015 56.8759 74.8532 56.9865C77.9656 57.398 81.1309 56.95 84.0073 55.6914C84.782 55.3522 85.3059 54.6182 85.3747 53.7751L85.5717 51.3598C85.6027 50.9833 85.9313 50.7031 86.3095 50.7333C86.6863 50.7639 86.9669 51.0943 86.9364 51.4711L86.7394 53.8864C86.6295 55.2321 85.793 56.4042 84.5565 56.9454C82.2002 57.9764 79.6638 58.5038 77.1091 58.5038Z" fill="#371A45"/>
<path d="M76.2335 52.2067C76.6483 55.1315 79.3711 57.6845 79.3711 57.6845C79.3711 57.6845 79.3785 57.6722 79.3908 57.6497C79.5941 57.2957 81.254 54.2989 80.8667 51.5521C80.4945 48.9159 78.2885 47.0677 77.8812 46.7468C77.8394 46.7141 77.8166 46.6973 77.8166 46.6973C77.8166 46.6973 75.8209 49.3018 76.2335 52.2067Z" fill="#ED1B24"/>
<g opacity="0.6">
<path opacity="0.6" d="M78.9795 57.6841C78.9795 57.6841 78.8637 57.5756 78.6768 57.3779C79.278 55.9838 80.0053 53.7683 79.7103 51.6778C79.4185 49.6105 78.1554 47.9611 77.2206 46.9919C77.3452 46.8016 77.425 46.6973 77.425 46.6973C77.425 46.6973 77.4474 46.7138 77.4892 46.7464C77.8969 47.0674 80.1029 48.9159 80.4748 51.5517C80.8618 54.2985 79.2022 57.2961 78.9989 57.6497C78.9873 57.6718 78.9795 57.6841 78.9795 57.6841Z" fill="white"/>
</g>
<g opacity="0.3">
<path opacity="0.3" d="M76.2335 52.2067C76.6483 55.1315 79.3711 57.6845 79.3711 57.6845C79.3711 57.6845 79.3784 57.6722 79.3907 57.6497L77.8811 46.7468C77.8394 46.7141 77.8165 46.6973 77.8165 46.6973C77.8165 46.6973 75.8209 49.3018 76.2335 52.2067Z" fill="#6B184E"/>
</g>
<path d="M79.3713 58.2715C79.2235 58.2715 79.0795 58.2153 78.9699 58.1127C78.8526 58.0028 76.0911 55.3831 75.6525 52.2897C75.211 49.176 77.2633 46.4552 77.3511 46.3407C77.5456 46.0864 77.908 46.0355 78.1651 46.2255C78.2809 46.3108 81.0077 48.3557 81.4474 51.4698C81.8843 54.5635 79.9578 57.8466 79.8756 57.9846C79.7846 58.1373 79.6294 58.2406 79.4535 58.2655C79.4257 58.2697 79.3983 58.2715 79.3713 58.2715ZM77.9414 47.5736C77.4283 48.4284 76.5448 50.2267 76.8141 52.125C77.0842 54.0298 78.4516 55.807 79.2294 56.6846C79.7334 55.6254 80.554 53.5388 80.285 51.6338C80.0164 49.7277 78.6714 48.25 77.9414 47.5736Z" fill="#371A45"/>
<g opacity="0.35">
<path opacity="0.35" d="M79.5751 30.2427C82.5777 27.2401 82.5777 22.372 79.5751 19.3694C76.5725 16.3668 71.7043 16.3668 68.7017 19.3694C65.6991 22.372 65.6991 27.2401 68.7017 30.2427C71.7043 33.2453 76.5725 33.2453 79.5751 30.2427Z" fill="#371A45"/>
</g>
<path d="M74.8818 31.103C78.7005 31.103 81.7962 28.0073 81.7962 24.1886C81.7962 20.3699 78.7005 17.2742 74.8818 17.2742C71.0631 17.2742 67.9674 20.3699 67.9674 24.1886C67.9674 28.0073 71.0631 31.103 74.8818 31.103Z" fill="#00ABFC"/>
<g opacity="0.6">
<path opacity="0.6" d="M81.7278 23.22C81.193 19.439 77.694 16.8078 73.9131 17.3426C72.1724 17.5891 70.6764 18.4642 69.6201 19.7052C70.5841 18.8835 71.784 18.3153 73.131 18.1246C76.912 17.5898 80.4106 20.2211 80.9457 24.002C81.2344 26.0423 80.5998 27.9993 79.3613 29.4539C81.1031 27.9695 82.0719 25.6539 81.7278 23.22Z" fill="white"/>
</g>
<g opacity="0.35">
<path opacity="0.35" d="M67.8405 25.3532C68.3757 29.1331 71.8729 31.7657 75.6543 31.2306C76.8433 31.062 77.9186 30.6002 78.8175 29.9285C78.3403 30.1107 77.8364 30.2431 77.3082 30.3183C73.5269 30.8534 70.0283 28.2222 69.4931 24.4409C69.1265 21.8486 70.2499 19.3883 72.21 17.9275C69.2652 19.053 67.3802 22.0982 67.8405 25.3532Z" fill="#371A45"/>
</g>
<path d="M74.8664 31.5932C73.2725 31.5932 71.7284 31.0801 70.4323 30.105C68.8521 28.9163 67.8288 27.1836 67.5521 25.2255C67.275 23.2675 67.7772 21.3188 68.9655 19.7386C70.1542 18.1584 71.8871 17.1354 73.8452 16.8584C75.8019 16.582 77.7515 17.0831 79.3321 18.2722C80.9123 19.4608 81.9356 21.1935 82.2123 23.1516C82.4893 25.1097 81.9872 27.0583 80.7989 28.6385C79.6105 30.2187 77.8776 31.2417 75.9195 31.5187C75.5673 31.5686 75.2154 31.5932 74.8664 31.5932ZM74.8955 17.7619C74.5925 17.7619 74.2873 17.7833 73.9818 17.8265C72.2825 18.0671 70.7785 18.9548 69.7468 20.3265C68.7151 21.6981 68.2793 23.3893 68.5199 25.0886C68.9732 28.2926 71.7305 30.6141 74.8776 30.6145C75.1761 30.6145 75.4777 30.5934 75.7822 30.5506C79.2899 30.0544 81.74 26.7966 81.2438 23.2885C81.0032 21.5892 80.1155 20.0852 78.7439 19.0535C77.6188 18.2072 76.2787 17.7619 74.8955 17.7619Z" fill="#371A45"/>
<path d="M78.0613 27.2061C79.7791 25.4883 79.7791 22.7033 78.0613 20.9855C76.3435 19.2678 73.5584 19.2678 71.8407 20.9855C70.1229 22.7033 70.1229 25.4883 71.8407 27.2061C73.5584 28.9239 76.3435 28.9239 78.0613 27.2061Z" fill="#00CDE2"/>
<g opacity="0.3">
<g opacity="0.3">
<path opacity="0.3" d="M70.5958 24.7121C70.9361 27.1175 73.1621 28.7912 75.5678 28.4505C76.0886 28.3775 76.576 28.2149 77.015 27.9807C76.9669 27.9895 76.9188 27.9968 76.8692 28.0042C74.4638 28.3445 72.2375 26.6712 71.8972 24.2658C71.63 22.3811 72.5999 20.6074 74.1889 19.7635C71.8624 20.1712 70.2629 22.3562 70.5958 24.7121Z" fill="white"/>
</g>
</g>
<g opacity="0.35">
<path opacity="0.35" d="M72.5576 20.3418C72.6317 20.3285 72.7062 20.3151 72.782 20.3046C75.1876 19.9643 77.414 21.6376 77.7543 24.0431C78.011 25.8533 77.1257 27.5631 75.6462 28.4414C77.9309 27.9982 79.4905 25.8365 79.1608 23.5065C78.8205 21.1024 76.5958 19.4274 74.1899 19.7677C73.5946 19.853 73.0433 20.0517 72.5576 20.3418Z" fill="#371A45"/>
</g>
<path d="M74.9486 28.9835C72.5543 28.9835 70.4571 27.2175 70.1123 24.7801C69.9293 23.4874 70.2608 22.2008 71.0453 21.1575C71.8302 20.1142 72.9743 19.4389 74.267 19.2559C76.9338 18.8791 79.4137 20.7424 79.7909 23.4109C79.9738 24.7035 79.6423 25.9902 78.8578 27.0335C78.073 28.0768 76.9288 28.7521 75.6362 28.935C75.4055 28.9677 75.1758 28.9835 74.9486 28.9835ZM74.9546 20.1851C74.773 20.1851 74.5893 20.1978 74.4043 20.2241C73.3704 20.3705 72.4549 20.9106 71.8274 21.7453C71.1998 22.58 70.9347 23.609 71.0808 24.6431C71.3828 26.7775 73.3638 28.2696 75.4999 27.9665C76.5338 27.8204 77.4493 27.28 78.0768 26.4453C78.7044 25.6106 78.9695 24.5817 78.8234 23.5475C78.5474 21.5982 76.8695 20.1851 74.9546 20.1851Z" fill="#371A45"/>
<g opacity="0.35">
<path opacity="0.35" d="M75.5092 62.9663C75.2967 61.353 76.4384 59.8911 78.0456 59.639C82.1167 58.9999 84.1471 57.0941 84.1471 57.0941H82.6849L76.6722 57.7266C76.6786 57.7171 76.6845 57.7072 76.6908 57.6978L75.2317 57.5752L76.0889 57.6472C74.7787 59.0782 73.7512 61.1371 74.1526 63.9734C74.9434 69.5615 80.4058 72.0161 83.0181 78.8694C83.1007 77.8257 83.264 76.8516 83.4813 75.933C80.6818 70.5489 76.2294 68.0578 75.5218 63.0551C75.5172 63.0256 75.513 62.9958 75.5092 62.9663Z" fill="#371A45"/>
</g>
</svg>
