<svg width="136" height="52" viewBox="0 0 136 52" fill="none" xmlns="http://www.w3.org/2000/svg">
<path d="M71.734 14.6H64.892V30H71.932C75.452 30 77.63 28.394 77.63 25.754C77.63 23.708 76.398 22.234 74.352 21.86C76.024 21.442 77.036 20.144 77.036 18.45C77.036 16.074 75.012 14.6 71.734 14.6ZM71.58 20.892H67.84V17.152H71.58C73.098 17.13 74.022 17.812 74.022 18.978C74.022 20.188 73.098 20.892 71.58 20.892ZM71.58 27.448H67.84V23.378H71.58C73.45 23.356 74.572 24.126 74.572 25.38C74.572 26.7 73.45 27.47 71.58 27.448ZM88.3657 18.23V24.038C88.3657 25.93 87.2657 27.382 85.4177 27.404C83.8337 27.404 82.8877 26.414 82.8877 24.764V18.23H80.0057V25.6C80.0057 28.372 81.6337 30.11 84.2737 30.11C86.1437 30.11 87.5517 29.384 88.3657 27.822V30H91.2477V18.23H88.3657ZM99.8552 31.474L105.135 18.23H102.253L99.1952 26.788L95.8512 18.23H92.8812L97.7432 29.802L97.3912 30.572C97.0172 31.386 96.4232 31.76 95.6752 31.76C95.1472 31.76 94.7072 31.584 94.1572 31.166L92.9252 33.344C93.8272 34.07 94.7072 34.4 95.8512 34.4C97.7212 34.4 99.1072 33.432 99.8552 31.474ZM114 18.12C112.064 18.142 110.59 18.868 109.754 20.474V13.676H106.894V30H109.754V24.214C109.754 22.278 110.92 20.848 112.856 20.826C114.484 20.826 115.474 21.838 115.474 23.488V30H118.356V22.652C118.356 19.858 116.706 18.12 114 18.12ZM122.995 13.28C122.093 13.28 121.455 13.94 121.455 14.864C121.455 15.788 122.093 16.448 122.995 16.448C123.897 16.448 124.535 15.788 124.535 14.864C124.535 13.94 123.897 13.28 122.995 13.28ZM121.565 18.23V30H124.425V18.23H121.565ZM134.194 27.118C133.556 27.426 133.006 27.602 132.522 27.602C131.752 27.602 131.29 27.228 131.29 26.106V20.804H134.656V18.714H131.29V15.48H128.452V18.714H126.78L126.802 20.804H128.452V26.612C128.452 29.032 129.992 30.132 131.906 30.132C132.94 30.132 133.952 29.824 134.854 29.274L134.194 27.118Z" fill="#222222"/>
<path fill-rule="evenodd" clip-rule="evenodd" d="M20.0474 22.9877V38.22H27.48V20.9653C27.7071 14.5024 25.7354 10.5096 21.5686 8.99229C15.9932 7.02371 11.3206 8.26243 7.48985 12.6453V3.76629C7.48985 1.29257 6.25108 0 3.77354 0H0V38.22H7.48985V22.9877C7.48985 18.4377 9.40431 14.7271 13.8535 14.7271C18.1329 14.7271 20.0474 17.9864 20.0474 22.9877ZM28.5877 18.824C29.5643 16.6251 31.3311 15.5331 33.9231 15.5331C38.2025 15.5331 40.3422 18.512 40.3422 24.5273C40.1742 30.2603 38.0898 33.1259 34.0338 33.1259C31.3994 33.1259 29.5975 31.9187 28.5969 29.497V36.4947C30.4523 38.7214 32.9612 39.8153 36.1182 39.8153C44.0566 39.5349 48 34.3089 48 24.1911C48 14.1849 43.3809 9.18357 34.1465 9.18357C30.7735 9.18357 28.0172 9.80571 25.8665 11.0556C27.5151 12.8106 28.4215 15.4013 28.5858 18.8259V18.824H28.5877ZM27.48 39.3343H20.1822V52H23.9538C26.4314 52 27.6702 50.7631 27.6702 48.2913V39.3343H27.48Z" fill="#A36D3C"/>
</svg>
